<?xml version="1.0" encoding="UTF-8"?>
<svg version="1.1" xmlns="http://www.w3.org/2000/svg" width="512" height="512">
<path d="M0 0 C1.65118332 -0.00786278 1.65118332 -0.00786278 3.33572388 -0.0158844 C5.63982302 -0.02225587 7.9439549 -0.02103162 10.24804688 -0.01245117 C13.77011356 -0.0038763 17.29059022 -0.03287637 20.8125 -0.06445312 C23.06249952 -0.06606385 25.31250189 -0.06549007 27.5625 -0.0625 C28.60945038 -0.07373398 29.65640076 -0.08496796 30.7350769 -0.09654236 C36.78681263 -0.03872323 40.26813471 0.41571316 44.8828125 4.43359375 C48.51114913 8.25289547 49.19281708 11.31638381 49.3828125 16.43359375 C49.19281708 21.55080369 48.51114913 24.61429203 44.8828125 28.43359375 C40.14464603 32.27091273 36.37700674 33.0120897 30.44140625 32.97265625 C29.63727798 32.98444916 28.83314972 32.99624207 28.00465393 33.00839233 C25.44300969 33.04350904 22.88217696 33.05279494 20.3203125 33.05859375 C0.06117065 33.19043619 -17.71710924 33.46490634 -33.05859375 48.3125 C-44.28391237 60.31365058 -46.27806907 74.77208431 -46.25090027 90.53973389 C-46.2542986 92.00758894 -46.2542986 92.00758894 -46.25776559 93.50509763 C-46.2640638 96.76350178 -46.26327892 100.02186389 -46.26245117 103.28027344 C-46.26544527 105.62501072 -46.26884838 107.9697475 -46.27262878 110.31448364 C-46.28144746 116.66999541 -46.283806 123.02549371 -46.28444457 129.38101101 C-46.28527586 134.02345709 -46.28817756 138.66590019 -46.29128105 143.30834521 C-46.29957815 155.80253475 -46.30332427 168.29671718 -46.30261131 180.79090938 C-46.30255138 181.85347174 -46.30255138 181.85347174 -46.30249023 182.9375 C-46.30242891 184.00137199 -46.30242891 184.00137199 -46.30236635 185.08673635 C-46.30196011 196.57487997 -46.31152629 208.06299077 -46.3256286 219.5511249 C-46.34002183 231.37027463 -46.34689717 243.18940839 -46.34603482 255.00856709 C-46.34570387 261.63478012 -46.3486031 268.26096291 -46.35921288 274.88716888 C-46.36892377 281.12196516 -46.36895253 287.35668899 -46.36169624 293.59148788 C-46.36065412 295.87264233 -46.36299105 298.15380135 -46.3690567 300.43494797 C-46.4200392 320.94553474 -46.2961701 338.81622503 -31.23828125 354.375 C-19.03328954 365.79098215 -4.37633679 367.58842082 11.62329102 367.57403564 C12.67002015 367.57700677 13.71674929 367.57997789 14.79519749 367.58303905 C18.28404614 367.59167407 21.77286028 367.59322984 25.26171875 367.59472656 C27.77057976 367.59935823 30.27944006 367.60438336 32.78829956 367.60977173 C39.58980715 367.6228597 46.39130347 367.62937024 53.1928215 367.63378239 C57.4435005 367.63655235 61.69417726 367.64079088 65.94485474 367.64528656 C77.72671872 367.65746863 89.50858091 367.66777224 101.29045105 367.67116165 C102.41939355 367.671491 102.41939355 367.671491 103.57114297 367.671827 C104.32549762 367.67204528 105.07985227 367.67226356 105.85706615 367.67248845 C107.38550504 367.67293191 108.91394393 367.67337847 110.44238281 367.67382812 C111.20052989 367.67404955 111.95867696 367.67427098 112.73979819 367.67449912 C125.0325066 367.67844971 137.32515583 367.69591641 149.61784136 367.71918765 C162.25510078 367.74291728 174.89233049 367.75536412 187.52961254 367.75652957 C194.61849893 367.75744506 201.70730804 367.76316615 208.7961731 367.78134918 C215.46106933 367.7983856 222.12579395 367.79999089 228.79071426 367.79121017 C231.23480751 367.79043933 233.67890862 367.79478877 236.12298203 367.80466843 C239.4629407 367.81737679 242.80237878 367.8115168 246.14233398 367.80108643 C247.1060621 367.80914283 248.06979021 367.81719923 249.06272221 367.82549977 C256.06615395 367.77445389 262.99879496 367.09576379 268.3203125 362.18359375 C272.15077072 355.44198728 272.21051236 348.82977095 272.296875 341.25 C272.31624115 340.19449448 272.3356073 339.13898895 272.3555603 338.05149841 C272.41505803 334.69977755 272.46162215 331.34802178 272.5078125 327.99609375 C272.5460197 325.7154803 272.58507301 323.43488086 272.625 321.15429688 C272.72073492 315.58085405 272.80586867 310.00732598 272.8828125 304.43359375 C271.51337494 304.4435865 271.51337494 304.4435865 270.11627197 304.45378113 C261.46694557 304.51416231 252.81769105 304.55970453 244.16820145 304.58903027 C239.72255634 304.60461429 235.27708697 304.62571799 230.83154297 304.65991211 C226.53267465 304.69276704 222.23397422 304.71050122 217.93498993 304.71822548 C216.30372224 304.7237225 214.67246262 304.7344553 213.0412674 304.75078392 C192.8676065 304.94449661 176.65371628 299.84477993 161.8828125 285.43359375 C147.33479395 269.04696306 143.84382037 252.31776272 144.6875 231.11328125 C145.81099112 215.6989831 155.36071543 201.01276971 166.671875 190.953125 C180.36283129 180.17014227 193.52287802 176.12973444 210.65112305 176.14306641 C211.90101013 176.13634918 213.15089722 176.12963196 214.43865967 176.12271118 C217.84138865 176.10704863 221.24387349 176.10036125 224.64662147 176.09907961 C226.77594327 176.09765195 228.90523992 176.09337105 231.03455544 176.08808517 C238.47202797 176.06963274 245.90942916 176.06140956 253.34692383 176.06298828 C260.26751959 176.06419214 267.18780474 176.04302993 274.10832185 176.01150095 C280.06525052 175.98533369 286.02207764 175.97462099 291.97906333 175.9758991 C295.53056896 175.9764081 299.0817974 175.97075795 302.63324547 175.949543 C306.58984905 175.92654711 310.54602603 175.93568428 314.50268555 175.94775391 C315.67321976 175.93651489 316.84375397 175.92527588 318.04975891 175.91369629 C324.11892809 175.96080988 328.26322861 176.05953103 332.8828125 180.43359375 C337.56878892 185.62183965 337.45536115 190.287904 337.40039062 196.93359375 C337.41090454 198.50052979 337.41090454 198.50052979 337.42163086 200.09912109 C337.43920272 203.54421756 337.42759032 206.98848926 337.4140625 210.43359375 C337.41675763 212.83203285 337.42064022 215.23047089 337.42565918 217.62890625 C337.43155316 222.6524497 337.42299409 227.67570842 337.40429688 232.69921875 C337.38150787 239.13548447 337.39463142 245.57108297 337.41858673 252.00732422 C337.43304711 256.95903543 337.4284375 261.9105887 337.41807556 266.86230469 C337.41540897 269.23535237 337.41867564 271.60841443 337.42799377 273.98144531 C337.43816281 277.29921403 337.42265184 280.6159052 337.40039062 283.93359375 C337.40848755 284.91247559 337.41658447 285.89135742 337.42492676 286.89990234 C337.35423712 292.59243821 336.7209012 295.93691115 332.8828125 300.43359375 C327.55539332 305.38399557 322.37473116 304.9139678 315.5078125 304.68359375 C314.48558594 304.66554688 313.46335937 304.6475 312.41015625 304.62890625 C309.90006501 304.58198866 307.39193486 304.51636104 304.8828125 304.43359375 C304.89391556 305.12913361 304.90501862 305.82467346 304.91645813 306.54129028 C305.01745919 313.15906851 305.0931768 319.7766256 305.14187336 326.39500618 C305.16775249 329.79606653 305.20274002 333.19647987 305.26000977 336.59716797 C305.32130799 340.52458125 305.34917117 344.45109847 305.37109375 348.37890625 C305.39690018 349.57532745 305.4227066 350.77174866 305.44929504 352.00442505 C305.45344222 364.74443653 301.76002222 376.14307265 292.8828125 385.43359375 C291.89667969 386.47966797 291.89667969 386.47966797 290.890625 387.546875 C283.2605847 394.96729881 272.88572333 400.54473859 262.07527447 400.56781483 C260.61940285 400.57450159 260.61940285 400.57450159 259.13411969 400.58132344 C258.07042828 400.58113908 257.00673686 400.58095472 255.91081238 400.58076477 C254.77866706 400.58444146 253.64652174 400.58811815 252.48006898 400.59190625 C248.67184808 400.60295283 244.86365446 400.60678865 241.05541992 400.6105957 C238.33043179 400.61632777 235.60544774 400.62349382 232.88046265 400.63050842 C224.69066437 400.65026414 216.50086487 400.66033986 208.31104872 400.66923621 C204.45023215 400.67362231 200.58941695 400.67898844 196.72860146 400.68422508 C183.88581089 400.70123972 171.04302117 400.71573104 158.20022106 400.72297382 C154.86793708 400.7248836 151.5356531 400.72680395 148.20336914 400.72875977 C147.37518428 400.72924351 146.54699942 400.72972725 145.69371805 400.73022565 C132.29572034 400.73851521 118.89781222 400.76383287 105.49985357 400.79634044 C91.73045162 400.82947544 77.96109508 400.84742856 64.19165307 400.85061806 C56.46643382 400.85277767 48.74134505 400.86144503 41.01616478 400.88707924 C34.43270267 400.90887478 27.84940272 400.91679362 21.26590862 400.90711246 C17.91200457 400.9025925 14.55870349 400.90653607 11.20480156 400.9238739 C-5.45216641 401.00512548 -20.39580153 400.65509665 -35.4296875 392.68359375 C-36.09427979 392.33997803 -36.75887207 391.9963623 -37.44360352 391.64233398 C-43.23988366 388.55018648 -48.27284049 384.87849461 -53.1171875 380.43359375 C-53.87257813 379.76972656 -54.62796875 379.10585938 -55.40625 378.421875 C-68.49145651 366.25847857 -77.63359751 348.41578057 -79.39796913 330.59809148 C-79.50179645 327.72596533 -79.52231793 324.86702481 -79.50486755 321.99308777 C-79.51025309 320.90719323 -79.51563863 319.82129869 -79.52118737 318.70249826 C-79.53538509 315.09866611 -79.52838335 311.49520553 -79.52124023 307.89135742 C-79.5269481 305.29326586 -79.53391397 302.6951768 -79.54203796 300.09709167 C-79.55916285 293.79305734 -79.56007907 287.48912297 -79.55482506 281.18507143 C-79.5507699 276.05628099 -79.55224283 270.9275199 -79.55757332 265.79873085 C-79.55832174 265.06644148 -79.55907016 264.33415212 -79.55984126 263.57967216 C-79.56137288 262.09161453 -79.56291123 260.60355691 -79.56445623 259.1154993 C-79.57815873 245.18588171 -79.5727597 231.2563204 -79.56127102 217.32670412 C-79.55134353 204.61142041 -79.56427491 191.89628232 -79.58820521 179.18102106 C-79.61264792 166.09388 -79.62219125 153.00680663 -79.61555248 139.91964322 C-79.6120714 132.58467805 -79.61421836 125.24982473 -79.63180351 117.91487694 C-79.64814339 111.01431251 -79.64326369 104.11402937 -79.62449837 97.21347237 C-79.62082562 94.68966091 -79.6238823 92.16582872 -79.63438416 89.64203644 C-79.69683564 73.38501767 -79.14560003 58.79082019 -71.3671875 44.12109375 C-71.02357178 43.45650146 -70.67995605 42.79190918 -70.32592773 42.10717773 C-67.23378023 36.31089759 -63.56208836 31.27794076 -59.1171875 26.43359375 C-58.45332031 25.67820312 -57.78945312 24.9228125 -57.10546875 24.14453125 C-42.39363447 8.31775205 -21.42605662 -0.06078358 0 0 Z M185.80859375 218.546875 C179.11707116 226.66928921 177.27642705 233.44303287 177.53515625 243.9609375 C178.35001264 252.10034567 181.72346266 259.01601507 187.8828125 264.43359375 C200.67483556 274.16812096 215.65285551 272.70780024 230.95703125 272.62890625 C233.09365201 272.62517057 235.23027449 272.62232622 237.36689758 272.62033081 C242.95800607 272.61273806 248.54900868 272.59312749 254.14007568 272.57092285 C260.8658301 272.54674886 267.59162016 272.53766268 274.3174057 272.52601624 C284.505948 272.5067002 294.69425853 272.4683472 304.8828125 272.43359375 C304.8828125 251.31359375 304.8828125 230.19359375 304.8828125 208.43359375 C288.08887386 208.37536424 288.08887386 208.37536424 271.29492188 208.3359375 C264.43934001 208.32400979 257.58381189 208.30994127 250.72827148 208.28271484 C245.19748663 208.26088858 239.66675945 208.24900455 234.13593483 208.24383926 C232.03216457 208.24016102 229.92839724 208.23297858 227.82465172 208.22213364 C204.9666133 207.52671694 204.9666133 207.52671694 185.80859375 218.546875 Z " fill="#000000" transform="translate(127.1171875,63.56640625)"/>
<path d="M0 0 C7.09285729 6.91986077 10.16714234 16.36985904 13.73828125 25.39453125 C14.31353231 26.83343819 14.88932179 28.27212998 15.46562195 29.71061707 C16.66467823 32.70839159 17.85840769 35.70821248 19.0480957 38.7097168 C20.57366113 42.55784435 22.1107787 46.40122939 23.65162373 50.24326038 C24.83856278 53.20560256 26.02034211 56.16998081 27.20046043 59.13504601 C27.76564902 60.55378899 28.33223178 61.97197739 28.90023232 63.38959694 C29.6903229 65.36426815 30.47364898 67.34148749 31.25512695 69.31958008 C31.92533623 71.00546989 31.92533623 71.00546989 32.60908508 72.72541809 C33.5625 75.5 33.5625 75.5 33.5625 78.5 C34.48289062 78.44199219 35.40328125 78.38398437 36.3515625 78.32421875 C48.78362379 77.88112084 59.82811967 80.20140689 69.5390625 88.55859375 C78.72340675 97.37059972 85.80588591 107.02833602 86.85302734 120.13696289 C86.9338705 126.96560153 86.9338705 126.96560153 86.93310547 130.37036133 C86.93749667 132.56083957 86.97393682 134.74932782 87.01171875 136.93945312 C87.01758519 138.34634736 87.02155574 139.75325104 87.0234375 141.16015625 C87.03165527 142.42480713 87.03987305 143.68945801 87.04833984 144.99243164 C86.31970905 150.25285309 83.84241673 153.2840791 80.0625 156.875 C74.89749991 159.27303575 70.1622712 159.25381535 64.5625 158.5 C59.59644751 156.19433277 57.11715932 153.29596126 54.5625 148.5 C54.0142729 144.89736479 54.00244746 141.32687114 54 137.6875 C54.00630759 125.46495784 54.00630759 125.46495784 48.3125 115.0625 C41.65184064 111.27803446 35.30327943 111.21335219 27.82128906 111.2484436 C26.75035633 111.24547346 25.6794236 111.24250333 24.57603836 111.23944318 C20.9933459 111.23181445 17.41081791 111.23829264 13.828125 111.24462891 C11.25720102 111.24187854 8.68627789 111.23819836 6.11535645 111.23365784 C0.5819004 111.22503753 -4.95152368 111.22321362 -10.48498535 111.22560501 C-18.49300513 111.2287064 -26.50095442 111.21705091 -34.50895643 111.20105521 C-47.51247506 111.17511033 -60.51599375 111.15508218 -73.51953125 111.14160156 C-74.68615083 111.14038601 -74.68615083 111.14038601 -75.87633848 111.1391459 C-86.91711286 111.12792082 -97.9578822 111.12264217 -108.99866152 111.11975877 C-109.7764079 111.11955478 -110.55415429 111.11935079 -111.35546875 111.11914062 C-112.1322647 111.11894069 -112.90906066 111.11874075 -113.70939589 111.11853476 C-126.66528179 111.11480119 -139.62109109 111.09571325 -152.57693863 111.06404626 C-160.56420742 111.04513977 -168.55127968 111.03916509 -176.53856468 111.04986344 C-182.65799735 111.05693198 -188.77722514 111.04340326 -194.8966217 111.02224541 C-197.40604654 111.01691523 -199.9154966 111.01843421 -202.4249115 111.02728081 C-205.84903445 111.03837927 -209.27222333 111.02499547 -212.69628906 111.00552368 C-213.69055279 111.01464834 -214.68481651 111.023773 -215.70920944 111.03317416 C-221.81590242 110.9655422 -225.46203595 110.11786902 -230.4375 106.5 C-234.0278454 102.19864325 -235.04741701 98.2134231 -234.75390625 92.63671875 C-233.95838829 87.26451724 -231.42765077 84.11066767 -227.28936768 80.76028442 C-223.79504505 78.38223094 -219.90264011 77.02723164 -215.9609375 75.55859375 C-215.02413651 75.1986734 -214.08733551 74.83875305 -213.12214661 74.46792603 C-210.02300061 73.28014238 -206.91785472 72.10894469 -203.8125 70.9375 C-201.61194755 70.09742056 -199.41184151 69.25617096 -197.2121582 68.41381836 C-192.6050401 66.65129359 -187.99560545 64.89503437 -183.38427734 63.14355469 C-176.73491631 60.61623876 -170.09444192 58.06632662 -163.45703125 55.5078125 C-162.39947632 55.10021194 -161.34192139 54.69261139 -160.25231934 54.2726593 C-158.11597327 53.44923439 -155.97964107 52.6257735 -153.84332275 51.80227661 C-148.4112297 49.70970155 -142.97708136 47.62247999 -137.54296875 45.53515625 C-125.58462448 40.94126769 -113.62785769 36.34328675 -101.67156982 31.74404907 C-96.3214555 29.68602153 -90.97128538 27.62813906 -85.62109375 25.5703125 C-84.55828186 25.16152359 -83.49546997 24.75273468 -82.40045166 24.33155823 C-75.42783593 21.64980054 -68.45492187 18.96881974 -61.48184204 16.28826904 C-56.65164794 14.43144375 -51.82154776 12.57437423 -46.99145508 10.71728516 C-44.68128082 9.82914181 -42.37106018 8.9411191 -40.06079102 8.05322266 C-36.86462985 6.82484641 -33.6686264 5.59606064 -30.47265625 4.3671875 C-29.52624771 4.00358124 -28.57983917 3.63997498 -27.60475159 3.26535034 C-26.72979538 2.92883453 -25.85483917 2.59231873 -24.95336914 2.24560547 C-24.15517258 1.93899994 -23.35697601 1.63239441 -22.53459167 1.3164978 C-20.8451797 0.65872915 -19.16653969 -0.02667011 -17.49169922 -0.72070312 C-11.95202345 -2.82227729 -5.33053431 -2.32605134 0 0 Z M-25.79223633 37.88916016 C-26.657444 38.22261444 -27.52265167 38.55606873 -28.41407776 38.89962769 C-29.35637741 39.27564117 -30.29867706 39.65165466 -31.26953125 40.0390625 C-32.27004013 40.42788605 -33.27054901 40.81670959 -34.30137634 41.21731567 C-37.62155501 42.50994684 -40.93560572 43.81761683 -44.25 45.125 C-46.55517575 46.02501473 -48.86084769 46.9237595 -51.16699219 47.82128906 C-55.41608672 49.47521535 -59.66418351 51.13163619 -63.91107368 52.79121399 C-76.07834419 57.54306639 -88.28464112 62.19247873 -100.49130249 66.84197998 C-105.31453499 68.67932982 -110.13668731 70.51950552 -114.95887756 72.35958862 C-119.45148093 74.07376932 -123.94444613 75.78700053 -128.4375 77.5 C-128.4375 77.83 -128.4375 78.16 -128.4375 78.5 C-86.8575 78.5 -45.2775 78.5 -2.4375 78.5 C-3.08913398 75.24183009 -3.64138074 72.66181284 -4.77270508 69.64355469 C-5.04000931 68.92641296 -5.30731354 68.20927124 -5.5827179 67.47039795 C-5.8712413 66.71188538 -6.15976471 65.9533728 -6.45703125 65.171875 C-6.90679573 63.98745819 -6.90679573 63.98745819 -7.36564636 62.77911377 C-7.99956161 61.1174415 -8.63595001 59.45671087 -9.2746582 57.796875 C-10.25002791 55.24992712 -11.20402488 52.6955741 -12.15820312 50.140625 C-12.77733553 48.52553876 -13.39773472 46.91093744 -14.01953125 45.296875 C-14.30198196 44.5302655 -14.58443268 43.76365601 -14.8754425 42.97381592 C-15.76773602 40.59570361 -15.76773602 40.59570361 -17.4375 37.5 C-20.64462465 36.11007002 -22.61795104 36.64242513 -25.79223633 37.88916016 Z " fill="#000000" transform="translate(345.4375,49.5)"/>
</svg>
