<?xml version="1.0" encoding="UTF-8"?>
<svg version="1.1" xmlns="http://www.w3.org/2000/svg" width="512" height="512">
<path d="M0 0 C1.18078125 -0.02900391 2.3615625 -0.05800781 3.578125 -0.08789062 C14.41128483 -0.1671874 14.41128483 -0.1671874 19.25 4.3125 C27.58042474 13.76865781 24.25 14.99249528 24.25 32.3125 C40.09 32.3125 55.93 32.3125 72.25 32.3125 C72.25 25.3825 72.25 18.4525 72.25 11.3125 C75.61522895 6.26465658 77.90934522 2.98282739 83.25 0.3125 C87.49394198 0.01423925 91.7468166 0.03437379 96 0 C97.18078125 -0.02900391 98.3615625 -0.05800781 99.578125 -0.08789062 C110.41128483 -0.1671874 110.41128483 -0.1671874 115.25 4.3125 C123.58042474 13.76865781 120.25 14.99249528 120.25 32.3125 C136.09 32.3125 151.93 32.3125 168.25 32.3125 C168.25 25.3825 168.25 18.4525 168.25 11.3125 C171.61522895 6.26465658 173.90934522 2.98282739 179.25 0.3125 C183.49394198 0.01423925 187.7468166 0.03437379 192 0 C193.18078125 -0.02900391 194.3615625 -0.05800781 195.578125 -0.08789062 C206.41128483 -0.1671874 206.41128483 -0.1671874 211.25 4.3125 C219.58042474 13.76865781 216.25 14.99249528 216.25 32.3125 C232.09 32.3125 247.93 32.3125 264.25 32.3125 C264.25 25.3825 264.25 18.4525 264.25 11.3125 C267.61522895 6.26465658 269.90934522 2.98282739 275.25 0.3125 C279.49394198 0.01423925 283.7468166 0.03437379 288 0 C289.18078125 -0.02900391 290.3615625 -0.05800781 291.578125 -0.08789062 C302.41128483 -0.1671874 302.41128483 -0.1671874 307.25 4.3125 C310.85685684 8.40676993 312.38030581 10.68173579 312.34765625 16.1015625 C312.34443359 17.04257812 312.34121094 17.98359375 312.33789062 18.953125 C312.32951172 19.93796875 312.32113281 20.9228125 312.3125 21.9375 C312.30798828 22.93007813 312.30347656 23.92265625 312.29882812 24.9453125 C312.28702145 27.4011016 312.270554 29.85677104 312.25 32.3125 C313.19206299 32.29155273 314.13412598 32.27060547 315.10473633 32.24902344 C318.65155114 32.18022511 322.19764135 32.13040186 325.74487305 32.09277344 C327.27037859 32.07284689 328.79580968 32.04569515 330.32104492 32.01074219 C344.07078842 31.70388871 354.95613815 33.48565645 365.25 43.3125 C375.17409842 53.70823874 376.85039864 64.6486054 376.75793457 78.60791016 C376.7625509 80.13574631 376.76890871 81.66357801 376.77684355 83.19140053 C376.79345964 87.36401571 376.78532594 91.53626244 376.77289867 95.70887852 C376.7638187 100.21884655 376.77783248 104.72875287 376.78881836 109.2387085 C376.80657678 118.06353884 376.80277554 126.88823287 376.7911678 135.71306849 C376.7821232 142.88711316 376.78091391 150.06111971 376.78526306 157.23516846 C376.78587599 158.25738577 376.78648893 159.27960309 376.78712043 160.33279669 C376.78839937 162.40960679 376.78969623 164.48641687 376.7910108 166.56322694 C376.80240876 186.02373404 376.78931519 205.4841657 376.76780933 224.94466043 C376.74993907 241.63176452 376.7530434 258.31875729 376.77148438 275.00585938 C376.79290493 294.39816049 376.80131019 313.79039553 376.78903532 333.18270683 C376.78776116 335.25174839 376.78650368 337.32078996 376.78526306 339.38983154 C376.78433741 340.91672369 376.78433741 340.91672369 376.78339306 342.47446215 C376.77994372 349.63738954 376.78575953 356.80027492 376.79518127 363.9631958 C376.8064158 372.69600151 376.80333064 381.42866346 376.7820583 390.16145277 C376.77156746 394.61450834 376.76739242 399.06732447 376.78065491 403.52037811 C376.79262552 407.6014813 376.78593994 411.68212442 376.7647447 415.76318622 C376.76029832 417.234775 376.76250046 418.70640313 376.77224785 420.17796636 C376.85280625 433.35690185 374.52099698 443.60090119 365.25 453.3125 C354.51023619 463.56501554 343.03413175 464.90738108 328.73974609 464.82043457 C327.07991681 464.82504976 325.42009161 464.83140681 323.76027489 464.83934355 C319.22281937 464.8559752 314.68570223 464.84781868 310.14824581 464.83539867 C305.24563797 464.82632518 300.34308713 464.8403293 295.44049072 464.85131836 C285.84563293 464.86908363 276.25090046 464.86527246 266.65603781 464.8536678 C258.8565172 464.84462592 251.05703167 464.84341274 243.25750732 464.84776306 C241.59096401 464.84868246 241.59096401 464.84868246 239.89075315 464.84962043 C237.63355906 464.85089936 235.37636498 464.85219622 233.1191709 464.8535108 C211.9647422 464.86491076 190.81038289 464.85181203 169.65596557 464.83030933 C151.51344751 464.8124389 133.37103184 464.81554317 115.22851562 464.83398438 C94.14860919 464.85540137 73.06876353 464.86381218 51.98884773 464.85153532 C49.74006272 464.85026115 47.4912777 464.84900367 45.24249268 464.84776306 C44.13611305 464.84714596 43.02973342 464.84652886 41.88982713 464.84589306 C34.10172779 464.84244265 26.31366709 464.84826184 18.52557373 464.85768127 C9.03153801 464.86891183 -0.46236547 464.86583893 -9.95638609 464.8445583 C-14.79828639 464.83406217 -19.63996637 464.82990158 -24.48186493 464.84315491 C-28.91823608 464.85511437 -33.35418364 464.8484579 -37.79051661 464.8272447 C-39.39131083 464.82279366 -40.99214117 464.82501106 -42.59291196 464.83474785 C-56.10285551 464.91058958 -66.72464339 462.88302001 -76.75 453.3125 C-86.67409842 442.91676126 -88.35039864 431.9763946 -88.25793457 418.01708984 C-88.2625509 416.48925369 -88.26890871 414.96142199 -88.27684355 413.43359947 C-88.29345964 409.26098429 -88.28532594 405.08873756 -88.27289867 400.91612148 C-88.2638187 396.40615345 -88.27783248 391.89624713 -88.28881836 387.3862915 C-88.30657678 378.56146116 -88.30277554 369.73676713 -88.2911678 360.91193151 C-88.2821232 353.73788684 -88.28091391 346.56388029 -88.28526306 339.38983154 C-88.28587599 338.36761423 -88.28648893 337.34539691 -88.28712043 336.29220331 C-88.28839937 334.21539321 -88.28969623 332.13858313 -88.2910108 330.06177306 C-88.30240876 310.60126596 -88.28931519 291.1408343 -88.26780933 271.68033957 C-88.24993907 254.99323548 -88.2530434 238.30624271 -88.27148438 221.61914062 C-88.29290493 202.22683951 -88.30131019 182.83460447 -88.28903532 163.44229317 C-88.28776116 161.37325161 -88.28650368 159.30421004 -88.28526306 157.23516846 C-88.28464596 156.21724036 -88.28402886 155.19931226 -88.28339306 154.15053785 C-88.27994372 146.98761046 -88.28575953 139.82472508 -88.29518127 132.6618042 C-88.3064158 123.92899849 -88.30333064 115.19633654 -88.2820583 106.46354723 C-88.27156746 102.01049166 -88.26739242 97.55767553 -88.28065491 93.10462189 C-88.29262552 89.0235187 -88.28593994 84.94287558 -88.2647447 80.86181378 C-88.26029832 79.390225 -88.26250046 77.91859687 -88.27224785 76.44703364 C-88.35280625 63.26809815 -86.02099698 53.02409881 -76.75 43.3125 C-65.7571324 32.81836363 -54.07383849 31.72995176 -39.5625 32.0625 C-38.0228099 32.08261183 -36.4830942 32.10085426 -34.94335938 32.1171875 C-31.21169792 32.16077539 -27.48101842 32.22953884 -23.75 32.3125 C-23.77094727 31.70776855 -23.79189453 31.10303711 -23.81347656 30.47998047 C-23.89708945 27.71599229 -23.94880054 24.95227087 -24 22.1875 C-24.03351563 21.23617187 -24.06703125 20.28484375 -24.1015625 19.3046875 C-24.1832339 13.42434648 -23.77763982 9.93330133 -19.75 5.3125 C-13.25051335 -0.41323824 -8.42900415 0.06812234 0 0 Z M-7.75 18.3125 C-8.05497934 20.27694192 -8.05497934 20.27694192 -8.00878906 22.546875 C-8.01509338 23.42118164 -8.02139771 24.29548828 -8.02789307 25.19628906 C-8.0238446 26.14213867 -8.01979614 27.08798828 -8.015625 28.0625 C-8.01753845 29.03155273 -8.0194519 30.00060547 -8.02142334 30.99902344 C-8.02278579 33.05013285 -8.01908518 35.10125086 -8.01074219 37.15234375 C-8.00004359 40.29967539 -8.01063554 43.4464362 -8.0234375 46.59375 C-8.02211592 48.5833346 -8.01955355 50.57291884 -8.015625 52.5625 C-8.01967346 53.50834961 -8.02372192 54.45419922 -8.02789307 55.42871094 C-8.02158875 56.30301758 -8.01528442 57.17732422 -8.00878906 58.078125 C-8.00640228 59.23489746 -8.00640228 59.23489746 -8.00396729 60.41503906 C-7.9130742 62.55412583 -7.9130742 62.55412583 -5.75 64.3125 C-2.92129751 64.63241706 -2.92129751 64.63241706 0.25 64.5625 C1.3225 64.56765625 2.395 64.5728125 3.5 64.578125 C6.39362178 64.59277649 6.39362178 64.59277649 8.25 62.3125 C8.55497934 60.34805808 8.55497934 60.34805808 8.50878906 58.078125 C8.51509338 57.20381836 8.52139771 56.32951172 8.52789307 55.42871094 C8.5238446 54.48286133 8.51979614 53.53701172 8.515625 52.5625 C8.51753845 51.59344727 8.5194519 50.62439453 8.52142334 49.62597656 C8.52278579 47.57486715 8.51908518 45.52374914 8.51074219 43.47265625 C8.50004359 40.32532461 8.51063554 37.1785638 8.5234375 34.03125 C8.52211592 32.0416654 8.51955355 30.05208116 8.515625 28.0625 C8.51967346 27.11665039 8.52372192 26.17080078 8.52789307 25.19628906 C8.52158875 24.32198242 8.51528442 23.44767578 8.50878906 22.546875 C8.50719788 21.77569336 8.50560669 21.00451172 8.50396729 20.20996094 C8.4130742 18.07087417 8.4130742 18.07087417 6.25 16.3125 C3.42129751 15.99258294 3.42129751 15.99258294 0.25 16.0625 C-0.8225 16.05734375 -1.895 16.0521875 -3 16.046875 C-5.89362178 16.03222351 -5.89362178 16.03222351 -7.75 18.3125 Z M88.25 18.3125 C87.94502066 20.27694192 87.94502066 20.27694192 87.99121094 22.546875 C87.98490662 23.42118164 87.97860229 24.29548828 87.97210693 25.19628906 C87.9761554 26.14213867 87.98020386 27.08798828 87.984375 28.0625 C87.98246155 29.03155273 87.9805481 30.00060547 87.97857666 30.99902344 C87.97721421 33.05013285 87.98091482 35.10125086 87.98925781 37.15234375 C87.99995641 40.29967539 87.98936446 43.4464362 87.9765625 46.59375 C87.97788408 48.5833346 87.98044645 50.57291884 87.984375 52.5625 C87.98032654 53.50834961 87.97627808 54.45419922 87.97210693 55.42871094 C87.97841125 56.30301758 87.98471558 57.17732422 87.99121094 58.078125 C87.99359772 59.23489746 87.99359772 59.23489746 87.99603271 60.41503906 C88.0869258 62.55412583 88.0869258 62.55412583 90.25 64.3125 C93.07870249 64.63241706 93.07870249 64.63241706 96.25 64.5625 C97.3225 64.56765625 98.395 64.5728125 99.5 64.578125 C102.39362178 64.59277649 102.39362178 64.59277649 104.25 62.3125 C104.55497934 60.34805808 104.55497934 60.34805808 104.50878906 58.078125 C104.51509338 57.20381836 104.52139771 56.32951172 104.52789307 55.42871094 C104.5238446 54.48286133 104.51979614 53.53701172 104.515625 52.5625 C104.51753845 51.59344727 104.5194519 50.62439453 104.52142334 49.62597656 C104.52278579 47.57486715 104.51908518 45.52374914 104.51074219 43.47265625 C104.50004359 40.32532461 104.51063554 37.1785638 104.5234375 34.03125 C104.52211592 32.0416654 104.51955355 30.05208116 104.515625 28.0625 C104.51967346 27.11665039 104.52372192 26.17080078 104.52789307 25.19628906 C104.52158875 24.32198242 104.51528442 23.44767578 104.50878906 22.546875 C104.50719788 21.77569336 104.50560669 21.00451172 104.50396729 20.20996094 C104.4130742 18.07087417 104.4130742 18.07087417 102.25 16.3125 C99.42129751 15.99258294 99.42129751 15.99258294 96.25 16.0625 C95.1775 16.05734375 94.105 16.0521875 93 16.046875 C90.10637822 16.03222351 90.10637822 16.03222351 88.25 18.3125 Z M184.25 18.3125 C183.94502066 20.27694192 183.94502066 20.27694192 183.99121094 22.546875 C183.98490662 23.42118164 183.97860229 24.29548828 183.97210693 25.19628906 C183.9761554 26.14213867 183.98020386 27.08798828 183.984375 28.0625 C183.98246155 29.03155273 183.9805481 30.00060547 183.97857666 30.99902344 C183.97721421 33.05013285 183.98091482 35.10125086 183.98925781 37.15234375 C183.99995641 40.29967539 183.98936446 43.4464362 183.9765625 46.59375 C183.97788408 48.5833346 183.98044645 50.57291884 183.984375 52.5625 C183.98032654 53.50834961 183.97627808 54.45419922 183.97210693 55.42871094 C183.97841125 56.30301758 183.98471558 57.17732422 183.99121094 58.078125 C183.99359772 59.23489746 183.99359772 59.23489746 183.99603271 60.41503906 C184.0869258 62.55412583 184.0869258 62.55412583 186.25 64.3125 C189.07870249 64.63241706 189.07870249 64.63241706 192.25 64.5625 C193.3225 64.56765625 194.395 64.5728125 195.5 64.578125 C198.39362178 64.59277649 198.39362178 64.59277649 200.25 62.3125 C200.55497934 60.34805808 200.55497934 60.34805808 200.50878906 58.078125 C200.51509338 57.20381836 200.52139771 56.32951172 200.52789307 55.42871094 C200.5238446 54.48286133 200.51979614 53.53701172 200.515625 52.5625 C200.51753845 51.59344727 200.5194519 50.62439453 200.52142334 49.62597656 C200.52278579 47.57486715 200.51908518 45.52374914 200.51074219 43.47265625 C200.50004359 40.32532461 200.51063554 37.1785638 200.5234375 34.03125 C200.52211592 32.0416654 200.51955355 30.05208116 200.515625 28.0625 C200.51967346 27.11665039 200.52372192 26.17080078 200.52789307 25.19628906 C200.52158875 24.32198242 200.51528442 23.44767578 200.50878906 22.546875 C200.50719788 21.77569336 200.50560669 21.00451172 200.50396729 20.20996094 C200.4130742 18.07087417 200.4130742 18.07087417 198.25 16.3125 C195.42129751 15.99258294 195.42129751 15.99258294 192.25 16.0625 C191.1775 16.05734375 190.105 16.0521875 189 16.046875 C186.10637822 16.03222351 186.10637822 16.03222351 184.25 18.3125 Z M280.25 18.3125 C279.94502066 20.27694192 279.94502066 20.27694192 279.99121094 22.546875 C279.98490662 23.42118164 279.97860229 24.29548828 279.97210693 25.19628906 C279.9761554 26.14213867 279.98020386 27.08798828 279.984375 28.0625 C279.98246155 29.03155273 279.9805481 30.00060547 279.97857666 30.99902344 C279.97721421 33.05013285 279.98091482 35.10125086 279.98925781 37.15234375 C279.99995641 40.29967539 279.98936446 43.4464362 279.9765625 46.59375 C279.97788408 48.5833346 279.98044645 50.57291884 279.984375 52.5625 C279.98032654 53.50834961 279.97627808 54.45419922 279.97210693 55.42871094 C279.97841125 56.30301758 279.98471558 57.17732422 279.99121094 58.078125 C279.99359772 59.23489746 279.99359772 59.23489746 279.99603271 60.41503906 C280.0869258 62.55412583 280.0869258 62.55412583 282.25 64.3125 C285.07870249 64.63241706 285.07870249 64.63241706 288.25 64.5625 C289.3225 64.56765625 290.395 64.5728125 291.5 64.578125 C294.39362178 64.59277649 294.39362178 64.59277649 296.25 62.3125 C296.55497934 60.34805808 296.55497934 60.34805808 296.50878906 58.078125 C296.51509338 57.20381836 296.52139771 56.32951172 296.52789307 55.42871094 C296.5238446 54.48286133 296.51979614 53.53701172 296.515625 52.5625 C296.51753845 51.59344727 296.5194519 50.62439453 296.52142334 49.62597656 C296.52278579 47.57486715 296.51908518 45.52374914 296.51074219 43.47265625 C296.50004359 40.32532461 296.51063554 37.1785638 296.5234375 34.03125 C296.52211592 32.0416654 296.51955355 30.05208116 296.515625 28.0625 C296.51967346 27.11665039 296.52372192 26.17080078 296.52789307 25.19628906 C296.52158875 24.32198242 296.51528442 23.44767578 296.50878906 22.546875 C296.50719788 21.77569336 296.50560669 21.00451172 296.50396729 20.20996094 C296.4130742 18.07087417 296.4130742 18.07087417 294.25 16.3125 C291.42129751 15.99258294 291.42129751 15.99258294 288.25 16.0625 C287.1775 16.05734375 286.105 16.0521875 285 16.046875 C282.10637822 16.03222351 282.10637822 16.03222351 280.25 18.3125 Z M-64.75 55.3125 C-80.12923378 73.18988343 -71.75 114.6031987 -71.75 128.3125 C70.81 128.3125 213.37 128.3125 360.25 128.3125 C364.52 94.661933 364.52 94.661933 353.25 55.3125 C343.98796389 48.09125151 335.13504387 48.16264506 323.8125 48.25 C322.69939453 48.25451172 321.58628906 48.25902344 320.43945312 48.26367188 C317.70957899 48.27538807 314.97981826 48.29179301 312.25 48.3125 C312.23598145 49.21959717 312.23598145 49.21959717 312.22167969 50.14501953 C312.16768278 52.9099788 312.08409606 55.67329906 312 58.4375 C311.98582031 59.38882813 311.97164063 60.34015625 311.95703125 61.3203125 C311.70216655 68.66041597 310.20615075 72.47004735 304.8125 77.65625 C299.36839071 80.18728327 294.17800874 79.89136486 288.25 79.8125 C286.50589844 79.83570313 286.50589844 79.83570313 284.7265625 79.859375 C273.92734871 79.80995068 273.92734871 79.80995068 269.25 75.3125 C265.25 69.3125 265.25 69.3125 264.25 48.3125 C248.41 48.3125 232.57 48.3125 216.25 48.3125 C215.92 55.2425 215.59 62.1725 215.25 69.3125 C210.08050847 77.06673729 210.08050847 77.06673729 205.25 79.3125 C200.90527554 79.88417427 196.62633578 79.87072176 192.25 79.8125 C190.50589844 79.83570313 190.50589844 79.83570313 188.7265625 79.859375 C177.92734871 79.80995068 177.92734871 79.80995068 173.25 75.3125 C169.25 69.3125 169.25 69.3125 168.25 48.3125 C152.41 48.3125 136.57 48.3125 120.25 48.3125 C119.92 55.2425 119.59 62.1725 119.25 69.3125 C114.08050847 77.06673729 114.08050847 77.06673729 109.25 79.3125 C104.90527554 79.88417427 100.62633578 79.87072176 96.25 79.8125 C95.08726562 79.82796875 93.92453125 79.8434375 92.7265625 79.859375 C81.92734871 79.80995068 81.92734871 79.80995068 77.25 75.3125 C73.25 69.3125 73.25 69.3125 72.25 48.3125 C56.41 48.3125 40.57 48.3125 24.25 48.3125 C23.92 55.2425 23.59 62.1725 23.25 69.3125 C18.08050847 77.06673729 18.08050847 77.06673729 13.25 79.3125 C8.90527554 79.88417427 4.62633578 79.87072176 0.25 79.8125 C-1.49410156 79.83570313 -1.49410156 79.83570313 -3.2734375 79.859375 C-14.07265129 79.80995068 -14.07265129 79.80995068 -18.75 75.3125 C-23.46031207 70.11218902 -23.40037646 65.1213337 -23.5 58.4375 C-23.52964844 57.46296875 -23.55929688 56.4884375 -23.58984375 55.484375 C-23.66015864 53.09366873 -23.71304234 50.70391566 -23.75 48.3125 C-27.5624338 48.25377072 -31.37474906 48.21866084 -35.1875 48.1875 C-36.25677734 48.17074219 -37.32605469 48.15398437 -38.42773438 48.13671875 C-48.16009257 48.07719362 -57.10852258 48.73882728 -64.75 55.3125 Z M-71.75 144.3125 C-71.79125 190.326875 -71.8325 236.34125 -71.875 283.75 C-71.89320801 298.28603271 -71.91141602 312.82206543 -71.93017578 327.79858398 C-71.93686412 340.81403303 -71.93686412 340.81403303 -71.94088745 353.82948303 C-71.94275281 359.63243733 -71.95009042 365.43535313 -71.96115112 371.23829651 C-71.97389163 377.9324488 -71.97966957 384.62656416 -71.9768899 391.32072866 C-71.97568627 394.74427543 -71.97758036 398.16773969 -71.98843026 401.59127128 C-71.99837666 405.26102359 -71.99598028 408.93056949 -71.99050903 412.60032654 C-71.99924703 414.19474123 -71.99924703 414.19474123 -72.00816154 415.82136631 C-71.97054909 425.20692299 -71.06873478 433.96737176 -64.75 441.3125 C-55.48085085 449.28639686 -43.68718401 448.60306002 -32.15014648 448.56646729 C-30.56486843 448.56877393 -28.97959144 448.57195182 -27.39431667 448.57592177 C-23.05379271 448.58425042 -18.713357 448.58015328 -14.37283278 448.57394934 C-9.68565245 448.56941795 -4.99848714 448.57641202 -0.31130981 448.58190918 C8.86468434 448.59079748 18.04064576 448.58888367 27.21664119 448.5830839 C34.67487656 448.57856521 42.13310276 448.5779554 49.59133911 448.58013153 C50.65325991 448.580438 51.71518071 448.58074446 52.80928093 448.58106022 C54.96662355 448.58169967 57.12396616 448.5823481 59.28130877 448.5830054 C79.50570679 448.58870704 99.73008667 448.58215339 119.95448172 448.57140467 C137.30397346 448.56246931 154.65343843 448.5640214 172.00292969 448.57324219 C192.15548487 448.58394773 212.30802415 448.58815774 232.46058178 448.58201766 C234.60994148 448.58138057 236.75930118 448.58075183 238.90866089 448.58013153 C239.96615793 448.57982298 241.02365498 448.57951443 242.11319739 448.57919653 C249.56156297 448.57747044 257.00991845 448.58038283 264.45828247 448.58509064 C273.53663656 448.59070262 282.61495607 448.58917632 291.69330621 448.57852915 C296.32426243 448.57327674 300.95516101 448.57120839 305.58611679 448.57782745 C309.82743826 448.58379788 314.0686488 448.58049374 318.30996025 448.56987235 C319.84214159 448.56764296 321.37433235 448.56876423 322.90650761 448.57362393 C338.02646638 448.84398877 338.02646638 448.84398877 351.25 442.3125 C359.95376246 433.54612054 360.40261627 424.86822313 360.37025452 412.96109009 C360.37111053 411.81533508 360.37196655 410.66958008 360.37284851 409.48910522 C360.37421397 406.3115249 360.37108411 403.13398546 360.36607273 399.95640996 C360.36170166 396.47617072 360.36316763 392.995933 360.36389065 389.51569176 C360.36442202 382.76194266 360.35980746 376.00820687 360.35338932 369.25446119 C360.34618687 361.441368 360.34539443 353.62828279 360.34460449 345.81518555 C360.33935502 325.18928826 360.32539389 304.56339393 360.3125 283.9375 C360.291875 237.86125 360.27125 191.785 360.25 144.3125 C217.69 144.3125 75.13 144.3125 -71.75 144.3125 Z " fill="#000000" transform="translate(111.75,23.6875)"/>
<path d="M0 0 C1.7125296 -0.01925285 1.7125296 -0.01925285 3.45965576 -0.03889465 C5.31895721 -0.04997505 5.31895721 -0.04997505 7.21582031 -0.0612793 C8.48613098 -0.06935104 9.75644165 -0.07742279 11.06524658 -0.08573914 C13.75870419 -0.09959131 16.45203893 -0.11060399 19.14550781 -0.11816406 C22.58663115 -0.12920954 26.02710442 -0.16358628 29.4679985 -0.20333576 C32.75887443 -0.23585883 36.04980818 -0.24028631 39.34082031 -0.2487793 C40.57225769 -0.26628738 41.80369507 -0.28379547 43.07244873 -0.30183411 C53.71325023 -0.27486493 53.71325023 -0.27486493 58.54394531 4.17700195 C62.390004 8.5427983 63.66459841 10.86420169 63.72094727 16.63305664 C63.74020012 18.34558624 63.74020012 18.34558624 63.75984192 20.0927124 C63.76722885 21.3322467 63.77461578 22.57178101 63.78222656 23.84887695 C63.79029831 25.11918762 63.79837006 26.38949829 63.8066864 27.69830322 C63.82053858 30.39176083 63.83155126 33.08509558 63.83911133 35.77856445 C63.85015681 39.21968779 63.88453355 42.66016106 63.92428303 46.10105515 C63.95680609 49.39193107 63.96123358 52.68286482 63.96972656 55.97387695 C63.98723465 57.20531433 64.00474274 58.43675171 64.02278137 59.70550537 C63.9958122 70.34630688 63.9958122 70.34630688 59.54394531 75.17700195 C55.17814896 79.02306064 52.85674558 80.29765505 47.08789062 80.35400391 C45.37536102 80.37325676 45.37536102 80.37325676 43.62823486 80.39289856 C42.38870056 80.40028549 41.14916626 80.40767242 39.87207031 80.4152832 C38.60175964 80.42335495 37.33144897 80.4314267 36.02264404 80.43974304 C33.32918643 80.45359522 30.63585169 80.4646079 27.94238281 80.47216797 C24.50125948 80.48321345 21.0607862 80.51759019 17.61989212 80.55733967 C14.3290162 80.58986274 11.03808245 80.59429022 7.74707031 80.6027832 C6.51563293 80.62029129 5.28419556 80.63779938 4.01544189 80.65583801 C-6.62535961 80.62886884 -6.62535961 80.62886884 -11.45605469 76.17700195 C-15.30211338 71.8112056 -16.57670778 69.48980222 -16.63305664 63.72094727 C-16.64589188 62.57926086 -16.65872711 61.43757446 -16.67195129 60.2612915 C-16.67933823 59.0217572 -16.68672516 57.7822229 -16.69433594 56.50512695 C-16.70240768 55.23481628 -16.71047943 53.96450562 -16.71879578 52.65570068 C-16.73264795 49.96224307 -16.74366063 47.26890833 -16.7512207 44.57543945 C-16.76226618 41.13431612 -16.79664292 37.69384284 -16.8363924 34.25294876 C-16.86891547 30.96207284 -16.87334295 27.67113909 -16.88183594 24.38012695 C-16.89934402 23.14868958 -16.91685211 21.9172522 -16.93489075 20.64849854 C-16.90792157 10.00769703 -16.90792157 10.00769703 -12.45605469 5.17700195 C-8.09025834 1.33094326 -5.76885495 0.05634886 0 0 Z M-0.45605469 18.17700195 C-0.76103403 20.14144387 -0.76103403 20.14144387 -0.71484375 22.41137695 C-0.72114807 23.28568359 -0.72745239 24.15999023 -0.73394775 25.06079102 C-0.72989929 26.00664062 -0.72585083 26.95249023 -0.72167969 27.92700195 C-0.72359314 28.89605469 -0.72550659 29.86510742 -0.72747803 30.86352539 C-0.72884048 32.9146348 -0.72513987 34.96575281 -0.71679688 37.0168457 C-0.70609828 40.16417734 -0.71669022 43.31093816 -0.72949219 46.45825195 C-0.7281706 48.44783655 -0.72560823 50.43742079 -0.72167969 52.42700195 C-0.72572815 53.37285156 -0.72977661 54.31870117 -0.73394775 55.29321289 C-0.72764343 56.16751953 -0.72133911 57.04182617 -0.71484375 57.94262695 C-0.71245697 59.09939941 -0.71245697 59.09939941 -0.71002197 60.27954102 C-0.61912888 62.41862779 -0.61912888 62.41862779 1.54394531 64.17700195 C3.50838723 64.48198129 3.50838723 64.48198129 5.77832031 64.43579102 C6.65262695 64.44209534 7.52693359 64.44839966 8.42773438 64.45489502 C9.84650879 64.44882233 9.84650879 64.44882233 11.29394531 64.44262695 C12.74752441 64.44549713 12.74752441 64.44549713 14.23046875 64.44842529 C16.28157816 64.44978774 18.33269617 64.44608713 20.38378906 64.43774414 C23.5311207 64.42704555 26.67788151 64.43763749 29.82519531 64.45043945 C31.81477991 64.44911787 33.80436415 64.4465555 35.79394531 64.44262695 C37.21271973 64.44869965 37.21271973 64.44869965 38.66015625 64.45489502 C39.53446289 64.4485907 40.40876953 64.44228638 41.30957031 64.43579102 C42.46634277 64.43340424 42.46634277 64.43340424 43.64648438 64.43096924 C45.78557115 64.34007615 45.78557115 64.34007615 47.54394531 62.17700195 C47.84892465 60.21256003 47.84892465 60.21256003 47.80273438 57.94262695 C47.8090387 57.06832031 47.81534302 56.19401367 47.82183838 55.29321289 C47.81778992 54.34736328 47.81374146 53.40151367 47.80957031 52.42700195 C47.81148376 51.45794922 47.81339722 50.48889648 47.81536865 49.49047852 C47.8167311 47.43936911 47.81303049 45.3882511 47.8046875 43.3371582 C47.79398891 40.18982656 47.80458085 37.04306575 47.81738281 33.89575195 C47.81606123 31.90616735 47.81349886 29.91658311 47.80957031 27.92700195 C47.81361877 26.98115234 47.81766724 26.03530273 47.82183838 25.06079102 C47.81553406 24.18648438 47.80922974 23.31217773 47.80273438 22.41137695 C47.80114319 21.64019531 47.799552 20.86901367 47.7979126 20.07446289 C47.70701951 17.93537612 47.70701951 17.93537612 45.54394531 16.17700195 C43.57950339 15.87202261 43.57950339 15.87202261 41.30957031 15.91821289 C40.43526367 15.91190857 39.56095703 15.90560425 38.66015625 15.89910889 C37.71430664 15.90315735 36.76845703 15.90720581 35.79394531 15.91137695 C34.34036621 15.90850677 34.34036621 15.90850677 32.85742188 15.90557861 C30.80631247 15.90421616 28.75519446 15.90791677 26.70410156 15.91625977 C23.55676992 15.92695836 20.41000911 15.91636642 17.26269531 15.90356445 C15.27311071 15.90488604 13.28352647 15.90744841 11.29394531 15.91137695 C9.8751709 15.90530426 9.8751709 15.90530426 8.42773438 15.89910889 C7.55342773 15.90541321 6.67912109 15.91171753 5.77832031 15.91821289 C5.00713867 15.91980408 4.23595703 15.92139526 3.44140625 15.92303467 C1.30231948 16.01392776 1.30231948 16.01392776 -0.45605469 18.17700195 Z " fill="#000000" transform="translate(376.4560546875,375.822998046875)"/>
<path d="M0 0 C1.7125296 -0.01925285 1.7125296 -0.01925285 3.45965576 -0.03889465 C5.31895721 -0.04997505 5.31895721 -0.04997505 7.21582031 -0.0612793 C8.48613098 -0.06935104 9.75644165 -0.07742279 11.06524658 -0.08573914 C13.75870419 -0.09959131 16.45203893 -0.11060399 19.14550781 -0.11816406 C22.58663115 -0.12920954 26.02710442 -0.16358628 29.4679985 -0.20333576 C32.75887443 -0.23585883 36.04980818 -0.24028631 39.34082031 -0.2487793 C40.57225769 -0.26628738 41.80369507 -0.28379547 43.07244873 -0.30183411 C53.71325023 -0.27486493 53.71325023 -0.27486493 58.54394531 4.17700195 C62.390004 8.5427983 63.66459841 10.86420169 63.72094727 16.63305664 C63.74020012 18.34558624 63.74020012 18.34558624 63.75984192 20.0927124 C63.76722885 21.3322467 63.77461578 22.57178101 63.78222656 23.84887695 C63.79029831 25.11918762 63.79837006 26.38949829 63.8066864 27.69830322 C63.82053858 30.39176083 63.83155126 33.08509558 63.83911133 35.77856445 C63.85015681 39.21968779 63.88453355 42.66016106 63.92428303 46.10105515 C63.95680609 49.39193107 63.96123358 52.68286482 63.96972656 55.97387695 C63.98723465 57.20531433 64.00474274 58.43675171 64.02278137 59.70550537 C63.9958122 70.34630688 63.9958122 70.34630688 59.54394531 75.17700195 C55.17814896 79.02306064 52.85674558 80.29765505 47.08789062 80.35400391 C45.37536102 80.37325676 45.37536102 80.37325676 43.62823486 80.39289856 C42.38870056 80.40028549 41.14916626 80.40767242 39.87207031 80.4152832 C38.60175964 80.42335495 37.33144897 80.4314267 36.02264404 80.43974304 C33.32918643 80.45359522 30.63585169 80.4646079 27.94238281 80.47216797 C24.50125948 80.48321345 21.0607862 80.51759019 17.61989212 80.55733967 C14.3290162 80.58986274 11.03808245 80.59429022 7.74707031 80.6027832 C6.51563293 80.62029129 5.28419556 80.63779938 4.01544189 80.65583801 C-6.62535961 80.62886884 -6.62535961 80.62886884 -11.45605469 76.17700195 C-15.30211338 71.8112056 -16.57670778 69.48980222 -16.63305664 63.72094727 C-16.64589188 62.57926086 -16.65872711 61.43757446 -16.67195129 60.2612915 C-16.67933823 59.0217572 -16.68672516 57.7822229 -16.69433594 56.50512695 C-16.70240768 55.23481628 -16.71047943 53.96450562 -16.71879578 52.65570068 C-16.73264795 49.96224307 -16.74366063 47.26890833 -16.7512207 44.57543945 C-16.76226618 41.13431612 -16.79664292 37.69384284 -16.8363924 34.25294876 C-16.86891547 30.96207284 -16.87334295 27.67113909 -16.88183594 24.38012695 C-16.89934402 23.14868958 -16.91685211 21.9172522 -16.93489075 20.64849854 C-16.90792157 10.00769703 -16.90792157 10.00769703 -12.45605469 5.17700195 C-8.09025834 1.33094326 -5.76885495 0.05634886 0 0 Z M-0.45605469 18.17700195 C-0.76103403 20.14144387 -0.76103403 20.14144387 -0.71484375 22.41137695 C-0.72114807 23.28568359 -0.72745239 24.15999023 -0.73394775 25.06079102 C-0.72989929 26.00664062 -0.72585083 26.95249023 -0.72167969 27.92700195 C-0.72359314 28.89605469 -0.72550659 29.86510742 -0.72747803 30.86352539 C-0.72884048 32.9146348 -0.72513987 34.96575281 -0.71679688 37.0168457 C-0.70609828 40.16417734 -0.71669022 43.31093816 -0.72949219 46.45825195 C-0.7281706 48.44783655 -0.72560823 50.43742079 -0.72167969 52.42700195 C-0.72572815 53.37285156 -0.72977661 54.31870117 -0.73394775 55.29321289 C-0.72764343 56.16751953 -0.72133911 57.04182617 -0.71484375 57.94262695 C-0.71245697 59.09939941 -0.71245697 59.09939941 -0.71002197 60.27954102 C-0.61912888 62.41862779 -0.61912888 62.41862779 1.54394531 64.17700195 C3.50838723 64.48198129 3.50838723 64.48198129 5.77832031 64.43579102 C6.65262695 64.44209534 7.52693359 64.44839966 8.42773438 64.45489502 C9.84650879 64.44882233 9.84650879 64.44882233 11.29394531 64.44262695 C12.74752441 64.44549713 12.74752441 64.44549713 14.23046875 64.44842529 C16.28157816 64.44978774 18.33269617 64.44608713 20.38378906 64.43774414 C23.5311207 64.42704555 26.67788151 64.43763749 29.82519531 64.45043945 C31.81477991 64.44911787 33.80436415 64.4465555 35.79394531 64.44262695 C37.21271973 64.44869965 37.21271973 64.44869965 38.66015625 64.45489502 C39.53446289 64.4485907 40.40876953 64.44228638 41.30957031 64.43579102 C42.46634277 64.43340424 42.46634277 64.43340424 43.64648438 64.43096924 C45.78557115 64.34007615 45.78557115 64.34007615 47.54394531 62.17700195 C47.84892465 60.21256003 47.84892465 60.21256003 47.80273438 57.94262695 C47.8090387 57.06832031 47.81534302 56.19401367 47.82183838 55.29321289 C47.81778992 54.34736328 47.81374146 53.40151367 47.80957031 52.42700195 C47.81148376 51.45794922 47.81339722 50.48889648 47.81536865 49.49047852 C47.8167311 47.43936911 47.81303049 45.3882511 47.8046875 43.3371582 C47.79398891 40.18982656 47.80458085 37.04306575 47.81738281 33.89575195 C47.81606123 31.90616735 47.81349886 29.91658311 47.80957031 27.92700195 C47.81361877 26.98115234 47.81766724 26.03530273 47.82183838 25.06079102 C47.81553406 24.18648438 47.80922974 23.31217773 47.80273438 22.41137695 C47.80114319 21.64019531 47.799552 20.86901367 47.7979126 20.07446289 C47.70701951 17.93537612 47.70701951 17.93537612 45.54394531 16.17700195 C43.57950339 15.87202261 43.57950339 15.87202261 41.30957031 15.91821289 C40.43526367 15.91190857 39.56095703 15.90560425 38.66015625 15.89910889 C37.71430664 15.90315735 36.76845703 15.90720581 35.79394531 15.91137695 C34.34036621 15.90850677 34.34036621 15.90850677 32.85742188 15.90557861 C30.80631247 15.90421616 28.75519446 15.90791677 26.70410156 15.91625977 C23.55676992 15.92695836 20.41000911 15.91636642 17.26269531 15.90356445 C15.27311071 15.90488604 13.28352647 15.90744841 11.29394531 15.91137695 C9.8751709 15.90530426 9.8751709 15.90530426 8.42773438 15.89910889 C7.55342773 15.90541321 6.67912109 15.91171753 5.77832031 15.91821289 C5.00713867 15.91980408 4.23595703 15.92139526 3.44140625 15.92303467 C1.30231948 16.01392776 1.30231948 16.01392776 -0.45605469 18.17700195 Z " fill="#000000" transform="translate(280.4560546875,375.822998046875)"/>
<path d="M0 0 C1.7125296 -0.01925285 1.7125296 -0.01925285 3.45965576 -0.03889465 C5.31895721 -0.04997505 5.31895721 -0.04997505 7.21582031 -0.0612793 C8.48613098 -0.06935104 9.75644165 -0.07742279 11.06524658 -0.08573914 C13.75870419 -0.09959131 16.45203893 -0.11060399 19.14550781 -0.11816406 C22.58663115 -0.12920954 26.02710442 -0.16358628 29.4679985 -0.20333576 C32.75887443 -0.23585883 36.04980818 -0.24028631 39.34082031 -0.2487793 C40.57225769 -0.26628738 41.80369507 -0.28379547 43.07244873 -0.30183411 C53.71325023 -0.27486493 53.71325023 -0.27486493 58.54394531 4.17700195 C62.390004 8.5427983 63.66459841 10.86420169 63.72094727 16.63305664 C63.74020012 18.34558624 63.74020012 18.34558624 63.75984192 20.0927124 C63.76722885 21.3322467 63.77461578 22.57178101 63.78222656 23.84887695 C63.79029831 25.11918762 63.79837006 26.38949829 63.8066864 27.69830322 C63.82053858 30.39176083 63.83155126 33.08509558 63.83911133 35.77856445 C63.85015681 39.21968779 63.88453355 42.66016106 63.92428303 46.10105515 C63.95680609 49.39193107 63.96123358 52.68286482 63.96972656 55.97387695 C63.98723465 57.20531433 64.00474274 58.43675171 64.02278137 59.70550537 C63.9958122 70.34630688 63.9958122 70.34630688 59.54394531 75.17700195 C55.17814896 79.02306064 52.85674558 80.29765505 47.08789062 80.35400391 C45.37536102 80.37325676 45.37536102 80.37325676 43.62823486 80.39289856 C42.38870056 80.40028549 41.14916626 80.40767242 39.87207031 80.4152832 C38.60175964 80.42335495 37.33144897 80.4314267 36.02264404 80.43974304 C33.32918643 80.45359522 30.63585169 80.4646079 27.94238281 80.47216797 C24.50125948 80.48321345 21.0607862 80.51759019 17.61989212 80.55733967 C14.3290162 80.58986274 11.03808245 80.59429022 7.74707031 80.6027832 C6.51563293 80.62029129 5.28419556 80.63779938 4.01544189 80.65583801 C-6.62535961 80.62886884 -6.62535961 80.62886884 -11.45605469 76.17700195 C-15.30211338 71.8112056 -16.57670778 69.48980222 -16.63305664 63.72094727 C-16.64589188 62.57926086 -16.65872711 61.43757446 -16.67195129 60.2612915 C-16.67933823 59.0217572 -16.68672516 57.7822229 -16.69433594 56.50512695 C-16.70240768 55.23481628 -16.71047943 53.96450562 -16.71879578 52.65570068 C-16.73264795 49.96224307 -16.74366063 47.26890833 -16.7512207 44.57543945 C-16.76226618 41.13431612 -16.79664292 37.69384284 -16.8363924 34.25294876 C-16.86891547 30.96207284 -16.87334295 27.67113909 -16.88183594 24.38012695 C-16.89934402 23.14868958 -16.91685211 21.9172522 -16.93489075 20.64849854 C-16.90792157 10.00769703 -16.90792157 10.00769703 -12.45605469 5.17700195 C-8.09025834 1.33094326 -5.76885495 0.05634886 0 0 Z M-0.45605469 18.17700195 C-0.76103403 20.14144387 -0.76103403 20.14144387 -0.71484375 22.41137695 C-0.72114807 23.28568359 -0.72745239 24.15999023 -0.73394775 25.06079102 C-0.72989929 26.00664062 -0.72585083 26.95249023 -0.72167969 27.92700195 C-0.72359314 28.89605469 -0.72550659 29.86510742 -0.72747803 30.86352539 C-0.72884048 32.9146348 -0.72513987 34.96575281 -0.71679688 37.0168457 C-0.70609828 40.16417734 -0.71669022 43.31093816 -0.72949219 46.45825195 C-0.7281706 48.44783655 -0.72560823 50.43742079 -0.72167969 52.42700195 C-0.72572815 53.37285156 -0.72977661 54.31870117 -0.73394775 55.29321289 C-0.72764343 56.16751953 -0.72133911 57.04182617 -0.71484375 57.94262695 C-0.71245697 59.09939941 -0.71245697 59.09939941 -0.71002197 60.27954102 C-0.61912888 62.41862779 -0.61912888 62.41862779 1.54394531 64.17700195 C3.50838723 64.48198129 3.50838723 64.48198129 5.77832031 64.43579102 C6.65262695 64.44209534 7.52693359 64.44839966 8.42773438 64.45489502 C9.84650879 64.44882233 9.84650879 64.44882233 11.29394531 64.44262695 C12.74752441 64.44549713 12.74752441 64.44549713 14.23046875 64.44842529 C16.28157816 64.44978774 18.33269617 64.44608713 20.38378906 64.43774414 C23.5311207 64.42704555 26.67788151 64.43763749 29.82519531 64.45043945 C31.81477991 64.44911787 33.80436415 64.4465555 35.79394531 64.44262695 C37.21271973 64.44869965 37.21271973 64.44869965 38.66015625 64.45489502 C39.53446289 64.4485907 40.40876953 64.44228638 41.30957031 64.43579102 C42.46634277 64.43340424 42.46634277 64.43340424 43.64648438 64.43096924 C45.78557115 64.34007615 45.78557115 64.34007615 47.54394531 62.17700195 C47.84892465 60.21256003 47.84892465 60.21256003 47.80273438 57.94262695 C47.8090387 57.06832031 47.81534302 56.19401367 47.82183838 55.29321289 C47.81778992 54.34736328 47.81374146 53.40151367 47.80957031 52.42700195 C47.81148376 51.45794922 47.81339722 50.48889648 47.81536865 49.49047852 C47.8167311 47.43936911 47.81303049 45.3882511 47.8046875 43.3371582 C47.79398891 40.18982656 47.80458085 37.04306575 47.81738281 33.89575195 C47.81606123 31.90616735 47.81349886 29.91658311 47.80957031 27.92700195 C47.81361877 26.98115234 47.81766724 26.03530273 47.82183838 25.06079102 C47.81553406 24.18648438 47.80922974 23.31217773 47.80273438 22.41137695 C47.80114319 21.64019531 47.799552 20.86901367 47.7979126 20.07446289 C47.70701951 17.93537612 47.70701951 17.93537612 45.54394531 16.17700195 C43.57950339 15.87202261 43.57950339 15.87202261 41.30957031 15.91821289 C40.43526367 15.91190857 39.56095703 15.90560425 38.66015625 15.89910889 C37.71430664 15.90315735 36.76845703 15.90720581 35.79394531 15.91137695 C34.34036621 15.90850677 34.34036621 15.90850677 32.85742188 15.90557861 C30.80631247 15.90421616 28.75519446 15.90791677 26.70410156 15.91625977 C23.55676992 15.92695836 20.41000911 15.91636642 17.26269531 15.90356445 C15.27311071 15.90488604 13.28352647 15.90744841 11.29394531 15.91137695 C9.8751709 15.90530426 9.8751709 15.90530426 8.42773438 15.89910889 C7.55342773 15.90541321 6.67912109 15.91171753 5.77832031 15.91821289 C5.00713867 15.91980408 4.23595703 15.92139526 3.44140625 15.92303467 C1.30231948 16.01392776 1.30231948 16.01392776 -0.45605469 18.17700195 Z " fill="#000000" transform="translate(184.4560546875,375.822998046875)"/>
<path d="M0 0 C1.7125296 -0.01925285 1.7125296 -0.01925285 3.45965576 -0.03889465 C5.31895721 -0.04997505 5.31895721 -0.04997505 7.21582031 -0.0612793 C8.48613098 -0.06935104 9.75644165 -0.07742279 11.06524658 -0.08573914 C13.75870419 -0.09959131 16.45203893 -0.11060399 19.14550781 -0.11816406 C22.58663115 -0.12920954 26.02710442 -0.16358628 29.4679985 -0.20333576 C32.75887443 -0.23585883 36.04980818 -0.24028631 39.34082031 -0.2487793 C40.57225769 -0.26628738 41.80369507 -0.28379547 43.07244873 -0.30183411 C53.71325023 -0.27486493 53.71325023 -0.27486493 58.54394531 4.17700195 C62.390004 8.5427983 63.66459841 10.86420169 63.72094727 16.63305664 C63.74020012 18.34558624 63.74020012 18.34558624 63.75984192 20.0927124 C63.76722885 21.3322467 63.77461578 22.57178101 63.78222656 23.84887695 C63.79029831 25.11918762 63.79837006 26.38949829 63.8066864 27.69830322 C63.82053858 30.39176083 63.83155126 33.08509558 63.83911133 35.77856445 C63.85015681 39.21968779 63.88453355 42.66016106 63.92428303 46.10105515 C63.95680609 49.39193107 63.96123358 52.68286482 63.96972656 55.97387695 C63.98723465 57.20531433 64.00474274 58.43675171 64.02278137 59.70550537 C63.9958122 70.34630688 63.9958122 70.34630688 59.54394531 75.17700195 C55.17814896 79.02306064 52.85674558 80.29765505 47.08789062 80.35400391 C45.37536102 80.37325676 45.37536102 80.37325676 43.62823486 80.39289856 C42.38870056 80.40028549 41.14916626 80.40767242 39.87207031 80.4152832 C38.60175964 80.42335495 37.33144897 80.4314267 36.02264404 80.43974304 C33.32918643 80.45359522 30.63585169 80.4646079 27.94238281 80.47216797 C24.50125948 80.48321345 21.0607862 80.51759019 17.61989212 80.55733967 C14.3290162 80.58986274 11.03808245 80.59429022 7.74707031 80.6027832 C6.51563293 80.62029129 5.28419556 80.63779938 4.01544189 80.65583801 C-6.62535961 80.62886884 -6.62535961 80.62886884 -11.45605469 76.17700195 C-15.30211338 71.8112056 -16.57670778 69.48980222 -16.63305664 63.72094727 C-16.64589188 62.57926086 -16.65872711 61.43757446 -16.67195129 60.2612915 C-16.67933823 59.0217572 -16.68672516 57.7822229 -16.69433594 56.50512695 C-16.70240768 55.23481628 -16.71047943 53.96450562 -16.71879578 52.65570068 C-16.73264795 49.96224307 -16.74366063 47.26890833 -16.7512207 44.57543945 C-16.76226618 41.13431612 -16.79664292 37.69384284 -16.8363924 34.25294876 C-16.86891547 30.96207284 -16.87334295 27.67113909 -16.88183594 24.38012695 C-16.89934402 23.14868958 -16.91685211 21.9172522 -16.93489075 20.64849854 C-16.90792157 10.00769703 -16.90792157 10.00769703 -12.45605469 5.17700195 C-8.09025834 1.33094326 -5.76885495 0.05634886 0 0 Z M-0.45605469 18.17700195 C-0.76103403 20.14144387 -0.76103403 20.14144387 -0.71484375 22.41137695 C-0.72114807 23.28568359 -0.72745239 24.15999023 -0.73394775 25.06079102 C-0.72989929 26.00664062 -0.72585083 26.95249023 -0.72167969 27.92700195 C-0.72359314 28.89605469 -0.72550659 29.86510742 -0.72747803 30.86352539 C-0.72884048 32.9146348 -0.72513987 34.96575281 -0.71679688 37.0168457 C-0.70609828 40.16417734 -0.71669022 43.31093816 -0.72949219 46.45825195 C-0.7281706 48.44783655 -0.72560823 50.43742079 -0.72167969 52.42700195 C-0.72572815 53.37285156 -0.72977661 54.31870117 -0.73394775 55.29321289 C-0.72764343 56.16751953 -0.72133911 57.04182617 -0.71484375 57.94262695 C-0.71245697 59.09939941 -0.71245697 59.09939941 -0.71002197 60.27954102 C-0.61912888 62.41862779 -0.61912888 62.41862779 1.54394531 64.17700195 C3.50838723 64.48198129 3.50838723 64.48198129 5.77832031 64.43579102 C6.65262695 64.44209534 7.52693359 64.44839966 8.42773438 64.45489502 C9.84650879 64.44882233 9.84650879 64.44882233 11.29394531 64.44262695 C12.74752441 64.44549713 12.74752441 64.44549713 14.23046875 64.44842529 C16.28157816 64.44978774 18.33269617 64.44608713 20.38378906 64.43774414 C23.5311207 64.42704555 26.67788151 64.43763749 29.82519531 64.45043945 C31.81477991 64.44911787 33.80436415 64.4465555 35.79394531 64.44262695 C37.21271973 64.44869965 37.21271973 64.44869965 38.66015625 64.45489502 C39.53446289 64.4485907 40.40876953 64.44228638 41.30957031 64.43579102 C42.46634277 64.43340424 42.46634277 64.43340424 43.64648438 64.43096924 C45.78557115 64.34007615 45.78557115 64.34007615 47.54394531 62.17700195 C47.84892465 60.21256003 47.84892465 60.21256003 47.80273438 57.94262695 C47.8090387 57.06832031 47.81534302 56.19401367 47.82183838 55.29321289 C47.81778992 54.34736328 47.81374146 53.40151367 47.80957031 52.42700195 C47.81148376 51.45794922 47.81339722 50.48889648 47.81536865 49.49047852 C47.8167311 47.43936911 47.81303049 45.3882511 47.8046875 43.3371582 C47.79398891 40.18982656 47.80458085 37.04306575 47.81738281 33.89575195 C47.81606123 31.90616735 47.81349886 29.91658311 47.80957031 27.92700195 C47.81361877 26.98115234 47.81766724 26.03530273 47.82183838 25.06079102 C47.81553406 24.18648438 47.80922974 23.31217773 47.80273438 22.41137695 C47.80114319 21.64019531 47.799552 20.86901367 47.7979126 20.07446289 C47.70701951 17.93537612 47.70701951 17.93537612 45.54394531 16.17700195 C43.57950339 15.87202261 43.57950339 15.87202261 41.30957031 15.91821289 C40.43526367 15.91190857 39.56095703 15.90560425 38.66015625 15.89910889 C37.71430664 15.90315735 36.76845703 15.90720581 35.79394531 15.91137695 C34.34036621 15.90850677 34.34036621 15.90850677 32.85742188 15.90557861 C30.80631247 15.90421616 28.75519446 15.90791677 26.70410156 15.91625977 C23.55676992 15.92695836 20.41000911 15.91636642 17.26269531 15.90356445 C15.27311071 15.90488604 13.28352647 15.90744841 11.29394531 15.91137695 C9.8751709 15.90530426 9.8751709 15.90530426 8.42773438 15.89910889 C7.55342773 15.90541321 6.67912109 15.91171753 5.77832031 15.91821289 C5.00713867 15.91980408 4.23595703 15.92139526 3.44140625 15.92303467 C1.30231948 16.01392776 1.30231948 16.01392776 -0.45605469 18.17700195 Z " fill="#000000" transform="translate(88.4560546875,375.822998046875)"/>
<path d="M0 0 C1.7125296 -0.01925285 1.7125296 -0.01925285 3.45965576 -0.03889465 C5.31895721 -0.04997505 5.31895721 -0.04997505 7.21582031 -0.0612793 C8.48613098 -0.06935104 9.75644165 -0.07742279 11.06524658 -0.08573914 C13.75870419 -0.09959131 16.45203893 -0.11060399 19.14550781 -0.11816406 C22.58663115 -0.12920954 26.02710442 -0.16358628 29.4679985 -0.20333576 C32.75887443 -0.23585883 36.04980818 -0.24028631 39.34082031 -0.2487793 C40.57225769 -0.26628738 41.80369507 -0.28379547 43.07244873 -0.30183411 C53.71325023 -0.27486493 53.71325023 -0.27486493 58.54394531 4.17700195 C62.390004 8.5427983 63.66459841 10.86420169 63.72094727 16.63305664 C63.74020012 18.34558624 63.74020012 18.34558624 63.75984192 20.0927124 C63.76722885 21.3322467 63.77461578 22.57178101 63.78222656 23.84887695 C63.79029831 25.11918762 63.79837006 26.38949829 63.8066864 27.69830322 C63.82053858 30.39176083 63.83155126 33.08509558 63.83911133 35.77856445 C63.85015681 39.21968779 63.88453355 42.66016106 63.92428303 46.10105515 C63.95680609 49.39193107 63.96123358 52.68286482 63.96972656 55.97387695 C63.98723465 57.20531433 64.00474274 58.43675171 64.02278137 59.70550537 C63.9958122 70.34630688 63.9958122 70.34630688 59.54394531 75.17700195 C55.17814896 79.02306064 52.85674558 80.29765505 47.08789062 80.35400391 C45.37536102 80.37325676 45.37536102 80.37325676 43.62823486 80.39289856 C42.38870056 80.40028549 41.14916626 80.40767242 39.87207031 80.4152832 C38.60175964 80.42335495 37.33144897 80.4314267 36.02264404 80.43974304 C33.32918643 80.45359522 30.63585169 80.4646079 27.94238281 80.47216797 C24.50125948 80.48321345 21.0607862 80.51759019 17.61989212 80.55733967 C14.3290162 80.58986274 11.03808245 80.59429022 7.74707031 80.6027832 C6.51563293 80.62029129 5.28419556 80.63779938 4.01544189 80.65583801 C-6.62535961 80.62886884 -6.62535961 80.62886884 -11.45605469 76.17700195 C-15.30211338 71.8112056 -16.57670778 69.48980222 -16.63305664 63.72094727 C-16.64589188 62.57926086 -16.65872711 61.43757446 -16.67195129 60.2612915 C-16.67933823 59.0217572 -16.68672516 57.7822229 -16.69433594 56.50512695 C-16.70240768 55.23481628 -16.71047943 53.96450562 -16.71879578 52.65570068 C-16.73264795 49.96224307 -16.74366063 47.26890833 -16.7512207 44.57543945 C-16.76226618 41.13431612 -16.79664292 37.69384284 -16.8363924 34.25294876 C-16.86891547 30.96207284 -16.87334295 27.67113909 -16.88183594 24.38012695 C-16.89934402 23.14868958 -16.91685211 21.9172522 -16.93489075 20.64849854 C-16.90792157 10.00769703 -16.90792157 10.00769703 -12.45605469 5.17700195 C-8.09025834 1.33094326 -5.76885495 0.05634886 0 0 Z M-0.45605469 18.17700195 C-0.76103403 20.14144387 -0.76103403 20.14144387 -0.71484375 22.41137695 C-0.72114807 23.28568359 -0.72745239 24.15999023 -0.73394775 25.06079102 C-0.72989929 26.00664062 -0.72585083 26.95249023 -0.72167969 27.92700195 C-0.72359314 28.89605469 -0.72550659 29.86510742 -0.72747803 30.86352539 C-0.72884048 32.9146348 -0.72513987 34.96575281 -0.71679688 37.0168457 C-0.70609828 40.16417734 -0.71669022 43.31093816 -0.72949219 46.45825195 C-0.7281706 48.44783655 -0.72560823 50.43742079 -0.72167969 52.42700195 C-0.72572815 53.37285156 -0.72977661 54.31870117 -0.73394775 55.29321289 C-0.72764343 56.16751953 -0.72133911 57.04182617 -0.71484375 57.94262695 C-0.71245697 59.09939941 -0.71245697 59.09939941 -0.71002197 60.27954102 C-0.61912888 62.41862779 -0.61912888 62.41862779 1.54394531 64.17700195 C3.50838723 64.48198129 3.50838723 64.48198129 5.77832031 64.43579102 C6.65262695 64.44209534 7.52693359 64.44839966 8.42773438 64.45489502 C9.84650879 64.44882233 9.84650879 64.44882233 11.29394531 64.44262695 C12.74752441 64.44549713 12.74752441 64.44549713 14.23046875 64.44842529 C16.28157816 64.44978774 18.33269617 64.44608713 20.38378906 64.43774414 C23.5311207 64.42704555 26.67788151 64.43763749 29.82519531 64.45043945 C31.81477991 64.44911787 33.80436415 64.4465555 35.79394531 64.44262695 C37.21271973 64.44869965 37.21271973 64.44869965 38.66015625 64.45489502 C39.53446289 64.4485907 40.40876953 64.44228638 41.30957031 64.43579102 C42.46634277 64.43340424 42.46634277 64.43340424 43.64648438 64.43096924 C45.78557115 64.34007615 45.78557115 64.34007615 47.54394531 62.17700195 C47.84892465 60.21256003 47.84892465 60.21256003 47.80273438 57.94262695 C47.8090387 57.06832031 47.81534302 56.19401367 47.82183838 55.29321289 C47.81778992 54.34736328 47.81374146 53.40151367 47.80957031 52.42700195 C47.81148376 51.45794922 47.81339722 50.48889648 47.81536865 49.49047852 C47.8167311 47.43936911 47.81303049 45.3882511 47.8046875 43.3371582 C47.79398891 40.18982656 47.80458085 37.04306575 47.81738281 33.89575195 C47.81606123 31.90616735 47.81349886 29.91658311 47.80957031 27.92700195 C47.81361877 26.98115234 47.81766724 26.03530273 47.82183838 25.06079102 C47.81553406 24.18648438 47.80922974 23.31217773 47.80273438 22.41137695 C47.80114319 21.64019531 47.799552 20.86901367 47.7979126 20.07446289 C47.70701951 17.93537612 47.70701951 17.93537612 45.54394531 16.17700195 C43.57950339 15.87202261 43.57950339 15.87202261 41.30957031 15.91821289 C40.43526367 15.91190857 39.56095703 15.90560425 38.66015625 15.89910889 C37.71430664 15.90315735 36.76845703 15.90720581 35.79394531 15.91137695 C34.34036621 15.90850677 34.34036621 15.90850677 32.85742188 15.90557861 C30.80631247 15.90421616 28.75519446 15.90791677 26.70410156 15.91625977 C23.55676992 15.92695836 20.41000911 15.91636642 17.26269531 15.90356445 C15.27311071 15.90488604 13.28352647 15.90744841 11.29394531 15.91137695 C9.8751709 15.90530426 9.8751709 15.90530426 8.42773438 15.89910889 C7.55342773 15.90541321 6.67912109 15.91171753 5.77832031 15.91821289 C5.00713867 15.91980408 4.23595703 15.92139526 3.44140625 15.92303467 C1.30231948 16.01392776 1.30231948 16.01392776 -0.45605469 18.17700195 Z " fill="#000000" transform="translate(376.4560546875,279.822998046875)"/>
<path d="M0 0 C1.7125296 -0.01925285 1.7125296 -0.01925285 3.45965576 -0.03889465 C5.31895721 -0.04997505 5.31895721 -0.04997505 7.21582031 -0.0612793 C8.48613098 -0.06935104 9.75644165 -0.07742279 11.06524658 -0.08573914 C13.75870419 -0.09959131 16.45203893 -0.11060399 19.14550781 -0.11816406 C22.58663115 -0.12920954 26.02710442 -0.16358628 29.4679985 -0.20333576 C32.75887443 -0.23585883 36.04980818 -0.24028631 39.34082031 -0.2487793 C40.57225769 -0.26628738 41.80369507 -0.28379547 43.07244873 -0.30183411 C53.71325023 -0.27486493 53.71325023 -0.27486493 58.54394531 4.17700195 C62.390004 8.5427983 63.66459841 10.86420169 63.72094727 16.63305664 C63.74020012 18.34558624 63.74020012 18.34558624 63.75984192 20.0927124 C63.76722885 21.3322467 63.77461578 22.57178101 63.78222656 23.84887695 C63.79029831 25.11918762 63.79837006 26.38949829 63.8066864 27.69830322 C63.82053858 30.39176083 63.83155126 33.08509558 63.83911133 35.77856445 C63.85015681 39.21968779 63.88453355 42.66016106 63.92428303 46.10105515 C63.95680609 49.39193107 63.96123358 52.68286482 63.96972656 55.97387695 C63.98723465 57.20531433 64.00474274 58.43675171 64.02278137 59.70550537 C63.9958122 70.34630688 63.9958122 70.34630688 59.54394531 75.17700195 C55.17814896 79.02306064 52.85674558 80.29765505 47.08789062 80.35400391 C45.37536102 80.37325676 45.37536102 80.37325676 43.62823486 80.39289856 C42.38870056 80.40028549 41.14916626 80.40767242 39.87207031 80.4152832 C38.60175964 80.42335495 37.33144897 80.4314267 36.02264404 80.43974304 C33.32918643 80.45359522 30.63585169 80.4646079 27.94238281 80.47216797 C24.50125948 80.48321345 21.0607862 80.51759019 17.61989212 80.55733967 C14.3290162 80.58986274 11.03808245 80.59429022 7.74707031 80.6027832 C6.51563293 80.62029129 5.28419556 80.63779938 4.01544189 80.65583801 C-6.62535961 80.62886884 -6.62535961 80.62886884 -11.45605469 76.17700195 C-15.30211338 71.8112056 -16.57670778 69.48980222 -16.63305664 63.72094727 C-16.64589188 62.57926086 -16.65872711 61.43757446 -16.67195129 60.2612915 C-16.67933823 59.0217572 -16.68672516 57.7822229 -16.69433594 56.50512695 C-16.70240768 55.23481628 -16.71047943 53.96450562 -16.71879578 52.65570068 C-16.73264795 49.96224307 -16.74366063 47.26890833 -16.7512207 44.57543945 C-16.76226618 41.13431612 -16.79664292 37.69384284 -16.8363924 34.25294876 C-16.86891547 30.96207284 -16.87334295 27.67113909 -16.88183594 24.38012695 C-16.89934402 23.14868958 -16.91685211 21.9172522 -16.93489075 20.64849854 C-16.90792157 10.00769703 -16.90792157 10.00769703 -12.45605469 5.17700195 C-8.09025834 1.33094326 -5.76885495 0.05634886 0 0 Z M-0.45605469 18.17700195 C-0.76103403 20.14144387 -0.76103403 20.14144387 -0.71484375 22.41137695 C-0.72114807 23.28568359 -0.72745239 24.15999023 -0.73394775 25.06079102 C-0.72989929 26.00664062 -0.72585083 26.95249023 -0.72167969 27.92700195 C-0.72359314 28.89605469 -0.72550659 29.86510742 -0.72747803 30.86352539 C-0.72884048 32.9146348 -0.72513987 34.96575281 -0.71679688 37.0168457 C-0.70609828 40.16417734 -0.71669022 43.31093816 -0.72949219 46.45825195 C-0.7281706 48.44783655 -0.72560823 50.43742079 -0.72167969 52.42700195 C-0.72572815 53.37285156 -0.72977661 54.31870117 -0.73394775 55.29321289 C-0.72764343 56.16751953 -0.72133911 57.04182617 -0.71484375 57.94262695 C-0.71245697 59.09939941 -0.71245697 59.09939941 -0.71002197 60.27954102 C-0.61912888 62.41862779 -0.61912888 62.41862779 1.54394531 64.17700195 C3.50838723 64.48198129 3.50838723 64.48198129 5.77832031 64.43579102 C6.65262695 64.44209534 7.52693359 64.44839966 8.42773438 64.45489502 C9.84650879 64.44882233 9.84650879 64.44882233 11.29394531 64.44262695 C12.74752441 64.44549713 12.74752441 64.44549713 14.23046875 64.44842529 C16.28157816 64.44978774 18.33269617 64.44608713 20.38378906 64.43774414 C23.5311207 64.42704555 26.67788151 64.43763749 29.82519531 64.45043945 C31.81477991 64.44911787 33.80436415 64.4465555 35.79394531 64.44262695 C37.21271973 64.44869965 37.21271973 64.44869965 38.66015625 64.45489502 C39.53446289 64.4485907 40.40876953 64.44228638 41.30957031 64.43579102 C42.46634277 64.43340424 42.46634277 64.43340424 43.64648438 64.43096924 C45.78557115 64.34007615 45.78557115 64.34007615 47.54394531 62.17700195 C47.84892465 60.21256003 47.84892465 60.21256003 47.80273438 57.94262695 C47.8090387 57.06832031 47.81534302 56.19401367 47.82183838 55.29321289 C47.81778992 54.34736328 47.81374146 53.40151367 47.80957031 52.42700195 C47.81148376 51.45794922 47.81339722 50.48889648 47.81536865 49.49047852 C47.8167311 47.43936911 47.81303049 45.3882511 47.8046875 43.3371582 C47.79398891 40.18982656 47.80458085 37.04306575 47.81738281 33.89575195 C47.81606123 31.90616735 47.81349886 29.91658311 47.80957031 27.92700195 C47.81361877 26.98115234 47.81766724 26.03530273 47.82183838 25.06079102 C47.81553406 24.18648438 47.80922974 23.31217773 47.80273438 22.41137695 C47.80114319 21.64019531 47.799552 20.86901367 47.7979126 20.07446289 C47.70701951 17.93537612 47.70701951 17.93537612 45.54394531 16.17700195 C43.57950339 15.87202261 43.57950339 15.87202261 41.30957031 15.91821289 C40.43526367 15.91190857 39.56095703 15.90560425 38.66015625 15.89910889 C37.71430664 15.90315735 36.76845703 15.90720581 35.79394531 15.91137695 C34.34036621 15.90850677 34.34036621 15.90850677 32.85742188 15.90557861 C30.80631247 15.90421616 28.75519446 15.90791677 26.70410156 15.91625977 C23.55676992 15.92695836 20.41000911 15.91636642 17.26269531 15.90356445 C15.27311071 15.90488604 13.28352647 15.90744841 11.29394531 15.91137695 C9.8751709 15.90530426 9.8751709 15.90530426 8.42773438 15.89910889 C7.55342773 15.90541321 6.67912109 15.91171753 5.77832031 15.91821289 C5.00713867 15.91980408 4.23595703 15.92139526 3.44140625 15.92303467 C1.30231948 16.01392776 1.30231948 16.01392776 -0.45605469 18.17700195 Z " fill="#000000" transform="translate(280.4560546875,279.822998046875)"/>
<path d="M0 0 C1.7125296 -0.01925285 1.7125296 -0.01925285 3.45965576 -0.03889465 C5.31895721 -0.04997505 5.31895721 -0.04997505 7.21582031 -0.0612793 C8.48613098 -0.06935104 9.75644165 -0.07742279 11.06524658 -0.08573914 C13.75870419 -0.09959131 16.45203893 -0.11060399 19.14550781 -0.11816406 C22.58663115 -0.12920954 26.02710442 -0.16358628 29.4679985 -0.20333576 C32.75887443 -0.23585883 36.04980818 -0.24028631 39.34082031 -0.2487793 C40.57225769 -0.26628738 41.80369507 -0.28379547 43.07244873 -0.30183411 C53.71325023 -0.27486493 53.71325023 -0.27486493 58.54394531 4.17700195 C62.390004 8.5427983 63.66459841 10.86420169 63.72094727 16.63305664 C63.74020012 18.34558624 63.74020012 18.34558624 63.75984192 20.0927124 C63.76722885 21.3322467 63.77461578 22.57178101 63.78222656 23.84887695 C63.79029831 25.11918762 63.79837006 26.38949829 63.8066864 27.69830322 C63.82053858 30.39176083 63.83155126 33.08509558 63.83911133 35.77856445 C63.85015681 39.21968779 63.88453355 42.66016106 63.92428303 46.10105515 C63.95680609 49.39193107 63.96123358 52.68286482 63.96972656 55.97387695 C63.98723465 57.20531433 64.00474274 58.43675171 64.02278137 59.70550537 C63.9958122 70.34630688 63.9958122 70.34630688 59.54394531 75.17700195 C55.17814896 79.02306064 52.85674558 80.29765505 47.08789062 80.35400391 C45.37536102 80.37325676 45.37536102 80.37325676 43.62823486 80.39289856 C42.38870056 80.40028549 41.14916626 80.40767242 39.87207031 80.4152832 C38.60175964 80.42335495 37.33144897 80.4314267 36.02264404 80.43974304 C33.32918643 80.45359522 30.63585169 80.4646079 27.94238281 80.47216797 C24.50125948 80.48321345 21.0607862 80.51759019 17.61989212 80.55733967 C14.3290162 80.58986274 11.03808245 80.59429022 7.74707031 80.6027832 C6.51563293 80.62029129 5.28419556 80.63779938 4.01544189 80.65583801 C-6.62535961 80.62886884 -6.62535961 80.62886884 -11.45605469 76.17700195 C-15.30211338 71.8112056 -16.57670778 69.48980222 -16.63305664 63.72094727 C-16.64589188 62.57926086 -16.65872711 61.43757446 -16.67195129 60.2612915 C-16.67933823 59.0217572 -16.68672516 57.7822229 -16.69433594 56.50512695 C-16.70240768 55.23481628 -16.71047943 53.96450562 -16.71879578 52.65570068 C-16.73264795 49.96224307 -16.74366063 47.26890833 -16.7512207 44.57543945 C-16.76226618 41.13431612 -16.79664292 37.69384284 -16.8363924 34.25294876 C-16.86891547 30.96207284 -16.87334295 27.67113909 -16.88183594 24.38012695 C-16.89934402 23.14868958 -16.91685211 21.9172522 -16.93489075 20.64849854 C-16.90792157 10.00769703 -16.90792157 10.00769703 -12.45605469 5.17700195 C-8.09025834 1.33094326 -5.76885495 0.05634886 0 0 Z M-0.45605469 18.17700195 C-0.76103403 20.14144387 -0.76103403 20.14144387 -0.71484375 22.41137695 C-0.72114807 23.28568359 -0.72745239 24.15999023 -0.73394775 25.06079102 C-0.72989929 26.00664062 -0.72585083 26.95249023 -0.72167969 27.92700195 C-0.72359314 28.89605469 -0.72550659 29.86510742 -0.72747803 30.86352539 C-0.72884048 32.9146348 -0.72513987 34.96575281 -0.71679688 37.0168457 C-0.70609828 40.16417734 -0.71669022 43.31093816 -0.72949219 46.45825195 C-0.7281706 48.44783655 -0.72560823 50.43742079 -0.72167969 52.42700195 C-0.72572815 53.37285156 -0.72977661 54.31870117 -0.73394775 55.29321289 C-0.72764343 56.16751953 -0.72133911 57.04182617 -0.71484375 57.94262695 C-0.71245697 59.09939941 -0.71245697 59.09939941 -0.71002197 60.27954102 C-0.61912888 62.41862779 -0.61912888 62.41862779 1.54394531 64.17700195 C3.50838723 64.48198129 3.50838723 64.48198129 5.77832031 64.43579102 C6.65262695 64.44209534 7.52693359 64.44839966 8.42773438 64.45489502 C9.84650879 64.44882233 9.84650879 64.44882233 11.29394531 64.44262695 C12.74752441 64.44549713 12.74752441 64.44549713 14.23046875 64.44842529 C16.28157816 64.44978774 18.33269617 64.44608713 20.38378906 64.43774414 C23.5311207 64.42704555 26.67788151 64.43763749 29.82519531 64.45043945 C31.81477991 64.44911787 33.80436415 64.4465555 35.79394531 64.44262695 C37.21271973 64.44869965 37.21271973 64.44869965 38.66015625 64.45489502 C39.53446289 64.4485907 40.40876953 64.44228638 41.30957031 64.43579102 C42.46634277 64.43340424 42.46634277 64.43340424 43.64648438 64.43096924 C45.78557115 64.34007615 45.78557115 64.34007615 47.54394531 62.17700195 C47.84892465 60.21256003 47.84892465 60.21256003 47.80273438 57.94262695 C47.8090387 57.06832031 47.81534302 56.19401367 47.82183838 55.29321289 C47.81778992 54.34736328 47.81374146 53.40151367 47.80957031 52.42700195 C47.81148376 51.45794922 47.81339722 50.48889648 47.81536865 49.49047852 C47.8167311 47.43936911 47.81303049 45.3882511 47.8046875 43.3371582 C47.79398891 40.18982656 47.80458085 37.04306575 47.81738281 33.89575195 C47.81606123 31.90616735 47.81349886 29.91658311 47.80957031 27.92700195 C47.81361877 26.98115234 47.81766724 26.03530273 47.82183838 25.06079102 C47.81553406 24.18648438 47.80922974 23.31217773 47.80273438 22.41137695 C47.80114319 21.64019531 47.799552 20.86901367 47.7979126 20.07446289 C47.70701951 17.93537612 47.70701951 17.93537612 45.54394531 16.17700195 C43.57950339 15.87202261 43.57950339 15.87202261 41.30957031 15.91821289 C40.43526367 15.91190857 39.56095703 15.90560425 38.66015625 15.89910889 C37.71430664 15.90315735 36.76845703 15.90720581 35.79394531 15.91137695 C34.34036621 15.90850677 34.34036621 15.90850677 32.85742188 15.90557861 C30.80631247 15.90421616 28.75519446 15.90791677 26.70410156 15.91625977 C23.55676992 15.92695836 20.41000911 15.91636642 17.26269531 15.90356445 C15.27311071 15.90488604 13.28352647 15.90744841 11.29394531 15.91137695 C9.8751709 15.90530426 9.8751709 15.90530426 8.42773438 15.89910889 C7.55342773 15.90541321 6.67912109 15.91171753 5.77832031 15.91821289 C5.00713867 15.91980408 4.23595703 15.92139526 3.44140625 15.92303467 C1.30231948 16.01392776 1.30231948 16.01392776 -0.45605469 18.17700195 Z " fill="#000000" transform="translate(184.4560546875,279.822998046875)"/>
<path d="M0 0 C1.7125296 -0.01925285 1.7125296 -0.01925285 3.45965576 -0.03889465 C5.31895721 -0.04997505 5.31895721 -0.04997505 7.21582031 -0.0612793 C8.48613098 -0.06935104 9.75644165 -0.07742279 11.06524658 -0.08573914 C13.75870419 -0.09959131 16.45203893 -0.11060399 19.14550781 -0.11816406 C22.58663115 -0.12920954 26.02710442 -0.16358628 29.4679985 -0.20333576 C32.75887443 -0.23585883 36.04980818 -0.24028631 39.34082031 -0.2487793 C40.57225769 -0.26628738 41.80369507 -0.28379547 43.07244873 -0.30183411 C53.71325023 -0.27486493 53.71325023 -0.27486493 58.54394531 4.17700195 C62.390004 8.5427983 63.66459841 10.86420169 63.72094727 16.63305664 C63.74020012 18.34558624 63.74020012 18.34558624 63.75984192 20.0927124 C63.76722885 21.3322467 63.77461578 22.57178101 63.78222656 23.84887695 C63.79029831 25.11918762 63.79837006 26.38949829 63.8066864 27.69830322 C63.82053858 30.39176083 63.83155126 33.08509558 63.83911133 35.77856445 C63.85015681 39.21968779 63.88453355 42.66016106 63.92428303 46.10105515 C63.95680609 49.39193107 63.96123358 52.68286482 63.96972656 55.97387695 C63.98723465 57.20531433 64.00474274 58.43675171 64.02278137 59.70550537 C63.9958122 70.34630688 63.9958122 70.34630688 59.54394531 75.17700195 C55.17814896 79.02306064 52.85674558 80.29765505 47.08789062 80.35400391 C45.37536102 80.37325676 45.37536102 80.37325676 43.62823486 80.39289856 C42.38870056 80.40028549 41.14916626 80.40767242 39.87207031 80.4152832 C38.60175964 80.42335495 37.33144897 80.4314267 36.02264404 80.43974304 C33.32918643 80.45359522 30.63585169 80.4646079 27.94238281 80.47216797 C24.50125948 80.48321345 21.0607862 80.51759019 17.61989212 80.55733967 C14.3290162 80.58986274 11.03808245 80.59429022 7.74707031 80.6027832 C6.51563293 80.62029129 5.28419556 80.63779938 4.01544189 80.65583801 C-6.62535961 80.62886884 -6.62535961 80.62886884 -11.45605469 76.17700195 C-15.30211338 71.8112056 -16.57670778 69.48980222 -16.63305664 63.72094727 C-16.64589188 62.57926086 -16.65872711 61.43757446 -16.67195129 60.2612915 C-16.67933823 59.0217572 -16.68672516 57.7822229 -16.69433594 56.50512695 C-16.70240768 55.23481628 -16.71047943 53.96450562 -16.71879578 52.65570068 C-16.73264795 49.96224307 -16.74366063 47.26890833 -16.7512207 44.57543945 C-16.76226618 41.13431612 -16.79664292 37.69384284 -16.8363924 34.25294876 C-16.86891547 30.96207284 -16.87334295 27.67113909 -16.88183594 24.38012695 C-16.89934402 23.14868958 -16.91685211 21.9172522 -16.93489075 20.64849854 C-16.90792157 10.00769703 -16.90792157 10.00769703 -12.45605469 5.17700195 C-8.09025834 1.33094326 -5.76885495 0.05634886 0 0 Z M-0.45605469 18.17700195 C-0.76103403 20.14144387 -0.76103403 20.14144387 -0.71484375 22.41137695 C-0.72114807 23.28568359 -0.72745239 24.15999023 -0.73394775 25.06079102 C-0.72989929 26.00664062 -0.72585083 26.95249023 -0.72167969 27.92700195 C-0.72359314 28.89605469 -0.72550659 29.86510742 -0.72747803 30.86352539 C-0.72884048 32.9146348 -0.72513987 34.96575281 -0.71679688 37.0168457 C-0.70609828 40.16417734 -0.71669022 43.31093816 -0.72949219 46.45825195 C-0.7281706 48.44783655 -0.72560823 50.43742079 -0.72167969 52.42700195 C-0.72572815 53.37285156 -0.72977661 54.31870117 -0.73394775 55.29321289 C-0.72764343 56.16751953 -0.72133911 57.04182617 -0.71484375 57.94262695 C-0.71245697 59.09939941 -0.71245697 59.09939941 -0.71002197 60.27954102 C-0.61912888 62.41862779 -0.61912888 62.41862779 1.54394531 64.17700195 C3.50838723 64.48198129 3.50838723 64.48198129 5.77832031 64.43579102 C6.65262695 64.44209534 7.52693359 64.44839966 8.42773438 64.45489502 C9.84650879 64.44882233 9.84650879 64.44882233 11.29394531 64.44262695 C12.74752441 64.44549713 12.74752441 64.44549713 14.23046875 64.44842529 C16.28157816 64.44978774 18.33269617 64.44608713 20.38378906 64.43774414 C23.5311207 64.42704555 26.67788151 64.43763749 29.82519531 64.45043945 C31.81477991 64.44911787 33.80436415 64.4465555 35.79394531 64.44262695 C37.21271973 64.44869965 37.21271973 64.44869965 38.66015625 64.45489502 C39.53446289 64.4485907 40.40876953 64.44228638 41.30957031 64.43579102 C42.46634277 64.43340424 42.46634277 64.43340424 43.64648438 64.43096924 C45.78557115 64.34007615 45.78557115 64.34007615 47.54394531 62.17700195 C47.84892465 60.21256003 47.84892465 60.21256003 47.80273438 57.94262695 C47.8090387 57.06832031 47.81534302 56.19401367 47.82183838 55.29321289 C47.81778992 54.34736328 47.81374146 53.40151367 47.80957031 52.42700195 C47.81148376 51.45794922 47.81339722 50.48889648 47.81536865 49.49047852 C47.8167311 47.43936911 47.81303049 45.3882511 47.8046875 43.3371582 C47.79398891 40.18982656 47.80458085 37.04306575 47.81738281 33.89575195 C47.81606123 31.90616735 47.81349886 29.91658311 47.80957031 27.92700195 C47.81361877 26.98115234 47.81766724 26.03530273 47.82183838 25.06079102 C47.81553406 24.18648438 47.80922974 23.31217773 47.80273438 22.41137695 C47.80114319 21.64019531 47.799552 20.86901367 47.7979126 20.07446289 C47.70701951 17.93537612 47.70701951 17.93537612 45.54394531 16.17700195 C43.57950339 15.87202261 43.57950339 15.87202261 41.30957031 15.91821289 C40.43526367 15.91190857 39.56095703 15.90560425 38.66015625 15.89910889 C37.71430664 15.90315735 36.76845703 15.90720581 35.79394531 15.91137695 C34.34036621 15.90850677 34.34036621 15.90850677 32.85742188 15.90557861 C30.80631247 15.90421616 28.75519446 15.90791677 26.70410156 15.91625977 C23.55676992 15.92695836 20.41000911 15.91636642 17.26269531 15.90356445 C15.27311071 15.90488604 13.28352647 15.90744841 11.29394531 15.91137695 C9.8751709 15.90530426 9.8751709 15.90530426 8.42773438 15.89910889 C7.55342773 15.90541321 6.67912109 15.91171753 5.77832031 15.91821289 C5.00713867 15.91980408 4.23595703 15.92139526 3.44140625 15.92303467 C1.30231948 16.01392776 1.30231948 16.01392776 -0.45605469 18.17700195 Z " fill="#000000" transform="translate(88.4560546875,279.822998046875)"/>
<path d="M0 0 C1.7125296 -0.01925285 1.7125296 -0.01925285 3.45965576 -0.03889465 C5.31895721 -0.04997505 5.31895721 -0.04997505 7.21582031 -0.0612793 C8.48613098 -0.06935104 9.75644165 -0.07742279 11.06524658 -0.08573914 C13.75870419 -0.09959131 16.45203893 -0.11060399 19.14550781 -0.11816406 C22.58663115 -0.12920954 26.02710442 -0.16358628 29.4679985 -0.20333576 C32.75887443 -0.23585883 36.04980818 -0.24028631 39.34082031 -0.2487793 C40.57225769 -0.26628738 41.80369507 -0.28379547 43.07244873 -0.30183411 C53.71325023 -0.27486493 53.71325023 -0.27486493 58.54394531 4.17700195 C62.390004 8.5427983 63.66459841 10.86420169 63.72094727 16.63305664 C63.74020012 18.34558624 63.74020012 18.34558624 63.75984192 20.0927124 C63.76722885 21.3322467 63.77461578 22.57178101 63.78222656 23.84887695 C63.79029831 25.11918762 63.79837006 26.38949829 63.8066864 27.69830322 C63.82053858 30.39176083 63.83155126 33.08509558 63.83911133 35.77856445 C63.85015681 39.21968779 63.88453355 42.66016106 63.92428303 46.10105515 C63.95680609 49.39193107 63.96123358 52.68286482 63.96972656 55.97387695 C63.98723465 57.20531433 64.00474274 58.43675171 64.02278137 59.70550537 C63.9958122 70.34630688 63.9958122 70.34630688 59.54394531 75.17700195 C55.17814896 79.02306064 52.85674558 80.29765505 47.08789062 80.35400391 C45.37536102 80.37325676 45.37536102 80.37325676 43.62823486 80.39289856 C42.38870056 80.40028549 41.14916626 80.40767242 39.87207031 80.4152832 C38.60175964 80.42335495 37.33144897 80.4314267 36.02264404 80.43974304 C33.32918643 80.45359522 30.63585169 80.4646079 27.94238281 80.47216797 C24.50125948 80.48321345 21.0607862 80.51759019 17.61989212 80.55733967 C14.3290162 80.58986274 11.03808245 80.59429022 7.74707031 80.6027832 C6.51563293 80.62029129 5.28419556 80.63779938 4.01544189 80.65583801 C-6.62535961 80.62886884 -6.62535961 80.62886884 -11.45605469 76.17700195 C-15.30211338 71.8112056 -16.57670778 69.48980222 -16.63305664 63.72094727 C-16.64589188 62.57926086 -16.65872711 61.43757446 -16.67195129 60.2612915 C-16.67933823 59.0217572 -16.68672516 57.7822229 -16.69433594 56.50512695 C-16.70240768 55.23481628 -16.71047943 53.96450562 -16.71879578 52.65570068 C-16.73264795 49.96224307 -16.74366063 47.26890833 -16.7512207 44.57543945 C-16.76226618 41.13431612 -16.79664292 37.69384284 -16.8363924 34.25294876 C-16.86891547 30.96207284 -16.87334295 27.67113909 -16.88183594 24.38012695 C-16.89934402 23.14868958 -16.91685211 21.9172522 -16.93489075 20.64849854 C-16.90792157 10.00769703 -16.90792157 10.00769703 -12.45605469 5.17700195 C-8.09025834 1.33094326 -5.76885495 0.05634886 0 0 Z M-0.45605469 18.17700195 C-0.76103403 20.14144387 -0.76103403 20.14144387 -0.71484375 22.41137695 C-0.72114807 23.28568359 -0.72745239 24.15999023 -0.73394775 25.06079102 C-0.72989929 26.00664062 -0.72585083 26.95249023 -0.72167969 27.92700195 C-0.72359314 28.89605469 -0.72550659 29.86510742 -0.72747803 30.86352539 C-0.72884048 32.9146348 -0.72513987 34.96575281 -0.71679688 37.0168457 C-0.70609828 40.16417734 -0.71669022 43.31093816 -0.72949219 46.45825195 C-0.7281706 48.44783655 -0.72560823 50.43742079 -0.72167969 52.42700195 C-0.72572815 53.37285156 -0.72977661 54.31870117 -0.73394775 55.29321289 C-0.72764343 56.16751953 -0.72133911 57.04182617 -0.71484375 57.94262695 C-0.71245697 59.09939941 -0.71245697 59.09939941 -0.71002197 60.27954102 C-0.61912888 62.41862779 -0.61912888 62.41862779 1.54394531 64.17700195 C3.50838723 64.48198129 3.50838723 64.48198129 5.77832031 64.43579102 C6.65262695 64.44209534 7.52693359 64.44839966 8.42773438 64.45489502 C9.84650879 64.44882233 9.84650879 64.44882233 11.29394531 64.44262695 C12.74752441 64.44549713 12.74752441 64.44549713 14.23046875 64.44842529 C16.28157816 64.44978774 18.33269617 64.44608713 20.38378906 64.43774414 C23.5311207 64.42704555 26.67788151 64.43763749 29.82519531 64.45043945 C31.81477991 64.44911787 33.80436415 64.4465555 35.79394531 64.44262695 C37.21271973 64.44869965 37.21271973 64.44869965 38.66015625 64.45489502 C39.53446289 64.4485907 40.40876953 64.44228638 41.30957031 64.43579102 C42.46634277 64.43340424 42.46634277 64.43340424 43.64648438 64.43096924 C45.78557115 64.34007615 45.78557115 64.34007615 47.54394531 62.17700195 C47.84892465 60.21256003 47.84892465 60.21256003 47.80273438 57.94262695 C47.8090387 57.06832031 47.81534302 56.19401367 47.82183838 55.29321289 C47.81778992 54.34736328 47.81374146 53.40151367 47.80957031 52.42700195 C47.81148376 51.45794922 47.81339722 50.48889648 47.81536865 49.49047852 C47.8167311 47.43936911 47.81303049 45.3882511 47.8046875 43.3371582 C47.79398891 40.18982656 47.80458085 37.04306575 47.81738281 33.89575195 C47.81606123 31.90616735 47.81349886 29.91658311 47.80957031 27.92700195 C47.81361877 26.98115234 47.81766724 26.03530273 47.82183838 25.06079102 C47.81553406 24.18648437 47.80922974 23.31217773 47.80273438 22.41137695 C47.80114319 21.64019531 47.799552 20.86901367 47.7979126 20.07446289 C47.70701951 17.93537612 47.70701951 17.93537612 45.54394531 16.17700195 C43.57950339 15.87202261 43.57950339 15.87202261 41.30957031 15.91821289 C40.43526367 15.91190857 39.56095703 15.90560425 38.66015625 15.89910889 C37.71430664 15.90315735 36.76845703 15.90720581 35.79394531 15.91137695 C34.34036621 15.90850677 34.34036621 15.90850677 32.85742188 15.90557861 C30.80631247 15.90421616 28.75519446 15.90791677 26.70410156 15.91625977 C23.55676992 15.92695836 20.41000911 15.91636642 17.26269531 15.90356445 C15.27311071 15.90488604 13.28352647 15.90744841 11.29394531 15.91137695 C9.8751709 15.90530426 9.8751709 15.90530426 8.42773438 15.89910889 C7.55342773 15.90541321 6.67912109 15.91171753 5.77832031 15.91821289 C5.00713867 15.91980408 4.23595703 15.92139526 3.44140625 15.92303467 C1.30231948 16.01392776 1.30231948 16.01392776 -0.45605469 18.17700195 Z " fill="#000000" transform="translate(376.4560546875,183.822998046875)"/>
<path d="M0 0 C1.7125296 -0.01925285 1.7125296 -0.01925285 3.45965576 -0.03889465 C5.31895721 -0.04997505 5.31895721 -0.04997505 7.21582031 -0.0612793 C8.48613098 -0.06935104 9.75644165 -0.07742279 11.06524658 -0.08573914 C13.75870419 -0.09959131 16.45203893 -0.11060399 19.14550781 -0.11816406 C22.58663115 -0.12920954 26.02710442 -0.16358628 29.4679985 -0.20333576 C32.75887443 -0.23585883 36.04980818 -0.24028631 39.34082031 -0.2487793 C40.57225769 -0.26628738 41.80369507 -0.28379547 43.07244873 -0.30183411 C53.71325023 -0.27486493 53.71325023 -0.27486493 58.54394531 4.17700195 C62.390004 8.5427983 63.66459841 10.86420169 63.72094727 16.63305664 C63.74020012 18.34558624 63.74020012 18.34558624 63.75984192 20.0927124 C63.76722885 21.3322467 63.77461578 22.57178101 63.78222656 23.84887695 C63.79029831 25.11918762 63.79837006 26.38949829 63.8066864 27.69830322 C63.82053858 30.39176083 63.83155126 33.08509558 63.83911133 35.77856445 C63.85015681 39.21968779 63.88453355 42.66016106 63.92428303 46.10105515 C63.95680609 49.39193107 63.96123358 52.68286482 63.96972656 55.97387695 C63.98723465 57.20531433 64.00474274 58.43675171 64.02278137 59.70550537 C63.9958122 70.34630688 63.9958122 70.34630688 59.54394531 75.17700195 C55.17814896 79.02306064 52.85674558 80.29765505 47.08789062 80.35400391 C45.37536102 80.37325676 45.37536102 80.37325676 43.62823486 80.39289856 C42.38870056 80.40028549 41.14916626 80.40767242 39.87207031 80.4152832 C38.60175964 80.42335495 37.33144897 80.4314267 36.02264404 80.43974304 C33.32918643 80.45359522 30.63585169 80.4646079 27.94238281 80.47216797 C24.50125948 80.48321345 21.0607862 80.51759019 17.61989212 80.55733967 C14.3290162 80.58986274 11.03808245 80.59429022 7.74707031 80.6027832 C6.51563293 80.62029129 5.28419556 80.63779938 4.01544189 80.65583801 C-6.62535961 80.62886884 -6.62535961 80.62886884 -11.45605469 76.17700195 C-15.30211338 71.8112056 -16.57670778 69.48980222 -16.63305664 63.72094727 C-16.64589188 62.57926086 -16.65872711 61.43757446 -16.67195129 60.2612915 C-16.67933823 59.0217572 -16.68672516 57.7822229 -16.69433594 56.50512695 C-16.70240768 55.23481628 -16.71047943 53.96450562 -16.71879578 52.65570068 C-16.73264795 49.96224307 -16.74366063 47.26890833 -16.7512207 44.57543945 C-16.76226618 41.13431612 -16.79664292 37.69384284 -16.8363924 34.25294876 C-16.86891547 30.96207284 -16.87334295 27.67113909 -16.88183594 24.38012695 C-16.89934402 23.14868958 -16.91685211 21.9172522 -16.93489075 20.64849854 C-16.90792157 10.00769703 -16.90792157 10.00769703 -12.45605469 5.17700195 C-8.09025834 1.33094326 -5.76885495 0.05634886 0 0 Z M-0.45605469 18.17700195 C-0.76103403 20.14144387 -0.76103403 20.14144387 -0.71484375 22.41137695 C-0.72114807 23.28568359 -0.72745239 24.15999023 -0.73394775 25.06079102 C-0.72989929 26.00664062 -0.72585083 26.95249023 -0.72167969 27.92700195 C-0.72359314 28.89605469 -0.72550659 29.86510742 -0.72747803 30.86352539 C-0.72884048 32.9146348 -0.72513987 34.96575281 -0.71679688 37.0168457 C-0.70609828 40.16417734 -0.71669022 43.31093816 -0.72949219 46.45825195 C-0.7281706 48.44783655 -0.72560823 50.43742079 -0.72167969 52.42700195 C-0.72572815 53.37285156 -0.72977661 54.31870117 -0.73394775 55.29321289 C-0.72764343 56.16751953 -0.72133911 57.04182617 -0.71484375 57.94262695 C-0.71245697 59.09939941 -0.71245697 59.09939941 -0.71002197 60.27954102 C-0.61912888 62.41862779 -0.61912888 62.41862779 1.54394531 64.17700195 C3.50838723 64.48198129 3.50838723 64.48198129 5.77832031 64.43579102 C6.65262695 64.44209534 7.52693359 64.44839966 8.42773438 64.45489502 C9.84650879 64.44882233 9.84650879 64.44882233 11.29394531 64.44262695 C12.74752441 64.44549713 12.74752441 64.44549713 14.23046875 64.44842529 C16.28157816 64.44978774 18.33269617 64.44608713 20.38378906 64.43774414 C23.5311207 64.42704555 26.67788151 64.43763749 29.82519531 64.45043945 C31.81477991 64.44911787 33.80436415 64.4465555 35.79394531 64.44262695 C37.21271973 64.44869965 37.21271973 64.44869965 38.66015625 64.45489502 C39.53446289 64.4485907 40.40876953 64.44228638 41.30957031 64.43579102 C42.46634277 64.43340424 42.46634277 64.43340424 43.64648438 64.43096924 C45.78557115 64.34007615 45.78557115 64.34007615 47.54394531 62.17700195 C47.84892465 60.21256003 47.84892465 60.21256003 47.80273438 57.94262695 C47.8090387 57.06832031 47.81534302 56.19401367 47.82183838 55.29321289 C47.81778992 54.34736328 47.81374146 53.40151367 47.80957031 52.42700195 C47.81148376 51.45794922 47.81339722 50.48889648 47.81536865 49.49047852 C47.8167311 47.43936911 47.81303049 45.3882511 47.8046875 43.3371582 C47.79398891 40.18982656 47.80458085 37.04306575 47.81738281 33.89575195 C47.81606123 31.90616735 47.81349886 29.91658311 47.80957031 27.92700195 C47.81361877 26.98115234 47.81766724 26.03530273 47.82183838 25.06079102 C47.81553406 24.18648437 47.80922974 23.31217773 47.80273438 22.41137695 C47.80114319 21.64019531 47.799552 20.86901367 47.7979126 20.07446289 C47.70701951 17.93537612 47.70701951 17.93537612 45.54394531 16.17700195 C43.57950339 15.87202261 43.57950339 15.87202261 41.30957031 15.91821289 C40.43526367 15.91190857 39.56095703 15.90560425 38.66015625 15.89910889 C37.71430664 15.90315735 36.76845703 15.90720581 35.79394531 15.91137695 C34.34036621 15.90850677 34.34036621 15.90850677 32.85742188 15.90557861 C30.80631247 15.90421616 28.75519446 15.90791677 26.70410156 15.91625977 C23.55676992 15.92695836 20.41000911 15.91636642 17.26269531 15.90356445 C15.27311071 15.90488604 13.28352647 15.90744841 11.29394531 15.91137695 C9.8751709 15.90530426 9.8751709 15.90530426 8.42773438 15.89910889 C7.55342773 15.90541321 6.67912109 15.91171753 5.77832031 15.91821289 C5.00713867 15.91980408 4.23595703 15.92139526 3.44140625 15.92303467 C1.30231948 16.01392776 1.30231948 16.01392776 -0.45605469 18.17700195 Z " fill="#000000" transform="translate(280.4560546875,183.822998046875)"/>
<path d="M0 0 C1.7125296 -0.01925285 1.7125296 -0.01925285 3.45965576 -0.03889465 C5.31895721 -0.04997505 5.31895721 -0.04997505 7.21582031 -0.0612793 C8.48613098 -0.06935104 9.75644165 -0.07742279 11.06524658 -0.08573914 C13.75870419 -0.09959131 16.45203893 -0.11060399 19.14550781 -0.11816406 C22.58663115 -0.12920954 26.02710442 -0.16358628 29.4679985 -0.20333576 C32.75887443 -0.23585883 36.04980818 -0.24028631 39.34082031 -0.2487793 C40.57225769 -0.26628738 41.80369507 -0.28379547 43.07244873 -0.30183411 C53.71325023 -0.27486493 53.71325023 -0.27486493 58.54394531 4.17700195 C62.390004 8.5427983 63.66459841 10.86420169 63.72094727 16.63305664 C63.74020012 18.34558624 63.74020012 18.34558624 63.75984192 20.0927124 C63.76722885 21.3322467 63.77461578 22.57178101 63.78222656 23.84887695 C63.79029831 25.11918762 63.79837006 26.38949829 63.8066864 27.69830322 C63.82053858 30.39176083 63.83155126 33.08509558 63.83911133 35.77856445 C63.85015681 39.21968779 63.88453355 42.66016106 63.92428303 46.10105515 C63.95680609 49.39193107 63.96123358 52.68286482 63.96972656 55.97387695 C63.98723465 57.20531433 64.00474274 58.43675171 64.02278137 59.70550537 C63.9958122 70.34630688 63.9958122 70.34630688 59.54394531 75.17700195 C55.17814896 79.02306064 52.85674558 80.29765505 47.08789062 80.35400391 C45.37536102 80.37325676 45.37536102 80.37325676 43.62823486 80.39289856 C42.38870056 80.40028549 41.14916626 80.40767242 39.87207031 80.4152832 C38.60175964 80.42335495 37.33144897 80.4314267 36.02264404 80.43974304 C33.32918643 80.45359522 30.63585169 80.4646079 27.94238281 80.47216797 C24.50125948 80.48321345 21.0607862 80.51759019 17.61989212 80.55733967 C14.3290162 80.58986274 11.03808245 80.59429022 7.74707031 80.6027832 C6.51563293 80.62029129 5.28419556 80.63779938 4.01544189 80.65583801 C-6.62535961 80.62886884 -6.62535961 80.62886884 -11.45605469 76.17700195 C-15.30211338 71.8112056 -16.57670778 69.48980222 -16.63305664 63.72094727 C-16.64589188 62.57926086 -16.65872711 61.43757446 -16.67195129 60.2612915 C-16.67933823 59.0217572 -16.68672516 57.7822229 -16.69433594 56.50512695 C-16.70240768 55.23481628 -16.71047943 53.96450562 -16.71879578 52.65570068 C-16.73264795 49.96224307 -16.74366063 47.26890833 -16.7512207 44.57543945 C-16.76226618 41.13431612 -16.79664292 37.69384284 -16.8363924 34.25294876 C-16.86891547 30.96207284 -16.87334295 27.67113909 -16.88183594 24.38012695 C-16.89934402 23.14868958 -16.91685211 21.9172522 -16.93489075 20.64849854 C-16.90792157 10.00769703 -16.90792157 10.00769703 -12.45605469 5.17700195 C-8.09025834 1.33094326 -5.76885495 0.05634886 0 0 Z M-0.45605469 18.17700195 C-0.76103403 20.14144387 -0.76103403 20.14144387 -0.71484375 22.41137695 C-0.72114807 23.28568359 -0.72745239 24.15999023 -0.73394775 25.06079102 C-0.72989929 26.00664062 -0.72585083 26.95249023 -0.72167969 27.92700195 C-0.72359314 28.89605469 -0.72550659 29.86510742 -0.72747803 30.86352539 C-0.72884048 32.9146348 -0.72513987 34.96575281 -0.71679688 37.0168457 C-0.70609828 40.16417734 -0.71669022 43.31093816 -0.72949219 46.45825195 C-0.7281706 48.44783655 -0.72560823 50.43742079 -0.72167969 52.42700195 C-0.72572815 53.37285156 -0.72977661 54.31870117 -0.73394775 55.29321289 C-0.72764343 56.16751953 -0.72133911 57.04182617 -0.71484375 57.94262695 C-0.71245697 59.09939941 -0.71245697 59.09939941 -0.71002197 60.27954102 C-0.61912888 62.41862779 -0.61912888 62.41862779 1.54394531 64.17700195 C3.50838723 64.48198129 3.50838723 64.48198129 5.77832031 64.43579102 C6.65262695 64.44209534 7.52693359 64.44839966 8.42773438 64.45489502 C9.84650879 64.44882233 9.84650879 64.44882233 11.29394531 64.44262695 C12.74752441 64.44549713 12.74752441 64.44549713 14.23046875 64.44842529 C16.28157816 64.44978774 18.33269617 64.44608713 20.38378906 64.43774414 C23.5311207 64.42704555 26.67788151 64.43763749 29.82519531 64.45043945 C31.81477991 64.44911787 33.80436415 64.4465555 35.79394531 64.44262695 C37.21271973 64.44869965 37.21271973 64.44869965 38.66015625 64.45489502 C39.53446289 64.4485907 40.40876953 64.44228638 41.30957031 64.43579102 C42.46634277 64.43340424 42.46634277 64.43340424 43.64648438 64.43096924 C45.78557115 64.34007615 45.78557115 64.34007615 47.54394531 62.17700195 C47.84892465 60.21256003 47.84892465 60.21256003 47.80273438 57.94262695 C47.8090387 57.06832031 47.81534302 56.19401367 47.82183838 55.29321289 C47.81778992 54.34736328 47.81374146 53.40151367 47.80957031 52.42700195 C47.81148376 51.45794922 47.81339722 50.48889648 47.81536865 49.49047852 C47.8167311 47.43936911 47.81303049 45.3882511 47.8046875 43.3371582 C47.79398891 40.18982656 47.80458085 37.04306575 47.81738281 33.89575195 C47.81606123 31.90616735 47.81349886 29.91658311 47.80957031 27.92700195 C47.81361877 26.98115234 47.81766724 26.03530273 47.82183838 25.06079102 C47.81553406 24.18648437 47.80922974 23.31217773 47.80273438 22.41137695 C47.80114319 21.64019531 47.799552 20.86901367 47.7979126 20.07446289 C47.70701951 17.93537612 47.70701951 17.93537612 45.54394531 16.17700195 C43.57950339 15.87202261 43.57950339 15.87202261 41.30957031 15.91821289 C40.43526367 15.91190857 39.56095703 15.90560425 38.66015625 15.89910889 C37.71430664 15.90315735 36.76845703 15.90720581 35.79394531 15.91137695 C34.34036621 15.90850677 34.34036621 15.90850677 32.85742188 15.90557861 C30.80631247 15.90421616 28.75519446 15.90791677 26.70410156 15.91625977 C23.55676992 15.92695836 20.41000911 15.91636642 17.26269531 15.90356445 C15.27311071 15.90488604 13.28352647 15.90744841 11.29394531 15.91137695 C9.8751709 15.90530426 9.8751709 15.90530426 8.42773438 15.89910889 C7.55342773 15.90541321 6.67912109 15.91171753 5.77832031 15.91821289 C5.00713867 15.91980408 4.23595703 15.92139526 3.44140625 15.92303467 C1.30231948 16.01392776 1.30231948 16.01392776 -0.45605469 18.17700195 Z " fill="#000000" transform="translate(184.4560546875,183.822998046875)"/>
<path d="M0 0 C1.7125296 -0.01925285 1.7125296 -0.01925285 3.45965576 -0.03889465 C5.31895721 -0.04997505 5.31895721 -0.04997505 7.21582031 -0.0612793 C8.48613098 -0.06935104 9.75644165 -0.07742279 11.06524658 -0.08573914 C13.75870419 -0.09959131 16.45203893 -0.11060399 19.14550781 -0.11816406 C22.58663115 -0.12920954 26.02710442 -0.16358628 29.4679985 -0.20333576 C32.75887443 -0.23585883 36.04980818 -0.24028631 39.34082031 -0.2487793 C40.57225769 -0.26628738 41.80369507 -0.28379547 43.07244873 -0.30183411 C53.71325023 -0.27486493 53.71325023 -0.27486493 58.54394531 4.17700195 C62.390004 8.5427983 63.66459841 10.86420169 63.72094727 16.63305664 C63.74020012 18.34558624 63.74020012 18.34558624 63.75984192 20.0927124 C63.76722885 21.3322467 63.77461578 22.57178101 63.78222656 23.84887695 C63.79029831 25.11918762 63.79837006 26.38949829 63.8066864 27.69830322 C63.82053858 30.39176083 63.83155126 33.08509558 63.83911133 35.77856445 C63.85015681 39.21968779 63.88453355 42.66016106 63.92428303 46.10105515 C63.95680609 49.39193107 63.96123358 52.68286482 63.96972656 55.97387695 C63.98723465 57.20531433 64.00474274 58.43675171 64.02278137 59.70550537 C63.9958122 70.34630688 63.9958122 70.34630688 59.54394531 75.17700195 C55.17814896 79.02306064 52.85674558 80.29765505 47.08789062 80.35400391 C45.37536102 80.37325676 45.37536102 80.37325676 43.62823486 80.39289856 C42.38870056 80.40028549 41.14916626 80.40767242 39.87207031 80.4152832 C38.60175964 80.42335495 37.33144897 80.4314267 36.02264404 80.43974304 C33.32918643 80.45359522 30.63585169 80.4646079 27.94238281 80.47216797 C24.50125948 80.48321345 21.0607862 80.51759019 17.61989212 80.55733967 C14.3290162 80.58986274 11.03808245 80.59429022 7.74707031 80.6027832 C6.51563293 80.62029129 5.28419556 80.63779938 4.01544189 80.65583801 C-6.62535961 80.62886884 -6.62535961 80.62886884 -11.45605469 76.17700195 C-15.30211338 71.8112056 -16.57670778 69.48980222 -16.63305664 63.72094727 C-16.64589188 62.57926086 -16.65872711 61.43757446 -16.67195129 60.2612915 C-16.67933823 59.0217572 -16.68672516 57.7822229 -16.69433594 56.50512695 C-16.70240768 55.23481628 -16.71047943 53.96450562 -16.71879578 52.65570068 C-16.73264795 49.96224307 -16.74366063 47.26890833 -16.7512207 44.57543945 C-16.76226618 41.13431612 -16.79664292 37.69384284 -16.8363924 34.25294876 C-16.86891547 30.96207284 -16.87334295 27.67113909 -16.88183594 24.38012695 C-16.89934402 23.14868958 -16.91685211 21.9172522 -16.93489075 20.64849854 C-16.90792157 10.00769703 -16.90792157 10.00769703 -12.45605469 5.17700195 C-8.09025834 1.33094326 -5.76885495 0.05634886 0 0 Z M-0.45605469 18.17700195 C-0.76103403 20.14144387 -0.76103403 20.14144387 -0.71484375 22.41137695 C-0.72114807 23.28568359 -0.72745239 24.15999023 -0.73394775 25.06079102 C-0.72989929 26.00664062 -0.72585083 26.95249023 -0.72167969 27.92700195 C-0.72359314 28.89605469 -0.72550659 29.86510742 -0.72747803 30.86352539 C-0.72884048 32.9146348 -0.72513987 34.96575281 -0.71679688 37.0168457 C-0.70609828 40.16417734 -0.71669022 43.31093816 -0.72949219 46.45825195 C-0.7281706 48.44783655 -0.72560823 50.43742079 -0.72167969 52.42700195 C-0.72572815 53.37285156 -0.72977661 54.31870117 -0.73394775 55.29321289 C-0.72764343 56.16751953 -0.72133911 57.04182617 -0.71484375 57.94262695 C-0.71245697 59.09939941 -0.71245697 59.09939941 -0.71002197 60.27954102 C-0.61912888 62.41862779 -0.61912888 62.41862779 1.54394531 64.17700195 C3.50838723 64.48198129 3.50838723 64.48198129 5.77832031 64.43579102 C6.65262695 64.44209534 7.52693359 64.44839966 8.42773438 64.45489502 C9.84650879 64.44882233 9.84650879 64.44882233 11.29394531 64.44262695 C12.74752441 64.44549713 12.74752441 64.44549713 14.23046875 64.44842529 C16.28157816 64.44978774 18.33269617 64.44608713 20.38378906 64.43774414 C23.5311207 64.42704555 26.67788151 64.43763749 29.82519531 64.45043945 C31.81477991 64.44911787 33.80436415 64.4465555 35.79394531 64.44262695 C37.21271973 64.44869965 37.21271973 64.44869965 38.66015625 64.45489502 C39.53446289 64.4485907 40.40876953 64.44228638 41.30957031 64.43579102 C42.46634277 64.43340424 42.46634277 64.43340424 43.64648438 64.43096924 C45.78557115 64.34007615 45.78557115 64.34007615 47.54394531 62.17700195 C47.84892465 60.21256003 47.84892465 60.21256003 47.80273438 57.94262695 C47.8090387 57.06832031 47.81534302 56.19401367 47.82183838 55.29321289 C47.81778992 54.34736328 47.81374146 53.40151367 47.80957031 52.42700195 C47.81148376 51.45794922 47.81339722 50.48889648 47.81536865 49.49047852 C47.8167311 47.43936911 47.81303049 45.3882511 47.8046875 43.3371582 C47.79398891 40.18982656 47.80458085 37.04306575 47.81738281 33.89575195 C47.81606123 31.90616735 47.81349886 29.91658311 47.80957031 27.92700195 C47.81361877 26.98115234 47.81766724 26.03530273 47.82183838 25.06079102 C47.81553406 24.18648437 47.80922974 23.31217773 47.80273438 22.41137695 C47.80114319 21.64019531 47.799552 20.86901367 47.7979126 20.07446289 C47.70701951 17.93537612 47.70701951 17.93537612 45.54394531 16.17700195 C43.57950339 15.87202261 43.57950339 15.87202261 41.30957031 15.91821289 C40.43526367 15.91190857 39.56095703 15.90560425 38.66015625 15.89910889 C37.71430664 15.90315735 36.76845703 15.90720581 35.79394531 15.91137695 C34.34036621 15.90850677 34.34036621 15.90850677 32.85742188 15.90557861 C30.80631247 15.90421616 28.75519446 15.90791677 26.70410156 15.91625977 C23.55676992 15.92695836 20.41000911 15.91636642 17.26269531 15.90356445 C15.27311071 15.90488604 13.28352647 15.90744841 11.29394531 15.91137695 C9.8751709 15.90530426 9.8751709 15.90530426 8.42773438 15.89910889 C7.55342773 15.90541321 6.67912109 15.91171753 5.77832031 15.91821289 C5.00713867 15.91980408 4.23595703 15.92139526 3.44140625 15.92303467 C1.30231948 16.01392776 1.30231948 16.01392776 -0.45605469 18.17700195 Z " fill="#000000" transform="translate(88.4560546875,183.822998046875)"/>
</svg>
