<?xml version="1.0" encoding="UTF-8"?>
<svg version="1.1" xmlns="http://www.w3.org/2000/svg" width="512" height="512">
<path d="M0 0 C0.55703613 -0.39904541 1.11407227 -0.79809082 1.68798828 -1.20922852 C19.52189934 -13.83668276 40.40167837 -18.07245704 61.9140625 -15.5390625 C82.426308 -11.86845015 101.1827767 -1.97803955 113.44140625 15.359375 C128.23884586 37.22874382 133.5492588 62.92126538 129.31640625 89.0625 C128.49252145 93.14867713 127.32047517 97.04698517 126 101 C125.48566406 102.63195312 125.48566406 102.63195312 124.9609375 104.296875 C120.18530959 117.1756651 111.38691259 130.77839074 102.23046875 140.96948242 C100.49423687 143.83460951 101.03772303 145.39891403 101.73046875 148.63671875 C101.95581299 149.75916992 102.18115723 150.88162109 102.41333008 152.03808594 C102.66880615 153.24239258 102.92428223 154.44669922 103.1875 155.6875 C114.14473259 211.74033209 105.90414965 269.5467464 79 320 C78.65888184 320.64888184 78.31776367 321.29776367 77.96630859 321.96630859 C69.49824874 337.98344463 59.06603717 352.50435786 47 366 C46.52643066 366.52996582 46.05286133 367.05993164 45.56494141 367.60595703 C42.41814861 371.11050831 39.22489403 374.56721185 36 378 C35.07960938 378.98419922 35.07960938 378.98419922 34.140625 379.98828125 C30.0133842 384.26292351 25.48857214 387.98132679 20.85546875 391.6953125 C19.06414427 393.14111475 17.29229794 394.61176159 15.55078125 396.1171875 C-12.84354439 420.4551809 -48.78298336 435.89928906 -85 444 C-85.7336377 444.16580566 -86.46727539 444.33161133 -87.22314453 444.50244141 C-91.79360034 445.5100413 -96.37174459 446.30942039 -101 447 C-101.68900391 447.10296387 -102.37800781 447.20592773 -103.08789062 447.31201172 C-127.99701494 450.84732017 -154.23953304 450.19042666 -179 446 C-180.3924292 445.76651855 -180.3924292 445.76651855 -181.81298828 445.52832031 C-226.44382156 437.68681673 -269.53483295 417.09590175 -302.28515625 385.59765625 C-304.50847996 383.47030335 -306.76511884 381.47052451 -309.125 379.5 C-351.69032598 342.46727404 -377.86547645 281.45203945 -382 226 C-382.34808941 218.7745685 -382.34069664 211.54459045 -382.3125 204.3125 C-382.31067719 203.3413324 -382.30885437 202.37016479 -382.30697632 201.36956787 C-382.26271428 187.3674797 -381.8487177 173.75135725 -379 160 C-378.83902832 159.15099121 -378.67805664 158.30198242 -378.51220703 157.42724609 C-368.33117144 104.03793458 -339.80700106 53.16812107 -298 18 C-297.47100098 17.55333984 -296.94200195 17.10667969 -296.39697266 16.64648438 C-260.99240482 -13.04313336 -218.68299377 -32.13411941 -173 -39 C-172.19723633 -39.12842285 -171.39447266 -39.2568457 -170.56738281 -39.38916016 C-111.04771322 -48.63656645 -50.15105946 -32.00180696 0 0 Z M-227 -6 C-227.8667334 -5.62504395 -228.7334668 -5.25008789 -229.62646484 -4.86376953 C-247.8568489 3.15145701 -264.62808524 13.33178436 -280 26 C-280.55461914 26.45310547 -281.10923828 26.90621094 -281.68066406 27.37304688 C-294.65199208 38.02780532 -306.84012867 49.59508615 -317 63 C-317.48823242 63.6388916 -317.97646484 64.2777832 -318.47949219 64.93603516 C-326.71244269 75.7740013 -333.81115699 86.88101159 -340 99 C-340.42410156 99.82371094 -340.84820312 100.64742188 -341.28515625 101.49609375 C-350.15303118 118.88771712 -357.63800703 137.66854044 -361 157 C-360.67 157.99 -360.34 158.98 -360 160 C-347.19952965 162.59719688 -335.04940454 163.36778071 -322 163 C-321.5153125 161.97261719 -321.030625 160.94523438 -320.53125 159.88671875 C-310.67760443 139.35953274 -297.84326011 124.18430727 -276.5078125 115.140625 C-271.62173513 112.91829698 -268.34332103 110.54541636 -264.875 106.4375 C-248.89193125 88.32510794 -229.05851729 77.49422464 -207.3125 67.6875 C-191.84219546 60.70271401 -176.81811307 52.90995988 -163 43 C-162.05511719 42.32839844 -161.11023438 41.65679687 -160.13671875 40.96484375 C-143.62896037 28.91745982 -127.98014231 14.94652006 -115.3046875 -1.125 C-111.960232 -5.29706653 -108.43291012 -9.30878012 -104.89599609 -13.31835938 C-102.68126792 -15.86482494 -101.0785294 -17.7644118 -100 -21 C-101.60282217 -21.31932434 -103.2073779 -21.62994514 -104.8125 -21.9375 C-105.70582031 -22.11152344 -106.59914063 -22.28554688 -107.51953125 -22.46484375 C-147.57283453 -28.62343247 -190.01543272 -22.03882358 -227 -6 Z M-81 -17 C-82.36108018 -15.6675797 -82.36108018 -15.6675797 -83.72265625 -13.88671875 C-84.25640869 -13.2213208 -84.79016113 -12.55592285 -85.34008789 -11.87036133 C-85.90848389 -11.15001709 -86.47687988 -10.42967285 -87.0625 -9.6875 C-88.24998169 -8.20571449 -89.43748173 -6.72394369 -90.625 -5.2421875 C-91.75045688 -3.82848861 -92.87549632 -2.41445722 -94 -1 C-108.75580524 17.4920508 -125.17232706 35.74446723 -144.3203125 49.76904297 C-145.9970759 50.99785707 -147.65487153 52.24944508 -149.3125 53.50390625 C-165.00435002 65.21052452 -182.4497253 74.10638959 -200.11706543 82.40821838 C-202.66885645 83.6094321 -205.21654361 84.81923547 -207.76422119 86.02914429 C-209.62495822 86.90796181 -211.49158961 87.77317149 -213.35888672 88.63793945 C-224.23442231 93.79320659 -233.91837 100.0834392 -243 108 C-243 108.33 -243 108.66 -243 109 C-241.29457031 109.23783203 -241.29457031 109.23783203 -239.5546875 109.48046875 C-219.79908602 112.39544107 -203.41990927 118.65353679 -189 133 C-188.31292969 133.65226563 -187.62585938 134.30453125 -186.91796875 134.9765625 C-170.61572435 151.63250451 -165.72300566 175.39455764 -165.6809082 197.82470703 C-165.93895443 221.7947045 -176.21869985 240.26474019 -189 260 C-187.82824219 260.42410156 -186.65648437 260.84820312 -185.44921875 261.28515625 C-171.61994088 266.39783409 -158.20168188 271.87663454 -150.65625 285.41015625 C-145.8849574 296.16260494 -146.29068252 306.97746848 -150.00390625 317.97265625 C-161.79074299 348.12050599 -188.82681459 367.85773334 -214.953125 384.9296875 C-224.44063787 391.24499515 -230.52939899 399.07417469 -236 409 C-233.1830781 411.27151529 -230.53700986 412.7585816 -227.17578125 414.0859375 C-226.23847168 414.4569458 -225.30116211 414.8279541 -224.33544922 415.21020508 C-223.33787598 415.5945874 -222.34030273 415.97896973 -221.3125 416.375 C-220.27883301 416.77420654 -219.24516602 417.17341309 -218.18017578 417.5847168 C-202.71000512 423.47497769 -187.32468586 427.29168227 -171 430 C-170.31599121 430.12004395 -169.63198242 430.24008789 -168.92724609 430.36376953 C-112.61141198 439.9961745 -52.31210628 423.10828835 -6.14501953 390.69775391 C-0.16893499 386.42383586 5.45331575 381.80860117 11 377 C10.70867187 376.05721191 10.41734375 375.11442383 10.1171875 374.14306641 C0.50019551 342.90811309 -7.47058499 311.83065907 -12.45751953 279.51123047 C-13.33757146 273.8150528 -14.25874535 268.1259044 -15.1875 262.4375 C-15.34250977 261.44991699 -15.49751953 260.46233398 -15.65722656 259.44482422 C-16.36869122 255.06210895 -17.06027815 251.04179927 -19 247 C-23.33083367 251.02148841 -26.55129513 255.44248963 -29.875 260.3125 C-42.56086541 278.53317011 -42.56086541 278.53317011 -51.0234375 280.4609375 C-69.0491891 283.30710881 -87.9558468 270.87377986 -102.0612793 260.84838867 C-117.99223351 249.1193038 -135.71054617 233.25417604 -140 213 C-140.93145584 204.83260297 -140.38176993 198.04411116 -136 191 C-135.45085937 190.07960937 -135.45085937 190.07960937 -134.890625 189.140625 C-129.43611968 181.53125338 -119.00821156 178.02943897 -110.5 175 C-105.71327388 173.14986737 -102.51238557 170.50701601 -100 166 C-98.31552193 161.05965796 -97.65048588 156.37192427 -97.1875 151.1875 C-95.86380651 139.38015408 -91.22057626 131.60559509 -82 124 C-66.12706347 112.04994636 -45.89704418 107.05452853 -27 102 C-27.28875 100.93007812 -27.5775 99.86015625 -27.875 98.7578125 C-34.6651152 71.63963888 -32.10253309 44.76738169 -17.9921875 20.5546875 C-16.37686246 17.9976345 -14.72931332 15.48096014 -13 13 C-30.27054913 0.99331069 -59.07830775 -17 -81 -17 Z M3 20 C-11.98125415 37.3261461 -16.38475719 56.90084064 -15.22314453 79.23730469 C-12.81703569 109.0267223 12.66134393 135.38795208 30.35253906 157.8984375 C31.95873837 159.94736513 33.55501962 162.00362315 35.1484375 164.0625 C36.11971772 165.31255746 37.09106788 166.56256058 38.0625 167.8125 C38.49135498 168.3691333 38.92020996 168.9257666 39.36206055 169.49926758 C42.04057466 172.93036953 44.87437805 175.98580842 48 179 C52.82450639 177.6240267 55.0665934 174.89441906 57.9375 171 C58.90600765 169.72637817 59.87477018 168.45295013 60.84375 167.1796875 C61.60945313 166.16213379 61.60945313 166.16213379 62.390625 165.12402344 C64.61486088 162.18851795 66.88871864 159.29299443 69.16088867 156.39453125 C72.12400957 152.60929394 75.06377726 148.80612164 78 145 C78.79156494 143.97471191 78.79156494 143.97471191 79.59912109 142.92871094 C98.47051886 118.39409599 116.9100622 93.22783435 113.375 60.5625 C110.37695403 41.42265688 102.00940941 23.86795319 86.125 12.1875 C59.56983945 -5.20224304 25.81556077 -2.59861407 3 20 Z M-74.80078125 139.75390625 C-80.96735581 146.56804472 -81.65004617 153.58068533 -82.6796875 162.43164062 C-83.721 170.27106708 -86.3134473 177.3134473 -92 183 C-96.89831943 186.58293906 -102.03478328 189.08142744 -107.70751953 191.15039062 C-114.62271076 193.68112892 -120.42270187 196.1657588 -124 203 C-125.40444246 210.0222123 -121.98551288 215.87533342 -118.3046875 221.66796875 C-105.25991552 240.39012125 -81.19691694 260.64134363 -58 265 C-54.55959011 264.82664601 -52.72563244 263.16379209 -50.41015625 260.69873047 C-47.34834939 257.01035579 -44.69786202 253.01994076 -42 249.0625 C-29.89421565 231.3823641 -29.89421565 231.3823641 -23 229 C-17.78925912 228.11500115 -14.21477084 228.2801358 -9.625 231 C0.25551463 242.29201672 0.93792879 259.20558223 3.00549316 273.4513855 C6.55330958 297.84773703 11.54955744 321.66070618 18.3125 345.375 C18.64053116 346.52823761 18.64053116 346.52823761 18.97518921 347.70477295 C19.59676404 349.87585401 20.2275586 352.04396136 20.86328125 354.2109375 C21.40915894 356.07177979 21.40915894 356.07177979 21.96606445 357.97021484 C22.89811557 361.12477446 22.89811557 361.12477446 25 364 C32.5465942 356.95651208 38.81132118 349.21738838 45 341 C45.41894531 340.4524707 45.83789062 339.90494141 46.26953125 339.34082031 C79.65809638 295.53820272 94.30244501 239.86313597 90.125 185.3125 C90.04660889 184.26723145 89.96821777 183.22196289 89.88745117 182.14501953 C89.32700337 175.33474584 88.35070557 168.69800803 87 162 C83.48424456 165.42817435 80.26126483 168.96243417 77.125 172.75 C76.4748291 173.53225952 76.4748291 173.53225952 75.81152344 174.33032227 C73.21052788 177.47567866 70.70639874 180.67867767 68.25 183.9375 C63.72067644 189.77905749 59.59256041 193.73457327 52 195 C45.62940573 195.08220122 40.03236847 194.15315007 35 190 C28.71440536 183.87319933 23.56028568 176.65931483 18.2734375 169.67626953 C16.24066671 167.00046351 14.18052364 164.34584548 12.125 161.6875 C10.86018981 160.04140141 9.59747878 158.39372227 8.3359375 156.74511719 C7.42060623 155.54943226 6.50386831 154.35482323 5.5859375 153.16113281 C-1.9909732 143.28987682 -9.05574717 133.15643968 -15.86181641 122.73901367 C-16.89937437 121.1537444 -17.94905095 119.57642358 -19 118 C-36.34201967 118 -62.16580692 127.44782496 -74.80078125 139.75390625 Z M-294 147 C-306.39789528 161.66891161 -311.84708047 180.82955882 -310.78515625 199.84765625 C-308.09192994 229.56751747 -288.535853 252.14054057 -270.77001953 274.73730469 C-267.81787668 278.51116123 -264.90784055 282.31696313 -262 286.125 C-261.48445557 286.79917969 -260.96891113 287.47335937 -260.43774414 288.16796875 C-259.94266357 288.81636719 -259.44758301 289.46476563 -258.9375 290.1328125 C-258.45152344 290.76219727 -257.96554687 291.39158203 -257.46484375 292.04003906 C-256.44046723 293.41065484 -255.45621892 294.81176718 -254.50390625 296.23339844 C-251.48881408 300.67282851 -251.48881408 300.67282851 -246.8828125 303.24609375 C-243.95642444 303.24356973 -243.95642444 303.24356973 -241.8671875 301.47265625 C-241.20976562 300.67730469 -240.55234375 299.88195312 -239.875 299.0625 C-239.10285156 298.13566406 -238.33070313 297.20882812 -237.53515625 296.25390625 C-233.67719668 291.35218884 -229.94343074 286.35754855 -226.23828125 281.33984375 C-223.47954311 277.61677168 -220.64148043 273.96281425 -217.77661133 270.32104492 C-210.5244958 261.1016797 -203.56881755 251.71969385 -197 242 C-196.60022949 241.40848145 -196.20045898 240.81696289 -195.78857422 240.20751953 C-183.36980947 221.58737763 -178.73989176 200.77656506 -182.65234375 178.59375 C-187.19633547 160.02774091 -197.59579744 144.16047959 -213.75 133.8125 C-240.42174747 118.39482835 -273.48946467 124.96110883 -294 147 Z M-364 176 C-369.14558997 207.96370719 -365.94091192 244.83531262 -354 275 C-350.87377333 271.33902403 -348.66901971 267.6654732 -346.5 263.375 C-343.26122903 257.12627144 -339.70231202 251.13317326 -335.9375 245.1875 C-335.42421143 244.37490723 -334.91092285 243.56231445 -334.38208008 242.72509766 C-331.63970817 238.42928661 -328.77578556 234.30800722 -325.6875 230.25 C-323.50329944 227.17515455 -323.00701349 226.3927554 -322.9375 222.5 C-323.288125 221.345 -323.63875 220.19 -324 219 C-326.24694608 210.63960306 -326.23605623 202.48612961 -326.125 193.875 C-326.11494282 192.52344419 -326.10582184 191.17188107 -326.09765625 189.8203125 C-326.07427319 186.54668442 -326.04150061 183.27344006 -326 180 C-326.68924561 179.9498877 -327.37849121 179.89977539 -328.08862305 179.84814453 C-353.37660601 177.98528635 -353.37660601 177.98528635 -364 176 Z M-315 243 C-316.91529536 245.60757629 -318.58820581 248.38864346 -320.3125 251.125 C-320.84504395 251.9694165 -321.37758789 252.81383301 -321.92626953 253.68383789 C-327.58764595 262.77577247 -332.72146203 272.13515049 -337.72705078 281.60058594 C-338.84280582 283.70370074 -339.9776905 285.79466463 -341.12109375 287.8828125 C-341.67925781 288.93210937 -342.23742187 289.98140625 -342.8125 291.0625 C-343.27269531 291.91972656 -343.73289062 292.77695312 -344.20703125 293.66015625 C-345.41331111 297.21957317 -344.46855825 299.91603567 -343.00366211 303.30493164 C-342.59897705 304.08215576 -342.19429199 304.85937988 -341.77734375 305.66015625 C-341.32536621 306.530354 -340.87338867 307.40055176 -340.40771484 308.29711914 C-339.92254395 309.20969482 -339.43737305 310.12227051 -338.9375 311.0625 C-338.43943848 312.00407959 -337.94137695 312.94565918 -337.42822266 313.91577148 C-333.6721978 320.92826627 -329.68236022 327.55940411 -325 334 C-324.31679688 334.95519531 -323.63359375 335.91039062 -322.9296875 336.89453125 C-304.97459654 361.44602659 -280.82674499 387.58710853 -253 401 C-249.18902234 399.72967411 -248.85992125 398.48097549 -246.875 395.0625 C-243.17793752 389.06158384 -238.93272397 384.01926299 -234 379 C-233.40960938 378.39671875 -232.81921875 377.7934375 -232.2109375 377.171875 C-228.02790747 373.22840176 -223.39216271 370.33575392 -218.5 367.375 C-209.66845887 362.02421659 -201.82599433 355.71359291 -194 349 C-192.52466797 347.73929688 -192.52466797 347.73929688 -191.01953125 346.453125 C-178.03981193 335.0639613 -165.40762514 320.5001261 -163.1015625 302.8203125 C-162.87228554 296.45346767 -165.21317613 292.54823443 -169.375 287.875 C-176.49386998 281.21414555 -187.36809986 276.57870923 -197 275 C-200.33549076 275.49189645 -201.73232543 276.4158298 -203.8125 279.03515625 C-204.32482178 279.67203369 -204.83714355 280.30891113 -205.36499023 280.96508789 C-206.17432007 282.00330688 -206.17432007 282.00330688 -207 283.0625 C-207.84896851 284.1287561 -207.84896851 284.1287561 -208.71508789 285.21655273 C-213.20890921 290.89515984 -217.57814909 296.67000811 -221.86523438 302.50610352 C-232.4542089 316.86749382 -232.4542089 316.86749382 -240 319 C-246.21161305 319.81203028 -252.51388906 319.89293852 -258.02734375 316.62109375 C-262.73394728 312.75329085 -266.31967197 307.81214707 -270 303 C-270.49129395 302.36336426 -270.98258789 301.72672852 -271.48876953 301.07080078 C-274.20171226 297.55434044 -276.89617424 294.02451877 -279.578125 290.484375 C-281.85083458 287.49149568 -284.15238174 284.52503492 -286.484375 281.578125 C-295.27533265 270.45691628 -303.50025398 259.0180528 -311.21777344 247.12304688 C-312.12221398 245.73347516 -313.05738675 244.36396572 -314 243 C-314.33 243 -314.66 243 -315 243 Z " fill="#000000" transform="translate(382,52)"/>
<path d="M0 0 C10.22632405 6.99188777 17.36801044 16.51857482 19.7109375 28.82421875 C21.34279237 41.25452066 18.76174444 53.25064522 11.4140625 63.48046875 C4.59299856 71.85498411 -5.09722777 78.21410052 -16.00512695 79.46801758 C-30.17064196 80.38145074 -41.80490088 77.93203524 -52.8203125 68.3984375 C-61.20982563 59.96324644 -65.71575106 48.91604178 -66.22265625 37.109375 C-66.05369729 25.95808339 -61.98990804 15.04636458 -54.52734375 6.703125 C-39.59129015 -7.40731759 -17.84848935 -10.60120524 0 0 Z M-44.56640625 22.05859375 C-48.62505705 28.33822847 -49.96114367 34.98182418 -48.57421875 42.3515625 C-46.60856718 49.72913788 -42.12856139 55.36077516 -35.87109375 59.6875 C-29.17714195 63.14401329 -21.69295855 63.47116739 -14.453125 61.57421875 C-7.89350964 58.9928369 -2.8158833 54.9371891 0.34765625 48.58203125 C3.74615576 39.91942237 3.74615576 33.54932763 0.34765625 24.88671875 C-2.81415851 18.53502579 -7.89336805 14.46585678 -14.45703125 11.8984375 C-26.4407072 8.73504478 -36.90075367 12.45844866 -44.56640625 22.05859375 Z " fill="#000000" transform="translate(453.97265625,79.765625)"/>
<path d="M0 0 C8.83494184 8.06064357 13.85384766 18.03089604 14.95703125 29.94921875 C15.45712246 43.0141016 10.85887763 54.30586601 2.05078125 63.8359375 C-7.83477537 73.17334662 -18.56627706 76.0618602 -31.796875 75.8359375 C-41.81418324 75.1131554 -52.03190236 70.62549556 -59.26171875 63.5859375 C-68.05710019 52.70691217 -72.21806532 41.57025054 -71.26171875 27.5859375 C-69.55268012 15.55995006 -64.00278146 6.02536081 -54.63671875 -1.6953125 C-37.89878273 -13.80829251 -16.06229203 -13.10257362 0 0 Z M-47.26171875 14.5859375 C-52.36910339 21.70392152 -55.09414414 27.71196877 -54.26171875 36.5859375 C-52.91620303 43.65915315 -49.66917322 48.85307636 -44.26171875 53.5859375 C-37.54589905 57.84955881 -31.18276582 59.40218473 -23.26171875 58.5859375 C-15.61266839 56.41643375 -8.86268632 51.86706883 -4.88671875 44.8984375 C-1.8569466 37.96948033 -1.45158636 31.11084009 -3.69921875 23.8984375 C-6.59690014 16.91402615 -11.16309823 12.3324327 -17.69921875 8.6484375 C-28.1988992 5.51695386 -39.21820962 6.26777196 -47.26171875 14.5859375 Z " fill="#000000" transform="translate(164.26171875,208.4140625)"/>
</svg>
