<?xml version="1.0" encoding="UTF-8"?>
<svg version="1.1" xmlns="http://www.w3.org/2000/svg" width="512" height="512">
<path d="M0 0 C8.74849762 6.22405552 13.99143617 15.04697095 16.48046875 25.42578125 C17.09425572 31.29913303 16.86131413 37.21968429 16.73046875 43.11328125 C16.71035889 44.70114917 16.6921161 46.28904188 16.67578125 47.87695312 C16.63217231 51.72718631 16.56339944 55.57620254 16.48046875 59.42578125 C17.03508789 59.15838135 17.58970703 58.89098145 18.16113281 58.61547852 C20.68241007 57.4025554 23.20639263 56.19536845 25.73046875 54.98828125 C27.03951172 54.35696289 27.03951172 54.35696289 28.375 53.71289062 C29.21933594 53.31005859 30.06367188 52.90722656 30.93359375 52.4921875 C31.70864258 52.12037354 32.48369141 51.74855957 33.28222656 51.36547852 C41.96344297 47.65446097 54.65401031 48.03371268 63.54296875 50.98828125 C75.07386833 56.01094303 82.77981437 64.54625916 87.43075562 76.02966309 C89.20631569 81.7741009 89.09633959 87.31889294 88.96875 93.28515625 C88.96167526 94.55554749 88.95460052 95.82593872 88.9473114 97.13482666 C88.9242639 100.4694342 88.87956439 103.80223929 88.8237915 107.13635254 C88.77211512 110.5555893 88.74969558 113.97501434 88.72460938 117.39453125 C88.66980459 124.07210059 88.58637804 130.7488372 88.48046875 137.42578125 C89.18631607 137.41467819 89.89216339 137.40357513 90.61940002 137.39213562 C97.33985588 137.29107588 104.06019519 137.21538743 110.78122044 137.16672039 C114.23493476 137.14085668 117.6880105 137.1058988 121.14135742 137.04858398 C140.80700288 136.73093943 156.61584697 136.53217046 172.48046875 149.42578125 C173.31320312 150.05226562 174.1459375 150.67875 175.00390625 151.32421875 C183.79450589 158.78374967 190.3966648 171.08817445 192.48046875 182.42578125 C192.75313704 186.95700561 192.71312395 191.47764859 192.67578125 196.015625 C192.67153641 197.96511803 192.67153641 197.96511803 192.66720581 199.95399475 C192.6596153 203.3882738 192.64000698 206.82238032 192.61779785 210.2565918 C192.59723996 213.76934476 192.58818295 217.28212594 192.578125 220.79492188 C192.55675611 227.67194531 192.52267639 234.54885497 192.48046875 241.42578125 C193.09571411 241.41848495 193.71095947 241.41118866 194.34484863 241.40367126 C195.1533728 241.39799637 195.96189697 241.39232147 196.79492188 241.38647461 C197.59579224 241.37917831 198.3966626 241.37188202 199.22180176 241.36436462 C208.89003126 241.62725864 217.04418472 247.77866392 223.453125 254.4921875 C230.87446646 263.30010655 233.10309046 272.73887325 233.01171875 284.05078125 C233.01554565 285.11893066 233.01937256 286.18708008 233.02331543 287.28759766 C233.02601845 289.52963207 233.01877116 291.77169891 233.00195312 294.01367188 C232.98052158 297.41739167 233.00181143 300.81900098 233.02734375 304.22265625 C233.02470019 306.41536918 233.01957463 308.6080808 233.01171875 310.80078125 C233.01981567 311.80318848 233.0279126 312.8055957 233.03625488 313.83837891 C232.88928709 325.08305843 229.26201297 334.27442107 221.48046875 342.42578125 C214.53991173 349.05145478 206.55620653 353.55401766 196.79492188 353.46508789 C195.98639771 353.45941299 195.17787354 353.4537381 194.34484863 353.44789124 C193.72960327 353.44059494 193.11435791 353.43329865 192.48046875 353.42578125 C192.4893512 354.13829041 192.49823364 354.85079956 192.50738525 355.5848999 C192.58804828 362.35049434 192.64869309 369.11601549 192.68771744 375.88196945 C192.70845603 379.35918703 192.73651603 382.83600221 192.78222656 386.31298828 C192.83462599 390.32458007 192.85352705 394.33575948 192.87109375 398.34765625 C192.89173889 399.5762738 192.91238403 400.80489136 192.93365479 402.07073975 C192.93725711 416.1440478 187.95524005 430.24956476 178.29296875 440.7421875 C168.14120527 450.17195056 155.07538469 457.66498536 140.93669605 457.68305016 C139.65523632 457.68949905 138.37377658 457.69594794 137.05348474 457.70259225 C135.64387651 457.6996504 134.23426867 457.696515 132.82466125 457.69320679 C131.31749293 457.69694542 129.81032655 457.70154779 128.30316323 457.70693743 C124.16914771 457.71915674 120.03521318 457.71890822 115.90118372 457.71654868 C111.43953687 457.71614024 106.9779159 457.72718233 102.51628113 457.73666382 C93.77750229 457.75326935 85.03875043 457.75877318 76.29995713 457.75988857 C69.19495946 457.76083934 62.08997068 457.76495106 54.98497581 457.77128983 C34.8335809 457.78890165 14.68220728 457.79812888 -5.46919539 457.79662888 C-7.0983902 457.79650901 -7.0983902 457.79650901 -8.76049805 457.79638672 C-9.84795682 457.79630496 -10.93541559 457.7962232 -12.05582765 457.79613896 C-29.67506372 457.79532626 -47.29421426 457.81446005 -64.91342559 457.84266345 C-83.01198985 457.87140513 -101.11051241 457.88520301 -119.20910007 457.8834759 C-129.36711 457.8828124 -139.52503029 457.88828695 -149.68301964 457.909832 C-158.33280311 457.92806076 -166.98245631 457.93237727 -175.63225069 457.91881315 C-180.04288254 457.91229184 -184.45326458 457.91213594 -188.86387253 457.92951965 C-192.90754777 457.94529276 -196.95077603 457.94234386 -200.99444065 457.92495139 C-202.45136866 457.92189076 -203.90833038 457.92547833 -205.3652186 457.93667154 C-220.58408131 458.0457826 -235.39159623 453.77695522 -246.8359375 443.23828125 C-257.43256891 431.83030683 -263.83719595 418.52436666 -263.79368591 402.95324707 C-263.79892259 402.01863254 -263.80415927 401.08401801 -263.80955464 400.12108183 C-263.82451784 396.99929731 -263.82525899 393.87767725 -263.82592773 390.75585938 C-263.83355189 388.51318079 -263.84197983 386.27050482 -263.85115051 384.02783203 C-263.87308195 377.9406516 -263.88189307 371.8535214 -263.88697696 365.76630592 C-263.89062329 361.95881685 -263.89686492 358.15134088 -263.90397835 354.34385681 C-263.92343167 343.78364541 -263.93994565 333.22344491 -263.94285488 322.66321564 C-263.94304245 321.98818433 -263.94323002 321.31315302 -263.94342327 320.61766621 C-263.94378951 319.24944019 -263.9441532 317.88121417 -263.94451439 316.51298815 C-263.9446972 315.83387784 -263.94488001 315.15476753 -263.94506836 314.45507812 C-263.94524891 313.77512989 -263.94542946 313.09518166 -263.94561548 312.39462894 C-263.94915234 301.39262479 -263.97614622 290.39081694 -264.01356625 279.38888079 C-264.05175576 268.06923536 -264.07057319 256.74971871 -264.07131439 245.42999601 C-264.07210539 239.08417246 -264.08076221 232.73860212 -264.10931206 226.39283752 C-264.13559458 220.41730677 -264.13764087 214.44223726 -264.12165642 208.4666748 C-264.11984981 206.28310638 -264.12646067 204.09951081 -264.14247513 201.91600037 C-264.26004994 184.8325467 -262.68132428 171.15953106 -251.51953125 157.42578125 C-250.89304688 156.59304687 -250.2665625 155.7603125 -249.62109375 154.90234375 C-241.89909467 145.80244149 -229.97916705 140.11566361 -218.51953125 137.42578125 C-215.99809406 137.45513131 -213.47688356 137.51919998 -210.95703125 137.61328125 C-202.90818672 137.4858045 -198.93009274 134.24670845 -193.4609375 128.63378906 C-192.33473196 127.44766527 -191.21414003 126.25618269 -190.09960938 125.05908203 C-187.88632718 122.77124862 -185.45893293 120.82647867 -182.95703125 118.86328125 C-178.80852868 115.54326084 -174.89425889 112.05528733 -171.01953125 108.42578125 C-167.14480361 104.79627517 -163.23053382 101.30830166 -159.08203125 97.98828125 C-154.70701153 94.47934986 -150.59932216 90.7673362 -146.51953125 86.92578125 C-141.6064501 82.29959535 -136.56831404 77.95307438 -131.296875 73.734375 C-128.09510326 71.07298667 -125.05718207 68.27115879 -122.01953125 65.42578125 C-117.28088982 60.98743219 -112.39833546 56.83435672 -107.33203125 52.76953125 C-104.1210332 50.09369954 -101.06923988 47.28219849 -98.01953125 44.42578125 C-93.28086661 39.98745451 -88.39833799 35.83435875 -83.33203125 31.76953125 C-80.12102934 29.09369633 -77.06928492 26.28215556 -74.01953125 23.42578125 C-69.21710351 18.92894326 -64.28064184 14.69362101 -59.13671875 10.5859375 C-56.46728053 8.38265491 -53.97157685 6.05324103 -51.45703125 3.67578125 C-36.83153366 -9.66677795 -16.47762374 -10.2953215 0 0 Z M-46.44921875 22.56640625 C-49.17775326 25.14269024 -52.02395704 27.52024237 -54.95703125 29.86328125 C-59.73574753 33.70688182 -64.21110812 37.79538289 -68.68334961 41.98413086 C-72.87282651 45.88574795 -77.24126061 49.49902922 -81.70703125 53.08203125 C-84.9180293 55.75786296 -87.96982262 58.56936401 -91.01953125 61.42578125 C-94.91531359 65.07464781 -98.85287162 68.58276364 -103.01953125 71.92578125 C-108.42389907 76.26505469 -113.46908248 80.9297454 -118.53515625 85.65234375 C-123.15306886 89.95683639 -127.92714732 94.0689053 -132.73046875 98.1640625 C-133.93115166 99.18861217 -135.13166746 100.21335771 -136.33203125 101.23828125 C-136.93821289 101.75559814 -137.54439453 102.27291504 -138.16894531 102.8059082 C-141.91023945 106.01080354 -145.58068508 109.27787403 -149.20703125 112.61328125 C-152.7233947 115.84133379 -156.30605689 118.92663859 -160.01953125 121.92578125 C-165.71728849 126.53002953 -171.27200744 131.31020678 -176.51953125 136.42578125 C-176.51953125 136.75578125 -176.51953125 137.08578125 -176.51953125 137.42578125 C-149.22790199 139.57570104 -129.75144857 136.46923803 -105.69895291 123.49267387 C-101.96519738 121.50070646 -98.18442688 119.60181485 -94.40867615 117.69104004 C-87.321621 114.08780217 -80.27807861 110.40731809 -73.24799055 106.69438219 C-65.21927417 102.45916895 -57.14400176 98.31650451 -49.06435883 94.17950535 C-32.49709704 85.69410162 -15.98917689 77.09901153 0.48046875 68.42578125 C0.53038388 63.7667797 0.56642885 59.10793822 0.59033203 54.44873047 C0.60031034 52.86797367 0.61389782 51.28723494 0.63134766 49.70654297 C1.19027158 31.59741588 1.19027158 31.59741588 -7.51953125 16.42578125 C-13.64439636 11.20926478 -18.57016919 10.03553745 -26.46875 10.16796875 C-35.14958665 10.90156058 -40.41400398 16.83809882 -46.44921875 22.56640625 Z M32.85546875 70.61328125 C31.90712158 71.09104004 30.95877441 71.56879883 29.98168945 72.06103516 C27.76595923 73.17903136 25.55547845 74.30746606 23.34912109 75.44384766 C18.96117072 77.70090473 14.54349709 79.89725233 10.125 82.09375 C2.98512892 85.64613774 -4.14919901 89.20929317 -11.27734375 92.78515625 C-12.66032402 93.47888588 -12.66032402 93.47888588 -14.07124329 94.18663025 C-16.88743416 95.59949158 -19.70350518 97.01259147 -22.51953125 98.42578125 C-29.91409266 102.13665549 -37.30940903 105.84601179 -44.70703125 109.55078125 C-45.590688 109.99335958 -46.47434475 110.43593792 -47.38477898 110.89192772 C-60.00588665 117.20937942 -72.66993418 123.41587535 -85.43702698 129.43403625 C-90.16913143 131.68759269 -94.84992351 134.04578763 -99.51953125 136.42578125 C-99.51953125 136.75578125 -99.51953125 137.08578125 -99.51953125 137.42578125 C-42.75953125 137.42578125 14.00046875 137.42578125 72.48046875 137.42578125 C75.83516171 108.40608629 75.83516171 108.40608629 66.48046875 73.42578125 C55.72476488 64.79393919 44.96127666 64.17692749 32.85546875 70.61328125 Z M-238.51953125 168.42578125 C-246.12088627 178.81050181 -247.67821479 189.66127594 -247.65324402 202.20355225 C-247.65550958 203.05129975 -247.65777513 203.89904725 -247.66010934 204.77248406 C-247.66640544 207.59410506 -247.66562281 210.41567748 -247.66479492 213.23730469 C-247.66778917 215.26825014 -247.67119231 217.29919502 -247.67497253 219.33013916 C-247.68379001 224.83443089 -247.68614971 230.33870707 -247.68678832 235.84300518 C-247.68750013 239.28580321 -247.68963695 242.7285973 -247.69228554 246.17139435 C-247.70153171 258.19336701 -247.70562136 270.21532859 -247.70483398 282.23730469 C-247.70423348 293.42531432 -247.71478186 304.61327569 -247.73057765 315.80127311 C-247.74367423 325.42192681 -247.74901699 335.04256478 -247.74837857 344.66322732 C-247.7481242 350.40243239 -247.75094199 356.14159456 -247.76155663 361.88079071 C-247.77127321 367.28166596 -247.77129243 372.6824576 -247.76403999 378.08333588 C-247.76299855 380.05852379 -247.7653307 382.03371701 -247.77140045 384.00889587 C-247.82196746 401.61299521 -247.45335062 416.853054 -234.76171875 430.3828125 C-222.82874072 441.25554335 -208.8813222 441.57762542 -193.57867432 441.55949402 C-192.16139025 441.56136413 -190.74410669 441.56366564 -189.32682395 441.56635934 C-185.44591879 441.57245895 -181.56503523 441.57234592 -177.68412638 441.57116497 C-173.49312924 441.57096049 -169.30213895 441.57648416 -165.11114502 441.58122253 C-156.90524476 441.58951958 -148.69935168 441.59227695 -140.49344757 441.59283491 C-133.82135242 441.59331053 -127.14925963 441.59536754 -120.47716522 441.59853554 C-101.54910739 441.60733956 -82.62105523 441.61195531 -63.69299534 441.61120506 C-62.67314477 441.61116511 -61.6532942 441.61112515 -60.60253906 441.61108398 C-59.07088945 441.61102266 -59.07088945 441.61102266 -57.50829741 441.6109601 C-40.96259529 441.61055371 -24.41691592 441.62012214 -7.87122038 441.63422235 C9.12899901 441.64859527 26.1292073 441.65549203 43.12943292 441.65462857 C52.66924263 441.65429692 62.20902847 441.65703019 71.7488327 441.66780663 C79.87155439 441.67692368 87.99424139 441.67907698 96.11696598 441.6722972 C100.25817739 441.66903808 104.3993223 441.66895332 108.54052734 441.67765045 C112.33794449 441.68554329 116.13524269 441.68405578 119.93265703 441.67536632 C121.94352105 441.67311798 123.95438884 441.68063807 125.96523833 441.68860596 C141.40129383 441.63028809 153.88464384 439.50516126 165.4375 428.66796875 C175.59157019 417.52373111 176.6517427 404.53136819 176.578125 390.14453125 C176.57671005 389.09044067 176.5752951 388.0363501 176.57383728 386.95031738 C176.56827383 383.60877554 176.55572816 380.26730258 176.54296875 376.92578125 C176.53794902 374.64974056 176.53338695 372.3736988 176.52929688 370.09765625 C176.51831639 364.54034138 176.50161497 358.98306624 176.48046875 353.42578125 C175.37736862 353.42213562 174.27426849 353.41848999 173.13774109 353.41473389 C162.70724694 353.37768276 152.27704527 353.31979994 141.8467741 353.24187851 C136.48532125 353.20248454 131.12403066 353.17025647 125.76245117 353.15478516 C120.58158519 353.13956532 115.40116555 353.1050255 110.22049904 353.05747223 C108.25074979 353.04271323 106.28093679 353.03474341 104.31113243 353.0338974 C90.72989638 353.02220538 78.7997836 352.79574875 68.484375 342.8125 C58.29438645 330.67588595 56.94986234 315.13386838 57.03442383 299.94311523 C57.04292254 297.62588091 57.0140741 295.3111329 56.98242188 292.99414062 C56.91188768 278.01734664 59.01702439 263.04248616 69.2578125 251.40625 C79.93105299 241.03858286 93.36513989 241.82236626 107.2421875 241.81640625 C109.2443016 241.80140475 111.24640342 241.78467351 113.24848938 241.76629639 C118.48445239 241.72283184 123.72024851 241.7026703 128.95635986 241.68756104 C134.31280297 241.66791426 139.66906781 241.62595298 145.02539062 241.5859375 C155.5103614 241.51086197 165.99529184 241.46043366 176.48046875 241.42578125 C176.53159786 234.80960427 176.56638065 228.19347912 176.59033203 221.57714844 C176.60032765 219.33103532 176.61392863 217.084935 176.63134766 214.83886719 C176.65588132 211.59176453 176.66701655 208.34483539 176.67578125 205.09765625 C176.68610382 204.10965027 176.69642639 203.12164429 176.70706177 202.10369873 C176.70937581 187.39659819 173.9797694 175.40321968 163.72265625 164.46875 C151.78967822 153.59601915 137.8422597 153.27393708 122.53961182 153.29206848 C121.12232775 153.29019837 119.70504419 153.28789686 118.28776145 153.28520316 C114.40685629 153.27910355 110.52597273 153.27921658 106.64506388 153.28039753 C102.45406674 153.28060201 98.26307645 153.27507834 94.07208252 153.27033997 C85.86618226 153.26204292 77.66028918 153.25928555 69.45438507 153.25872759 C62.78228992 153.25825197 56.11019713 153.25619496 49.43810272 153.25302696 C30.51004489 153.24422294 11.58199273 153.23960719 -7.34606716 153.24035744 C-8.36591773 153.24039739 -9.3857683 153.24043735 -10.43652344 153.24047852 C-11.96817305 153.24053984 -11.96817305 153.24053984 -13.53076509 153.2406024 C-30.07646721 153.24100879 -46.62214658 153.23144036 -63.16784212 153.21734015 C-80.16806151 153.20296723 -97.1682698 153.19607047 -114.16849542 153.19693393 C-123.70830513 153.19726558 -133.24809097 153.19453231 -142.7878952 153.18375587 C-150.91061689 153.17463882 -159.03330389 153.17248552 -167.15602848 153.1792653 C-171.29723989 153.18252442 -175.4383848 153.18260918 -179.57958984 153.17391205 C-183.37700699 153.16601921 -187.17430519 153.16750672 -190.97171953 153.17619618 C-192.98258355 153.17844452 -194.99345134 153.17092443 -197.00430083 153.16295654 C-213.48669755 153.22522752 -227.02320453 155.80839782 -238.51953125 168.42578125 Z M80.48046875 263.42578125 C73.47521624 273.11638056 73.12882127 283.61549513 73.16479492 295.17236328 C73.16795254 297.28991359 73.14443522 299.40605915 73.11914062 301.5234375 C73.06770182 312.47373407 73.95694512 323.80422984 81.48046875 332.42578125 C88.26224 338.00695184 96.71822478 337.57538941 105.03662109 337.57104492 C105.96928299 337.57440353 106.90194489 337.57776215 107.86286926 337.58122253 C110.93072866 337.59068262 113.9985332 337.59267309 117.06640625 337.59375 C119.20960512 337.59696575 121.35280378 337.60033007 123.4960022 337.60383606 C127.98301706 337.60981478 132.47001269 337.61167722 136.95703125 337.61108398 C142.6921662 337.61098238 148.42717733 337.62463907 154.16228294 337.64185619 C158.58735719 337.65300139 163.01240172 337.65500242 167.43748856 337.65447426 C169.55128023 337.6556504 171.66507278 337.66005152 173.77885056 337.66780663 C176.74116325 337.67765845 179.70320991 337.67470812 182.66552734 337.66870117 C183.52919418 337.67432068 184.39286102 337.67994019 185.28269958 337.68572998 C194.41895232 337.63890623 202.41490401 336.5277889 209.109375 329.78515625 C217.09246896 320.9364256 216.66705525 311.1916068 216.66577148 299.7956543 C216.66795207 297.62984381 216.68612592 295.46454838 216.70507812 293.29882812 C216.84971368 278.95148323 216.84971368 278.95148323 210.48046875 266.42578125 C202.27976891 258.28365784 194.23777824 257.27469227 183.0378418 257.28051758 C182.10532593 257.27715897 181.17281006 257.27380035 180.21203613 257.27033997 C177.13873959 257.26086525 174.06549773 257.25888857 170.9921875 257.2578125 C168.84755939 257.2545974 166.70293149 257.25123314 164.55830383 257.24772644 C160.06531262 257.2417438 155.57234062 257.23988564 151.0793457 257.24047852 C145.33633499 257.24058006 139.59344812 257.22693136 133.85046673 257.20970631 C129.42110127 257.19856011 124.99176551 257.19656012 120.56238747 257.19708824 C118.44580471 257.19591194 116.32922109 257.19150991 114.21265221 257.18375587 C111.24544095 257.17390352 108.27849528 257.17685475 105.3112793 257.18286133 C104.44604141 257.17724182 103.58080353 257.17162231 102.68934631 257.16583252 C94.65675107 257.20692741 86.69781545 257.91495122 80.48046875 263.42578125 Z " fill="#000000" transform="translate(271.51953125,46.57421875)"/>
<path d="M0 0 C10.1996127 6.09489052 17.17989438 18.72053092 24.02148438 28.16308594 C26.49571056 31.56547147 28.99812298 34.94657243 31.50268555 38.32666016 C33.27462862 40.72336489 35.0345718 43.12850353 36.79296875 45.53515625 C38.59311134 47.99431374 40.41936767 50.39787175 42.31640625 52.78515625 C46.13860159 57.70709793 47.81370739 61.20247323 47.30859375 67.53125 C46.49780626 71.70420215 44.71877254 73.87733844 41.7890625 76.83984375 C37.90696991 79.35485535 35.07802467 79.18212992 30.5703125 78.97265625 C29.82974609 78.95460938 29.08917969 78.9365625 28.32617188 78.91796875 C26.5111554 78.87112962 24.69681084 78.79939414 22.8828125 78.72265625 C22.86863281 79.44066406 22.85445313 80.15867187 22.83984375 80.8984375 C21.43836872 111.31423332 6.12480315 136.64225108 -15.6796875 157.03515625 C-27.37288894 167.37663663 -27.37288894 167.37663663 -34.91137695 167.17333984 C-39.37310896 166.26173417 -42.63149301 163.25976399 -46.1171875 160.47265625 C-46.93300293 159.84456055 -47.74881836 159.21646484 -48.58935547 158.56933594 C-50.27426914 157.27194261 -51.9537911 155.96751791 -53.62792969 154.65625 C-56.01911471 152.79883676 -58.43714388 150.98697126 -60.875 149.19140625 C-61.61234375 148.64774414 -62.3496875 148.10408203 -63.109375 147.54394531 C-64.50735313 146.51402461 -65.90577494 145.48470582 -67.3046875 144.45605469 C-72.00431837 140.94839451 -72.00431837 140.94839451 -73.1171875 138.72265625 C-73.81154121 131.66339353 -73.81154121 131.66339353 -71.1796875 128.09765625 C-67.29453139 125.08467804 -63.23707083 122.40133497 -59.1171875 119.72265625 C-49.9445819 113.60758585 -44.27750227 102.34906944 -42.1171875 91.72265625 C-41.8973652 89.47558384 -41.71234763 87.22494387 -41.5546875 84.97265625 C-41.47089844 83.8021875 -41.38710938 82.63171875 -41.30078125 81.42578125 C-41.20990234 80.08773437 -41.20990234 80.08773437 -41.1171875 78.72265625 C-42.19097656 78.79226562 -43.26476562 78.861875 -44.37109375 78.93359375 C-57.32948641 79.52019391 -57.32948641 79.52019391 -61.5546875 75.84765625 C-64.58611915 72.57086068 -65.3482566 70.10780386 -65.5546875 65.66015625 C-65.61527344 64.76167969 -65.67585938 63.86320312 -65.73828125 62.9375 C-64.79452072 58.0525005 -62.02474012 54.68539248 -59.1171875 50.72265625 C-58.60631592 50.00907959 -58.09544434 49.29550293 -57.5690918 48.56030273 C-55.9774766 46.35114387 -54.36351902 44.16008857 -52.7421875 41.97265625 C-51.85176758 40.7674231 -51.85176758 40.7674231 -50.94335938 39.5378418 C-44.34479007 30.6343984 -37.62194533 21.82508494 -30.87255859 13.03564453 C-29.714126 11.50922027 -28.57078299 9.97121053 -27.44384766 8.42138672 C-26.92612793 7.70998535 -26.4084082 6.99858398 -25.875 6.265625 C-25.42785645 5.64067139 -24.98071289 5.01571777 -24.52001953 4.37182617 C-18.62282073 -2.5609232 -8.02969658 -3.29036439 0 0 Z M-13.125 17.63671875 C-13.82367188 18.53132813 -14.52234375 19.4259375 -15.2421875 20.34765625 C-16.03753906 21.3634375 -16.83289063 22.37921875 -17.65234375 23.42578125 C-20.47047133 27.15966188 -23.18491511 30.96668668 -25.87109375 34.79614258 C-30.69659398 41.63751032 -35.82256757 48.2508609 -40.93579102 54.87841797 C-41.60666748 55.75127441 -42.27754395 56.62413086 -42.96875 57.5234375 C-43.57541504 58.30887939 -44.18208008 59.09432129 -44.80712891 59.90356445 C-46.21458692 61.48427947 -46.21458692 61.48427947 -46.1171875 62.72265625 C-44.32861328 62.77873047 -44.32861328 62.77873047 -42.50390625 62.8359375 C-40.9374685 62.90159657 -39.37106366 62.96804393 -37.8046875 63.03515625 C-36.62616211 63.06899414 -36.62616211 63.06899414 -35.42382812 63.10351562 C-34.66650391 63.13896484 -33.90917969 63.17441406 -33.12890625 63.2109375 C-32.08416138 63.25021362 -32.08416138 63.25021362 -31.01831055 63.2902832 C-28.53453024 63.85517018 -27.65373992 64.71023873 -26.1171875 66.72265625 C-21.2812899 80.23508447 -25.07787915 98.41468484 -30.5546875 111.03515625 C-35.39724233 120.90651803 -42.43791618 128.04616929 -50.1171875 135.72265625 C-47.57756001 137.79416404 -45.00752829 139.82397271 -42.4296875 141.84765625 C-41.70845703 142.43675781 -40.98722656 143.02585937 -40.24414062 143.6328125 C-38.24845448 145.18197526 -36.36559512 146.56950795 -34.1171875 147.72265625 C-24.90418138 146.28923238 -17.13343323 134.73553818 -11.828125 127.62109375 C-0.92169945 112.33657282 4.83841393 95.7935645 6.25170898 77.14111328 C6.58967061 72.72628217 7.1183344 68.84832685 8.8828125 64.72265625 C12.0545505 63.13678725 15.51795072 63.3439918 19.0078125 63.16015625 C19.76191406 63.11697266 20.51601563 63.07378906 21.29296875 63.02929688 C23.15603138 62.92317305 25.01939774 62.82240624 26.8828125 62.72265625 C25.53564432 59.86012268 24.00508194 57.37978821 22.1171875 54.84375 C21.56337402 54.09625488 21.00956055 53.34875977 20.43896484 52.57861328 C19.84293457 51.78052246 19.2469043 50.98243164 18.6328125 50.16015625 C17.3696639 48.45842817 16.10664704 46.75660229 14.84375 45.0546875 C14.19245117 44.17893066 13.54115234 43.30317383 12.87011719 42.40087891 C10.90064593 39.74668975 8.94069521 37.08576888 6.984375 34.421875 C6.35950195 33.57117432 5.73462891 32.72047363 5.09082031 31.84399414 C3.89439854 30.21461046 2.69841487 28.58490497 1.50292969 26.95483398 C0.43499172 25.50299777 -0.6375699 24.05454544 -1.71582031 22.61035156 C-2.92234893 20.98511127 -4.09717367 19.33642127 -5.265625 17.68359375 C-5.87664062 17.03648438 -6.48765625 16.389375 -7.1171875 15.72265625 C-11.09698163 15.26265177 -11.09698163 15.26265177 -13.125 17.63671875 Z " fill="#000000" transform="translate(457.1171875,9.27734375)"/>
<path d="M0 0 C8.34468007 4.97590182 13.53387008 11.86345977 16.109375 21.2578125 C17.10789012 32.35758522 16.45884702 41.9922991 9.359375 51.0703125 C3.68970122 57.1408723 -3.36319277 60.85433149 -11.66015625 61.59375 C-19.4412515 61.76746925 -26.16911331 61.58646603 -32.890625 57.2578125 C-33.59703125 56.82210937 -34.3034375 56.38640625 -35.03125 55.9375 C-41.93709584 51.25687115 -45.68778524 45.25759899 -47.890625 37.2578125 C-48.88914012 26.15803978 -48.24009702 16.5233259 -41.140625 7.4453125 C-30.84272373 -3.5807232 -13.59449082 -6.52353083 0 0 Z M-29.265625 20.8828125 C-31.46970393 25.46051489 -31.6877889 29.26333661 -30.890625 34.2578125 C-28.56093569 39.09639798 -25.72921048 41.92812319 -20.890625 44.2578125 C-15.89614911 45.0549764 -12.09332739 44.83689143 -7.515625 42.6328125 C-3.93154787 39.39007605 -1.29527259 36.79305354 -0.5078125 31.859375 C-0.25178581 26.17558256 -0.95435568 22.60842595 -4.890625 18.2578125 C-9.24123845 14.32154318 -12.80839506 13.61897331 -18.4921875 13.875 C-23.42586604 14.66246009 -26.02288855 17.29873537 -29.265625 20.8828125 Z " fill="#000000" transform="translate(407.890625,314.7421875)"/>
</svg>
