<?xml version="1.0" encoding="UTF-8"?>
<svg version="1.1" xmlns="http://www.w3.org/2000/svg" width="512" height="512">
<path d="M0 0 C1.36956694 -0.00657338 1.36956694 -0.00657338 2.76680189 -0.01327956 C5.83343338 -0.02665875 8.90003612 -0.03284454 11.96669006 -0.03897095 C14.16290924 -0.04687279 16.35912711 -0.05514179 18.55534363 -0.06375122 C25.77586121 -0.08996816 32.99638458 -0.10528143 40.2169342 -0.11953735 C42.70423956 -0.12489771 45.19154489 -0.13027522 47.67885017 -0.13566971 C58.02877138 -0.15730051 68.37869102 -0.17603544 78.72862911 -0.1872921 C81.4132888 -0.19022155 84.09794844 -0.19318324 86.78260803 -0.19619751 C87.44982431 -0.19694356 88.1170406 -0.19768961 88.80447555 -0.19845827 C99.5978522 -0.21109492 110.39106348 -0.2442963 121.18436294 -0.28599934 C132.28013936 -0.32851741 143.37584721 -0.35159169 154.47170645 -0.35721266 C160.69568312 -0.36086024 166.91937958 -0.37281851 173.14327812 -0.4053154 C179.00466098 -0.43547997 184.86559533 -0.44167769 190.72703934 -0.42993164 C192.87113813 -0.42971159 195.01525824 -0.43795936 197.15928459 -0.45558548 C214.32716575 -0.58896885 226.94157857 1.3872319 239.7716217 13.8062439 C247.11607992 21.70850906 251.39567996 32.0459016 251.30509949 42.78485107 C251.30766276 43.90735069 251.30766276 43.90735069 251.31027782 45.05252707 C251.31356066 47.54914473 251.30258906 50.04549102 251.29164124 52.54208374 C251.29107686 54.33604933 251.2913942 56.13001539 251.29252625 57.92398071 C251.29309973 62.78714725 251.28134602 67.650215 251.26737833 72.51335859 C251.25487034 77.59825609 251.25370041 82.68315589 251.25132751 87.76806641 C251.24511296 97.39394833 251.22870244 107.01978478 251.20862854 116.64564669 C251.18626881 127.60566767 251.17527592 138.56569083 251.16523767 149.52572894 C251.14433621 172.06847787 251.10916067 194.61118646 251.06459045 217.15390015 C258.16333283 217.39224011 265.25714254 217.51167466 272.35975647 217.55062866 C274.77231989 217.57763437 277.18474389 217.63132806 279.59608459 217.71273804 C292.36331552 218.72262429 292.36331552 218.72262429 303.98609924 214.72149658 C307.0048905 211.2313737 308.63242712 207.37709676 310.20828247 203.08666992 C318.69502755 183.93126707 342.5497738 170.12293175 361.1153717 162.6265564 C370.97634524 158.85296401 381.41197869 155.54036699 392.06459045 157.15390015 C396.71261329 159.31191075 400.05442117 162.39391516 402.06459045 167.15390015 C402.60675095 171.00126059 402.53056572 174.79863656 402.45521545 178.67733765 C402.44955566 179.77865021 402.44389587 180.87996277 402.43806458 182.01464844 C402.41573787 185.51984778 402.36554618 189.02401161 402.31459045 192.52890015 C402.29452076 194.91039576 402.27627082 197.29190746 402.25990295 199.6734314 C402.2158852 205.5006055 402.14900933 211.32717882 402.06459045 217.15390015 C402.91053772 217.13295288 403.75648499 217.11200562 404.62806702 217.09042358 C407.82626668 217.02144794 411.02408208 216.97171715 414.22279358 216.93417358 C415.5959689 216.91430037 416.96906241 216.88719157 418.3419342 216.85214233 C433.40583918 216.47774703 444.83220065 219.65569641 456.0294342 229.9624939 C464.49980076 238.87769371 468.21147124 249.03290102 468.2184906 261.08930969 C468.22287285 262.00235432 468.22725511 262.91539894 468.23177016 263.85611159 C468.24514935 266.92274307 468.25133514 269.98934581 468.25746155 273.05599976 C468.26536339 275.25221893 468.27363239 277.44843681 468.28224182 279.64465332 C468.30845876 286.86517091 468.32377203 294.08569427 468.33802795 301.3062439 C468.34338831 303.79354926 468.34876582 306.28085458 468.35416031 308.76815987 C468.37579111 319.11808107 468.39452604 329.46800072 468.4057827 339.8179388 C468.40871215 342.50259849 468.41167384 345.18725813 468.41468811 347.87191772 C468.41543416 348.53913401 468.41618021 349.20635029 468.41694887 349.89378525 C468.42958552 360.68716189 468.4627869 371.48037318 468.50448994 382.27367263 C468.54700801 393.36944906 468.57008229 404.4651569 468.57570326 415.56101614 C468.57935084 421.78499281 468.59130911 428.00868927 468.623806 434.23258781 C468.65397057 440.09397067 468.66016829 445.95490502 468.64842224 451.81634903 C468.64820219 453.96044782 468.65644996 456.10456793 468.67407608 458.24859428 C468.80795376 475.48009813 466.76045142 487.85061991 454.4825592 500.82577515 C445.87238683 508.95411306 435.67905988 512.30107584 424.12918091 512.30780029 C423.21613628 512.31218255 422.30309166 512.3165648 421.36237901 512.32107985 C418.29574753 512.33445904 415.22914479 512.34064483 412.16249084 512.34677124 C409.96627167 512.35467308 407.77005379 512.36294208 405.57383728 512.37155151 C398.35331969 512.39776845 391.13279633 512.41308172 383.9122467 512.42733765 C381.42494134 512.43269801 378.93763602 512.43807552 376.45033073 512.44347 C366.10040953 512.4651008 355.75048988 512.48383573 345.4005518 512.49509239 C342.71589211 512.49802184 340.03123247 512.50098353 337.34657288 512.5039978 C336.67935659 512.50474385 336.01214031 512.5054899 335.32470535 512.50625856 C324.53132871 512.51889521 313.73811742 512.5520966 302.94481797 512.59379964 C291.84904154 512.63631771 280.7533337 512.65939198 269.65747446 512.66501296 C263.43349779 512.66866053 257.20980133 512.6806188 250.98590279 512.71311569 C245.12451993 512.74328026 239.26358558 512.74947798 233.40214157 512.73773193 C231.25804278 512.73751188 229.11392267 512.74575965 226.96989632 512.76338577 C209.80201516 512.89676914 197.18760233 510.9205684 184.3575592 498.5015564 C177.01310099 490.59929123 172.73350095 480.2618987 172.82408142 469.52294922 C172.82237257 468.77461614 172.82066372 468.02628306 172.81890309 467.25527322 C172.81562025 464.75865557 172.82659185 462.26230927 172.83753967 459.76571655 C172.83810405 457.97175096 172.83778671 456.1777849 172.83665466 454.38381958 C172.83608118 449.52065304 172.84783488 444.65758529 172.86180258 439.7944417 C172.87431057 434.7095442 172.87548049 429.6246444 172.87785339 424.53973389 C172.88406795 414.91385197 172.90047847 405.28801551 172.92055237 395.6621536 C172.9429121 384.70213262 172.95390499 373.74210946 172.96394324 362.78207135 C172.9848447 340.23932242 173.02002024 317.69661383 173.06459045 295.15390015 C165.96584808 294.91556018 158.87203837 294.79612564 151.76942444 294.75717163 C149.35686102 294.73016593 146.94443702 294.67647224 144.53309631 294.59506226 C131.76586539 293.585176 131.76586539 293.585176 120.14308167 297.58630371 C117.12429041 301.07642659 115.49675379 304.93070353 113.92089844 309.22113037 C105.43415336 328.37653322 81.57940711 342.18486854 63.0138092 349.6812439 C53.15283566 353.45483629 42.71720222 356.7674333 32.06459045 355.15390015 C27.41656762 352.99588954 24.07475974 349.91388514 22.06459045 345.15390015 C21.52242995 341.30653971 21.59861518 337.50916373 21.67396545 333.63046265 C21.67962524 332.52915009 21.68528503 331.42783752 21.69111633 330.29315186 C21.71344304 326.78795251 21.76363473 323.28378869 21.81459045 319.77890015 C21.83466015 317.39740453 21.85291009 315.01589283 21.86927795 312.6343689 C21.91329571 306.8071948 21.98017157 300.98062147 22.06459045 295.15390015 C21.21864319 295.17484741 20.37269592 295.19579468 19.50111389 295.21737671 C16.30291423 295.28635235 13.10509883 295.33608315 9.90638733 295.37362671 C8.53321201 295.39349993 7.16011849 295.42060873 5.7872467 295.45565796 C-9.27665827 295.83005326 -20.70301974 292.65210389 -31.9002533 282.3453064 C-40.37061986 273.43010658 -44.08229033 263.27489927 -44.08930969 251.2184906 C-44.09369195 250.30544598 -44.0980742 249.39240135 -44.10258925 248.45168871 C-44.11596844 245.38505723 -44.12215423 242.31845448 -44.12828064 239.25180054 C-44.13618248 237.05558136 -44.14445148 234.85936349 -44.15306091 232.66314697 C-44.17927785 225.44262939 -44.19459112 218.22210602 -44.20884705 211.0015564 C-44.2142074 208.51425104 -44.21958492 206.02694571 -44.2249794 203.53964043 C-44.2466102 193.18971922 -44.26534513 182.83979958 -44.27660179 172.48986149 C-44.27953124 169.8052018 -44.28249293 167.12054216 -44.2855072 164.43588257 C-44.28625325 163.76866629 -44.2869993 163.10145 -44.28776796 162.41401505 C-44.30040461 151.6206384 -44.333606 140.82742712 -44.37530904 130.03412766 C-44.41782711 118.93835124 -44.44090138 107.84264339 -44.44652236 96.74678415 C-44.45016993 90.52280748 -44.4621282 84.29911102 -44.49462509 78.07521248 C-44.52478966 72.21382962 -44.53098738 66.35289527 -44.51924133 60.49145126 C-44.51902128 58.34735247 -44.52726905 56.20323236 -44.54489517 54.05920601 C-44.67877285 36.82770216 -42.63127052 24.45718038 -30.3533783 11.48202515 C-21.74320592 3.35368724 -11.54987897 0.00672445 0 0 Z M-10.93540955 37.15390015 C-14.3717517 42.30841337 -14.08113657 47.45246749 -14.06912231 53.49066162 C-14.07138787 54.32712302 -14.07365343 55.16358442 -14.07598764 56.02539313 C-14.0823147 58.82654365 -14.0814991 61.62764562 -14.08067322 64.42880249 C-14.0836655 66.43786176 -14.08706819 68.44692046 -14.09085083 70.45597839 C-14.09968766 75.91259294 -14.1020288 81.36919181 -14.10266662 86.82581282 C-14.10361618 91.38101226 -14.10729501 95.93620805 -14.11083871 100.49140608 C-14.11898196 111.23828099 -14.12142305 121.98514751 -14.12071228 132.73202515 C-14.12011141 143.81839316 -14.13066542 154.90471254 -14.14645594 165.99106824 C-14.15953042 175.50967334 -14.16489622 185.02826254 -14.16425687 194.54687655 C-14.16400187 200.23175238 -14.16685429 205.91658498 -14.17743492 211.60145187 C-14.18711438 216.94810091 -14.18719608 222.29466536 -14.17991829 227.64131737 C-14.17887228 229.60247738 -14.18123627 231.56364265 -14.18727875 233.52479362 C-14.19499932 236.20435232 -14.19035339 238.88361895 -14.18264771 241.56317139 C-14.18779127 242.3370153 -14.19293483 243.11085921 -14.19823426 243.90815294 C-14.15975654 249.97374582 -13.60634396 255.2258989 -9.49790955 259.96640015 C-6.19845371 262.78300879 -4.21280231 264.39914971 0.11781311 264.42514038 C0.92940887 264.435327 1.74100464 264.44551361 2.57719421 264.45600891 C3.4521756 264.45814896 4.32715698 264.460289 5.22865295 264.4624939 C7.09193709 264.48767173 8.95521827 264.51306947 10.8184967 264.53866577 C13.74768684 264.56729695 16.67682505 264.59131786 19.60609436 264.61019897 C22.43889775 264.63201928 25.27107138 264.67148889 28.10365295 264.7124939 C28.96648895 264.71260971 29.82932495 264.71272552 30.7183075 264.71284485 C36.47715508 264.80533753 41.85737122 265.54372147 47.06459045 268.15390015 C50.54347366 272.32855999 52.15647434 275.9535194 52.26991272 281.34994507 C52.29983055 282.61091255 52.29983055 282.61091255 52.33035278 283.89735413 C52.34706528 284.800569 52.36377777 285.70378387 52.3809967 286.6343689 C52.41216835 288.02635246 52.41216835 288.02635246 52.44396973 289.44645691 C52.50936369 292.41136255 52.56830308 295.37635687 52.62709045 298.34140015 C52.67028532 300.35117495 52.71389993 302.36094078 52.75794983 304.37069702 C52.86503472 309.29834047 52.9663309 314.22607314 53.06459045 319.15390015 C73.50367475 312.52889014 86.40297312 296.52644936 96.06459045 278.15390015 C96.78023778 276.61561502 97.49013327 275.07461418 98.18959045 273.52890015 C100.34494868 269.64925535 102.13697062 268.15778782 106.06459045 266.15390015 C110.87357884 264.79792067 115.76240334 265.00916858 120.71669006 265.01205444 C121.6831395 265.00858002 122.64958893 265.00510559 123.64532471 265.00152588 C125.74002447 264.99418527 127.83473192 264.98883087 129.92944145 264.98523521 C133.24584099 264.97805632 136.56209374 264.96238011 139.87844849 264.94389343 C149.30627975 264.89148248 158.73402864 264.84342837 168.16200256 264.82797241 C173.93211457 264.81789345 179.70185407 264.78857506 185.47181892 264.7466526 C187.66899868 264.73434105 189.86623102 264.72922162 192.06344414 264.73145103 C195.1370666 264.73380295 198.20961851 264.71164651 201.28309631 264.68392944 C202.18874329 264.69053085 203.09439026 264.69713226 204.02748108 264.70393372 C209.5042177 264.62288078 212.8026691 263.92483128 217.06459045 260.15390015 C220.45522927 255.80935178 220.49124108 251.7342108 220.45227051 246.43077087 C220.45765605 245.55276839 220.46304158 244.6747659 220.46859032 243.77015728 C220.48289692 240.82834888 220.47575948 237.88698874 220.46864319 234.94515991 C220.47434533 232.83595416 220.48130898 230.72675149 220.48944092 228.61755371 C220.50740448 222.88824641 220.50619792 217.159092 220.50049853 211.42976499 C220.49741135 206.64829684 220.50349389 201.86685826 220.50953728 197.08539432 C220.52359137 185.80636546 220.52201381 174.52741233 220.51063538 163.24838257 C220.49915262 151.6086598 220.51323059 139.9691674 220.54003185 128.32947499 C220.56217589 118.3386884 220.56882916 108.34797419 220.56295544 98.3571648 C220.55958165 92.38891296 220.56202905 86.42080882 220.57920647 80.45257759 C220.5946528 74.84072983 220.59074552 69.22922382 220.57190132 63.61738968 C220.56820908 61.55744556 220.57134233 59.49747626 220.58178711 57.43755531 C220.59495506 54.62597872 220.58348664 51.81554047 220.5657959 49.00401306 C220.57540091 48.18834683 220.58500591 47.37268059 220.59490198 46.53229719 C220.5269939 41.28889664 219.51905671 38.32357117 216.06459045 34.15390015 C210.38466293 29.9303643 204.58132191 30.00655091 197.72782898 30.02018738 C196.47313688 30.01678904 196.47313688 30.01678904 195.19309747 30.01332206 C192.39194695 30.00699499 189.59084498 30.00781059 186.78968811 30.00863647 C184.78062884 30.00564419 182.77157014 30.0022415 180.76251221 29.99845886 C175.30589766 29.98962203 169.84929879 29.98728089 164.39267778 29.98664308 C159.83747834 29.98569351 155.28228255 29.98201469 150.72708452 29.97847098 C139.98020961 29.97032773 129.23334309 29.96788664 118.48646545 29.96859741 C107.40009744 29.96919828 96.31377806 29.95864427 85.22742236 29.94285375 C75.70881726 29.92977927 66.19022806 29.92441347 56.67161405 29.92505282 C50.98673822 29.92530782 45.30190562 29.9224554 39.61703873 29.91187477 C34.27038969 29.90219531 28.92382524 29.90211361 23.57717323 29.9093914 C21.61601322 29.91043741 19.65484795 29.90807342 17.69369698 29.90203094 C15.01413828 29.89431037 12.33487165 29.8989563 9.65531921 29.90666199 C8.8814753 29.90151842 8.10763139 29.89637486 7.31033766 29.89107543 C-0.32334773 29.93950051 -5.79530606 31.13263607 -10.93540955 37.15390015 Z M344.06459045 210.15390015 C336.27251468 218.37962188 330.58307372 228.49416034 325.93959045 238.77890015 C323.78423223 242.65854494 321.99221029 244.15001247 318.06459045 246.15390015 C314.28630821 247.11451776 310.69566527 247.30376262 306.80555725 247.35922241 C305.56464828 247.37916763 304.32373932 247.39911285 303.04522705 247.41966248 C301.70142235 247.43664272 300.35761636 247.45352167 299.0138092 247.4703064 C297.63089402 247.49089541 296.24798486 247.51189237 294.86508179 247.53327942 C291.23691196 247.58829914 287.60868725 247.63779645 283.98042297 247.68612671 C280.27340345 247.73648913 276.56646299 247.79209802 272.85951233 247.84725952 C265.59460545 247.95459499 258.32963253 248.05609388 251.06459045 248.15390015 C250.93906799 249.17507935 250.81354553 250.19625854 250.68421936 251.24838257 C250.51177411 252.6062423 250.33907167 253.96406938 250.16615295 255.3218689 C250.08437805 255.99278564 250.00260315 256.66370239 249.91835022 257.35494995 C248.4348485 268.86790762 243.47050739 277.51367362 234.74427795 285.1968689 C227.06184525 290.98957137 218.8965455 293.87951962 209.35536194 294.6993103 C208.36463181 294.78556671 207.37390167 294.87182312 206.35314941 294.96069336 C205.22031273 295.05633072 205.22031273 295.05633072 204.06459045 295.15390015 C203.97116157 318.12817003 203.90061829 341.10240861 203.85734177 364.07682991 C203.8367139 374.74418614 203.80858893 385.41142435 203.76283264 396.07870483 C203.72297185 405.37598273 203.69715928 414.67317515 203.68823647 423.97053611 C203.68302046 428.89374552 203.67075615 433.8167104 203.64167023 438.73984146 C203.61451317 443.37405155 203.60614607 448.00791646 203.61215973 452.64219856 C203.61105962 454.34255792 203.6031074 456.04292885 203.58776855 457.74321938 C203.56783544 460.0668253 203.57266248 462.38913191 203.58357239 464.71276855 C203.57988522 466.01249666 203.57619804 467.31222477 203.57239914 468.65133858 C204.15274996 472.78126613 205.47565646 474.92339246 208.06459045 478.15390015 C213.74451798 482.377436 219.547859 482.30124938 226.40135193 482.28761292 C227.23781333 482.28987847 228.07427472 482.29214403 228.93608344 482.29447824 C231.73723395 482.3008053 234.53833593 482.2999897 237.3394928 482.29916382 C239.34855207 482.3021561 241.35761076 482.30555879 243.3666687 482.30934143 C248.82328325 482.31817826 254.27988211 482.3205194 259.73650312 482.32115722 C264.29170257 482.32210678 268.84689836 482.32578561 273.40209639 482.32932931 C284.14897129 482.33747256 294.89583782 482.33991365 305.64271545 482.33920288 C316.72908347 482.33860201 327.81540285 482.34915603 338.90175855 482.36494654 C348.42036365 482.37802102 357.93895285 482.38338682 367.45756686 482.38274747 C373.14244269 482.38249247 378.82727529 482.38534489 384.51214218 482.39592552 C389.85879122 482.40560498 395.20535566 482.40568668 400.55200768 482.39840889 C402.51316768 482.39736289 404.47433295 482.39972687 406.43548393 482.40576935 C409.11504263 482.41348992 411.79430926 482.40884399 414.47386169 482.40113831 C415.63462756 482.40885365 415.63462756 482.40885365 416.81884325 482.41672486 C422.88443612 482.37824714 428.13658921 481.82483456 432.87709045 477.71640015 C438.09475326 471.60428086 438.21381214 466.61169805 438.19830322 458.81713867 C438.20170156 457.56244658 438.20170156 457.56244658 438.20516855 456.28240716 C438.21149561 453.48125665 438.21068001 450.68015467 438.20985413 447.8789978 C438.21284641 445.86993853 438.2162491 443.86087984 438.22003174 441.8518219 C438.22886857 436.39520735 438.23120971 430.93860849 438.23184752 425.48198748 C438.23279709 420.92678803 438.23647591 416.37159225 438.24001962 411.81639421 C438.24816287 401.06951931 438.25060396 390.32265278 438.24989319 379.57577515 C438.24929232 368.48940713 438.25984633 357.40308776 438.27563685 346.31673205 C438.28871133 336.79812695 438.29407713 327.27953775 438.29343778 317.76092374 C438.29318278 312.07604791 438.2960352 306.39121531 438.30661583 300.70634842 C438.31629529 295.35969938 438.31637699 290.01313494 438.3090992 284.66648293 C438.30805319 282.70532292 438.31041718 280.74415765 438.31645966 278.78300667 C438.32418023 276.10344797 438.3195343 273.42418134 438.31182861 270.74462891 C438.31954396 269.58386304 438.31954396 269.58386304 438.32741517 268.39964736 C438.28893745 262.33405448 437.73552487 257.08190139 433.62709045 252.34140015 C430.32763462 249.52479151 428.34198322 247.90865058 424.0113678 247.88265991 C423.19977203 247.8724733 422.38817627 247.86228668 421.55198669 247.85179138 C420.67700531 247.84965134 419.80202393 247.84751129 418.90052795 247.8453064 C417.03724382 247.82012856 415.17396264 247.79473082 413.3106842 247.76913452 C410.38149407 247.74050334 407.45235586 247.71648243 404.52308655 247.69760132 C401.69028316 247.67578101 398.85810953 247.6363114 396.02552795 247.5953064 C395.16269196 247.59519058 394.29985596 247.59507477 393.41087341 247.59495544 C387.65202583 247.50246277 382.27180969 246.76407883 377.06459045 244.15390015 C373.58570725 239.9792403 371.97270657 236.35428089 371.85926819 230.95785522 C371.83932297 230.11721024 371.81937775 229.27656525 371.79882812 228.41044617 C371.77375938 227.05562386 371.77375938 227.05562386 371.7481842 225.6734314 C371.72740311 224.74544235 371.70662201 223.81745331 371.68521118 222.86134338 C371.61981722 219.89643775 371.56087783 216.93144343 371.50209045 213.96640015 C371.45889558 211.95662534 371.41528098 209.94685952 371.37123108 207.93710327 C371.26414619 203.00945982 371.16285 198.08172716 371.06459045 193.15390015 C361.87038952 193.15390015 350.17450639 204.32530408 344.06459045 210.15390015 Z " fill="#000000" transform="translate(43.93540954589844,-0.153900146484375)"/>
<path d="M0 0 C3.9323173 2.65202795 6.18648186 5.30944559 7.6875 9.8125 C7.75687062 12.04068441 7.77207084 14.27084524 7.75 16.5 C7.74097656 17.67949219 7.73195313 18.85898438 7.72265625 20.07421875 C7.71105469 20.97785156 7.69945312 21.88148437 7.6875 22.8125 C8.28805206 22.80583817 8.88860413 22.79917633 9.50735474 22.79231262 C15.76917151 22.72583922 22.0308877 22.68064953 28.29296875 22.64770508 C30.62862216 22.63263739 32.96424737 22.61217951 35.29980469 22.58618164 C38.66087819 22.54971042 42.02157692 22.5327531 45.3828125 22.51953125 C46.42365997 22.50404739 47.46450745 22.48856354 48.53689575 22.47261047 C54.00855814 22.47134606 57.9941975 22.65934894 62.6875 25.8125 C67.0128793 30.48858573 68.06820933 34.24897832 67.95703125 40.46484375 C67.512191 44.33946678 66.23926849 46.89669623 63.6875 49.8125 C57.96443286 53.91510892 52.53822066 54.33610789 45.6875 54.0625 C44.81738281 54.04445312 43.94726562 54.02640625 43.05078125 54.0078125 C40.92920093 53.96118436 38.80819665 53.88946077 36.6875 53.8125 C36.72101563 54.80378906 36.75453125 55.79507813 36.7890625 56.81640625 C36.68370388 60.96186278 36.03767804 64.74259848 35.0625 68.75 C34.88428711 69.48508789 34.70607422 70.22017578 34.52246094 70.97753906 C31.46740484 83.06853096 27.19148838 93.81311193 20.32421875 104.23828125 C18.56549108 106.77493596 18.56549108 106.77493596 17.6875 109.8125 C28.38307005 114.3074821 38.90955458 117.52571472 50.5625 118.25 C56.27420456 118.69583261 61.04880737 120.00188123 65.06640625 124.28125 C68.28627823 129.03813403 68.60723269 134.23891992 67.6875 139.8125 C65.07429161 144.94558791 62.14812759 147.9922908 56.6875 149.8125 C36.83472389 151.59603364 14.16672387 145.64876617 -2.5 134.875 C-5.24610147 133.25897293 -5.24610147 133.25897293 -8.3125 132.8125 C-12.58378573 134.21494355 -16.17066421 136.17927176 -20.0390625 138.43359375 C-34.54140416 146.84361221 -55.74190167 151.95199497 -72.3125 149.8125 C-77.60568166 147.59482845 -80.72259994 144.99230011 -83.3125 139.8125 C-83.93803724 134.20317427 -83.94772077 129.04526996 -80.671875 124.27734375 C-75.4733415 118.67547576 -68.7482709 118.33182642 -61.59863281 117.59814453 C-51.77502796 116.53927196 -42.4586553 113.47096212 -33.3125 109.8125 C-33.85777344 108.83023438 -33.85777344 108.83023438 -34.4140625 107.828125 C-36.06438452 104.83215579 -37.6904324 101.82385556 -39.3125 98.8125 C-39.82683594 97.87535156 -40.34117188 96.93820313 -40.87109375 95.97265625 C-47.65565065 83.12605371 -52.5072791 68.42093227 -52.3125 53.8125 C-53.59125 53.85890625 -54.87 53.9053125 -56.1875 53.953125 C-57.89580979 53.99067027 -59.60414508 54.02706745 -61.3125 54.0625 C-62.57126953 54.11277344 -62.57126953 54.11277344 -63.85546875 54.1640625 C-69.80087719 54.25623938 -74.41129427 53.32595351 -79.3125 49.8125 C-82.99650005 45.60629819 -83.91509883 41.48593702 -83.6328125 35.953125 C-82.94601152 31.36328429 -81.174286 28.60965205 -77.8125 25.5 C-74.26468773 23.10522672 -71.6509205 22.68823671 -67.47387695 22.69897461 C-66.00269157 22.69908791 -66.00269157 22.69908791 -64.50178528 22.69920349 C-63.44545395 22.70436478 -62.38912262 22.70952606 -61.30078125 22.71484375 C-59.67573921 22.71696617 -59.67573921 22.71696617 -58.01786804 22.71913147 C-54.55355075 22.72473441 -51.0892978 22.73728742 -47.625 22.75 C-45.27799572 22.75501462 -42.93099044 22.75957759 -40.58398438 22.76367188 C-34.82680092 22.77470479 -29.06965506 22.7914458 -23.3125 22.8125 C-23.33316528 21.4668396 -23.33316528 21.4668396 -23.35424805 20.09399414 C-23.36496338 18.91957764 -23.37567871 17.74516113 -23.38671875 16.53515625 C-23.40738403 14.78730835 -23.40738403 14.78730835 -23.4284668 13.00415039 C-23.28919189 9.17101184 -22.60610775 6.89700697 -20.3125 3.8125 C-14.30531059 -1.7441502 -7.65564017 -2.74447478 0 0 Z M-21.3125 53.8125 C-19.77761863 67.62643237 -15.78623242 78.24652216 -8.3125 89.8125 C-0.28742612 80.21354309 5.6875 66.55979606 5.6875 53.8125 C-3.2225 53.8125 -12.1325 53.8125 -21.3125 53.8125 Z " fill="#000000" transform="translate(155.3125,73.1875)"/>
<path d="M0 0 C7.53427415 4.940273 11.33143784 16.37720439 15.21020508 24.17749023 C16.04304016 25.84031288 16.04304016 25.84031288 16.8927002 27.53672791 C18.39738365 30.54304997 19.89851434 33.55109216 21.39789033 36.56006122 C22.973596 39.7203294 24.55357818 42.87845859 26.13298035 46.03688049 C28.77912941 51.33011099 31.42219425 56.62487204 34.06323242 61.9206543 C37.11576802 68.04150827 40.17252651 74.16023821 43.23166925 80.27779239 C46.49637289 86.80652471 49.75803218 93.33677436 53.01878905 99.86747861 C53.95677054 101.74557174 54.89531945 103.62338038 55.83399391 105.50112724 C57.57899063 108.99231044 59.32057682 112.48518842 61.06176758 115.97827148 C61.58173813 117.0177594 62.10170868 118.05724731 62.63743591 119.12823486 C63.1097464 120.07712082 63.58205688 121.02600677 64.06867981 122.00364685 C64.48030271 122.82856849 64.8919256 123.65349012 65.31602192 124.50340939 C67.67481847 129.5254974 67.91770897 134.16107112 67.3125 139.625 C64.98281069 144.46358548 62.15108548 147.29531069 57.3125 149.625 C51.60251056 150.54992391 47.0743896 150.15878028 42.02319336 147.08300781 C38.62756974 144.18894984 36.95943999 140.21303386 35.0625 136.25 C34.64226562 135.41210938 34.22203125 134.57421875 33.7890625 133.7109375 C33.00389395 132.1406004 32.22647964 130.5663408 31.45996094 128.98681641 C30.10034298 126.18831766 28.7039134 123.40782679 27.3125 120.625 C3.8825 120.625 -19.5475 120.625 -43.6875 120.625 C-47.6475 128.545 -51.6075 136.465 -55.6875 144.625 C-61.43021174 149.21916939 -64.1889035 149.98149078 -71.1796875 149.91015625 C-75.80508873 149.38421499 -78.52244048 146.95075738 -81.5 143.5625 C-84.21980771 139.12491901 -84.33291452 134.6650618 -83.6875 129.625 C-82.43904417 125.92438903 -80.71638989 122.5263541 -78.92944336 119.05908203 C-78.43353919 118.06139864 -77.93763502 117.06371525 -77.42670345 116.03579903 C-76.38184758 113.93746017 -75.32938922 111.84289136 -74.2697258 109.75199127 C-72.75722528 106.76279976 -71.26916099 103.76297394 -69.790802 100.7567749 C-66.82035995 94.72053799 -63.82068264 88.69914224 -60.81640625 82.6796875 C-60.27985853 81.60376469 -59.74331081 80.52784187 -59.19050407 79.41931534 C-56.36747691 73.75846778 -53.54227918 68.09871037 -50.71508789 62.43994141 C-47.80576191 56.61573985 -44.90392158 50.78784071 -42.00366306 44.9591198 C-39.755758 40.44471838 -37.50251617 35.93299655 -35.24778557 31.42200089 C-34.17450536 29.27242077 -33.10321945 27.12184365 -32.03399849 24.97024155 C-30.54726776 21.97974575 -29.05303138 18.99311781 -27.55688477 16.00732422 C-27.12101044 15.12636078 -26.68513611 14.24539734 -26.23605347 13.33773804 C-20.49965258 1.94279671 -13.10893259 -4.88807656 0 0 Z M-8.6875 48.625 C-11.39847513 53.99761841 -14.10424929 59.37281116 -16.80517578 64.75048828 C-17.72528854 66.58063839 -18.6468341 68.41006886 -19.56982422 70.23876953 C-20.89405035 72.86304151 -22.2131508 75.48983392 -23.53125 78.1171875 C-23.94685181 78.93806854 -24.36245361 79.75894958 -24.79064941 80.60470581 C-25.1710437 81.36534332 -25.55143799 82.12598083 -25.94335938 82.90966797 C-26.28089233 83.58029266 -26.61842529 84.25091736 -26.96618652 84.94186401 C-27.81880174 86.62618613 -27.81880174 86.62618613 -27.6875 88.625 C-14.8175 88.625 -1.9475 88.625 11.3125 88.625 C9.64380534 83.56527848 9.64380534 83.56527848 7.52490234 78.82275391 C7.01459976 77.80237534 7.01459976 77.80237534 6.49398804 76.76138306 C6.13245636 76.04864227 5.77092468 75.33590149 5.3984375 74.6015625 C5.02393463 73.85538666 4.64943176 73.10921082 4.26358032 72.34042358 C3.07532034 69.97503203 1.88150618 67.6124953 0.6875 65.25 C-0.12276526 63.63950873 -0.93266498 62.02883349 -1.7421875 60.41796875 C-3.71973454 56.48483766 -5.70226516 52.55425592 -7.6875 48.625 C-8.0175 48.625 -8.3475 48.625 -8.6875 48.625 Z " fill="#000000" transform="translate(372.6875,290.375)"/>
<path d="M0 0 C3.4375 1.8125 3.4375 1.8125 6 4 C6.5775 4.4125 7.155 4.825 7.75 5.25 C11.50570414 10.50798579 11.39696623 18.3250086 11.875 24.5625 C14.40523219 52.59643991 27.51623393 77.66613413 49 96 C65.63930635 109.04635229 84.98945689 116.75313873 106 119 C105.38125 118.2575 104.7625 117.515 104.125 116.75 C100.6492723 112.25199945 99.48108279 109.03925528 99.62109375 103.3828125 C100.28632775 99.19938219 102.21123541 96.13460084 105 93 C109.37620041 89.88803526 113.72969876 89.11251303 119 90 C125.22811745 92.23581272 129.6322511 96.05091293 134.203125 100.70703125 C134.84820007 101.35065109 135.49327515 101.99427094 136.15789795 102.65739441 C137.51050101 104.01164739 138.85820497 105.37080975 140.20117188 106.73461914 C142.24608205 108.80852649 144.30905669 110.86308266 146.375 112.91601562 C147.69382445 114.24107757 149.01157013 115.56721427 150.328125 116.89453125 C150.9385968 117.50206741 151.5490686 118.10960358 152.17803955 118.73554993 C156.66539735 123.32198264 161.57533326 128.64870561 161.5625 135.4375 C160.98851984 143.75737599 154.81654603 149.63805626 149.16015625 155.23828125 C148.51557968 155.885728 147.87100311 156.53317474 147.20689392 157.20024109 C145.8532808 158.55588133 144.49592944 159.90779843 143.13500977 161.25610352 C141.0610256 163.31396294 139.00361296 165.3874236 136.94726562 167.46289062 C135.62335707 168.78481754 134.29851861 170.10581396 132.97265625 171.42578125 C132.36309586 172.04141434 131.75353546 172.65704742 131.12550354 173.29133606 C127.15828133 177.194322 123.32652654 180.43449049 117.65625 181.3984375 C112.71238781 181.34469987 109.21950352 180.84571167 105 178 C100.77116149 173.42828269 99.55638619 169.59831156 99.56640625 163.49609375 C100.35741984 158.94242092 103.17724211 155.55365056 106 152 C104.99324219 151.84144531 103.98648438 151.68289063 102.94921875 151.51953125 C74.09677848 146.81098535 48.24582988 137.48259 26 118 C25.22140625 117.35417969 24.4428125 116.70835937 23.640625 116.04296875 C17.63316656 110.95734445 12.80287724 105.21700985 8 99 C7.03126953 97.80697266 7.03126953 97.80697266 6.04296875 96.58984375 C-5.08207662 82.29268768 -12.57489143 65.4819104 -17 48 C-17.17499023 47.33226562 -17.34998047 46.66453125 -17.53027344 45.9765625 C-19.69905148 37.4216994 -20.28427424 29.10065831 -20.375 20.3125 C-20.38901855 19.36721436 -20.40303711 18.42192871 -20.41748047 17.44799805 C-20.38268456 12.49671804 -20.26835331 8.98598697 -17 5 C-11.37317905 0.05937673 -7.40522908 -0.84176183 0 0 Z " fill="#000000" transform="translate(20,331)"/>
<path d="M0 0 C4.85390614 2.11806814 7.26254688 5.04754256 9.37109375 9.78515625 C10.48078187 13.69318832 10.13680527 17.1320022 9 21 C7.23222186 24.13638057 5.53270033 26.46729967 3 29 C3.61705811 29.08451416 4.23411621 29.16902832 4.86987305 29.25610352 C31.65044233 33.03523015 56.71569027 40.64222471 78 58 C78.80896729 58.64509521 78.80896729 58.64509521 79.63427734 59.30322266 C107.04874539 81.26382328 125.67201744 113.31130996 129.75390625 148.44921875 C130.05555108 152.80152277 130.24287709 157.13799278 130.3125 161.5 C130.33932861 162.63151489 130.33932861 162.63151489 130.36669922 163.78588867 C130.35918067 168.58755872 129.61302248 171.82789489 127 176 C122.53919374 180.12624579 119.1688366 181.32291825 113.0546875 181.2109375 C108.32208116 180.72508058 105.21959191 178.48257414 102.1875 175 C99.54121266 171.37080594 98.89136803 168.78628581 98.60546875 164.421875 C96.29497383 132.76162186 84.71832574 106.52218447 61 85 C46.02411641 72.520097 23.77377034 62 4 62 C4.61875 62.721875 5.2375 63.44375 5.875 64.1875 C9.8239241 69.41401719 10.4299246 73.13394445 9.59765625 79.5625 C8.60884726 83.59528962 7.11716116 85.2216607 4 88 C-0.61837671 90.75326304 -4.38396468 91.58219617 -9.61933899 90.69116211 C-16.40570215 88.72092063 -21.91998787 82.38871199 -26.80078125 77.5 C-27.40383591 76.90123047 -28.00689056 76.30246094 -28.6282196 75.68554688 C-29.88854228 74.43091721 -31.14632076 73.17372691 -32.40161133 71.9140625 C-34.31662619 69.99586695 -36.24466009 68.09144855 -38.17382812 66.1875 C-39.4044556 64.95914407 -40.63430115 63.73000414 -41.86328125 62.5 C-42.72110954 61.65598633 -42.72110954 61.65598633 -43.5962677 60.79492188 C-48.12303487 56.21540532 -51.42678109 51.68859784 -51.4375 45 C-51.45683594 44.195625 -51.47617187 43.39125 -51.49609375 42.5625 C-50.20917065 35.91508618 -44.36191452 31.06828702 -39.75 26.484375 C-39.05487305 25.78733459 -38.35974609 25.09029419 -37.64355469 24.37213135 C-36.18019128 22.90741267 -34.71432204 21.44519367 -33.24609375 19.98535156 C-31.0002578 17.75025656 -28.76532915 15.50465221 -26.53125 13.2578125 C-25.10480777 11.83269135 -23.67774554 10.40819044 -22.25 8.984375 C-21.58323242 8.31355896 -20.91646484 7.64274292 -20.22949219 6.95159912 C-19.60204102 6.33045227 -18.97458984 5.70930542 -18.328125 5.06933594 C-17.50683105 4.25042877 -17.50683105 4.25042877 -16.66894531 3.41497803 C-11.66017119 -0.8315993 -6.29340498 -0.71246094 0 0 Z " fill="#000000" transform="translate(382,0)"/>
</svg>
