<?xml version="1.0" encoding="UTF-8"?>
<svg version="1.1" xmlns="http://www.w3.org/2000/svg" width="512" height="512">
<path d="M0 0 C2.20643636 -0.00322839 4.41287252 -0.00659352 6.61930847 -0.01008606 C11.21878554 -0.01602562 15.81824398 -0.01793147 20.41772461 -0.01733398 C25.06489982 -0.01725297 29.71197595 -0.02416502 34.35913086 -0.0378418 C134.49314794 -0.3279193 134.49314794 -0.3279193 161.23046875 24.23046875 C191.77054233 56.06552778 183.9156613 114.3297373 183.8760689 154.48126966 C183.87145524 159.28763733 183.87094791 164.09399085 183.87310028 168.90036011 C183.87340675 169.59257548 183.87371321 170.28479085 183.87402897 170.99798244 C183.87466862 172.40556248 183.87531705 173.81314252 183.87597415 175.22072256 C183.88163508 188.32393349 183.8751869 201.42711614 183.86437342 214.53032243 C183.85544181 225.69763793 183.85699506 236.86491181 183.86621094 248.03222656 C183.87698938 261.09850908 183.88108615 274.164767 183.87498641 287.23105335 C183.87434952 288.63256136 183.87372077 290.03406938 183.87310028 291.43557739 C183.87279173 292.12459041 183.87248318 292.81360342 183.87216528 293.52349561 C183.87046086 298.3067568 183.87334274 303.09000179 183.87805939 307.8732605 C183.96604988 412.67201085 183.96604988 412.67201085 158.60546875 438.16796875 C158.08726562 438.72097656 157.5690625 439.27398437 157.03515625 439.84375 C149.38211358 447.2764171 136.88100407 452.67488805 126.60546875 455.16796875 C125.61289062 455.420625 124.6203125 455.67328125 123.59765625 455.93359375 C95.06826239 462.218687 64.40160826 460.48777439 35.390625 460.42871094 C29.74022983 460.41731737 24.09002307 460.42409391 18.43963432 460.43558788 C-78.53461516 460.60324378 -78.53461516 460.60324378 -104.9765625 435.80078125 C-125.12273396 413.86456225 -126.77031457 381.8570242 -126.76513672 353.54711914 C-126.76960317 350.81141905 -126.80638144 348.07722365 -126.84375 345.34179688 C-126.84960447 343.57943248 -126.85358301 341.81706061 -126.85546875 340.0546875 C-126.86983978 339.2484343 -126.88421082 338.44218109 -126.89901733 337.61149597 C-126.85616742 332.32549326 -125.85710688 329.38194793 -122.39453125 325.16796875 C-118.18096986 321.27042447 -115.62029713 320.3328403 -110.01953125 319.91796875 C-104.74509186 320.28172319 -101.7310844 322.10480147 -97.64453125 325.35546875 C-93.34951212 330.72424266 -93.14993054 337.16420752 -93.0859375 343.83203125 C-93.06320448 345.28841872 -93.03999304 346.74479878 -93.01635742 348.20117188 C-93.00262589 349.32664429 -93.00262589 349.32664429 -92.98861694 350.47485352 C-93.27735315 383.88155595 -93.27735315 383.88155595 -79.39453125 413.16796875 C-60.36946836 430.42146708 -23.62522484 426.32769696 0.26171875 426.3359375 C2.50158711 426.33916416 4.74145528 426.34252919 6.98132324 426.34602356 C11.65063972 426.35196609 16.31993783 426.35386858 20.98925781 426.35327148 C25.71911451 426.35319034 30.44887413 426.36012248 35.17871094 426.3737793 C88.58018697 430.17842131 88.58018697 430.17842131 136.3984375 412.54296875 C154.54967632 393.18164734 149.91099691 354.66013923 149.86425781 330.30078125 C149.86697878 327.8593536 149.87054582 325.41792678 149.87487793 322.97650146 C149.88294619 317.11280704 149.88191118 311.24917068 149.87605265 305.38547468 C149.87148212 300.60758517 149.87094611 295.82970994 149.87310028 291.05181885 C149.87355998 290.02054924 149.87355998 290.02054924 149.87402897 288.9684459 C149.8746686 287.57052532 149.87531703 286.17260476 149.87597415 284.77468419 C149.88163812 271.75452201 149.87518199 258.73438828 149.86437342 245.71423078 C149.85544152 234.61220735 149.85699468 223.5102258 149.86621094 212.40820312 C149.87698386 199.42545576 149.88108917 186.44273314 149.87498641 173.45998192 C149.8743495 172.0680275 149.87372076 170.67607308 149.87310028 169.28411865 C149.87279173 168.59976246 149.87248318 167.91540627 149.87216528 167.21031201 C149.87045923 162.454187 149.87330745 157.69807808 149.87805939 152.94195557 C149.8839144 146.50658606 149.8796899 140.0712942 149.86827087 133.63593292 C149.86566724 131.29978818 149.86631377 128.9636367 149.8707962 126.62749481 C149.89258499 114.09900353 149.56819756 101.65392248 148.69866943 89.15283203 C148.57932018 87.42028577 148.57932018 87.42028577 148.45755982 85.65273857 C147.35561558 71.14027081 145.45371819 56.25617135 134.29296875 45.79296875 C109.95384792 27.0095168 63.90208135 33.85120152 35.19091797 33.90722656 C29.29133396 33.91862024 23.39193034 33.9118498 17.49235249 33.90035057 C-35.0603516 30.37275767 -35.0603516 30.37275767 -81.39453125 49.16796875 C-87.6228047 58.41967591 -90.05069619 68.22925652 -91.39453125 79.16796875 C-91.53157471 80.20328735 -91.53157471 80.20328735 -91.67138672 81.25952148 C-92.30703236 86.66250941 -92.50476869 92.04842961 -92.60546875 97.484375 C-92.61983978 98.23139679 -92.63421082 98.97841858 -92.64901733 99.74807739 C-92.70635555 102.86023387 -92.76103896 105.9722177 -92.79589844 109.0847168 C-93.03647547 128.95513513 -93.03647547 128.95513513 -98.11328125 135.32421875 C-98.70109375 135.76765625 -99.28890625 136.21109375 -99.89453125 136.66796875 C-100.48234375 137.13203125 -101.07015625 137.59609375 -101.67578125 138.07421875 C-105.50450424 140.51067884 -108.9762642 140.46251989 -113.39453125 140.16796875 C-119.26869497 138.34495242 -121.89787048 136.00158806 -125.39453125 131.16796875 C-127.03178202 127.89346721 -126.55765655 124.27086439 -126.5625 120.671875 C-126.5658284 119.80972885 -126.5691568 118.9475827 -126.57258606 118.05931091 C-126.5776621 116.22077975 -126.57999418 114.38223933 -126.57983398 112.54370117 C-126.58197659 109.80044986 -126.59999929 107.05763077 -126.61914062 104.31445312 C-126.71529195 74.71106971 -123.8561242 45.49827442 -103.15625 22.703125 C-90.13755989 9.9032364 -72.35921009 5.00584187 -54.76953125 2.48046875 C-53.94243652 2.36082764 -53.1153418 2.24118652 -52.26318359 2.11791992 C-34.96827861 -0.12569945 -17.40643736 0.00611917 0 0 Z " fill="#000000" transform="translate(302.39453125,25.83203125)"/>
<path d="M0 0 C4.47870656 2.15937638 7.18198188 4.92952939 10 9 C11.75225041 14.25675123 11.5837701 19.14531123 9.15625 24.19140625 C4.85731817 30.91574894 -2.07236149 35.7853812 -8.2109375 40.71484375 C-10.88357285 42.90460801 -13.44834878 45.17111198 -16 47.5 C-20.44955527 51.5573669 -25.06087219 55.37573087 -29.75 59.15234375 C-32.02119749 60.95605161 -32.02119749 60.95605161 -34 63 C-32.7840962 63.00146656 -31.56819241 63.00293312 -30.31544304 63.00444412 C-1.45329879 63.04014497 27.40875657 63.09638447 56.27080608 63.17792095 C59.8231151 63.18793843 63.37542458 63.19778255 66.92773438 63.20751953 C67.98853713 63.21043159 67.98853713 63.21043159 69.07077025 63.21340248 C80.52216378 63.24442483 91.97353728 63.26140378 103.42496492 63.27319422 C115.17492003 63.28560458 126.92476995 63.31310332 138.67465866 63.35461307 C145.27453704 63.37727362 151.8742652 63.39290792 158.47418594 63.39188385 C164.68433413 63.39113997 170.89414966 63.40898183 177.10421181 63.44116783 C179.38505728 63.44969681 181.66593995 63.45139654 183.94679451 63.44580269 C187.05859951 63.43918662 190.16933872 63.45702696 193.28103638 63.48101807 C194.18571407 63.47325765 195.09039177 63.46549723 196.02248394 63.45750165 C201.51237607 63.5325407 204.63872406 64.35477017 209 68 C212.62833663 71.81930172 213.31000458 74.88279006 213.5 80 C213.31000458 85.11720994 212.62833663 88.18069828 209 92 C203.7771701 96.36533153 199.78838954 96.57480267 193.28103638 96.51898193 C192.30810792 96.52648319 191.33517946 96.53398444 190.33276832 96.541713 C187.07595779 96.5619964 183.81984301 96.55388596 180.56298828 96.54589844 C178.22715058 96.55463306 175.89131887 96.56511845 173.55549622 96.57722473 C167.21509715 96.60511864 160.87489299 96.60848865 154.53444147 96.60750484 C148.57934814 96.61031428 142.6243436 96.63143357 136.669291 96.65247145 C124.87621638 96.69353784 113.08317633 96.71686164 101.29003906 96.72900391 C89.8359037 96.74083519 78.38183342 96.76103728 66.92773438 96.79248047 C66.22139276 96.79441657 65.51505115 96.79635267 64.78730525 96.79834744 C61.24370378 96.80811214 57.70010279 96.81804123 54.15650201 96.82805204 C24.77103833 96.91085459 -4.61444115 96.96455666 -34 97 C-32.28414653 98.57335521 -30.5663032 100.14454047 -28.84765625 101.71484375 C-27.89125244 102.59003662 -26.93484863 103.46522949 -25.94946289 104.36694336 C-23.17065803 106.84764946 -20.33509286 109.22244152 -17.4375 111.5625 C-12.94185264 115.19359979 -8.62362639 118.97223919 -4.35546875 122.8671875 C-2.14427754 124.86936064 0.10678639 126.81300427 2.375 128.75 C7.90233086 133.58501871 10.70537669 137.02258528 11.25 144.375 C10.93198404 148.98623139 9.87486443 152.14513413 6.53515625 155.44921875 C1.27731838 159.93573566 -2.1197866 160.49149025 -8.921875 160.38671875 C-13.95546966 159.75432551 -16.3793968 157.38007361 -20 154 C-21.03211212 153.11211017 -22.06898649 152.2297399 -23.109375 151.3515625 C-26.14300482 148.7881496 -29.15087012 146.19649643 -32.15332031 143.59667969 C-35.09362689 141.05442625 -38.04722506 138.52774802 -41 136 C-42.16673566 135.0000805 -43.33340221 134.00008035 -44.5 133 C-45.36625 132.2575 -45.36625 132.2575 -46.25 131.5 C-52.66666667 126 -59.08333333 120.5 -65.5 115 C-66.07814453 114.50459717 -66.65628906 114.00919434 -67.25195312 113.4987793 C-68.41270771 112.50354573 -69.57286915 111.50761993 -70.73242188 110.51098633 C-73.73492844 107.931921 -76.74833082 105.36748029 -79.78125 102.82421875 C-80.40386719 102.29892578 -81.02648437 101.77363281 -81.66796875 101.23242188 C-82.8438054 100.24085813 -84.02320292 99.253493 -85.20703125 98.27148438 C-89.92372656 94.28086746 -95.0102163 89.9693511 -97 84 C-97.43024964 77.43869301 -96.89147461 73.32377841 -92.40625 68.16796875 C-87.87222433 63.45741339 -82.88056102 59.37378385 -77.7890625 55.28515625 C-75.11642715 53.09539199 -72.55165122 50.82888802 -70 48.5 C-65.70008209 44.58108748 -61.24080453 40.90829131 -56.71875 37.25 C-54.07852271 35.06498431 -51.5327028 32.80828609 -49 30.5 C-44.70061777 26.58157569 -40.24339956 22.90794206 -35.71875 19.25390625 C-33.06734789 17.05583295 -30.53110744 14.77236652 -28 12.4375 C-26.3402723 10.95055152 -24.67349732 9.47143417 -23 8 C-22.12601562 7.2265625 -21.25203125 6.453125 -20.3515625 5.65625 C-13.74612758 0.28105367 -8.50706807 -1.6814849 0 0 Z " fill="#000000" transform="translate(123,176)"/>
</svg>
