<?xml version="1.0" encoding="UTF-8"?>
<svg version="1.1" xmlns="http://www.w3.org/2000/svg" width="474" height="474">
<path d="M0 0 C5.88066276 2.8634213 10.33066455 7.82666137 12.75 13.875 C14.24846667 19.03638519 15.01696683 24.69528113 14 30 C9.76505516 34.99506314 3.05552135 38.46907213 -3.4765625 39.32421875 C-6.7750514 38.90041909 -8.27886019 37.6176691 -10.8125 35.5 C-11.60269531 34.8503125 -12.39289063 34.200625 -13.20703125 33.53125 C-14.09455078 32.77328125 -14.09455078 32.77328125 -15 32 C-17.30910956 34.79230211 -17.30910956 34.79230211 -16.7734375 37.8125 C-15.98732013 41.05225643 -14.91755028 43.92921388 -13.625 47 C-8.52405283 59.93718486 -5.81012426 71.84722668 -11 85 C-11.556875 86.2375 -11.556875 86.2375 -12.125 87.5 C-12.96543974 89.90125639 -13.21874631 91.79468788 -13.4375 94.3125 C-14.13535966 101.22245467 -15.74902091 105.89661401 -20.6875 110.875 C-23.36297155 113.79267213 -24.47999116 115.5115703 -24.5 119.5 C-24.35946788 121.33552162 -24.18836879 123.16876924 -24 125 C-23.92155659 126.37462732 -23.85048362 127.74968695 -23.78515625 129.125 C-23.79355661 136.28455273 -23.79355661 136.28455273 -22 143 C-21.05125 142.21625 -20.1025 141.4325 -19.125 140.625 C-18.59132813 140.18414062 -18.05765625 139.74328125 -17.5078125 139.2890625 C-16.28948839 138.24749008 -15.13339903 137.13339903 -14 136 C-13.195625 135.21625 -12.39125 134.4325 -11.5625 133.625 C-9.02711086 131.15246323 -9.02711086 131.15246323 -7.3125 128.6875 C-6.879375 128.130625 -6.44625 127.57375 -6 127 C-5.34 127 -4.68 127 -4 127 C-3.73832031 126.26394531 -3.47664062 125.52789062 -3.20703125 124.76953125 C-1.98615837 121.96824039 -0.62394562 120.03613804 1.3125 117.6875 C6.87389757 110.92634026 10.80329737 103.75892694 14.125 95.6875 C14.47191895 94.85154297 14.81883789 94.01558594 15.17626953 93.15429688 C18.79554029 84.28080185 21.06320353 75.59407911 22.47265625 66.1171875 C22.64667969 65.41851562 22.82070313 64.71984375 23 64 C23.66 63.67 24.32 63.34 25 63 C29.62845387 76.8853616 21.7406077 94.45125457 15.62890625 106.76171875 C10.79545123 115.94397341 5.46091187 124.74105549 -2 132 C-3.59064503 133.85635097 -5.13157619 135.74329613 -6.66796875 137.64453125 C-7.10753906 138.09183594 -7.54710937 138.53914062 -8 139 C-8.66 139 -9.32 139 -10 139 C-10 139.66 -10 140.32 -10 141 C-11.2578125 142.3046875 -11.2578125 142.3046875 -13.125 143.875 C-13.846875 144.48730469 -14.56875 145.09960938 -15.3125 145.73046875 C-16.199375 146.47941406 -17.08625 147.22835937 -18 148 C-19.14712628 148.99460448 -20.292868 149.99080726 -21.4375 150.98828125 C-22.66653612 152.05483795 -23.8957034 153.12124353 -25.125 154.1875 C-26.00309326 154.95392822 -26.00309326 154.95392822 -26.89892578 155.73583984 C-30.44480748 158.79242781 -34.04071352 161.48177735 -38 164 C-38.71913574 164.46108154 -39.43827148 164.92216309 -40.17919922 165.3972168 C-49.24144123 171.18068048 -58.33389127 176.90117534 -67.9375 181.75 C-68.56833496 182.07258789 -69.19916992 182.39517578 -69.84912109 182.72753906 C-73.53159035 184.52838918 -76.87422129 185.93114138 -81 186 C-84.5735439 183.44022742 -86.04618182 180.22557576 -87.75 176.25 C-88.17796875 175.26515625 -88.6059375 174.2803125 -89.046875 173.265625 C-89.36140625 172.51796875 -89.6759375 171.7703125 -90 171 C-90.226875 172.051875 -90.45375 173.10375 -90.6875 174.1875 C-91.82052837 178.17737846 -93.79165445 180.33942076 -97 183 C-97.99 183.33 -98.98 183.66 -100 184 C-100.0825 185.051875 -100.165 186.10375 -100.25 187.1875 C-101.11553767 191.58731646 -101.75161668 192.94041988 -105 196 C-108.45795243 197.55217153 -112.00615549 198.44050403 -115.6875 199.3125 C-116.75863037 199.5717627 -117.82976074 199.83102539 -118.93334961 200.09814453 C-133.4367166 203.21664046 -148.25909621 202.53314963 -163 202 C-135.91286716 211.02904428 -97.07019123 197.48661555 -72.89477539 185.7121582 C-69.90139102 184.19357556 -66.95115172 182.59882582 -64 181 C-62.68010379 180.34677674 -61.35841385 179.69716809 -60.03515625 179.05078125 C-56.06896985 177.07767964 -52.30862966 174.86085711 -48.5625 172.5 C-47.88364746 172.07275635 -47.20479492 171.6455127 -46.50537109 171.20532227 C-35.48173568 164.19291818 -24.57421603 156.95537062 -15.078125 147.9375 C-13 146 -13 146 -10.33984375 143.890625 C-7.93621837 142.10649091 -7.93621837 142.10649091 -6.3125 139.75 C-5.879375 139.1725 -5.44625 138.595 -5 138 C-4.34 138 -3.68 138 -3 138 C-2.62875 137.14535156 -2.62875 137.14535156 -2.25 136.2734375 C-0.80178705 133.63950019 0.9232254 131.79819628 3 129.625 C20.91722753 109.95905106 35.09502373 85.30503133 34.57739258 58.05639648 C34.06004695 47.5720148 31.74456135 38.24335276 25 30 C25 29.34 25 28.68 25 28 C24.401875 27.7525 23.80375 27.505 23.1875 27.25 C20.68373081 25.81927475 19.51927612 24.4308418 18 22 C18 21.34 18 20.68 18 20 C26.88387074 21.04516126 33.96689333 28.73121765 39.63916016 35.21142578 C48.80782712 47.26195577 49.15577725 63.79738084 47.375 78.1875 C43.88531114 98.35549491 33.76845663 115.36268127 21 131 C19.87078125 132.43472656 19.87078125 132.43472656 18.71875 133.8984375 C11.35254813 143.1580645 3.09116782 151.43663243 -6 159 C-6.49000488 159.41443359 -6.98000977 159.82886719 -7.48486328 160.25585938 C-22.0449095 172.51968209 -37.77309761 183.04990121 -55.05224609 191.08056641 C-57.02863166 192.01351552 -58.97716011 192.990976 -60.92578125 193.98046875 C-82.90905813 204.98941266 -107.33150338 212.23327646 -132 213 C-132.95390625 213.03996094 -133.9078125 213.07992187 -134.890625 213.12109375 C-151.43278748 213.49705199 -169.67055934 210.77312693 -184 202 C-184.33 201.01 -184.66 200.02 -185 199 C-181.62605384 198.27701154 -179.22714877 197.95546103 -175.8125 198.625 C-174.4203125 198.810625 -174.4203125 198.810625 -173 199 C-172.60296875 198.50371094 -172.2059375 198.00742187 -171.796875 197.49609375 C-170 196 -170 196 -166.68359375 195.99609375 C-165.26729119 196.13390813 -163.85195296 196.28184473 -162.4375 196.4375 C-150.23292212 197.48518601 -138.15780142 196.15418589 -126 195 C-124.82378808 191.54084512 -123.75003692 188.0924209 -122.8125 184.5625 C-121.27835651 179.33067732 -118.93881486 174.56676653 -116.55249023 169.68774414 C-114.6395302 165.67342265 -113.32779285 161.86970514 -112.375 157.5 C-111.0012087 151.23787157 -108.67136885 147.36606956 -103.8125 143.0625 C-102 142 -102 142 -100 142 C-99.773125 141.443125 -99.54625 140.88625 -99.3125 140.3125 C-97.6407496 137.36703501 -95.41718785 135.35675815 -93 133 C-92.34 132.01 -91.68 131.02 -91 130 C-90.34 130 -89.68 130 -89 130 C-89 129.34 -89 128.68 -89 128 C-89 127.67 -89 127.34 -89 127 C-89.928125 126.443125 -90.85625 125.88625 -91.8125 125.3125 C-95.38702114 122.71921996 -96.3403739 121.03052053 -98 117 C-98.495 115.865625 -98.99 114.73125 -99.5 113.5625 C-100.27023924 111.73318181 -101.03623351 109.90040735 -101.71484375 108.03515625 C-102.4913254 105.88480999 -102.4913254 105.88480999 -104 103 C-106.06890419 101.95710245 -106.06890419 101.95710245 -108 102 C-108 100.02 -108 98.04 -108 96 C-108.66 96 -109.32 96 -110 96 C-109.835 95.05125 -109.67 94.1025 -109.5 93.125 C-108.9473365 90.19831099 -108.9473365 90.19831099 -109 88 C-108.92578125 85.578125 -108.92578125 85.578125 -108 83 C-105.66797945 81.63638643 -103.68205343 80.68263706 -101.1875 79.75 C-100.55779297 79.49476563 -99.92808594 79.23953125 -99.27929688 78.9765625 C-93.37736141 76.62321992 -88.40500996 75.7521971 -82.0625 75.625 C-81.00772461 75.56892578 -81.00772461 75.56892578 -79.93164062 75.51171875 C-76.03123255 75.44591993 -74.20975604 75.84142444 -71.0703125 78.21484375 C-68.97762145 81.03010548 -68.26078462 82.51471505 -67.8125 85.9375 C-67.60367188 87.36255859 -67.60367188 87.36255859 -67.390625 88.81640625 C-67.19726562 90.39228516 -67.19726562 90.39228516 -67 92 C-66.69489371 94.45926192 -66.38224583 96.9175986 -66.0625 99.375 C-65.92972656 100.51710938 -65.79695313 101.65921875 -65.66015625 102.8359375 C-64.96603682 106.1627821 -64.01361011 108.27716268 -62 111 C-59.17551685 112.08633967 -57.69705176 112.21907341 -54.8125 111.3125 C-52.63093742 109.73274778 -52.15832023 108.41531218 -51 106 C-47.43604939 99.7327432 -44.4814981 96.17960284 -38 93 C-35.52642159 90.92076018 -34.52156287 89.18685289 -33.5625 86.125 C-32.28954671 82.44757939 -30.49969366 79.99963239 -28 77 C-26.8264763 73.93078417 -26.92276767 73.231697 -28 70 C-28.08315752 67.93501108 -28.10735878 65.8674211 -28.09765625 63.80078125 C-28.09443359 62.59228516 -28.09121094 61.38378906 -28.08789062 60.13867188 C-28.07951172 58.87603516 -28.07113281 57.61339844 -28.0625 56.3125 C-28.05798828 55.03826172 -28.05347656 53.76402344 -28.04882812 52.45117188 C-28.03702873 49.30073436 -28.02056597 46.15039051 -28 43 C-30.81814566 41.59092717 -32.17277204 42.49127309 -35.125 43.4375 C-36.03507813 43.72496094 -36.94515625 44.01242188 -37.8828125 44.30859375 C-38.93082031 44.65083984 -38.93082031 44.65083984 -40 45 C-39.49919922 45.84884766 -39.49919922 45.84884766 -38.98828125 46.71484375 C-37.86238824 49.31819321 -37.86133578 50.76883254 -38.1875 53.5625 C-38.30158203 54.70912109 -38.30158203 54.70912109 -38.41796875 55.87890625 C-39.44087421 59.60667581 -41.86252693 60.90835129 -45 63 C-45.99 63 -46.98 63 -48 63 C-48.33 63.66 -48.66 64.32 -49 65 C-52.72579089 67.48386059 -54.58711402 67.3804212 -59 67 C-64.82746659 64.66901336 -69.5908966 59.16430237 -72.11328125 53.5 C-73.94754355 47.79726981 -74.81910663 42.50238698 -73.43359375 36.578125 C-71.38849181 32.90028499 -68.36412315 31.43893054 -64.75 29.5625 C-64.09386719 29.18673828 -63.43773437 28.81097656 -62.76171875 28.42382812 C-59.34420856 26.60636495 -57.67075853 25.89251701 -53.7578125 26.51953125 C-50.83392829 28.08915181 -49.19873313 29.55357092 -47.125 32.125 C-46.23167969 33.21167969 -46.23167969 33.21167969 -45.3203125 34.3203125 C-44.88460937 34.87460938 -44.44890625 35.42890625 -44 36 C-43.38125 35.505 -42.7625 35.01 -42.125 34.5 C-40 33 -40 33 -38 33 C-37.896875 32.443125 -37.79375 31.88625 -37.6875 31.3125 C-36.79888319 28.3235162 -36.0223894 26.41381961 -34 24 C-30.0712034 22.79429415 -26.89303334 22.70232222 -23 24 C-22.01 23.67 -21.02 23.34 -20 23 C-20.165 22.38125 -20.33 21.7625 -20.5 21.125 C-20.94766196 18.32711276 -21.16731852 15.70270674 -21.25 12.875 C-21.28867187 11.60269531 -21.28867187 11.60269531 -21.328125 10.3046875 C-20.915555 7.40687439 -20.31785299 6.75431579 -18 5 C-16.10163083 3.84947323 -14.15836365 2.7713784 -12.1875 1.75 C-11.17042969 1.20859375 -10.15335938 0.6671875 -9.10546875 0.109375 C-5.49867824 -1.17908853 -3.65302919 -1.03653445 0 0 Z " fill="#060505" transform="translate(306,92)"/>
<path d="M0 0 C8.88387074 1.04516126 15.96689333 8.73121765 21.63916016 15.21142578 C30.80782712 27.26195577 31.15577725 43.79738084 29.375 58.1875 C25.88531114 78.35549491 15.76845663 95.36268127 3 111 C1.87078125 112.43472656 1.87078125 112.43472656 0.71875 113.8984375 C-6.64745187 123.1580645 -14.90883218 131.43663243 -24 139 C-24.49000488 139.41443359 -24.98000977 139.82886719 -25.48486328 140.25585938 C-40.0449095 152.51968209 -55.77309761 163.04990121 -73.05224609 171.08056641 C-75.02863166 172.01351552 -76.97716011 172.990976 -78.92578125 173.98046875 C-100.90905813 184.98941266 -125.33150338 192.23327646 -150 193 C-150.95390625 193.03996094 -151.9078125 193.07992187 -152.890625 193.12109375 C-169.43278748 193.49705199 -187.67055934 190.77312693 -202 182 C-202.33 181.01 -202.66 180.02 -203 179 C-199.62605384 178.27701154 -197.22714877 177.95546103 -193.8125 178.625 C-192.4203125 178.810625 -192.4203125 178.810625 -191 179 C-189.2912354 177.62485459 -189.2912354 177.62485459 -188 176 C-187.01 176 -186.02 176 -185 176 C-185 176.99 -185 177.98 -185 179 C-183.35 179.33 -181.7 179.66 -180 180 C-180.33 180.66 -180.66 181.32 -181 182 C-153.91286716 191.02904428 -115.07019123 177.48661555 -90.89477539 165.7121582 C-87.90139102 164.19357556 -84.95115172 162.59882582 -82 161 C-80.68010379 160.34677674 -79.35841385 159.69716809 -78.03515625 159.05078125 C-74.06896985 157.07767964 -70.30862966 154.86085711 -66.5625 152.5 C-65.88364746 152.07275635 -65.20479492 151.6455127 -64.50537109 151.20532227 C-53.48173568 144.19291818 -42.57421603 136.95537062 -33.078125 127.9375 C-31 126 -31 126 -28.33984375 123.890625 C-25.93621837 122.10649091 -25.93621837 122.10649091 -24.3125 119.75 C-23.879375 119.1725 -23.44625 118.595 -23 118 C-22.34 118 -21.68 118 -21 118 C-20.62875 117.14535156 -20.62875 117.14535156 -20.25 116.2734375 C-18.80178705 113.63950019 -17.0767746 111.79819628 -15 109.625 C2.91722753 89.95905106 17.09502373 65.30503133 16.57739258 38.05639648 C16.06004695 27.5720148 13.74456135 18.24335276 7 10 C7 9.34 7 8.68 7 8 C6.401875 7.7525 5.80375 7.505 5.1875 7.25 C2.68373081 5.81927475 1.51927612 4.4308418 0 2 C0 1.34 0 0.68 0 0 Z " fill="#E9952B" transform="translate(324,112)"/>
<path d="M0 0 C0 0.66 0 1.32 0 2 C-2.1234016 2.83739781 -4.2487728 3.66980283 -6.375 4.5 C-7.55835938 4.9640625 -8.74171875 5.428125 -9.9609375 5.90625 C-13 7 -13 7 -15 7 C-14.505 8.485 -14.505 8.485 -14 10 C-15.65 10.99 -17.3 11.98 -19 13 C-17.88625 12.814375 -16.7725 12.62875 -15.625 12.4375 C-12 12 -12 12 -10 13 C-8.00039988 13.039992 -5.99952758 13.04346799 -4 13 C-4 12.34 -4 11.68 -4 11 C-1.29120665 9.64560332 1.00933268 9.93498549 4 10 C-20.77022485 26.51348323 -60.52909135 30.63459146 -89 25 C-97.26775825 22.9932443 -105.7182547 20.45821141 -113 16 C-113.33 15.01 -113.66 14.02 -114 13 C-110.62605384 12.27701154 -108.22714877 11.95546103 -104.8125 12.625 C-103.4203125 12.810625 -103.4203125 12.810625 -102 13 C-100.2912354 11.62485459 -100.2912354 11.62485459 -99 10 C-98.01 10 -97.02 10 -96 10 C-96 10.99 -96 11.98 -96 13 C-93.525 13.495 -93.525 13.495 -91 14 C-91.33 14.66 -91.66 15.32 -92 16 C-65.59296352 24.80234549 -28.84868196 11.758704 -4.8828125 1.2265625 C-2 0 -2 0 0 0 Z " fill="#E49233" transform="translate(235,278)"/>
<path d="M0 0 C0.99 0.33 1.98 0.66 3 1 C4.03485877 3.31808364 5.0355414 5.65175298 6 8 C6.66 8.33 7.32 8.66 8 9 C8 10.32 8 11.64 8 13 C8.66 13 9.32 13 10 13 C14.10688757 20.24580616 14.55891533 26.53188851 14.375 34.75 C14.37371094 35.85988281 14.37242187 36.96976563 14.37109375 38.11328125 C14.31512475 43.28108525 14.1526045 47.24177257 12 52 C10.06129028 56.94370979 8.38849154 61.87326201 7 67 C6.34 67 5.68 67 5 67 C4.34 68.65 3.68 70.3 3 72 C2.34 72 1.68 72 1 72 C0.8453125 72.99 0.8453125 72.99 0.6875 74 C-0.1797318 77.78428422 -1.29231574 81.50292411 -3 85 C-3.99 85.495 -3.99 85.495 -5 86 C-6.13350534 88.01669827 -6.13350534 88.01669827 -7 90 C-8.32 90 -9.64 90 -11 90 C-11.12375 89.195625 -11.2475 88.39125 -11.375 87.5625 C-11.58125 86.716875 -11.7875 85.87125 -12 85 C-12.66 84.67 -13.32 84.34 -14 84 C-13.57630928 82.3713449 -13.1355377 80.74712622 -12.6875 79.125 C-12.44386719 78.22007812 -12.20023437 77.31515625 -11.94921875 76.3828125 C-11 74 -11 74 -8 72 C-7.67 71.01 -7.34 70.02 -7 69 C-7.66 68.67 -8.32 68.34 -9 68 C-8.43732422 67.01386719 -8.43732422 67.01386719 -7.86328125 66.0078125 C0.95604445 49.61319697 4.91666623 31.45969741 1 13 C0.95847226 11.29217149 0.95821841 9.58282232 1 7.875 C1.07489463 4.7949584 0.98845393 2.96536178 0 0 Z " fill="#F49523" transform="translate(338,125)"/>
<path d="M0 0 C3.63 0 7.26 0 11 0 C11.33 1.32 11.66 2.64 12 4 C12.66 4 13.32 4 14 4 C14.66 5.98 15.32 7.96 16 10 C16.66 10 17.32 10 18 10 C18 10.99 18 11.98 18 13 C18.66 13 19.32 13 20 13 C19.98839844 12.22914063 19.97679687 11.45828125 19.96484375 10.6640625 C19.95582031 9.66117187 19.94679687 8.65828125 19.9375 7.625 C19.92589844 6.62726563 19.91429687 5.62953125 19.90234375 4.6015625 C20 2 20 2 21 0 C24.3 0 27.6 0 31 0 C31.16725986 4.53877261 31.32785453 9.07771244 31.48217773 13.61694336 C31.5356662 15.1622559 31.59100068 16.70750567 31.64819336 18.25268555 C31.72991433 20.46910051 31.8050717 22.68565384 31.87890625 24.90234375 C31.90594131 25.5971434 31.93297638 26.29194305 31.96083069 27.00779724 C32.01301108 28.67109776 32.01185107 30.33592339 32 32 C30.34107528 33.65892472 28.39952582 33.24986813 26.125 33.3125 C24.79855469 33.36857422 24.79855469 33.36857422 23.4453125 33.42578125 C21 33 21 33 19.1796875 31.10546875 C18 29 18 29 18 27 C17.34 27 16.68 27 16 27 C14.68 24.69 13.36 22.38 12 20 C10.71492704 21.05541144 10.71492704 21.05541144 10.9375 23.46875 C10.958125 24.4690625 10.97875 25.469375 11 26.5 C11.03779265 28.33294376 11.04639864 30.1672539 11 32 C10 33 10 33 7.71484375 33.09765625 C6.34005859 33.08025391 6.34005859 33.08025391 4.9375 33.0625 C4.01839844 33.05347656 3.09929687 33.04445313 2.15234375 33.03515625 C1.44207031 33.02355469 0.73179687 33.01195312 0 33 C-1.17666109 29.47001672 -1.02013769 26.86362584 -0.87890625 23.14453125 C-0.85529526 22.48289474 -0.83168427 21.82125824 -0.80735779 21.13957214 C-0.73090143 19.03031998 -0.64680043 16.9214518 -0.5625 14.8125 C-0.5092612 13.38087804 -0.45652093 11.94923746 -0.40429688 10.51757812 C-0.27531118 7.01148424 -0.13946876 3.50569429 0 0 Z " fill="#060506" transform="translate(212,327)"/>
<path d="M0 0 C9.24 0 18.48 0 28 0 C28 2.64 28 5.28 28 8 C20.08 8.495 20.08 8.495 12 9 C12.33 9.66 12.66 10.32 13 11 C16.27555608 11.47001033 16.27555608 11.47001033 20.0625 11.625 C21.99802734 11.73714844 21.99802734 11.73714844 23.97265625 11.8515625 C25.47119141 11.92503906 25.47119141 11.92503906 27 12 C27.04241723 14.33294775 27.04092937 16.66702567 27 19 C25.05909174 20.94090826 21.52706098 20.39919435 18.9375 20.5625 C17.64714844 20.64628906 16.35679687 20.73007812 15.02734375 20.81640625 C14.02832031 20.87699219 13.02929688 20.93757813 12 21 C12.33 21.99 12.66 22.98 13 24 C13.98742187 23.98839844 14.97484375 23.97679687 15.9921875 23.96484375 C17.27351563 23.95582031 18.55484375 23.94679688 19.875 23.9375 C21.15117187 23.92589844 22.42734375 23.91429687 23.7421875 23.90234375 C27 24 27 24 29 25 C29.04241723 27.33294775 29.04092937 29.66702567 29 32 C28 33 28 33 25.31616211 33.11352539 C24.14835205 33.10828857 22.98054199 33.10305176 21.77734375 33.09765625 C20.64288818 33.09515869 19.50843262 33.09266113 18.33959961 33.09008789 C16.1605603 33.07643188 16.1605603 33.07643188 13.9375 33.0625 C7.0384375 33.0315625 7.0384375 33.0315625 0 33 C0 22.11 0 11.22 0 0 Z " fill="#080708" transform="translate(263,327)"/>
<path d="M0 0 C2.375 1.8125 2.375 1.8125 4 4 C4.25 6.75 4.25 6.75 4 9 C1.69 9.33 -0.62 9.66 -3 10 C-2.4225 10.226875 -1.845 10.45375 -1.25 10.6875 C2.64965332 12.96229777 4.61666212 15.68569869 5.875 20 C6.01527275 23.36654598 5.75749627 25.12409702 4 28 C1.375 29.3125 1.375 29.3125 -1 30 C-1 30.66 -1 31.32 -1 32 C-6.93626534 33.53193944 -13.27639435 34.23361009 -18.875 31.375 C-22.27137702 28.79375346 -23.63263814 27.01662545 -25 23 C-24.505 21.515 -24.505 21.515 -24 20 C-20.99002946 19.41946061 -18.07111406 18.95099286 -15 19 C-12.9375 20.8125 -12.9375 20.8125 -12 23 C-12 23.66 -12 24.32 -12 25 C-10.35 24.67 -8.7 24.34 -7 24 C-7 23.01 -7 22.02 -7 21 C-7.81984375 20.75765625 -8.6396875 20.5153125 -9.484375 20.265625 C-11.10085938 19.76289063 -11.10085938 19.76289063 -12.75 19.25 C-14.35101563 18.76273437 -14.35101563 18.76273437 -15.984375 18.265625 C-19.17806636 16.92526749 -20.82109775 15.66366973 -23 13 C-24.20056283 9.318274 -24.1662903 7.49887089 -22.9375 3.8125 C-17.70282337 -3.78622414 -7.78638018 -3.62157217 0 0 Z M-13 6 C-12.67 6.99 -12.34 7.98 -12 9 C-9.98491642 9.73323796 -9.98491642 9.73323796 -8 10 C-8 8.68 -8 7.36 -8 6 C-9.65 6 -11.3 6 -13 6 Z " fill="#0B090B" transform="translate(380,328)"/>
<path d="M0 0 C0 0.66 0 1.32 0 2 C0.66 2 1.32 2 2 2 C2.66 4.31 3.32 6.62 4 9 C2.02 9.66 0.04 10.32 -2 11 C-1.21625 11.598125 -0.4325 12.19625 0.375 12.8125 C3.00813859 15.00678215 4.84663796 16.56323981 5.22265625 20.0859375 C4.99347905 23.3614945 4.75996805 25.98512104 2.75390625 28.6640625 C-2.14931973 32.6854133 -7.83141036 33.167726 -14 33 C-18.5424016 32.09151968 -21.14760252 30.66736818 -24 27 C-25.25 23.75 -25.25 23.75 -26 21 C-24.33657163 19.33657163 -22.2174291 19.63951903 -19.9375 19.4375 C-18.55884766 19.31181641 -18.55884766 19.31181641 -17.15234375 19.18359375 C-16.44207031 19.12300781 -15.73179687 19.06242187 -15 19 C-14.67 20.65 -14.34 22.3 -14 24 C-11.69 24 -9.38 24 -7 24 C-7.33 23.01 -7.66 22.02 -8 21 C-10.91405606 19.63077894 -10.91405606 19.63077894 -14.375 18.5 C-21.98757267 15.86682631 -21.98757267 15.86682631 -24 13 C-24.52154963 8.38056044 -24.66971702 6.14099936 -22.3125 2.125 C-16.37973957 -3.3267258 -7.09450188 -3.78373434 0 0 Z M-14 6 C-13.67 6.99 -13.34 7.98 -13 9 C-10.03 9.495 -10.03 9.495 -7 10 C-7.33 8.68 -7.66 7.36 -8 6 C-9.98 6 -11.96 6 -14 6 Z " fill="#090709" transform="translate(334,328)"/>
<path d="M0 0 C1.12341797 -0.01224609 2.24683594 -0.02449219 3.40429688 -0.03710938 C5.01208008 -0.04000977 5.01208008 -0.04000977 6.65234375 -0.04296875 C8.13528931 -0.04913208 8.13528931 -0.04913208 9.64819336 -0.05541992 C12.0625 0.1875 12.0625 0.1875 14.0625 2.1875 C14.375 5.1875 14.375 5.1875 14.0625 8.1875 C10.64155758 10.46812828 9.38062778 10.40675007 5.375 10.3125 C3.88419922 10.28542969 3.88419922 10.28542969 2.36328125 10.2578125 C1.60402344 10.23460937 0.84476563 10.21140625 0.0625 10.1875 C-0.2675 11.1775 -0.5975 12.1675 -0.9375 13.1875 C-0.15503906 13.17589844 0.62742187 13.16429687 1.43359375 13.15234375 C2.44550781 13.14332031 3.45742187 13.13429688 4.5 13.125 C5.50933594 13.11339844 6.51867187 13.10179687 7.55859375 13.08984375 C10.0625 13.1875 10.0625 13.1875 11.0625 14.1875 C11.10342937 16.52047433 11.10491723 18.85455225 11.0625 21.1875 C7.0097484 22.16998524 3.22388263 22.26909574 -0.9375 22.1875 C-0.92589844 22.96996094 -0.91429688 23.75242187 -0.90234375 24.55859375 C-0.89332031 25.57050781 -0.88429688 26.58242188 -0.875 27.625 C-0.86339844 28.63433594 -0.85179688 29.64367187 -0.83984375 30.68359375 C-0.9375 33.1875 -0.9375 33.1875 -1.9375 34.1875 C-3.45219448 34.41942865 -4.97504562 34.59965238 -6.5 34.75 C-7.32628906 34.83378906 -8.15257813 34.91757812 -9.00390625 35.00390625 C-9.64199219 35.06449219 -10.28007813 35.12507813 -10.9375 35.1875 C-13.21972786 31.55753094 -13.18210185 28.49865499 -13.16796875 24.26953125 C-13.16751053 23.61168137 -13.16705231 22.95383148 -13.1665802 22.27604675 C-13.16356911 20.89177638 -13.15571711 19.50750906 -13.14331055 18.12329102 C-13.12497229 15.99678665 -13.12280157 13.87071608 -13.12304688 11.74414062 C-13.07818418 -0.54522279 -12.06406529 0.00689769 0 0 Z " fill="#090809" transform="translate(100.9375,325.8125)"/>
<path d="M0 0 C1.29744141 -0.00128906 2.59488281 -0.00257813 3.93164062 -0.00390625 C4.94665649 -0.00076416 4.94665649 -0.00076416 5.98217773 0.00244141 C8.0539479 0.00780048 10.12550214 0.00248732 12.19726562 -0.00390625 C13.49341797 -0.00261719 14.78957031 -0.00132812 16.125 0 C17.92046265 0.00169189 17.92046265 0.00169189 19.75219727 0.00341797 C22.49609375 0.1328125 22.49609375 0.1328125 23.49609375 1.1328125 C23.62890625 2.9453125 23.62890625 2.9453125 23.62109375 5.1328125 C23.62496094 6.215625 23.62496094 6.215625 23.62890625 7.3203125 C23.49609375 9.1328125 23.49609375 9.1328125 22.49609375 10.1328125 C20.97681337 10.20461214 19.45441893 10.21673257 17.93359375 10.1953125 C17.10730469 10.18628906 16.28101563 10.17726563 15.4296875 10.16796875 C14.79160156 10.15636719 14.15351563 10.14476562 13.49609375 10.1328125 C13.50394897 11.1700647 13.50394897 11.1700647 13.51196289 12.22827148 C13.53266875 15.34227602 13.54573338 18.45626611 13.55859375 21.5703125 C13.56697266 22.65892578 13.57535156 23.74753906 13.58398438 24.86914062 C13.58881836 26.42084961 13.58881836 26.42084961 13.59375 28.00390625 C13.60160522 29.44141235 13.60160522 29.44141235 13.60961914 30.90795898 C13.49609375 33.1328125 13.49609375 33.1328125 12.49609375 34.1328125 C10.81000409 34.20486761 9.12108716 34.21667318 7.43359375 34.1953125 C6.51449219 34.18628906 5.59539062 34.17726563 4.6484375 34.16796875 C3.93816406 34.15636719 3.22789062 34.14476562 2.49609375 34.1328125 C0.69014853 26.1780538 1.28739444 18.14044544 2.49609375 10.1328125 C-0.80390625 10.1328125 -4.10390625 10.1328125 -7.50390625 10.1328125 C-8.04763576 7.07433402 -8.50390625 4.24508445 -8.50390625 1.1328125 C-5.64555139 -0.29636493 -3.19132906 0.00300441 0 0 Z " fill="#080708" transform="translate(170.50390625,325.8671875)"/>
<path d="M0 0 C3.52612219 5.28918328 2.43315658 10.7265133 1.27734375 16.79296875 C-3.03322998 35.78614705 -11.91594617 55.29720241 -26 69 C-27.59064503 70.85635097 -29.13157619 72.74329613 -30.66796875 74.64453125 C-31.10753906 75.09183594 -31.54710937 75.53914063 -32 76 C-32.66 76 -33.32 76 -34 76 C-34 76.66 -34 77.32 -34 78 C-35.2578125 79.3046875 -35.2578125 79.3046875 -37.125 80.875 C-37.83914063 81.48214844 -38.55328125 82.08929688 -39.2890625 82.71484375 C-40.18367188 83.46894531 -41.07828125 84.22304687 -42 85 C-43.85860529 86.59094542 -45.71417728 88.18539067 -47.56982422 89.77978516 C-50.37660278 92.19036274 -53.18835775 94.59509813 -56 97 C-58 96 -58 96 -59 94 C-58.505 93.01 -58.505 93.01 -58 92 C-57.01 92 -56.02 92 -55 92 C-55.99 91.67 -56.98 91.34 -58 91 C-57.67 89.68 -57.34 88.36 -57 87 C-56.236875 86.896875 -55.47375 86.79375 -54.6875 86.6875 C-51.78105605 85.94399108 -50.96433971 85.15141968 -49 83 C-48.34 83 -47.68 83 -47 83 C-46.38125 81.9171875 -46.38125 81.9171875 -45.75 80.8125 C-44.00142085 78.0022835 -42.12971744 76.29529743 -39.55078125 74.25390625 C-36.42102174 71.72329465 -33.68265307 68.93548754 -31.3125 65.6875 C-30.879375 65.130625 -30.44625 64.57375 -30 64 C-29.34 64 -28.68 64 -28 64 C-27.73832031 63.26394531 -27.47664063 62.52789062 -27.20703125 61.76953125 C-25.98615837 58.96824039 -24.62394562 57.03613804 -22.6875 54.6875 C-17.12610243 47.92634026 -13.19670263 40.75892694 -9.875 32.6875 C-9.52808105 31.85154297 -9.18116211 31.01558594 -8.82373047 30.15429688 C-5.2074665 21.28817371 -2.95510874 12.56409447 -1.4296875 3.1171875 C-1 1 -1 1 0 0 Z " fill="#0E080B" transform="translate(330,155)"/>
<path d="M0 0 C0 1.32 0 2.64 0 4 C1.98 3.67 3.96 3.34 6 3 C5.25 5.4375 5.25 5.4375 4 8 C1.875 8.8125 1.875 8.8125 0 9 C0 9.66 0 10.32 0 11 C-1.98 11.99 -3.96 12.98 -6 14 C-6 14.66 -6 15.32 -6 16 C-10.38461538 19 -10.38461538 19 -13 19 C-13 19.99 -13 20.98 -13 22 C-15.64738916 23.4606285 -16.89448334 24 -20 24 C-20 24.66 -20 25.32 -20 26 C-20.99 26 -21.98 26 -23 26 C-23 26.99 -23 27.98 -23 29 C-23.99 29 -24.98 29 -26 29 C-26 29.66 -26 30.32 -26 31 C-28.70879335 32.35439668 -31.00933268 32.06501451 -34 32 C-34.495 34.475 -34.495 34.475 -35 37 C-36.98 37 -38.96 37 -41 37 C-40.67 35.68 -40.34 34.36 -40 33 C-40.66 32.67 -41.32 32.34 -42 32 C-41.3125 29.5625 -41.3125 29.5625 -40 27 C-37.375 26.1875 -37.375 26.1875 -35 26 C-34.95230469 25.26007813 -34.90460938 24.52015625 -34.85546875 23.7578125 C-33.65884562 19.90020551 -31.69256041 18.9953331 -28.3125 16.875 C-27.27738281 16.21242187 -26.24226563 15.54984375 -25.17578125 14.8671875 C-16.89748954 10 -16.89748954 10 -13 10 C-12.67 9.01 -12.34 8.02 -12 7 C-10.67532254 6.3162955 -9.34136367 5.65035814 -8 5 C-7.34 4.01 -6.68 3.02 -6 2 C-3.83252916 0.71306419 -2.53199972 0 0 0 Z " fill="#F3941F" transform="translate(301,237)"/>
<path d="M0 0 C0.80566406 0.09023438 1.61132812 0.18046875 2.44140625 0.2734375 C4.4375 0.625 4.4375 0.625 5.4375 1.625 C5.5258967 4.0006852 5.55280305 6.34708674 5.53515625 8.72265625 C5.5337413 9.43151474 5.53232635 10.14037323 5.53086853 10.87071228 C5.52525443 13.14301712 5.51269963 15.41522475 5.5 17.6875 C5.49498681 19.22460796 5.49042359 20.76171745 5.48632812 22.29882812 C5.47528042 26.07425642 5.45800641 29.84961171 5.4375 33.625 C3.62507948 33.65187279 1.81254767 33.67133715 0 33.6875 C-1.00933594 33.69910156 -2.01867187 33.71070313 -3.05859375 33.72265625 C-5.5625 33.625 -5.5625 33.625 -6.5625 32.625 C-6.6508967 30.2493148 -6.67780305 27.90291326 -6.66015625 25.52734375 C-6.6587413 24.81848526 -6.65732635 24.10962677 -6.65586853 23.37928772 C-6.65025443 21.10698288 -6.63769963 18.83477525 -6.625 16.5625 C-6.61998681 15.02539204 -6.61542359 13.48828255 -6.61132812 11.95117188 C-6.60028042 8.17574358 -6.58300641 4.40038829 -6.5625 0.625 C-4.06581711 -0.62334144 -2.74920849 -0.32655125 0 0 Z " fill="#070606" transform="translate(139.5625,326.375)"/>
<path d="M0 0 C8.88387074 1.04516126 15.96689333 8.73121765 21.63916016 15.21142578 C30.80782712 27.26195577 31.15577725 43.79738084 29.375 58.1875 C26.80625087 73.03309843 20.47032275 91.69747029 9 102 C9.28875 101.319375 9.5775 100.63875 9.875 99.9375 C11.07295077 96.93753981 11.07295077 96.93753981 12 93.5 C13.34698115 88.78556599 14.34324301 85.33877812 18 82 C18.33 81.34 18.66 80.68 19 80 C19.66 80 20.32 80 21 80 C21.19335938 79.01257813 21.38671875 78.02515625 21.5859375 77.0078125 C21.84632813 75.72648437 22.10671875 74.44515625 22.375 73.125 C22.63023437 71.84882813 22.88546875 70.57265625 23.1484375 69.2578125 C24 66 24 66 26 64 C27.76902165 58.86151406 27.22527737 53.17422121 27.25 47.8125 C27.270625 46.71357422 27.29125 45.61464844 27.3125 44.48242188 C27.34511457 37.64559187 26.54947444 32.35355866 24 26 C23.34 26 22.68 26 22 26 C22 24.68 22 23.36 22 22 C21.360625 21.79375 20.72125 21.5875 20.0625 21.375 C18 20 18 20 17.25 16.875 C17.12625 15.451875 17.12625 15.451875 17 14 C16.01 14.495 16.01 14.495 15 15 C15.33 15.66 15.66 16.32 16 17 C15.71887936 19.00800456 15.38932033 21.01014051 15 23 C13 20 13 20 11.5625 17.0625 C10.13077384 14.04086446 10.13077384 14.04086446 8.3125 11.75 C7 10 7 10 7 8 C6.401875 7.7525 5.80375 7.505 5.1875 7.25 C2.68373081 5.81927475 1.51927612 4.4308418 0 2 C0 1.34 0 0.68 0 0 Z " fill="#CB8F47" transform="translate(324,112)"/>
<path d="M0 0 C2 2 2 2 2 5 C2.99 5 3.98 5 5 5 C5.3125 7.6875 5.3125 7.6875 5 11 C2.5625 13.75 2.5625 13.75 0 16 C-0.33 16.66 -0.66 17.32 -1 18 C-1.99 18 -2.98 18 -4 18 C-4.061875 18.5775 -4.12375 19.155 -4.1875 19.75 C-5.35526841 22.98382021 -7.16375839 24.13065894 -10 26 C-12.8125 26.75 -12.8125 26.75 -15 27 C-15 26.34 -15 25.68 -15 25 C-16.65 25 -18.3 25 -20 25 C-19.34 23.35 -18.68 21.7 -18 20 C-17.34 20 -16.68 20 -16 20 C-16 19.01 -16 18.02 -16 17 C-15.34 16.67 -14.68 16.34 -14 16 C-13.71125 15.2575 -13.4225 14.515 -13.125 13.75 C-11.83165261 10.58848416 -10.37922254 8.44919967 -8 6 C-6.68 6 -5.36 6 -4 6 C-3.71125 5.195625 -3.4225 4.39125 -3.125 3.5625 C-2 1 -2 1 0 0 Z " fill="#F59623" transform="translate(321,211)"/>
<path d="M0 0 C2.125 0.9375 2.125 0.9375 4 2 C3.34 2 2.68 2 2 2 C2 2.66 2 3.32 2 4 C1.01 4 0.02 4 -1 4 C-1.28875 4.598125 -1.5775 5.19625 -1.875 5.8125 C-3 8 -3 8 -5 11 C-5.66 11 -6.32 11 -7 11 C-7 11.99 -7 12.98 -7 14 C-8.65 14.33 -10.3 14.66 -12 15 C-12 15.99 -12 16.98 -12 18 C-16.95 18.495 -16.95 18.495 -22 19 C-22 19.66 -22 20.32 -22 21 C-23.43640171 21.19573608 -24.87419504 21.38127816 -26.3125 21.5625 C-27.11300781 21.66691406 -27.91351563 21.77132813 -28.73828125 21.87890625 C-31 22 -31 22 -34 21 C-36.14255793 21.38932856 -36.14255793 21.38932856 -38 22 C-37.175 21.21625 -36.35 20.4325 -35.5 19.625 C-32.77011494 17.36278736 -32.77011494 17.36278736 -33 15 C-31.06532058 14.16013916 -29.12714871 13.32831973 -27.1875 12.5 C-26.10855469 12.0359375 -25.02960938 11.571875 -23.91796875 11.09375 C-21 10 -21 10 -18 10 C-18 9.34 -18 8.68 -18 8 C-17.071875 8.061875 -16.14375 8.12375 -15.1875 8.1875 C-11.48501975 7.96970704 -11.40428 7.50445833 -9 5 C-5.8125 4.3125 -5.8125 4.3125 -3 4 C-2.67 3.01 -2.34 2.02 -2 1 C-1.34 0.67 -0.68 0.34 0 0 Z " fill="#F19424" transform="translate(253,270)"/>
<path d="M0 0 C0.99 0 1.98 0 3 0 C3 0.99 3 1.98 3 3 C5.475 3.495 5.475 3.495 8 4 C7.67 4.66 7.34 5.32 7 6 C12.41876943 7.80625648 18.26770279 7.18469733 23.9375 7.1875 C25.84112305 7.20586914 25.84112305 7.20586914 27.78320312 7.22460938 C34.84225251 7.23547502 41.48839439 6.81623856 48.41625977 5.4309082 C50.99509533 5.00081799 53.39098779 4.92554088 56 5 C56.495 5.99 56.495 5.99 57 7 C53.04 7 49.08 7 45 7 C45 7.66 45 8.32 45 9 C33.78 9 22.56 9 11 9 C11 10.32 11 11.64 11 13 C18.425 13.99 18.425 13.99 26 15 C26 15.33 26 15.66 26 16 C13.35271034 16.80300252 -2.08188325 13.60075951 -13 7 C-14.31640625 4.84375 -14.31640625 4.84375 -15 3 C-11.62605384 2.27701154 -9.22714877 1.95546103 -5.8125 2.625 C-4.4203125 2.810625 -4.4203125 2.810625 -3 3 C-1.2912354 1.62485459 -1.2912354 1.62485459 0 0 Z " fill="#C28E4F" transform="translate(136,288)"/>
<path d="M0 0 C0.99 0.33 1.98 0.66 3 1 C4.03485877 3.31808364 5.0355414 5.65175298 6 8 C6.66 8.33 7.32 8.66 8 9 C8 10.32 8 11.64 8 13 C8.66 13 9.32 13 10 13 C9.625 15.9375 9.625 15.9375 9 19 C8.34 19.33 7.68 19.66 7 20 C6.46741785 22.60200874 6.46741785 22.60200874 6.21875 25.75 C6.03892578 27.49796875 6.03892578 27.49796875 5.85546875 29.28125 C5.73816406 30.5084375 5.62085938 31.735625 5.5 33 C5.268916 35.41749419 5.02977435 37.83423644 4.78125 40.25 C4.67876953 41.32765625 4.57628906 42.4053125 4.47070312 43.515625 C4.31537109 44.33546875 4.16003906 45.1553125 4 46 C3.01 46.495 3.01 46.495 2 47 C1.49255713 49.01593507 1.49255713 49.01593507 1.1875 51.4375 C0.1626736 57.21152193 -2.16285107 61.91045803 -5 67 C-5.66 67 -6.32 67 -7 67 C-5.937015 63.80120255 -4.86594744 60.60557611 -3.78125 57.4140625 C-3.3584375 56.16367188 -2.935625 54.91328125 -2.5 53.625 C-2.0771875 52.37976563 -1.654375 51.13453125 -1.21875 49.8515625 C-0.8065264 48.56961387 -0.40027576 47.28572933 0 46 C0.19634033 45.37279053 0.39268066 44.74558105 0.5949707 44.09936523 C2.14044305 38.64592815 2.26745423 33.45558531 2.1875 27.8125 C2.18685547 26.93658203 2.18621094 26.06066406 2.18554688 25.15820312 C2.15684482 20.9517574 1.91110374 17.11818889 1 13 C0.95847226 11.29217149 0.95821841 9.58282232 1 7.875 C1.07489463 4.7949584 0.98845393 2.96536178 0 0 Z " fill="#E79028" transform="translate(338,125)"/>
<path d="M0 0 C-0.27734375 1.89453125 -0.27734375 1.89453125 -1 4 C-14.13680913 10.22269906 -32.9360022 8.87519971 -47 7 C-44.59916598 4.59916598 -43.85016879 4.6934266 -40.5546875 4.47265625 C-39.64984619 4.4041748 -38.74500488 4.33569336 -37.81274414 4.26513672 C-36.35856079 4.16483154 -36.35856079 4.16483154 -34.875 4.0625 C-26.56089754 3.41309844 -18.55819156 2.34626171 -10.41015625 0.5859375 C-6.87521979 -0.0214399 -3.57951762 -0.10057393 0 0 Z " fill="#EF9528" transform="translate(205,294)"/>
<path d="M0 0 C1.32 0 2.64 0 4 0 C5.65 4.95 7.3 9.9 9 15 C9 13.35 9 11.7 9 10 C12.465 11.485 12.465 11.485 16 13 C15.95875 13.94875 15.9175 14.8975 15.875 15.875 C15.65026182 19.10244856 15.65026182 19.10244856 18 21 C17.625 23.125 17.625 23.125 17 25 C15.35 23.02 13.7 21.04 12 19 C11.34 19.33 10.68 19.66 10 20 C10 20.66 10 21.32 10 22 C10.66 22.33 11.32 22.66 12 23 C11.67 24.32 11.34 25.64 11 27 C3.58138203 18.94550049 0.22958097 10.97814469 0 0 Z " fill="#060405" transform="translate(249,120)"/>
<path d="M0 0 C3.14922807 4.72384211 2.66919081 9.39488493 1.64697266 14.90185547 C0.01272672 22.44913332 -2.02658897 29.86381354 -5 37 C-6.32 37 -7.64 37 -9 37 C-9.66 37.99 -10.32 38.98 -11 40 C-11.66 39.67 -12.32 39.34 -13 39 C-12.52949219 37.97261719 -12.05898438 36.94523437 -11.57421875 35.88671875 C-6.70164616 25.10388398 -3.32235902 14.83846905 -1.4296875 3.1171875 C-1 1 -1 1 0 0 Z " fill="#413338" transform="translate(330,155)"/>
<path d="M0 0 C4.2742558 1.5830577 6.26531794 4.50568404 9 8 C10.32 7.34 11.64 6.68 13 6 C12.01 7.485 12.01 7.485 11 9 C11.66 9.66 12.32 10.32 13 11 C15.09291157 10.91428339 15.09291157 10.91428339 17 10 C17.33 9.01 17.66 8.02 18 7 C18 7.66 18 8.32 18 9 C18.61875 8.814375 19.2375 8.62875 19.875 8.4375 C22 8 22 8 24 9 C24 9.66 24 10.32 24 11 C23.01 11.495 23.01 11.495 22 12 C22.33 12.66 22.66 13.32 23 14 C18.05 15.485 18.05 15.485 13 17 C13.33 18.32 13.66 19.64 14 21 C12.5 19.75 12.5 19.75 11 18 C11 16.68 11 15.36 11 14 C8.57327433 12.21030974 8.57327433 12.21030974 6 11 C6 12.65 6 14.3 6 16 C3.09973937 14.54986969 2.95045604 12.69479373 1.875 9.6875 C1.52179688 8.72199219 1.16859375 7.75648437 0.8046875 6.76171875 C0 4 0 4 0 0 Z " fill="#0F0D0E" transform="translate(253,120)"/>
<path d="M0 0 C3.125 1 3.125 1 5 2 C5 2.66 5 3.32 5 4 C5.66 4 6.32 4 7 4 C7.66 6.31 8.32 8.62 9 11 C4.71 11.66 0.42 12.32 -4 13 C-3.34 12.67 -2.68 12.34 -2 12 C-2.33 10.68 -2.66 9.36 -3 8 C-4.65 8 -6.3 8 -8 8 C-7.34 7.34 -6.68 6.68 -6 6 C-6.33 5.01 -6.66 4.02 -7 3 C-6.67 2.34 -6.34 1.68 -6 1 C-8.31 1.33 -10.62 1.66 -13 2 C-8.74959711 -0.83360193 -4.98846654 -0.41305774 0 0 Z " fill="#110D10" transform="translate(329,326)"/>
<path d="M0 0 C4.84914005 0.72359105 6.9698806 3.67699141 10.03125 7.26953125 C15.21629777 14.46069869 17.56133404 22.22668087 18 31 C16.68 31 15.36 31 14 31 C13.62488281 29.9378125 13.24976563 28.875625 12.86328125 27.78125 C10.18743395 20.34580302 7.60224311 13.49728439 3 7 C3.99 6.67 4.98 6.34 6 6 C5.01 5.38125 4.02 4.7625 3 4.125 C2.01 3.42375 1.02 2.7225 0 2 C0 1.34 0 0.68 0 0 Z " fill="#050205" transform="translate(286,100)"/>
<path d="M0 0 C0.33 0.66 0.66 1.32 1 2 C1.66 2 2.32 2 3 2 C2.31008835 5.5589345 0.85884653 8.39240746 -0.875 11.5625 C-1.38804687 12.51253906 -1.90109375 13.46257812 -2.4296875 14.44140625 C-3.81393135 16.69682844 -4.91880072 18.3818948 -7 20 C-7.99 20 -8.98 20 -10 20 C-13.1108154 20.65391779 -13.1108154 20.65391779 -14.0625 23 C-14.5265625 23.99 -14.5265625 23.99 -15 25 C-15.66 25.33 -16.32 25.66 -17 26 C-15.51323244 22.79829757 -13.68811101 20.04792684 -11.625 17.1875 C-9.50870827 14.21064151 -7.50765422 11.26442823 -5.75 8.0625 C-4.29910534 5.52343435 -3.12591689 3.92344861 -1 2 C-0.67 1.34 -0.34 0.68 0 0 Z " fill="#191216" transform="translate(321,190)"/>
<path d="M0 0 C0.66 0 1.32 0 2 0 C3.625 2.5 3.625 2.5 5 5 C5 4.01 5 3.02 5 2 C5.66 2 6.32 2 7 2 C7 1.34 7 0.68 7 0 C7.99 0.33 8.98 0.66 10 1 C10 4.3 10 7.6 10 11 C9.01 11 8.02 11 7 11 C6.01 11.33 5.02 11.66 4 12 C3.01 12 2.02 12 1 12 C-2.00617269 8.99382731 -1.59585316 6.17618402 -2 2 C-1.34 2 -0.68 2 0 2 C0 1.34 0 0.68 0 0 Z " fill="#211920" transform="translate(154,371)"/>
<path d="M0 0 C0 1.32 0 2.64 0 4 C1.98 3.67 3.96 3.34 6 3 C5.25 5.4375 5.25 5.4375 4 8 C1.875 8.8125 1.875 8.8125 0 9 C0 9.66 0 10.32 0 11 C-5.29230769 14.07692308 -5.29230769 14.07692308 -8.875 13.6875 C-9.57625 13.460625 -10.2775 13.23375 -11 13 C-10.67 11.68 -10.34 10.36 -10 9 C-8.68 8.67 -7.36 8.34 -6 8 C-6.33 6.35 -6.66 4.7 -7 3 C-2.25 0 -2.25 0 0 0 Z " fill="#F7941C" transform="translate(301,237)"/>
<path d="M0 0 C0.66 0.33 1.32 0.66 2 1 C1.02615783 7.32997408 -3.54274888 11.76017577 -8 16 C-8.886875 16.928125 -9.77375 17.85625 -10.6875 18.8125 C-13 21 -13 21 -15 21 C-15.33 20.01 -15.66 19.02 -16 18 C-15.401875 17.649375 -14.80375 17.29875 -14.1875 16.9375 C-11.744909 14.77406226 -11.18684704 12.90347252 -10.0546875 9.9140625 C-7.96570444 6.1229451 -4.34349408 3.65380471 -1 1 C-0.67 0.67 -0.34 0.34 0 0 Z " fill="#100D0D" transform="translate(312,208)"/>
<path d="M0 0 C3.3 0 6.6 0 10 0 C10 2.31 10 4.62 10 7 C5.9472484 7.98248524 2.16138263 8.08159574 -2 8 C-2 11.63 -2 15.26 -2 19 C-2.33 19 -2.66 19 -3 19 C-3 14.71 -3 10.42 -3 6 C-2.34 6 -1.68 6 -1 6 C-0.67 4.02 -0.34 2.04 0 0 Z " fill="#110F12" transform="translate(102,340)"/>
<path d="M0 0 C2.15305957 3.85756507 3.39253254 6.55129785 3 11 C-2.23170732 13.02134146 -2.23170732 13.02134146 -5.25 12.9375 C-7 12 -7 12 -8.3125 9.6875 C-9.0466364 6.81769407 -9.31949717 5.63899434 -8 3 C-5.09303401 0.85802506 -3.64478912 0 0 0 Z M-5 4 C-4.67 4.66 -4.34 5.32 -4 6 C-3.34 5.34 -2.68 4.68 -2 4 C-2.99 4 -3.98 4 -5 4 Z M-4 6 C-3.67 6.66 -3.34 7.32 -3 8 C-2.34 7.34 -1.68 6.68 -1 6 C-1.99 6 -2.98 6 -4 6 Z " fill="#20171F" transform="translate(147,371)"/>
<path d="M0 0 C0.66 0 1.32 0 2 0 C2.85916096 4.44147569 3.11697565 8.62769824 3.09765625 13.1484375 C3.0962413 13.80582916 3.09482635 14.46322083 3.09336853 15.14053345 C3.08781762 17.21873731 3.07527465 19.29682927 3.0625 21.375 C3.05747864 22.79296718 3.05291685 24.21093607 3.04882812 25.62890625 C3.03786437 29.08597322 3.02063421 32.54297567 3 36 C2.01 36.495 2.01 36.495 1 37 C0.49255713 39.01593507 0.49255713 39.01593507 0.1875 41.4375 C-0.8373264 47.21152193 -3.16285107 51.91045803 -6 57 C-6.66 57 -7.32 57 -8 57 C-6.937015 53.80120255 -5.86594744 50.60557611 -4.78125 47.4140625 C-4.3584375 46.16367188 -3.935625 44.91328125 -3.5 43.625 C-3.0771875 42.37976563 -2.654375 41.13453125 -2.21875 39.8515625 C-1.80638396 38.56965968 -1.40013732 37.28577242 -1 36 C-0.7054895 35.05592285 -0.7054895 35.05592285 -0.4050293 34.09277344 C1.11976308 28.69808375 1.26784982 23.58219774 1.1875 18 C1.1865332 16.72382813 1.1865332 16.72382813 1.18554688 15.421875 C1.14950855 10.20032274 0.74762084 5.16755523 0 0 Z " fill="#D59548" transform="translate(339,135)"/>
<path d="M0 0 C2.36574234 3.5486135 2.10865265 4.5764525 1.625 8.6875 C1.45871094 10.17830078 1.45871094 10.17830078 1.2890625 11.69921875 C1.14597656 12.83810547 1.14597656 12.83810547 1 14 C1.66 14.33 2.32 14.66 3 15 C2.360625 15.12375 1.72125 15.2475 1.0625 15.375 C0.381875 15.58125 -0.29875 15.7875 -1 16 C-1.33 16.66 -1.66 17.32 -2 18 C-2.66 16.68 -3.32 15.36 -4 14 C-4.66 15.32 -5.32 16.64 -6 18 C-7.98 17.01 -9.96 16.02 -12 15 C-12 14.01 -12 13.02 -12 12 C-11.34 12 -10.68 12 -10 12 C-9.67 11.01 -9.34 10.02 -9 9 C-7.0625 8.375 -7.0625 8.375 -5 8 C-4.34 7.67 -3.68 7.34 -3 7 C-3 7.99 -3 8.98 -3 10 C-2.34 10 -1.68 10 -1 10 C-0.67 6.7 -0.34 3.4 0 0 Z " fill="#0F0D10" transform="translate(233,330)"/>
<path d="M0 0 C2.125 0.9375 2.125 0.9375 4 2 C-5.74520394 11.5386582 -16.61582217 21.06591479 -29 27 C-28.505 25.515 -28.505 25.515 -28 24 C-27.34 24 -26.68 24 -26 24 C-26 23.34 -26 22.68 -26 22 C-25.01 22 -24.02 22 -23 22 C-23 21.01 -23 20.02 -23 19 C-22.01 19 -21.02 19 -20 19 C-20 18.34 -20 17.68 -20 17 C-17.35261084 15.5393715 -16.10551666 15 -13 15 C-13 14.01 -13 13.02 -13 12 C-11 10.66666667 -9 9.33333333 -7 8 C-7 7.01 -7 6.02 -7 5 C-6.01 5 -5.02 5 -4 5 C-2.66018514 4.6937566 -1.32488113 4.36548445 0 4 C0 3.34 0 2.68 0 2 C-0.66 1.67 -1.32 1.34 -2 1 C-1.34 0.67 -0.68 0.34 0 0 Z " fill="#D09042" transform="translate(301,244)"/>
<path d="M0 0 C0.61875 0.33 1.2375 0.66 1.875 1 C3.91018344 2.14193235 3.91018344 2.14193235 6 2 C6.33 1.34 6.66 0.68 7 0 C9.23551759 3.35327639 9.17283528 3.90743657 8.625 7.6875 C8.45871094 8.89986328 8.45871094 8.89986328 8.2890625 10.13671875 C8.19367188 10.75160156 8.09828125 11.36648438 8 12 C7.38640625 11.65195312 6.7728125 11.30390625 6.140625 10.9453125 C5.43421875 10.63335937 4.7278125 10.32140625 4 10 C1.76529595 10.78309467 1.76529595 10.78309467 0 12 C-2.31332486 8.53001271 -2.33957563 7.07490752 -2 3 C-1.34 2.01 -0.68 1.02 0 0 Z " fill="#20151D" transform="translate(285,371)"/>
<path d="M0 0 C-0.33 1.32 -0.66 2.64 -1 4 C-8.72888819 5.95403042 -16.05042008 6.22428282 -24 6 C-23.67 5.01 -23.34 4.02 -23 3 C-20.48056604 2.49187886 -17.95983127 1.99335466 -15.4375 1.5 C-14.73302734 1.35691406 -14.02855469 1.21382813 -13.30273438 1.06640625 C-8.78109762 0.19125075 -4.60512972 -0.14523405 0 0 Z " fill="#F99321" transform="translate(205,294)"/>
<path d="M0 0 C3.125 0.25 3.125 0.25 5.0625 1.375 C6.64170608 4.16183425 5.76153758 6.19461962 5.125 9.25 C5.455 10.24 5.785 11.23 6.125 12.25 C4.949375 11.755 4.949375 11.755 3.75 11.25 C1.28167503 10.13133489 1.28167503 10.13133489 -0.875 10.25 C-0.875 10.91 -0.875 11.57 -0.875 12.25 C-1.865 11.92 -2.855 11.59 -3.875 11.25 C-3.90188151 9.60425434 -3.92134123 7.95838587 -3.9375 6.3125 C-3.94910156 5.39597656 -3.96070313 4.47945313 -3.97265625 3.53515625 C-3.82640861 0.11296148 -3.46202801 0.30104591 0 0 Z M0.125 7.25 C1.125 9.25 1.125 9.25 1.125 9.25 Z " fill="#261E24" transform="translate(329.875,370.75)"/>
<path d="M0 0 C0.7425 0.37125 1.485 0.7425 2.25 1.125 C4.94283647 2.29515863 4.94283647 2.29515863 7.3125 1.125 C7.869375 0.75375 8.42625 0.3825 9 0 C9.76173392 4.3164922 10.16063604 7.74433453 9 12 C7.02 11.34 5.04 10.68 3 10 C3 10.66 3 11.32 3 12 C2.01 12 1.02 12 0 12 C-1.03159626 8.90521121 -0.97482862 7.47368607 -0.5625 4.3125 C-0.46066406 3.50425781 -0.35882813 2.69601562 -0.25390625 1.86328125 C-0.17011719 1.24839844 -0.08632812 0.63351562 0 0 Z " fill="#1D161C" transform="translate(191,371)"/>
<path d="M0 0 C0.763125 0.103125 1.52625 0.20625 2.3125 0.3125 C5.38942308 5.60480769 5.38942308 5.60480769 5 9.1875 C4.773125 9.88875 4.54625 10.59 4.3125 11.3125 C0.61708414 12.26274979 -1.99208414 12.26274979 -5.6875 11.3125 C-6.03790691 6.29000094 -5.96597991 0.69371859 0 0 Z M-1.6875 3.3125 C-1.6875 4.3025 -1.6875 5.2925 -1.6875 6.3125 C-1.0275 5.6525 -0.3675 4.9925 0.3125 4.3125 C-0.3475 3.9825 -1.0075 3.6525 -1.6875 3.3125 Z M1.3125 4.3125 C2.3125 6.3125 2.3125 6.3125 2.3125 6.3125 Z M-1.6875 6.3125 C-1.6875 9.3125 -1.6875 9.3125 -1.6875 9.3125 Z " fill="#201A20" transform="translate(264.6875,370.6875)"/>
<path d="M0 0 C0 0.66 0 1.32 0 2 C0.66 2 1.32 2 2 2 C2.66 4.64 3.32 7.28 4 10 C-2.625 12.125 -2.625 12.125 -6 11 C-6.75 7.75 -6.75 7.75 -7 4 C-4.73286026 0.84219822 -3.93892809 0 0 0 Z M-2 3 C-2.33 3.66 -2.66 4.32 -3 5 C-2.34 5 -1.68 5 -1 5 C-1.33 4.34 -1.66 3.68 -2 3 Z M-3 7 C-2.34 7.66 -1.68 8.32 -1 9 C-1 8.34 -1 7.68 -1 7 C-1.66 7 -2.32 7 -3 7 Z " fill="#1D1319" transform="translate(229,371)"/>
<path d="M0 0 C0.99 0 1.98 0 3 0 C3 0.99 3 1.98 3 3 C5.475 3.495 5.475 3.495 8 4 C7.01 5.485 7.01 5.485 6 7 C1.05 6.67 -3.9 6.34 -9 6 C-9 6.66 -9 7.32 -9 8 C-11.4375 7.1875 -11.4375 7.1875 -14 6 C-14.33 5.01 -14.66 4.02 -15 3 C-11.62605384 2.27701154 -9.22714877 1.95546103 -5.8125 2.625 C-4.4203125 2.810625 -4.4203125 2.810625 -3 3 C-1.2912354 1.62485459 -1.2912354 1.62485459 0 0 Z " fill="#977C58" transform="translate(136,288)"/>
<path d="M0 0 C2 2 4 4 6 6 C6.66 5.01 7.32 4.02 8 3 C7.91253716 4.43861294 7.80434652 5.87597508 7.6875 7.3125 C7.62949219 8.11300781 7.57148438 8.91351563 7.51171875 9.73828125 C6.91793306 12.36272334 6.04219706 13.30820672 4 15 C1.33333333 12.33333333 -1.33333333 9.66666667 -4 7 C-3.67 6.34 -3.34 5.68 -3 5 C-1.515 5.99 -1.515 5.99 0 7 C-0.66 5.02 -1.32 3.04 -2 1 C-1.34 0.67 -0.68 0.34 0 0 Z " fill="#211E21" transform="translate(260,138)"/>
<path d="M0 0 C-0.375 2.9375 -0.375 2.9375 -1 6 C-1.99 6.495 -1.99 6.495 -3 7 C-2.01 7.33 -1.02 7.66 0 8 C-0.33 8.99 -0.66 9.98 -1 11 C-3.31 11 -5.62 11 -8 11 C-8.87867729 7.26562152 -9.08912219 3.83225427 -9 0 C-3.375 -1.125 -3.375 -1.125 0 0 Z M-5 2 C-5 2.66 -5 3.32 -5 4 C-4.01 3.67 -3.02 3.34 -2 3 C-2.99 2.67 -3.98 2.34 -5 2 Z " fill="#241C23" transform="translate(348,372)"/>
<path d="M0 0 C2.59276913 2.40757133 2.98197341 3.68753905 3.1875 7.25 C3.125625 8.1575 3.06375 9.065 3 10 C2.360625 10.12375 1.72125 10.2475 1.0625 10.375 C0.381875 10.58125 -0.29875 10.7875 -1 11 C-1.33 11.66 -1.66 12.32 -2 13 C-6.67730802 10.72131148 -6.67730802 10.72131148 -8.0625 7.625 C-8 5 -8 5 -6.3125 2.1875 C-4 0 -4 0 0 0 Z M-3.5625 4.5 C-4.036875 4.995 -4.51125 5.49 -5 6 C-4.67 6.99 -4.34 7.98 -4 9 C-2.68 9 -1.36 9 0 9 C-0.33 7.02 -0.66 5.04 -1 3 C-2.24076302 2.88457803 -2.24076302 2.88457803 -3.5625 4.5 Z " fill="#110C11" transform="translate(253,371)"/>
<path d="M0 0 C3.3 0 6.6 0 10 0 C10.33 1.98 10.66 3.96 11 6 C5.39 6 -0.22 6 -6 6 C-5.34 5.67 -4.68 5.34 -4 5 C-4 4.34 -4 3.68 -4 3 C-2.68 3 -1.36 3 0 3 C0 2.01 0 1.02 0 0 Z " fill="#030102" transform="translate(280,328)"/>
<path d="M0 0 C6.93 0.495 6.93 0.495 14 1 C14 1.66 14 2.32 14 3 C12.35 3.33 10.7 3.66 9 4 C19.56 4 30.12 4 41 4 C35.44560791 6.77719605 30.4513824 6.33534337 24.3203125 6.31567383 C22.27028357 6.3125311 20.22172391 6.33592697 18.171875 6.36132812 C11.07892973 6.36481875 5.41956091 6.11924819 -1 3 C-0.67 2.01 -0.34 1.02 0 0 Z " fill="#3C312F" transform="translate(139,288)"/>
<path d="M0 0 C2.33218272 0.84806644 3.44954313 1.8950996 5.0625 3.75 C4.4025 3.75 3.7425 3.75 3.0625 3.75 C2.7325 4.41 2.4025 5.07 2.0625 5.75 C1.0725 5.09 0.0825 4.43 -0.9375 3.75 C-1.2675 4.74 -1.5975 5.73 -1.9375 6.75 C0.0425 6.75 2.0225 6.75 4.0625 6.75 C4.0625 7.74 4.0625 8.73 4.0625 9.75 C1.91727846 11.05245593 0.53584158 11.76434368 -2 11.6875 C-4.75271623 10.35554053 -5.57178879 8.41313685 -6.9375 5.75 C-3.44328258 -0.44429453 -3.44328258 -0.44429453 0 0 Z " fill="#161016" transform="translate(131.9375,371.25)"/>
<path d="M0 0 C5.98866929 0.70454933 10.07729417 3.71206337 13.875 8.25 C14.57625 9.1575 15.2775 10.065 16 11 C14 10 12 9 10 8 C10.66 10.31 11.32 12.62 12 15 C10.29115995 13.37660195 8.62553283 11.70680947 7 10 C7 9.34 7 8.68 7 8 C6.401875 7.7525 5.80375 7.505 5.1875 7.25 C2.68373081 5.81927475 1.51927612 4.4308418 0 2 C0 1.34 0 0.68 0 0 Z " fill="#C6934E" transform="translate(324,112)"/>
<path d="M0 0 C0 0.99 0 1.98 0 3 C-1.010625 3.4125 -2.02125 3.825 -3.0625 4.25 C-10.13390734 6.92820507 -10.13390734 6.92820507 -14.9375 12.125 C-16 14 -16 14 -17.8515625 14.58984375 C-19.30127198 14.89976398 -20.75902352 15.17459872 -22.22265625 15.41015625 C-22.80917969 15.60480469 -23.39570313 15.79945313 -24 16 C-24.33 16.99 -24.66 17.98 -25 19 C-26.98 18.67 -28.96 18.34 -31 18 C-28.17040745 15.77022891 -25.31870345 14.03494921 -22.125 12.375 C-16.74616914 9.5004831 -11.66427353 6.2787494 -6.59619141 2.89599609 C-2.20685027 0 -2.20685027 0 0 0 Z " fill="#D08D40" transform="translate(266,260)"/>
<path d="M0 0 C3 1 3 1 5 4 C5.66 2.68 6.32 1.36 7 0 C7.66 0.33 8.32 0.66 9 1 C9 4.3 9 7.6 9 11 C8.01 11 7.02 11 6 11 C6 9.68 6 8.36 6 7 C4.68 7 3.36 7 2 7 C2.33 8.65 2.66 10.3 3 12 C1.68 11.34 0.36 10.68 -1 10 C-0.67 6.7 -0.34 3.4 0 0 Z " fill="#140F15" transform="translate(301,371)"/>
<path d="M0 0 C2.33944736 0.28730055 4.6739143 0.61936779 7 1 C7 2.98 7 4.96 7 7 C5.35 7.33 3.7 7.66 2 8 C3.65 8.33 5.3 8.66 7 9 C7 9.99 7 10.98 7 12 C4.42143135 12.92091738 3.4056713 13.18506902 0.859375 12.0234375 C0.24578125 11.68570312 -0.3678125 11.34796875 -1 11 C-1.02688151 9.35425434 -1.04634123 7.70838587 -1.0625 6.0625 C-1.07410156 5.14597656 -1.08570313 4.22945313 -1.09765625 3.28515625 C-1 1 -1 1 0 0 Z M3 3 C3 3.66 3 4.32 3 5 C3.99 4.67 4.98 4.34 6 4 C5.01 3.67 4.02 3.34 3 3 Z " fill="#1D161C" transform="translate(315,371)"/>
<path d="M0 0 C0.66 0.33 1.32 0.66 2 1 C-0.17693152 3.71697712 -2.36842066 6.42185868 -4.5625 9.125 C-5.17158203 9.88554687 -5.78066406 10.64609375 -6.40820312 11.4296875 C-10.27095161 16.17126235 -14.23577629 20.16164216 -19 24 C-19 22.68 -19 21.36 -19 20 C-18.34 20 -17.68 20 -17 20 C-16.67 19.01 -16.34 18.02 -16 17 C-15.34 17 -14.68 17 -14 17 C-13.67 15.68 -13.34 14.36 -13 13 C-12.01 13 -11.02 13 -10 13 C-9.7525 12.2575 -9.505 11.515 -9.25 10.75 C-7.88022273 7.73649001 -6.4307906 6.21630907 -4 4 C-3.2575 3.2575 -2.515 2.515 -1.75 1.75 C-1.1725 1.1725 -0.595 0.595 0 0 Z " fill="#D98E31" transform="translate(330,216)"/>
<path d="M0 0 C0.66 0.33 1.32 0.66 2 1 C1.1875 3.4375 1.1875 3.4375 0 6 C-0.99 6.33 -1.98 6.66 -3 7 C-2.67 8.65 -2.34 10.3 -2 12 C-2.66 12 -3.32 12 -4 12 C-4.33 12.66 -4.66 13.32 -5 14 C-5 13.34 -5 12.68 -5 12 C-7.64 13.98 -10.28 15.96 -13 18 C-13.99 17.34 -14.98 16.68 -16 16 C-14.50260417 14.76302083 -13.00520833 13.52604167 -11.5078125 12.2890625 C-10.28948839 11.24749008 -9.13339903 10.13339903 -8 9 C-7.195625 8.21625 -6.39125 7.4325 -5.5625 6.625 C-3.48423407 4.49604466 -1.70652177 2.42505725 0 0 Z " fill="#1A1214" transform="translate(300,219)"/>
<path d="M0 0 C0.33 0 0.66 0 1 0 C1.05834353 3.22909006 1.09371115 6.45804338 1.125 9.6875 C1.14175781 10.59951172 1.15851563 11.51152344 1.17578125 12.45117188 C1.20936169 17.06848227 1.23556185 20.81932331 -1 25 C-1.66 25 -2.32 25 -3 25 C-3.55353075 6.95899772 -3.55353075 6.95899772 0 0 Z " fill="#F29431" transform="translate(351,152)"/>
<path d="M0 0 C2.31 0.33 4.62 0.66 7 1 C7.33 2.65 7.66 4.3 8 6 C4.25 9 4.25 9 2 9 C0.37485532 10.45833358 0.37485532 10.45833358 -1 12 C-2.42857143 3.42857143 -2.42857143 3.42857143 0 0 Z " fill="#1E171D" transform="translate(169,371)"/>
<path d="M0 0 C0.33 0.99 0.66 1.98 1 3 C0.01 3.33 -0.98 3.66 -2 4 C-2 4.99 -2 5.98 -2 7 C-2.928125 7.12375 -2.928125 7.12375 -3.875 7.25 C-6.14390805 7.78597843 -6.14390805 7.78597843 -7 9.8125 C-7.33 10.534375 -7.66 11.25625 -8 12 C-9.31200404 13.35432675 -10.64631404 14.68733482 -12 16 C-12.515625 16.721875 -13.03125 17.44375 -13.5625 18.1875 C-15 20 -15 20 -18 21 C-18.33 21.66 -18.66 22.32 -19 23 C-20.97888961 23.72693904 -22.97954558 24.39816251 -25 25 C-15.5 15.5 -15.5 15.5 -13.15234375 13.16015625 C-11.88374815 11.88695595 -10.6225495 10.60617815 -9.37890625 9.30859375 C-8.28716905 8.17150248 -7.14891673 7.07928542 -6 6 C-5.34 6 -4.68 6 -4 6 C-3.566875 5.071875 -3.566875 5.071875 -3.125 4.125 C-2 2 -2 2 0 0 Z " fill="#C0863E" transform="translate(307,224)"/>
<path d="M0 0 C0.66 0.66 1.32 1.32 2 2 C0.02 2.99 0.02 2.99 -2 4 C-1.34 4 -0.68 4 0 4 C-0.8125 6.9375 -0.8125 6.9375 -2 10 C-5 11 -5 11 -7 11 C-7.12375 11.5775 -7.2475 12.155 -7.375 12.75 C-8.00648824 15.02335767 -8.88858191 16.9253529 -10 19 C-11.00045199 15.88748269 -11.04505214 14.09092142 -10 11 C-8.93983551 9.23034082 -7.80817494 7.50239332 -6.625 5.8125 C-6.01914062 4.93207031 -5.41328125 4.05164063 -4.7890625 3.14453125 C-3 1 -3 1 0 0 Z " fill="#100D0F" transform="translate(264,188)"/>
<path d="M0 0 C3.79555331 2.53036888 4.4455386 4.78074764 6 9 C6 9.99 6 10.98 6 12 C5.0925 11.62875 4.185 11.2575 3.25 10.875 C0.11902985 9.69640701 0.11902985 9.69640701 -2.375 10.875 C-2.91125 11.24625 -3.4475 11.6175 -4 12 C-3.5317879 7.22423661 -2.75668002 3.95523655 0 0 Z " fill="#1B141B" transform="translate(276,371)"/>
<path d="M0 0 C2.72647685 2.35468455 3.98756342 4.5408417 5 8 C4.625 10.3125 4.625 10.3125 4 12 C1 10.5 1 10.5 -2 9 C-2.33 9.99 -2.66 10.98 -3 12 C-3.66 11.34 -4.32 10.68 -5 10 C-5 9.01 -5 8.02 -5 7 C-4.34 7 -3.68 7 -3 7 C-3.061875 6.21625 -3.12375 5.4325 -3.1875 4.625 C-3.125625 3.75875 -3.06375 2.8925 -3 2 C-2.01 1.34 -1.02 0.68 0 0 Z " fill="#1A1317" transform="translate(183,371)"/>
<path d="M0 0 C0.33 0 0.66 0 1 0 C1.19652332 4.43714898 1.38067922 8.87472615 1.5625 13.3125 C1.61857422 14.57513672 1.67464844 15.83777344 1.73242188 17.13867188 C1.78076172 18.34716797 1.82910156 19.55566406 1.87890625 20.80078125 C1.9260376 21.91622314 1.97316895 23.03166504 2.02172852 24.1809082 C2 27 2 27 1 30 C3.97 30 6.94 30 10 30 C10 30.33 10 30.66 10 31 C7.03 31.33 4.06 31.66 1 32 C-0.86082493 28.27835014 -1.25010705 27.15356751 -1.23046875 23.26171875 C-1.22853516 22.35873047 -1.22660156 21.45574219 -1.22460938 20.52539062 C-1.21236328 19.58888672 -1.20011719 18.65238281 -1.1875 17.6875 C-1.18685547 16.76259766 -1.18621094 15.83769531 -1.18554688 14.88476562 C-1.15316857 9.82295748 -0.86015354 4.98889055 0 0 Z " fill="#222022" transform="translate(89,329)"/>
<path d="M0 0 C0.66 0.33 1.32 0.66 2 1 C2.33 1.99 2.66 2.98 3 4 C2.525625 4.7425 2.05125 5.485 1.5625 6.25 C-0.3967833 9.6983386 -0.07115533 12.08645688 0 16 C-1 18.4375 -1 18.4375 -2 20 C-2.33 17.36 -2.66 14.72 -3 12 C-3.66 12.66 -4.32 13.32 -5 14 C-5.34858377 9.11982725 -4.48426393 6.20413897 -2 2 C-1.34 1.34 -0.68 0.68 0 0 Z " fill="#0A090B" transform="translate(293,171)"/>
<path d="M0 0 C0.99 0 1.98 0 3 0 C3 0.66 3 1.32 3 2 C3.66 2.33 4.32 2.66 5 3 C5.33 2.67 5.66 2.34 6 2 C6.66 1.34 7.32 0.68 8 0 C9.26776456 3.80329367 8.3809651 5.31742641 7 9 C6.67 9.99 6.34 10.98 6 12 C3 11 3 11 1.8125 9.1875 C1 7 1 7 1 3 C0.34 2.67 -0.32 2.34 -1 2 C-0.67 1.34 -0.34 0.68 0 0 Z " fill="#120E12" transform="translate(203,371)"/>
<path d="M0 0 C0.66 0.33 1.32 0.66 2 1 C1.43224464 2.29858939 0.84508337 3.58870441 0.25 4.875 C-0.07484375 5.59429687 -0.3996875 6.31359375 -0.734375 7.0546875 C-2.26645597 9.40955269 -3.36739592 10.07084562 -6 11 C-8.140625 11.1953125 -8.140625 11.1953125 -10.25 11.125 C-12.10625 11.063125 -12.10625 11.063125 -14 11 C-11.14325205 7.98306057 -8.17651069 5.59445469 -4.75 3.25 C-3.85796875 2.63640625 -2.9659375 2.0228125 -2.046875 1.390625 C-1.03367187 0.70226562 -1.03367187 0.70226562 0 0 Z " fill="#E4993B" transform="translate(280,249)"/>
<path d="M0 0 C1.37478516 0.01740234 1.37478516 0.01740234 2.77734375 0.03515625 C3.69644531 0.04417969 4.61554688 0.05320312 5.5625 0.0625 C6.27277344 0.07410156 6.98304688 0.08570313 7.71484375 0.09765625 C3.60078318 2.84036329 -0.4726273 3.32594789 -5.28515625 4.22265625 C-6.22963623 4.40151367 -7.17411621 4.58037109 -8.1472168 4.76464844 C-14.56597558 5.92456526 -20.75363958 6.64832276 -27.28515625 6.09765625 C-27.28515625 5.76765625 -27.28515625 5.43765625 -27.28515625 5.09765625 C-26.56336182 4.98172119 -25.84156738 4.86578613 -25.09790039 4.74633789 C-21.84712676 4.22179971 -18.59739552 3.69106334 -15.34765625 3.16015625 C-14.21134766 2.97775391 -13.07503906 2.79535156 -11.90429688 2.60742188 C-10.82470703 2.43017578 -9.74511719 2.25292969 -8.6328125 2.0703125 C-7.63258057 1.90797119 -6.63234863 1.74562988 -5.60180664 1.57836914 C-2.99295286 1.03702305 -2.65516579 0.11346862 0 0 Z " fill="#D89A51" transform="translate(203.28515625,297.90234375)"/>
<path d="M0 0 C0.66 0.33 1.32 0.66 2 1 C2.99 1 3.98 1 5 1 C5.33 1.99 5.66 2.98 6 4 C4 7 4 7 1 7.9375 C-2.10948249 8.69549584 -2.10948249 8.69549584 -3.375 11.125 C-3.58125 11.74375 -3.7875 12.3625 -4 13 C-4.49230769 5.73846154 -4.49230769 5.73846154 -2 2 C-1.34 1.34 -0.68 0.68 0 0 Z " fill="#120E0F" transform="translate(314,328)"/>
<path d="M0 0 C3.7952131 1.49097658 5.61042731 3.75700849 8 7 C7.01 8.485 7.01 8.485 6 10 C5.83300768 13.12521833 5.83300768 13.12521833 6 16 C3.09973937 14.54986969 2.95045604 12.69479373 1.875 9.6875 C1.52179688 8.72199219 1.16859375 7.75648437 0.8046875 6.76171875 C0 4 0 4 0 0 Z " fill="#161416" transform="translate(253,120)"/>
<path d="M0 0 C2.125 0.9375 2.125 0.9375 4 2 C3.34 2 2.68 2 2 2 C2 2.66 2 3.32 2 4 C1.01 4 0.02 4 -1 4 C-1.28875 4.598125 -1.5775 5.19625 -1.875 5.8125 C-3 8 -3 8 -5 11 C-6.65 10.67 -8.3 10.34 -10 10 C-9 8 -8 6 -7 4 C-5.68 4 -4.36 4 -3 4 C-2.67 3.01 -2.34 2.02 -2 1 C-1.34 0.67 -0.68 0.34 0 0 Z " fill="#F4931B" transform="translate(253,270)"/>
<path d="M0 0 C0.33 0.99 0.66 1.98 1 3 C0.01 4.485 0.01 4.485 -1 6 C-0.34 6.33 0.32 6.66 1 7 C0.67 7.99 0.34 8.98 0 10 C-0.763125 9.896875 -1.52625 9.79375 -2.3125 9.6875 C-3.199375 9.790625 -4.08625 9.89375 -5 10 C-6.7536564 12.33942344 -6.7536564 12.33942344 -8 15 C-8.66 15.66 -9.32 16.32 -10 17 C-10.99 16.01 -11.98 15.02 -13 14 C-12.38125 13.7525 -11.7625 13.505 -11.125 13.25 C-8.55750184 11.73970696 -8.28184271 10.63908792 -7 8 C-5.3540349 6.31288577 -3.68762851 4.6454378 -2 3 C-1.34 2.01 -0.68 1.02 0 0 Z " fill="#120F12" transform="translate(215,222)"/>
<path d="M0 0 C2.31 0 4.62 0 7 0 C7.33 0.99 7.66 1.98 8 3 C7.67 3.66 7.34 4.32 7 5 C7.66 5.66 8.32 6.32 9 7 C9.66 7 10.32 7 11 7 C10.67 7.99 10.34 8.98 10 10 C7.40484463 9.64930333 5.47429754 9.33376494 3.3125 7.8125 C1.55068471 5.37951698 0.8285143 2.86793412 0 0 Z " fill="#040304" transform="translate(308,349)"/>
<path d="M0 0 C0.99 0 1.98 0 3 0 C3 1.65 3 3.3 3 5 C3.66 5 4.32 5 5 5 C4 7 4 7 3 8 C4.65 8 6.3 8 8 8 C8 8.99 8 9.98 8 11 C5.69 11 3.38 11 1 11 C-1.03684712 6.92630576 -1.0257259 4.41062136 0 0 Z " fill="#161618" transform="translate(235,372)"/>
<path d="M0 0 C0.87785156 -0.00515625 1.75570313 -0.0103125 2.66015625 -0.015625 C4.9375 0.25 4.9375 0.25 6.9375 2.25 C6.2775 2.25 5.6175 2.25 4.9375 2.25 C4.6075 3.9 4.2775 5.55 3.9375 7.25 C2.9475 6.92 1.9575 6.59 0.9375 6.25 C0.9375 6.91 0.9375 7.57 0.9375 8.25 C-0.3825 7.92 -1.7025 7.59 -3.0625 7.25 C-2.4025 6.92 -1.7425 6.59 -1.0625 6.25 C-1.3925 5.26 -1.7225 4.27 -2.0625 3.25 C-1.7325 2.59 -1.4025 1.93 -1.0625 1.25 C-3.3725 1.58 -5.6825 1.91 -8.0625 2.25 C-4.81167327 0.08278218 -3.77017847 -0.02221018 0 0 Z " fill="#1A1718" transform="translate(324.0625,325.75)"/>
<path d="M0 0 C0.33 0.66 0.66 1.32 1 2 C1.99 2.33 2.98 2.66 4 3 C2.18182999 5.31459868 1.24384457 5.95377187 -1.69921875 6.51171875 C-3.17841797 6.59873047 -3.17841797 6.59873047 -4.6875 6.6875 C-6.17830078 6.78611328 -6.17830078 6.78611328 -7.69921875 6.88671875 C-8.45847656 6.92410156 -9.21773438 6.96148437 -10 7 C-9.1875 4.5546875 -9.1875 4.5546875 -8 2 C-2.94736842 0.52631579 -2.94736842 0.52631579 0 2 C0 1.34 0 0.68 0 0 Z " fill="#F59417" transform="translate(311,229)"/>
<path d="M0 0 C0.66 0 1.32 0 2 0 C1.6875 1.9375 1.6875 1.9375 1 4 C0.01 4.33 -0.98 4.66 -2 5 C-2.04125 5.66 -2.0825 6.32 -2.125 7 C-3.21154348 10.72529192 -5.1204923 13.04235562 -7.5 16.0625 C-9.20695717 18.26731968 -10.63376922 20.57114528 -12 23 C-12.99 22.67 -13.98 22.34 -15 22 C-14.33613281 21.0821875 -13.67226563 20.164375 -12.98828125 19.21875 C-12.09578119 17.97957915 -11.20389339 16.73996717 -10.3125 15.5 C-9.85423828 14.86304199 -9.39597656 14.22608398 -8.92382812 13.56982422 C-6.48446869 10.15628248 -4.15345023 6.72926412 -2 3.125 C-1.34 2.09375 -0.68 1.0625 0 0 Z " fill="#CB8A41" transform="translate(329,194)"/>
<path d="M0 0 C2.85737314 0.98530108 3.94894733 1.92625726 5.6875 4.4375 C7.4587057 9.24505833 7.73742908 13.91155668 8 19 C7.34 18.67 6.68 18.34 6 18 C5.40644386 15.35139573 5.25790731 12.70802678 5 10 C4.01 9.67 3.02 9.34 2 9 C0.25 7.25 0.25 7.25 -1 5 C-0.6875 2.25 -0.6875 2.25 0 0 Z " fill="#231E22" transform="translate(231,168)"/>
<path d="M0 0 C0 0.33 0 0.66 0 1 C-3.63 1.66 -7.26 2.32 -11 3 C-10.67 4.65 -10.34 6.3 -10 8 C-10.66 7.67 -11.32 7.34 -12 7 C-12.928125 7.99 -12.928125 7.99 -13.875 9 C-16 11 -16 11 -18 11 C-17.17920711 6.25764108 -16.79754089 4.63477744 -12.9375 1.5625 C-8.72102996 -0.52794401 -4.60352459 -0.37579793 0 0 Z " fill="#1D1A1B" transform="translate(374,326)"/>
<path d="M0 0 C0.74507812 0.00451172 1.49015625 0.00902344 2.2578125 0.01367188 C4.0885764 0.02540754 5.91929873 0.0433415 7.75 0.0625 C7.75 0.3925 7.75 0.7225 7.75 1.0625 C5.11 1.3925 2.47 1.7225 -0.25 2.0625 C-0.25 3.0525 -0.25 4.0425 -0.25 5.0625 C-2.89 4.7325 -5.53 4.4025 -8.25 4.0625 C-8.25 3.4025 -8.25 2.7425 -8.25 2.0625 C-9.57 1.7325 -10.89 1.4025 -12.25 1.0625 C-8.15996141 -0.08732602 -4.21822949 -0.04844256 0 0 Z " fill="#E89233" transform="translate(160.25,297.9375)"/>
<path d="M0 0 C2.25111973 0.28289472 4.50087686 0.57664693 6.75 0.875 C8.62945312 1.11863281 8.62945312 1.11863281 10.546875 1.3671875 C13.48616408 1.9058355 15.47107147 2.48008841 18 4 C17.67 4.99 17.34 5.98 17 7 C14.03 6.67 11.06 6.34 8 6 C8 5.34 8 4.68 8 4 C5.36 3.01 2.72 2.02 0 1 C0 0.67 0 0.34 0 0 Z " fill="#E19C4A" transform="translate(129,293)"/>
<path d="M0 0 C3.8665284 3.222107 4.88059018 6.14922412 6 11 C5.01 11.495 5.01 11.495 4 12 C3.67 11.34 3.34 10.68 3 10 C2.01 10.66 1.02 11.32 0 12 C-1.0625 9.625 -1.0625 9.625 -2 7 C-1.67 6.34 -1.34 5.68 -1 5 C-0.34 5 0.32 5 1 5 C0.67 3.35 0.34 1.7 0 0 Z " fill="#161216" transform="translate(314,100)"/>
<path d="M0 0 C0.99 0.33 1.98 0.66 3 1 C2.34 1 1.68 1 1 1 C1.185625 1.61875 1.37125 2.2375 1.5625 2.875 C2 5 2 5 1 7 C2.32 7 3.64 7 5 7 C4.67 8.32 4.34 9.64 4 11 C2.02 11 0.04 11 -2 11 C-1.67 9.68 -1.34 8.36 -1 7 C-1.66 6.67 -2.32 6.34 -3 6 C-1.125 1.125 -1.125 1.125 0 0 Z " fill="#F2911D" transform="translate(262,263)"/>
<path d="M0 0 C0.33 0.66 0.66 1.32 1 2 C1.804375 2.309375 2.60875 2.61875 3.4375 2.9375 C6 4 6 4 8 7 C7.01 7.33 6.02 7.66 5 8 C5.66 9.32 6.32 10.64 7 12 C5.35 10.35 3.7 8.7 2 7 C1.34 7.99 0.68 8.98 0 10 C0 6.7 0 3.4 0 0 Z " fill="#1F1D1F" transform="translate(285,100)"/>
<path d="M0 0 C2.5625 1.9375 2.5625 1.9375 5 5 C5.14543237 8.10601995 4.6663569 10.97170479 4 14 C3.01 14.33 2.02 14.66 1 15 C1.01160156 14.25234375 1.02320313 13.5046875 1.03515625 12.734375 C1.04417969 11.74953125 1.05320312 10.7646875 1.0625 9.75 C1.07410156 8.77546875 1.08570313 7.8009375 1.09765625 6.796875 C1.01195577 4.34241322 0.70706066 2.33831086 0 0 Z " fill="#121012" transform="translate(334,341)"/>
<path d="M0 0 C0.66 0.33 1.32 0.66 2 1 C1.51421457 4.12290635 1.0013988 6.99580359 0 10 C-0.99 10 -1.98 10 -3 10 C-6.1108154 10.65391779 -6.1108154 10.65391779 -7.0625 13 C-7.5265625 13.99 -7.5265625 13.99 -8 15 C-8.99 15.495 -8.99 15.495 -10 16 C-8.46891253 12.69162003 -6.55556247 9.83763435 -4.4375 6.875 C-2.03268334 3.54908252 -2.03268334 3.54908252 0 0 Z " fill="#3F363C" transform="translate(314,200)"/>
<path d="M0 0 C2.88437779 1.29299694 4.87219421 2.65941363 7 5 C6.34 5.66 5.68 6.32 5 7 C5.33 7.66 5.66 8.32 6 9 C5.71887936 11.00800456 5.38932033 13.01014051 5 15 C3.25050228 12.37575342 2.34610019 10.44272784 1.375 7.5 C0.98441406 6.33984375 0.98441406 6.33984375 0.5859375 5.15625 C0 3 0 3 0 0 Z " fill="#DC9136" transform="translate(334,120)"/>
<path d="M0 0 C2 0 2 0 3.625 1.5 C4.07875 1.995 4.5325 2.49 5 3 C5.66 2.01 6.32 1.02 7 0 C7.99 1.98 8.98 3.96 10 6 C9.01 6 8.02 6 7 6 C7.66 9.3 8.32 12.6 9 16 C6.81668424 13.81668424 5.84685531 11.89262341 4.5 9.125 C4.0771875 8.26132813 3.654375 7.39765625 3.21875 6.5078125 C2.8165625 5.68023437 2.414375 4.85265625 2 4 C1.33513088 2.66576941 0.66914383 1.33209187 0 0 Z " fill="#1A1719" transform="translate(294,105)"/>
<path d="M0 0 C1.65 0 3.3 0 5 0 C6 3 7 6 8 9 C7.236875 8.67 6.47375 8.34 5.6875 8 C3.00930865 6.82563314 3.00930865 6.82563314 0 7 C0 4.69 0 2.38 0 0 Z M2 4 C3 6 3 6 3 6 Z " fill="#2D1E2A" transform="translate(328,374)"/>
<path d="M0 0 C-1.65 0.33 -3.3 0.66 -5 1 C-5 1.66 -5 2.32 -5 3 C-7.96178773 4.67110042 -10.37071192 5.32682752 -13.75 5.625 C-14.54921875 5.69976562 -15.3484375 5.77453125 -16.171875 5.8515625 C-16.77515625 5.90054687 -17.3784375 5.94953125 -18 6 C-18.33 5.34 -18.66 4.68 -19 4 C-16.39898714 3.13499112 -13.79493589 2.28273072 -11.1875 1.4375 C-10.44951172 1.19064453 -9.71152344 0.94378906 -8.95117188 0.68945312 C-3.33984375 -1.11328125 -3.33984375 -1.11328125 0 0 Z " fill="#CC8F47" transform="translate(212,288)"/>
<path d="M0 0 C0.99 0.33 1.98 0.66 3 1 C4.03485877 3.31808364 5.0355414 5.65175298 6 8 C6.66 8.33 7.32 8.66 8 9 C8 10.32 8 11.64 8 13 C6.68 13.33 5.36 13.66 4 14 C2.66666667 9.33333333 1.33333333 4.66666667 0 0 Z " fill="#F09225" transform="translate(338,125)"/>
<path d="M0 0 C0.66 0 1.32 0 2 0 C0.56691865 3.95906817 -1.33141949 7.28718181 -3.625 10.8125 C-4.57246094 12.27623047 -4.57246094 12.27623047 -5.5390625 13.76953125 C-6.02117187 14.50558594 -6.50328125 15.24164063 -7 16 C-7.33 15.34 -7.66 14.68 -8 14 C-7.34 13.01 -6.68 12.02 -6 11 C-5.29187186 8.67891331 -4.61975848 6.34622853 -4 4 C-2.68 3.67 -1.36 3.34 0 3 C0 2.01 0 1.02 0 0 Z " fill="#D59951" transform="translate(341,198)"/>
<path d="M0 0 C0.33 0.66 0.66 1.32 1 2 C1.66 2 2.32 2 3 2 C3.33 3.32 3.66 4.64 4 6 C3.34 6 2.68 6 2 6 C1.67 6.66 1.34 7.32 1 8 C0.21625 7.814375 -0.5675 7.62875 -1.375 7.4375 C-3.97089775 6.74037734 -3.97089775 6.74037734 -6 8 C-5.34 6.35 -4.68 4.7 -4 3 C-3.34 3 -2.68 3 -2 3 C-1.67 2.34 -1.34 1.68 -1 1 C-0.67 0.67 -0.34 0.34 0 0 Z " fill="#0E0D0E" transform="translate(223,329)"/>
<path d="M0 0 C3.875 0.875 3.875 0.875 5 2 C5.04063832 3.66617115 5.042721 5.33388095 5 7 C3.02 7.33 1.04 7.66 -1 8 C-1 5.16032769 -0.59732819 2.76264289 0 0 Z " fill="#1F1A1E" transform="translate(198,175)"/>
<path d="M0 0 C2 2 2 2 3 5 C3.66 4.34 4.32 3.68 5 3 C6.98821313 2.60235737 8.98944339 2.26224651 11 2 C11 2.99 11 3.98 11 5 C7.7 6.32 4.4 7.64 1 9 C0.67 6.03 0.34 3.06 0 0 Z " fill="#151318" transform="translate(303,122)"/>
<path d="M0 0 C0 3 0 3 -2 6 C-2.91669067 9.33342063 -3.11450049 10.65649854 -2 14 C-3.65 14 -5.3 14 -7 14 C-7.33 13.01 -7.66 12.02 -8 11 C-7.34 10.67 -6.68 10.34 -6 10 C-5.71125 9.2575 -5.4225 8.515 -5.125 7.75 C-3.86181712 4.66221961 -2.16095927 2.52111915 0 0 Z " fill="#DD8E32" transform="translate(313,217)"/>
<path d="M0 0 C-0.43197635 4.7517398 -1.32769295 6.92000054 -5 10 C-5.83241855 6.67032582 -6.2757381 4.24733335 -5 1 C-3 0 -3 0 0 0 Z " fill="#0F0A0C" transform="translate(320,198)"/>
<path d="M0 0 C0 0.99 0 1.98 0 3 C1.65 3.33 3.3 3.66 5 4 C4.01 5.485 4.01 5.485 3 7 C1.68428397 6.7452486 0.37239624 6.47065859 -0.9375 6.1875 C-1.66839844 6.03667969 -2.39929688 5.88585937 -3.15234375 5.73046875 C-3.76207031 5.48941406 -4.37179688 5.24835938 -5 5 C-5.33 4.01 -5.66 3.02 -6 2 C-3 0 -3 0 0 0 Z " fill="#63564B" transform="translate(139,288)"/>
<path d="M0 0 C0 0.99 0 1.98 0 3 C-0.94875 3.37125 -1.8975 3.7425 -2.875 4.125 C-7.15446581 5.92780155 -10.96570659 8.38376228 -14.86328125 10.890625 C-15.56839844 11.25671875 -16.27351562 11.6228125 -17 12 C-17.66 11.67 -18.32 11.34 -19 11 C-16.21312902 9.15929441 -13.41974873 7.32871822 -10.625 5.5 C-9.8309375 4.97535156 -9.036875 4.45070313 -8.21875 3.91015625 C-7.45820313 3.41386719 -6.69765625 2.91757812 -5.9140625 2.40625 C-4.8614624 1.71499023 -4.8614624 1.71499023 -3.78759766 1.00976562 C-2 0 -2 0 0 0 Z " fill="#C69157" transform="translate(266,260)"/>
<path d="M0 0 C1.32 0.66 2.64 1.32 4 2 C1.03 4.64 -1.94 7.28 -5 10 C-5.99 9.01 -6.98 8.02 -8 7 C-7.67 6.34 -7.34 5.68 -7 5 C-6.01 5 -5.02 5 -4 5 C-2.66018514 4.6937566 -1.32488113 4.36548445 0 4 C0 3.34 0 2.68 0 2 C-0.66 1.67 -1.32 1.34 -2 1 C-1.34 0.67 -0.68 0.34 0 0 Z " fill="#D68E2F" transform="translate(301,244)"/>
<path d="M0 0 C2.16721782 3.25082673 2.27221018 4.29232153 2.25 8.0625 C2.25515625 8.94035156 2.2603125 9.81820312 2.265625 10.72265625 C2 13 2 13 0 15 C-1.88178944 9.0410001 -2.19671115 5.85789639 0 0 Z " fill="#4E454F" transform="translate(330,155)"/>
<path d="M0 0 C1.51953125 1.20703125 1.51953125 1.20703125 3 3 C3.07421875 5.26171875 3.07421875 5.26171875 2.6875 7.6875 C2.50767578 8.89986328 2.50767578 8.89986328 2.32421875 10.13671875 C2.21722656 10.75160156 2.11023438 11.36648438 2 12 C1.01 11.67 0.02 11.34 -1 11 C-2.0730756 7.7807732 -1.79946725 7.09793558 -1 4 C-1.33 3.34 -1.66 2.68 -2 2 C-1.34 2 -0.68 2 0 2 C0 1.34 0 0.68 0 0 Z " fill="#171114" transform="translate(291,371)"/>
<path d="M0 0 C1.32 0.33 2.64 0.66 4 1 C4 2.32 4 3.64 4 5 C3.21625 5.28875 2.4325 5.5775 1.625 5.875 C-1.09671632 6.84912254 -1.09671632 6.84912254 -3 9 C-3 6.36 -3 3.72 -3 1 C-2.01 1.495 -2.01 1.495 -1 2 C-1.33 2.66 -1.66 3.32 -2 4 C-0.68 4 0.64 4 2 4 C2 3.01 2 2.02 2 1 C1.34 0.67 0.68 0.34 0 0 Z " fill="#100B0E" transform="translate(172,373)"/>
<path d="M0 0 C0.99 0.33 1.98 0.66 3 1 C3 4.3 3 7.6 3 11 C2.01 11.495 2.01 11.495 1 12 C0.814375 10.63875 0.814375 10.63875 0.625 9.25 C0.07890323 6.41029677 -0.57263803 4.47409409 -2 2 C-1.34 2 -0.68 2 0 2 C0 1.34 0 0.68 0 0 Z " fill="#0F0A0F" transform="translate(161,371)"/>
<path d="M0 0 C1.65 0 3.3 0 5 0 C4.67 1.98 4.34 3.96 4 6 C2.68 6.33 1.36 6.66 0 7 C-0.66 5.35 -1.32 3.7 -2 2 C-1.34 2 -0.68 2 0 2 C0 1.34 0 0.68 0 0 Z " fill="#080506" transform="translate(329,328)"/>
<path d="M0 0 C3 1 3 1 4 3 C5.65 3 7.3 3 9 3 C8.67 3.66 8.34 4.32 8 5 C4.44307323 5.85056945 2.50729422 6.16909807 -1 5 C-3.14255793 5.38932856 -3.14255793 5.38932856 -5 6 C-3.35 4.02 -1.7 2.04 0 0 Z " fill="#F89828" transform="translate(220,286)"/>
<path d="M0 0 C0.33 0 0.66 0 1 0 C1.3690205 9.41002278 1.3690205 9.41002278 -1 14 C-1.66 14 -2.32 14 -3 14 C-3.40652968 8.57960425 -2.03993514 4.92984325 0 0 Z " fill="#E29031" transform="translate(351,163)"/>
<path d="M0 0 C4.29 0 8.58 0 13 0 C13 0.33 13 0.66 13 1 C10.36 1.33 7.72 1.66 5 2 C5 2.99 5 3.98 5 5 C3.35 5 1.7 5 0 5 C-0.33 4.01 -0.66 3.02 -1 2 C-0.67 1.34 -0.34 0.68 0 0 Z " fill="#DD913B" transform="translate(147,297)"/>
<path d="M0 0 C0 0.99 0 1.98 0 3 C-0.99 3.66 -1.98 4.32 -3 5 C-6.39914975 3.86695008 -7.05254451 2.87481525 -9 0 C-5.93109813 -1.53445094 -3.29905734 -0.54984289 0 0 Z " fill="#EA8F1D" transform="translate(229,285)"/>
<path d="M0 0 C0.99 0.66 1.98 1.32 3 2 C-1.625 7.875 -1.625 7.875 -5 9 C-5.66 8.34 -6.32 7.68 -7 7 C-5.47005208 5.76302083 -3.94010417 4.52604167 -2.41015625 3.2890625 C-0.86733563 2.0333609 -0.86733563 2.0333609 0 0 Z " fill="#1B1414" transform="translate(291,228)"/>
<path d="M0 0 C2.0625 2.3125 2.0625 2.3125 4 5 C3.67 5.99 3.34 6.98 3 8 C1.35 7.67 -0.3 7.34 -2 7 C-2 5.68 -2 4.36 -2 3 C-1.34 3 -0.68 3 0 3 C0 2.01 0 1.02 0 0 Z " fill="#120F10" transform="translate(252,136)"/>
<path d="M0 0 C2.31 1.98 4.62 3.96 7 6 C6.01 6.495 6.01 6.495 5 7 C4.34786708 9.02463255 4.34786708 9.02463255 4 11 C0.87740563 7.87740563 0.85706658 4.28533288 0 0 Z " fill="#D89C41" transform="translate(340,123)"/>
<path d="M0 0 C0.66 0.33 1.32 0.66 2 1 C3.37634409 7.99641577 3.37634409 7.99641577 2.0625 11.5 C1.711875 11.995 1.36125 12.49 1 13 C0.67 10.36 0.34 7.72 0 5 C-0.66 5.66 -1.32 6.32 -2 7 C-2 5.02 -2 3.04 -2 1 C-1.34 0.67 -0.68 0.34 0 0 Z " fill="#131113" transform="translate(290,178)"/>
<path d="M0 0 C0.66 0.33 1.32 0.66 2 1 C3.2674668 7.0204673 2.77830479 11.14205483 1 17 C-0.07174763 13.34811918 0.23588533 10.73567172 1 7 C0.34 6.67 -0.32 6.34 -1 6 C-0.67 4.02 -0.34 2.04 0 0 Z " fill="#302730" transform="translate(328,163)"/>
<path d="M0 0 C-2.70045182 1.80030122 -5.06677881 2.93377066 -8.0625 4.125 C-9.37927734 4.65480469 -9.37927734 4.65480469 -10.72265625 5.1953125 C-13 6 -13 6 -15 6 C-14.67 5.01 -14.34 4.02 -14 3 C-12.02 3 -10.04 3 -8 3 C-8 2.34 -8 1.68 -8 1 C-5.29120665 -0.35439668 -2.99066732 -0.06501451 0 0 Z " fill="#D19245" transform="translate(239,288)"/>
<path d="M0 0 C1.32 0.33 2.64 0.66 4 1 C1.36 3.64 -1.28 6.28 -4 9 C-4.33 7.68 -4.66 6.36 -5 5 C-4.34 5 -3.68 5 -3 5 C-2.67 4.01 -2.34 3.02 -2 2 C-1.34 2 -0.68 2 0 2 C0 1.34 0 0.68 0 0 Z " fill="#C9943F" transform="translate(316,231)"/>
<path d="M0 0 C0.33 0.66 0.66 1.32 1 2 C1.66 2.33 2.32 2.66 3 3 C0.3151523 4.75547734 -0.92002215 5.00627277 -4.1875 4.75 C-5.115625 4.5025 -6.04375 4.255 -7 4 C-7.33 3.34 -7.66 2.68 -8 2 C-6.865625 1.855625 -5.73125 1.71125 -4.5625 1.5625 C-1.19222799 1.38828522 -1.19222799 1.38828522 0 0 Z " fill="#20191E" transform="translate(230,273)"/>
<path d="M0 0 C0.99 0 1.98 0 3 0 C6 6.625 6 6.625 6 10 C5.01 9.67 4.02 9.34 3 9 C3 8.01 3 7.02 3 6 C1.68 5.67 0.36 5.34 -1 5 C-0.01 5 0.98 5 2 5 C1.34 3.35 0.68 1.7 0 0 Z " fill="#0F090C" transform="translate(276,373)"/>
<path d="M0 0 C1.37562854 1.28965176 2.70766393 2.62689293 4 4 C4 4.66 4 5.32 4 6 C5.32 5.67 6.64 5.34 8 5 C6.875 6.5625 6.875 6.5625 5 8 C1.8125 7.6875 1.8125 7.6875 -1 7 C-1.04254356 5.00045254 -1.04080783 2.99958364 -1 1 C-0.67 0.67 -0.34 0.34 0 0 Z " fill="#120B11" transform="translate(260,375)"/>
<path d="M0 0 C2 3 2 3 1.625 5.1875 C1.41875 5.785625 1.2125 6.38375 1 7 C0.01 5.68 -0.98 4.36 -2 3 C-3.98 3.99 -3.98 3.99 -6 5 C-6 4.01 -6 3.02 -6 2 C-3 0 -3 0 0 0 Z " fill="#120A11" transform="translate(147,371)"/>
<path d="M0 0 C3.099847 1.59689088 4.31268808 4.12531571 6.0625 7.0625 C4.7425 7.0625 3.4225 7.0625 2.0625 7.0625 C2.0625 6.0725 2.0625 5.0825 2.0625 4.0625 C-0.2475 3.7325 -2.5575 3.4025 -4.9375 3.0625 C-2.55339404 0.08236755 -2.55339404 0.08236755 0 0 Z " fill="#040103" transform="translate(371.9375,329.9375)"/>
<path d="M0 0 C-1.22934015 3.68802044 -2.93859378 4.72356973 -6 7 C-8 6 -8 6 -9 4 C-8 2 -8 2 -5.0625 0.875 C-2 0 -2 0 0 0 Z " fill="#191418" transform="translate(280,245)"/>
<path d="M0 0 C1.32 0.99 2.64 1.98 4 3 C3.34 4.32 2.68 5.64 2 7 C0.68 6.67 -0.64 6.34 -2 6 C-1.34 4.02 -0.68 2.04 0 0 Z " fill="#110E10" transform="translate(259,148)"/>
<path d="M0 0 C2.16874252 0.50603992 3.99967627 0.99983813 6 2 C6 2.99 6 3.98 6 5 C6.66 5 7.32 5 8 5 C8.66 6.98 9.32 8.96 10 11 C8.29115995 9.37660195 6.62553283 7.70680947 5 6 C5 5.34 5 4.68 5 4 C4.360625 3.71125 3.72125 3.4225 3.0625 3.125 C1 2 1 2 0 0 Z " fill="#D5A463" transform="translate(326,116)"/>
<path d="M0 0 C0.99 0.33 1.98 0.66 3 1 C2.814375 2.0725 2.62875 3.145 2.4375 4.25 C2.0695432 7.40391546 1.95534657 9.09818492 3 12 C1.68 11.34 0.36 10.68 -1 10 C-0.67 6.7 -0.34 3.4 0 0 Z " fill="#19161A" transform="translate(301,371)"/>
<path d="M0 0 C0.33 1.32 0.66 2.64 1 4 C-0.65 4 -2.3 4 -4 4 C-4 4.66 -4 5.32 -4 6 C-4.99 6 -5.98 6 -7 6 C-4.84615385 0 -4.84615385 0 0 0 Z " fill="#130D10" transform="translate(229,371)"/>
<path d="M0 0 C0.33 0 0.66 0 1 0 C1.33 3.3 1.66 6.6 2 10 C0.02 9.34 -1.96 8.68 -4 8 C-3.34 6.68 -2.68 5.36 -2 4 C-1.67 4.33 -1.34 4.66 -1 5 C-0.67 3.35 -0.34 1.7 0 0 Z " fill="#0B070A" transform="translate(198,373)"/>
<path d="M0 0 C0.99 0.33 1.98 0.66 3 1 C2.67 2.32 2.34 3.64 2 5 C2.99 5 3.98 5 5 5 C5 5.66 5 6.32 5 7 C3.02 7 1.04 7 -1 7 C-1.04254356 5.00045254 -1.04080783 2.99958364 -1 1 C-0.67 0.67 -0.34 0.34 0 0 Z " fill="#0C080A" transform="translate(181,372)"/>
<path d="M0 0 C0.66 0 1.32 0 2 0 C1.67 3.96 1.34 7.92 1 12 C-2.00617269 8.99382731 -1.59585316 6.17618402 -2 2 C-1.34 2 -0.68 2 0 2 C0 1.34 0 0.68 0 0 Z " fill="#0D080D" transform="translate(154,371)"/>
<path d="M0 0 C3.95820859 0.56545837 6.6659053 1.80902348 10 4 C6.19881294 5.26706235 4.6149628 4.57172296 1 3 C0.67 2.01 0.34 1.02 0 0 Z " fill="#B2926D" transform="translate(324,112)"/>
<path d="M0 0 C0.99 0.33 1.98 0.66 3 1 C1.95125002 3.62187494 1.35068687 4.79371361 -1.125 6.25 C-1.74375 6.4975 -2.3625 6.745 -3 7 C-3.33 6.01 -3.66 5.02 -4 4 C-3.34 3.525625 -2.68 3.05125 -2 2.5625 C-1.34 2.046875 -0.68 1.53125 0 1 C0 0.67 0 0.34 0 0 Z " fill="#090605" transform="translate(300,222)"/>
<path d="M0 0 C0.33 1.32 0.66 2.64 1 4 C2.98 4 4.96 4 7 4 C7 4.66 7 5.32 7 6 C4.69 6 2.38 6 0 6 C-0.38218767 4.34385343 -0.71395102 2.67542976 -1 1 C-0.67 0.67 -0.34 0.34 0 0 Z " fill="#131113" transform="translate(340,377)"/>
<path d="M0 0 C-8.02058824 4.15882353 -8.02058824 4.15882353 -11.3125 3.625 C-11.869375 3.41875 -12.42625 3.2125 -13 3 C-12.01 3 -11.02 3 -10 3 C-10 2.34 -10 1.68 -10 1 C-6.78548731 -0.60725635 -3.56387464 -0.05748185 0 0 Z " fill="#D49C44" transform="translate(224,294)"/>
<path d="M0 0 C0.66 0.33 1.32 0.66 2 1 C-1.42388092 4.82669043 -4.00724943 6.72278474 -9 8 C-6.14723863 5.06799526 -3.34920216 2.35684596 0 0 Z " fill="#C78B46" transform="translate(280,249)"/>
<path d="M0 0 C1.32 0 2.64 0 4 0 C5.125 1.75 5.125 1.75 6 4 C5.125 6.25 5.125 6.25 4 8 C3.731875 7.401875 3.46375 6.80375 3.1875 6.1875 C2.01506533 4.02775192 0.80630718 2.64209744 -1 1 C-0.67 0.67 -0.34 0.34 0 0 Z " fill="#1D161C" transform="translate(249,371)"/>
<path d="M0 0 C0.66 0.33 1.32 0.66 2 1 C0.375 3.5 0.375 3.5 -2 6 C-5.25 6.3125 -5.25 6.3125 -8 6 C-6.32169152 2.64338305 -3.29210653 1.67493139 0 0 Z " fill="#EB9532" transform="translate(259,265)"/>
<path d="M0 0 C1.98 0.99 3.96 1.98 6 3 C2.25 6 2.25 6 0 6 C-1.125 2.25 -1.125 2.25 0 0 Z " fill="#191110" transform="translate(241,265)"/>
<path d="M0 0 C-0.33 0.66 -0.66 1.32 -1 2 C-1.99 2.33 -2.98 2.66 -4 3 C-4 3.66 -4 4.32 -4 5 C-4.66 5 -5.32 5 -6 5 C-6 4.34 -6 3.68 -6 3 C-6.99 2.67 -7.98 2.34 -9 2 C-3.375 -1.125 -3.375 -1.125 0 0 Z " fill="#1E191E" transform="translate(210,172)"/>
<path d="M0 0 C1.65 0 3.3 0 5 0 C4.25 1.9375 4.25 1.9375 3 4 C0.875 4.75 0.875 4.75 -1 5 C-0.67 3.35 -0.34 1.7 0 0 Z " fill="#DC8F36" transform="translate(267,269)"/>
<path d="M0 0 C0.99 0 1.98 0 3 0 C3 0.66 3 1.32 3 2 C3.66 2.33 4.32 2.66 5 3 C3.68 4.32 2.36 5.64 1 7 C1 5.68 1 4.36 1 3 C0.34 2.67 -0.32 2.34 -1 2 C-0.67 1.34 -0.34 0.68 0 0 Z " fill="#1B171A" transform="translate(203,371)"/>
<path d="M0 0 C0.5625 1.9375 0.5625 1.9375 1 4 C0 5 0 5 -2.28515625 5.09765625 C-3.65994141 5.08025391 -3.65994141 5.08025391 -5.0625 5.0625 C-5.98160156 5.05347656 -6.90070313 5.04445313 -7.84765625 5.03515625 C-8.55792969 5.02355469 -9.26820313 5.01195312 -10 5 C-10 4.67 -10 4.34 -10 4 C-8.906875 3.855625 -7.81375 3.71125 -6.6875 3.5625 C-3.06877013 3.11711896 -3.06877013 3.11711896 0 2 C0 1.34 0 0.68 0 0 Z " fill="#110F11" transform="translate(243,355)"/>
<path d="M0 0 C-2 2 -2 2 -3.9453125 2.1953125 C-5.96354167 2.13020833 -7.98177083 2.06510417 -10 2 C-5.86678317 -0.75547789 -4.77928863 -1.13193678 0 0 Z " fill="#F88E17" transform="translate(194,297)"/>
<path d="M0 0 C0.66 0 1.32 0 2 0 C1.67 1.65 1.34 3.3 1 5 C-1.31 5 -3.62 5 -6 5 C-5.195625 4.360625 -4.39125 3.72125 -3.5625 3.0625 C-1.7249496 1.59396498 -1.7249496 1.59396498 0 0 Z " fill="#F2932D" transform="translate(229,281)"/>
<path d="M0 0 C-3.37097383 1.49821059 -5.20442119 2 -9 2 C-8.67 1.01 -8.34 0.02 -8 -1 C-3.375 -2.25 -3.375 -2.25 0 0 Z " fill="#1F1513" transform="translate(260,261)"/>
<path d="M0 0 C0.66 0 1.32 0 2 0 C2 0.66 2 1.32 2 2 C0.04072937 3.7143618 -1.95880212 5.38405168 -4 7 C-4.66 6.67 -5.32 6.34 -6 6 C-4 4 -2 2 0 0 Z " fill="#ED9236" transform="translate(285,247)"/>
<path d="M0 0 C1.98 0.495 1.98 0.495 4 1 C4 1.66 4 2.32 4 3 C4.66 3.33 5.32 3.66 6 4 C3.66666667 4 1.33333333 4 -1 4 C-0.67 2.68 -0.34 1.36 0 0 Z " fill="#FA932E" transform="translate(291,246)"/>
<path d="M0 0 C0 0.99 0 1.98 0 3 C-2 5 -2 5 -5 6 C-5.33 5.01 -5.66 4.02 -6 3 C-3.8614515 0.8614515 -2.86724686 0.57344937 0 0 Z " fill="#19171B" transform="translate(223,217)"/>
<path d="M0 0 C0 0.99 0 1.98 0 3 C0.99 4.485 0.99 4.485 2 6 C0.35 5.67 -1.3 5.34 -3 5 C-3.33 3.68 -3.66 2.36 -4 1 C-2.68 0.67 -1.36 0.34 0 0 Z " fill="#1D1B1D" transform="translate(246,152)"/>
<path d="M0 0 C0.99 0.33 1.98 0.66 3 1 C2.01 2.98 1.02 4.96 0 7 C-2 6 -2 6 -3 4 C-2.34 4 -1.68 4 -1 4 C-0.67 2.68 -0.34 1.36 0 0 Z " fill="#171316" transform="translate(269,121)"/>
<path d="M0 0 C0.99 0.33 1.98 0.66 3 1 C3.33 4.63 3.66 8.26 4 12 C1.49484216 9.49484216 0.94900914 7.38931835 0 4 C0 2.68 0 1.36 0 0 Z " fill="#4E444E" transform="translate(253,120)"/>
<path d="M0 0 C1.65 0.33 3.3 0.66 5 1 C4.01 2.485 4.01 2.485 3 4 C1.68 4 0.36 4 -1 4 C-0.67 2.68 -0.34 1.36 0 0 Z " fill="#EE992F" transform="translate(264,266)"/>
<path d="M0 0 C0.66 0.33 1.32 0.66 2 1 C1.67 1.66 1.34 2.32 1 3 C1.66 3.33 2.32 3.66 3 4 C3 4.66 3 5.32 3 6 C2.34 6 1.68 6 1 6 C0.67 6.66 0.34 7.32 0 8 C-1.4606285 5.35261084 -2 4.10551666 -2 1 C-1.34 0.67 -0.68 0.34 0 0 Z " fill="#0B0A0C" transform="translate(219,256)"/>
<path d="M0 0 C1.32 0.66 2.64 1.32 4 2 C2.35 3.32 0.7 4.64 -1 6 C-1.66 5.67 -2.32 5.34 -3 5 C-1.125 1.125 -1.125 1.125 0 0 Z " fill="#191617" transform="translate(268,251)"/>
<path d="M0 0 C0.185625 0.9590625 0.185625 0.9590625 0.375 1.9375 C0.684375 2.9584375 0.684375 2.9584375 1 4 C1.66 4.33 2.32 4.66 3 5 C1.02 5.99 1.02 5.99 -1 7 C-1.66 6.01 -2.32 5.02 -3 4 C-2.01 3.67 -1.02 3.34 0 3 C0 2.01 0 1.02 0 0 Z " fill="#0E0B0F" transform="translate(211,205)"/>
<path d="M0 0 C0.66 0 1.32 0 2 0 C0.7508258 3.45925163 -0.67527795 6.14693203 -3 9 C-3 7.02 -3 5.04 -3 3 C-2.01 3 -1.02 3 0 3 C0 2.01 0 1.02 0 0 Z " fill="#C89A55" transform="translate(341,198)"/>
<path d="M0 0 C0.97110486 3.02121511 1.13617383 5.00463263 0 8 C-0.99 8.495 -0.99 8.495 -2 9 C-2.125 5.625 -2.125 5.625 -2 2 C-1.34 1.34 -0.68 0.68 0 0 Z " fill="#161417" transform="translate(255,198)"/>
<path d="M0 0 C3 1 3 1 4 3 C4.039992 4.99960012 4.04346799 7.00047242 4 9 C1.47740939 7.02579865 1.0070192 6.03254358 0.3125 2.8125 C0.209375 1.884375 0.10625 0.95625 0 0 Z " fill="#F29A2F" transform="translate(338,125)"/>
<path d="M0 0 C1.9955516 3.99110319 2.19546065 5.69986566 2 10 C1.01 9.67 0.02 9.34 -1 9 C-0.67 6.03 -0.34 3.06 0 0 Z " fill="#110A11" transform="translate(327,373)"/>
<path d="M0 0 C2.5132982 2.5132982 2 3.62447307 2 7 C1.01 7 0.02 7 -1 7 C-1.625 5.1875 -1.625 5.1875 -2 3 C-1.34 2.01 -0.68 1.02 0 0 Z " fill="#282327" transform="translate(276,371)"/>
<path d="M0 0 C0 0.99 0 1.98 0 3 C-0.66 3 -1.32 3 -2 3 C-2 2.34 -2 1.68 -2 1 C-3.98 1 -5.96 1 -8 1 C-8.33 1.66 -8.66 2.32 -9 3 C-9 2.01 -9 1.02 -9 0 C-3.375 -1.125 -3.375 -1.125 0 0 Z " fill="#2D282D" transform="translate(348,372)"/>
<path d="M0 0 C1.0625 1.8125 1.0625 1.8125 2 4 C1.67 4.99 1.34 5.98 1 7 C0.01 7 -0.98 7 -2 7 C-1.125 1.125 -1.125 1.125 0 0 Z " fill="#1F1C1F" transform="translate(186,270)"/>
<path d="M0 0 C0.33 0.66 0.66 1.32 1 2 C2.32 1.67 3.64 1.34 5 1 C5 1.99 5 2.98 5 4 C2.69 4 0.38 4 -2 4 C-1.34 2.68 -0.68 1.36 0 0 Z " fill="#ED9717" transform="translate(313,222)"/>
<path d="M0 0 C0.66 0.33 1.32 0.66 2 1 C1.34 2.65 0.68 4.3 0 6 C-1.32 5.67 -2.64 5.34 -4 5 C-2.68 3.35 -1.36 1.7 0 0 Z " fill="#2E282A" transform="translate(300,219)"/>
<path d="M0 0 C0.66 0.33 1.32 0.66 2 1 C0.02 3.31 -1.96 5.62 -4 8 C-4.33 7.34 -4.66 6.68 -5 6 C-3.78741495 2.76643985 -2.98715542 1.99143695 0 0 Z " fill="#CE974F" transform="translate(330,216)"/>
<path d="M0 0 C0.66 0.33 1.32 0.66 2 1 C1.34 1.66 0.68 2.32 0 3 C0 4.32 0 5.64 0 7 C-0.99 6.01 -1.98 5.02 -3 4 C-2.67 3.01 -2.34 2.02 -2 1 C-1.34 0.67 -0.68 0.34 0 0 Z " fill="#0E0C0E" transform="translate(243,121)"/>
<path d="M0 0 C2.4375 0.375 2.4375 0.375 5 1 C5.33 1.66 5.66 2.32 6 3 C3.36 3 0.72 3 -2 3 C-1.34 2.01 -0.68 1.02 0 0 Z " fill="#1A1619" transform="translate(277,115)"/>
<path d="" fill="#000000" transform="translate(0,0)"/>
<path d="" fill="#000000" transform="translate(0,0)"/>
<path d="" fill="#242424" transform="translate(0,0)"/>
<path d="" fill="#000000" transform="translate(0,0)"/>
<path d="" fill="#000040" transform="translate(0,0)"/>
<path d="" fill="#000000" transform="translate(0,0)"/>
<path d="" fill="#333333" transform="translate(0,0)"/>
<path d="" fill="#242424" transform="translate(0,0)"/>
<path d="" fill="#330033" transform="translate(0,0)"/>
<path d="" fill="#2A2A2A" transform="translate(0,0)"/>
<path d="" fill="#000000" transform="translate(0,0)"/>
<path d="" fill="#000000" transform="translate(0,0)"/>
<path d="" fill="#2A2A2A" transform="translate(0,0)"/>
<path d="" fill="#333333" transform="translate(0,0)"/>
<path d="" fill="#1C1C1C" transform="translate(0,0)"/>
<path d="" fill="#000000" transform="translate(0,0)"/>
<path d="" fill="#000000" transform="translate(0,0)"/>
<path d="" fill="#400040" transform="translate(0,0)"/>
<path d="" fill="#400000" transform="translate(0,0)"/>
<path d="" fill="#242424" transform="translate(0,0)"/>
<path d="" fill="#000000" transform="translate(0,0)"/>
<path d="" fill="#202020" transform="translate(0,0)"/>
<path d="" fill="#404040" transform="translate(0,0)"/>
<path d="" fill="#242424" transform="translate(0,0)"/>
<path d="" fill="#2A2A2A" transform="translate(0,0)"/>
<path d="" fill="#2A2A2A" transform="translate(0,0)"/>
<path d="" fill="#2A2A2A" transform="translate(0,0)"/>
<path d="" fill="#000000" transform="translate(0,0)"/>
<path d="" fill="#404040" transform="translate(0,0)"/>
</svg>
