<?xml version="1.0" encoding="UTF-8"?>
<svg class="change-color" version="1.1" xmlns="http://www.w3.org/2000/svg" width="512" height="512">
<path d="M0 0 C1.14275391 0.99966797 1.14275391 0.99966797 2.30859375 2.01953125 C17.94237843 16.62370793 26.92544521 38.18718784 28.203125 59.3671875 C28.52666207 83.57854455 21.17145735 104.73913311 5 123 C4.44699219 123.63679687 3.89398438 124.27359375 3.32421875 124.9296875 C-11.18639337 140.55650055 -33.00370805 149.06024585 -53.9921875 150.15625 C-77.11559128 150.78545827 -98.56978049 143.3329248 -116 128 C-116.76183594 127.33355469 -117.52367187 126.66710937 -118.30859375 125.98046875 C-134.00038584 111.32210491 -143.01028835 89.64351352 -144.203125 68.37890625 C-144.49003359 45.01976481 -137.60573683 23.74034778 -122 6 C-121.33355469 5.23816406 -120.66710937 4.47632813 -119.98046875 3.69140625 C-88.47052833 -30.0400142 -33.77444068 -29.71052424 0 0 Z M-90.3125 36.3125 C-98.47548658 46.6029505 -101.09918943 58.07408886 -100 71 C-97.72762678 82.22579584 -91.60745942 92.55010239 -82 99 C-71.06935322 105.33942196 -60.37852254 107.89844032 -47.77734375 105.34765625 C-36.77343537 102.03938444 -27.40332443 95.59236161 -21.59765625 85.58203125 C-15.75107424 74.38031905 -13.85571292 63.07944201 -17.5625 50.75 C-22.15115056 38.63208478 -29.98741717 30.44597794 -41.609375 25.03515625 C-58.83467427 17.57648908 -77.74813626 22.75705413 -90.3125 36.3125 Z " fill="currentColor" transform="translate(314,192)"/>
<path d="M0 0 C1.1142334 0.1853833 1.1142334 0.1853833 2.25097656 0.37451172 C36.52275765 6.32697896 65.73528085 22.3519221 91 46 C91.94875 46.88300781 92.8975 47.76601563 93.875 48.67578125 C106.29840925 60.50653278 115.69735655 74.67557557 125 89 C121.60262367 92.7077965 117.77422758 95.34678705 113.625 98.125 C109.3564376 101.01020013 105.10130523 103.90073517 100.94140625 106.94140625 C100.30831543 107.40337402 99.67522461 107.8653418 99.02294922 108.34130859 C97.82120374 109.22271649 96.62343063 110.10957246 95.43017578 111.00244141 C91.32947649 114 91.32947649 114 88 114 C86.20170567 111.6610023 84.5947401 109.34780309 83 106.875 C61.50523603 74.66513924 33.89033379 52.4936209 -4.60791016 44.453125 C-37.19752301 38.51018215 -72.00737666 45.47955235 -99.3671875 64.2578125 C-105.952913 69.06723545 -112.10080223 74.37365189 -118 80 C-118.53407471 80.50128418 -119.06814941 81.00256836 -119.6184082 81.51904297 C-124.19547855 85.92828107 -127.91042408 90.68543977 -131.5625 95.875 C-132.36977539 97.00228516 -132.36977539 97.00228516 -133.19335938 98.15234375 C-136.9062977 103.3620743 -140.47950336 108.65872054 -144 114 C-147.66729771 113.36697356 -150.05062998 111.78020604 -153.0703125 109.6484375 C-154.05 108.96136719 -155.0296875 108.27429688 -156.0390625 107.56640625 C-157.05742187 106.84324219 -158.07578125 106.12007813 -159.125 105.375 C-160.12015625 104.67503906 -161.1153125 103.97507812 -162.140625 103.25390625 C-164.12314539 101.85889517 -166.10396424 100.46146257 -168.08300781 99.06152344 C-172.37817345 96.02600464 -176.68870849 93.01255211 -181 90 C-179.74107581 87.38451347 -178.38583333 84.96324287 -176.75 82.56640625 C-176.09354492 81.60383911 -176.09354492 81.60383911 -175.42382812 80.62182617 C-172.96704409 77.06850427 -170.48989978 73.53017721 -168 70 C-167.2471875 68.91976562 -166.494375 67.83953125 -165.71875 66.7265625 C-150.28571772 45.5876556 -130.16723336 28.92579615 -107 17 C-106.34483398 16.65485352 -105.68966797 16.30970703 -105.01464844 15.95410156 C-87.84290401 6.98504427 -69.1653877 1.58432952 -50 -1 C-49.10410156 -1.13019531 -48.20820313 -1.26039063 -47.28515625 -1.39453125 C-31.71898977 -3.23886377 -15.43976826 -2.57802286 0 0 Z " fill="currentColor" transform="translate(284,364)"/>
<path d="M0 0 C3.57116548 2.79264136 6.81588701 5.77643783 10 9 C10.63550781 9.61359375 11.27101563 10.2271875 11.92578125 10.859375 C22.80795594 22.15174252 27.60188871 37.93302248 27.4375 53.3125 C27.42614014 54.81635254 27.42614014 54.81635254 27.41455078 56.35058594 C27.01938475 74.23978092 19.67159676 89.73741915 6.7578125 102.15625 C-8.5477465 115.20361177 -26.31211628 119.48888482 -46 118 C-63.17262612 115.90070319 -78.27491764 106.62395167 -88.875 93.125 C-97.34634975 81.1894733 -101.5938669 68.31649251 -101.4375 53.6875 C-101.42992676 52.68493164 -101.42235352 51.68236328 -101.41455078 50.64941406 C-100.99990118 31.87819649 -93.20629489 17.9284626 -80 5 C-58.36821128 -15.16967475 -24.08560475 -16.29225994 0 0 Z M-53.375 40.375 C-57.43891526 45.56532656 -58.5659443 50.43504613 -58 57 C-56.62521933 64.42680429 -51.95755858 68.67213588 -46 73 C-40.65802154 74.78065949 -34.28990031 75.0002261 -28.8671875 73.3515625 C-23.31148084 70.43668501 -19.2043862 65.6277517 -16.625 60 C-15.11195819 52.7373993 -16.10817732 47.25877916 -20 41 C-23.97410739 36.57386144 -28.24437497 33.41729167 -34.25 32.75 C-42.29058538 32.35777632 -47.90631517 34.41756798 -53.375 40.375 Z " fill="currentColor" transform="translate(421,53)"/>
<path d="M0 0 C3.57116548 2.79264136 6.81588701 5.77643783 10 9 C10.63550781 9.61359375 11.27101563 10.2271875 11.92578125 10.859375 C22.80795594 22.15174252 27.60188871 37.93302248 27.4375 53.3125 C27.42614014 54.81635254 27.42614014 54.81635254 27.41455078 56.35058594 C27.01938475 74.23978092 19.67159676 89.73741915 6.7578125 102.15625 C-8.5477465 115.20361177 -26.31211628 119.48888482 -46 118 C-63.17262612 115.90070319 -78.27491764 106.62395167 -88.875 93.125 C-97.34634975 81.1894733 -101.5938669 68.31649251 -101.4375 53.6875 C-101.42992676 52.68493164 -101.42235352 51.68236328 -101.41455078 50.64941406 C-100.99990118 31.87819649 -93.20629489 17.9284626 -80 5 C-58.36821128 -15.16967475 -24.08560475 -16.29225994 0 0 Z M-53.375 40.375 C-57.43891526 45.56532656 -58.5659443 50.43504613 -58 57 C-56.62521933 64.42680429 -51.95755858 68.67213588 -46 73 C-40.65802154 74.78065949 -34.28990031 75.0002261 -28.8671875 73.3515625 C-23.31148084 70.43668501 -19.2043862 65.6277517 -16.625 60 C-15.11195819 52.7373993 -16.10817732 47.25877916 -20 41 C-23.97410739 36.57386144 -28.24437497 33.41729167 -34.25 32.75 C-42.29058538 32.35777632 -47.90631517 34.41756798 -53.375 40.375 Z " fill="currentColor" transform="translate(165,53)"/>
<path d="M0 0 C43.38941146 -0.61111847 43.38941146 -0.61111847 58 4 C58.70125 4.21962402 59.4025 4.43924805 60.125 4.66552734 C79.466857 10.94540877 96.32803176 20.93741063 111 35 C112.27230469 36.16015625 112.27230469 36.16015625 113.5703125 37.34375 C122.94966586 46.20354734 132.46355308 57.25996513 138 69 C136.60944277 70.06128672 135.21879836 71.12245921 133.828125 72.18359375 C132.94116943 72.86043213 132.05421387 73.53727051 131.14038086 74.23461914 C129.2102628 75.70564332 127.27877879 77.17487694 125.34594727 78.64233398 C119.17535862 83.32711901 119.17535862 83.32711901 113.07421875 88.1015625 C112.03910156 88.91367187 111.00398438 89.72578125 109.9375 90.5625 C109.05964844 91.26503906 108.18179688 91.96757812 107.27734375 92.69140625 C105 94 105 94 103.08105469 93.85522461 C100.24505152 92.68974841 99.21847556 91.09949871 97.42578125 88.625 C96.75740234 87.72136719 96.08902344 86.81773437 95.40039062 85.88671875 C94.71138672 84.93410156 94.02238281 83.98148437 93.3125 83 C79.16229816 63.52474626 61.21707791 49.45850838 37 45 C29.36907221 43.79649367 21.71218283 43.66815842 14 43.4375 C9.38 43.293125 4.76 43.14875 0 43 C0 28.81 0 14.62 0 0 Z " fill="currentColor" transform="translate(362,192)"/>
<path d="M0 0 C0 14.19 0 28.38 0 43 C-4.455 43.103125 -8.91 43.20625 -13.5 43.3125 C-41.61730064 44.18921219 -64.71982341 51.35819206 -84.93286133 71.73925781 C-89.11515127 76.31325154 -92.5345262 81.46596069 -96.0625 86.54882812 C-96.64515625 87.36673828 -97.2278125 88.18464844 -97.828125 89.02734375 C-98.6001123 90.13710571 -98.6001123 90.13710571 -99.38769531 91.26928711 C-101.28028077 93.30086469 -102.22843369 93.87690038 -105 94 C-106.8684082 93.00292969 -106.8684082 93.00292969 -108.80078125 91.421875 C-109.88576904 90.55296631 -109.88576904 90.55296631 -110.99267578 89.66650391 C-111.75821777 89.03405762 -112.52375977 88.40161133 -113.3125 87.75 C-114.91911864 86.45912542 -116.52721724 85.17009084 -118.13671875 83.8828125 C-118.94544434 83.2321582 -119.75416992 82.58150391 -120.58740234 81.91113281 C-124.1965945 79.05212085 -127.89930356 76.32947873 -131.625 73.625 C-132.26993408 73.15545898 -132.91486816 72.68591797 -133.5793457 72.20214844 C-135.05117429 71.13239122 -136.52529561 70.06578931 -138 69 C-127.19587443 49.04383602 -110.31496934 30.88613498 -91 19 C-89.64648438 18.1028125 -89.64648438 18.1028125 -88.265625 17.1875 C-60.53835798 -0.35743732 -31.69521248 -0.44641144 0 0 Z " fill="currentColor" transform="translate(150,192)"/>
</svg>
