<?xml version="1.0" encoding="UTF-8"?>
<svg version="1.1" xmlns="http://www.w3.org/2000/svg" width="512" height="512">
<path d="M0 0 C9.73895535 6.98626314 16.03028659 16.45367258 18.3125 28.3125 C18.39582859 31.0041032 18.42879936 33.6685833 18.41015625 36.359375 C18.40803383 37.51617767 18.40803383 37.51617767 18.40586853 38.6963501 C18.40028534 41.15177338 18.38773595 43.60710442 18.375 46.0625 C18.36998283 47.73046743 18.3654203 49.39843629 18.36132812 51.06640625 C18.35032141 55.14847287 18.33306836 59.23047081 18.3125 63.3125 C18.86284912 63.41626953 19.41319824 63.52003906 19.98022461 63.62695312 C25.60629113 64.77022437 30.65119678 66.44754394 35.875 68.8125 C36.64875977 69.16143311 37.42251953 69.51036621 38.21972656 69.86987305 C74.07450039 86.5062833 102.15366311 116.86619902 116.07421875 153.8046875 C123.11925624 173.76192303 125.42943219 192.91595211 125.51173019 213.97627068 C125.52369947 216.77612271 125.54319702 219.57583254 125.56484985 222.37562561 C125.62584891 230.32955021 125.68022401 238.28345737 125.71386719 246.23754883 C125.73508538 251.12632099 125.77059543 256.01482678 125.81462479 260.90344429 C125.82856978 262.74295432 125.83745721 264.58251139 125.84067917 266.42207146 C125.92424858 309.58504854 140.79065486 346.79583429 170.84423828 377.859375 C173.04881956 380.04122863 175.39433053 382.04635495 177.75 384.0625 C184.56141755 390.03205696 188.66552422 397.496148 189.53125 406.6171875 C189.88890275 416.1843986 187.5078989 423.90176981 181.33984375 431.26953125 C175.12682745 437.53043207 168.12596963 441.35339155 159.22512817 441.55300903 C157.17499102 441.55878487 155.12480459 441.55354001 153.07470703 441.53955078 C151.95217026 441.53984283 150.82963348 441.54013489 149.67308044 441.54043579 C145.97207848 441.53904527 142.27127919 441.52349687 138.5703125 441.5078125 C136.00056061 441.50408139 133.43080729 441.50123488 130.86105347 441.49923706 C124.79445986 441.4923876 118.72794958 441.47663337 112.66138732 441.45653808 C105.75207911 441.43415012 98.84276735 441.42317838 91.93343186 441.41314721 C77.72641574 441.39226625 63.51946045 441.3571084 49.3125 441.3125 C49.2512796 441.92094757 49.1900592 442.52939514 49.12698364 443.15628052 C49.04270111 443.95951752 48.95841858 444.76275452 48.87158203 445.59033203 C48.74881393 446.78144089 48.74881393 446.78144089 48.62356567 447.99661255 C46.63735327 462.78398628 37.45889706 474.98871838 27.3125 485.3125 C26.69890625 485.93898438 26.0853125 486.56546875 25.453125 487.2109375 C9.79155278 502.00242237 -9.75369382 505.84995317 -30.578125 505.5859375 C-46.92625895 505.07975677 -62.52697667 498.19055759 -74.6875 487.3125 C-75.42355469 486.66925781 -76.15960938 486.02601563 -76.91796875 485.36328125 C-87.98064171 475.0622381 -96.65886878 460.8302902 -98.2421875 445.59692383 C-98.32710449 444.79273514 -98.41202148 443.98854645 -98.49951172 443.1599884 C-98.59256592 442.24548164 -98.59256592 442.24548164 -98.6875 441.3125 C-99.27096128 441.31618717 -99.85442257 441.31987434 -100.4555645 441.32367325 C-114.68758188 441.41221672 -128.91955769 441.47830282 -143.15179253 441.51974869 C-150.03456422 441.54032713 -156.91715144 441.56835659 -163.79980469 441.61425781 C-170.44579769 441.65855939 -177.09164988 441.68165897 -183.73779678 441.69200897 C-186.26945124 441.69938197 -188.8010956 441.71377964 -191.3326683 441.73542023 C-194.88720829 441.76458844 -198.44096446 441.76845024 -201.99560547 441.76660156 C-203.03498764 441.78098267 -204.07436981 441.79536377 -205.14524841 441.81018066 C-214.88532526 441.75560685 -222.78419241 439.04577201 -229.93359375 432.30078125 C-236.28531741 425.10027492 -239.17968742 416.46552982 -238.93359375 406.92578125 C-237.76911646 394.5601415 -230.9505014 387.12926676 -222 379.1875 C-195.2844768 354.72734227 -177.28115157 318.56757575 -175.58711433 282.15473938 C-175.54104111 279.96085798 -175.52151713 277.76856778 -175.51391602 275.57421875 C-175.507229 274.75165085 -175.50054199 273.92908295 -175.49365234 273.08158875 C-175.47970294 271.31057145 -175.46777766 269.53953724 -175.45770454 267.76849365 C-175.44110382 264.94862767 -175.41785726 262.12888493 -175.39280701 259.30908203 C-175.32257874 251.2964509 -175.26229131 243.28376853 -175.21069336 235.27099609 C-175.17855413 230.35217751 -175.13719495 225.43350186 -175.09049797 220.51480103 C-175.07468322 218.65885025 -175.06226961 216.80286675 -175.05359077 214.9468689 C-174.84631327 171.23160919 -162.19359475 133.22311108 -131.6875 101.3125 C-131.01847656 100.5803125 -130.34945312 99.848125 -129.66015625 99.09375 C-115.01698496 83.60525597 -95.55086354 72.55333203 -75.6875 65.3125 C-74.78515625 64.9309375 -73.8828125 64.549375 -72.953125 64.15625 C-70.6875 63.3125 -70.6875 63.3125 -67.6875 63.3125 C-67.70844727 62.31508789 -67.72939453 61.31767578 -67.75097656 60.29003906 C-67.82425214 56.53286521 -67.86961209 52.77575224 -67.90722656 49.01806641 C-67.92714532 47.40239791 -67.95429074 45.7867996 -67.98925781 44.17138672 C-68.30601842 29.1438908 -66.29541428 16.59290759 -55.6875 5.15625 C-40.32345499 -9.54933594 -17.82502146 -10.84607238 0 0 Z M-42.4609375 24.3359375 C-45.27877283 28.87678042 -45.93494014 33.32104577 -45.8828125 38.5859375 C-45.87781738 39.62669434 -45.87282227 40.66745117 -45.86767578 41.73974609 C-45.84946777 43.04250488 -45.83125977 44.34526367 -45.8125 45.6875 C-45.77125 49.85375 -45.73 54.02 -45.6875 58.3125 C-31.8275 58.3125 -17.9675 58.3125 -3.6875 58.3125 C-3.56375 52.1559375 -3.56375 52.1559375 -3.4375 45.875 C-3.38287598 43.96182983 -3.38287598 43.96182983 -3.32714844 42.01000977 C-3.25150304 34.18620111 -3.90981902 27.37632879 -9.42797852 21.44018555 C-14.88240332 16.40949681 -19.74337657 14.81734755 -27.12890625 15.00390625 C-33.8435712 15.8137666 -38.19095571 19.30260701 -42.4609375 24.3359375 Z M-114.6875 116.3125 C-115.27789062 116.8384375 -115.86828125 117.364375 -116.4765625 117.90625 C-140.72671084 140.43245414 -151.27334043 174.1830911 -152.6875 206.3125 C-152.83724805 211.80134098 -152.84421219 217.29191262 -152.85616493 222.78247261 C-152.86349579 225.45718208 -152.87927831 228.13172477 -152.89750671 230.80638123 C-152.94920987 238.40027556 -152.99782115 245.99406821 -153.01342773 253.58813477 C-153.11146344 294.98319351 -153.11146344 294.98319351 -157.6875 312.3125 C-157.91103653 313.17927368 -158.13457306 314.04604736 -158.36488342 314.93908691 C-167.23641787 348.93374368 -186.20696596 378.72397074 -212.82421875 401.60546875 C-215.64873503 404.19312832 -215.67594675 405.17155031 -216 409.125 C-215.96982024 412.44477327 -215.6935988 413.30294521 -213.8125 416.25 C-210.39181397 419.57007762 -208.35391429 419.43925559 -203.67694378 419.44672108 C-201.74231133 419.45340784 -201.74231133 419.45340784 -199.7685954 419.46022969 C-198.32373217 419.46014039 -196.87886894 419.45995052 -195.43400574 419.45967102 C-193.909666 419.46296858 -192.38532713 419.46669392 -190.86098939 419.4708125 C-186.65657753 419.48085279 -182.45217995 419.48455254 -178.24775779 419.48720181 C-173.71935979 419.49109882 -169.19097316 419.50067752 -164.6625824 419.50941467 C-153.71928828 419.52919544 -142.77599321 419.53924701 -131.83268568 419.54814246 C-126.68348837 419.55252244 -121.53429209 419.55788997 -116.3850956 419.56313133 C-99.27548912 419.58014469 -82.16588329 419.5946401 -65.05626965 419.60188007 C-60.61425463 419.60379007 -56.17223961 419.60571039 -51.73022461 419.60766602 C-50.6261397 419.60814976 -49.52205479 419.6086335 -48.38451276 419.6091319 C-30.48864054 419.61743682 -12.59283506 419.64278105 5.303008 419.67524669 C23.66240828 419.70828269 42.02177461 419.72632567 60.38120478 419.72952431 C70.6950082 419.73169255 81.00871427 419.74048695 91.32248878 419.76598549 C100.10397238 419.78764523 108.88533499 419.79576626 117.66684226 419.78601871 C122.14948501 419.78146033 126.63187789 419.78344905 131.11448669 419.80278015 C135.2159658 419.82031536 139.31701097 419.81949326 143.41849407 419.80388286 C144.90438675 419.80149204 146.39030872 419.80590618 147.87615643 419.81771151 C149.89219127 419.83274056 151.90837358 419.82081676 153.92442036 419.80748463 C155.6059045 419.80894984 155.6059045 419.80894984 157.32135803 419.81044465 C160.99709996 419.19853253 162.66138169 417.87883434 165.3125 415.3125 C166.94780578 412.04188845 166.97213976 408.83484823 166.3125 405.3125 C163.92291004 401.16819269 160.22341728 398.19663867 156.625 395.125 C133.31463662 375.08781858 117.86541805 346.42743323 109.5 317.1875 C109.22591309 316.24221436 109.22591309 316.24221436 108.94628906 315.27783203 C105.01807311 300.60692568 103.87197895 286.06409295 103.87109375 270.953125 C103.85926583 269.14824384 103.8458889 267.34337226 103.83106995 265.53851318 C103.7952893 260.832242 103.77481631 256.1260556 103.75952148 251.41967773 C104.41653789 198.94913815 104.41653789 198.94913815 89.3125 149.3125 C88.82910156 148.31734375 88.34570312 147.3221875 87.84765625 146.296875 C82.05145727 135.057708 73.93406766 125.48095815 65.3125 116.3125 C64.7865625 115.72210938 64.260625 115.13171875 63.71875 114.5234375 C44.41503332 93.74239556 13.38657334 80.65114849 -14.67822266 79.15283203 C-53.50028284 77.74610876 -86.29453612 89.61315151 -114.6875 116.3125 Z M-76.6875 441.3125 C-71.96396042 457.05763192 -64.82570122 468.85357876 -50.2421875 477.03125 C-37.36038349 483.49184895 -23.78553397 485.72489685 -9.75 481.625 C3.95351026 476.76464168 15.16171532 468.18028259 22.3125 455.3125 C25.70743806 448.54555723 25.70743806 448.54555723 27.3125 441.3125 C-7.0075 441.3125 -41.3275 441.3125 -76.6875 441.3125 Z " fill="#000000" transform="translate(280.6875,6.6875)"/>
</svg>
