<?xml version="1.0" encoding="UTF-8"?>
<svg version="1.1" xmlns="http://www.w3.org/2000/svg" width="512" height="512">
<path d="M0 0 C2.70775992 1.35826145 5.3907371 2.20969959 8.2890625 3.0859375 C23.90487528 8.15808129 36.2431116 18.69455058 44.015625 33.12109375 C48.50403178 43.038216 50.55724653 52.88747423 50.6171875 63.73046875 C50.62288757 64.54730637 50.62858765 65.36414398 50.63446045 66.20573425 C50.64387846 67.93458782 50.65043167 69.66345908 50.65429688 71.39233398 C50.6638916 73.97739235 50.69489792 76.56161598 50.7265625 79.14648438 C50.89312377 104.98143797 44.684393 126.28191789 27.0546875 145.77734375 C24.39988851 148.22400022 22.08862243 149.37701933 18.8515625 150.8984375 C16.07019963 153.1317228 14.60549135 154.44522208 13.73022461 157.94628906 C13.67616455 158.9462793 13.62210449 159.94626953 13.56640625 160.9765625 C13.50332275 162.06106689 13.44023926 163.14557129 13.37524414 164.26293945 C13.2482653 169.25108563 13.25459541 174.22380784 13.4140625 179.2109375 C14.60257812 179.44296875 15.79109375 179.675 17.015625 179.9140625 C23.11287341 181.27324576 28.97861301 183.26926807 34.87890625 185.3046875 C36.77497477 185.95609754 38.67655272 186.59139815 40.578125 187.2265625 C59.51384664 193.72333729 59.51384664 193.72333729 65.4140625 200.2109375 C69.34509893 198.72312408 73.00180747 196.90428795 76.7265625 194.9609375 C82.08750413 192.22023954 87.52417796 189.88015484 93.1640625 187.7734375 C93.85540283 187.5146582 94.54674316 187.25587891 95.2590332 186.98925781 C100.13477768 185.2109375 100.13477768 185.2109375 102.4140625 185.2109375 C102.4140625 182.5709375 102.4140625 179.9309375 102.4140625 177.2109375 C101.32351563 177.09878906 101.32351563 177.09878906 100.2109375 176.984375 C88.08092949 175.39814318 77.57118556 170.49534053 69.4140625 161.2109375 C60.33583136 148.87657668 58.94028612 135.76928998 59.015625 120.8125 C59.01359568 119.36485651 59.0106772 117.91721403 59.00692749 116.46957397 C59.00254149 113.4558526 59.00881128 110.44240061 59.02294922 107.42871094 C59.04000805 103.61108654 59.03019729 99.79409678 59.01223183 95.97649574 C59.00126542 92.99231394 59.00489883 90.00827655 59.0126152 87.02408981 C59.01458357 85.61861466 59.01227984 84.21312536 59.00517654 82.80766678 C58.95517931 70.13793687 59.97202576 57.15367197 66.1640625 45.8359375 C66.6890332 44.83626953 66.6890332 44.83626953 67.22460938 43.81640625 C70.09550774 38.48992936 73.34634546 33.7044512 77.4140625 29.2109375 C78.26677734 28.2209375 78.26677734 28.2209375 79.13671875 27.2109375 C92.43178538 12.75855084 111.54090452 5.39175625 130.83447266 4.33911133 C144.03600065 3.79464476 155.6513854 7.11288941 167.26171875 13.21484375 C169.88002536 14.42658274 172.53937759 15.27624445 175.2890625 16.1484375 C193.33377333 22.03504329 206.96150152 33.76459017 215.75097656 50.54125977 C220.33510547 59.72686418 222.51180918 69.40859826 222.57519531 79.66845703 C222.58480286 80.93062042 222.5944104 82.19278381 222.60430908 83.49319458 C222.6091596 84.86004452 222.61343781 86.2268966 222.6171875 87.59375 C222.62001488 88.29038631 222.62284225 88.98702263 222.62575531 89.70476913 C222.64070384 93.39498009 222.64995937 97.08515242 222.65429688 100.77539062 C222.65976038 104.55421668 222.68375557 108.33267859 222.71226883 112.11139107 C222.73105688 115.04567436 222.73610941 117.97987296 222.73763275 120.91421127 C222.74062594 122.30543879 222.74853901 123.69666604 222.76181793 125.0878334 C222.90191206 140.8992676 219.93387791 152.9319258 209.3515625 164.9609375 C201.55047471 172.26895427 189.93049697 176.90414426 179.3515625 177.3359375 C178.7121875 177.2946875 178.0728125 177.2534375 177.4140625 177.2109375 C177.4140625 179.8509375 177.4140625 182.4909375 177.4140625 185.2109375 C178.67347656 185.46488281 179.93289063 185.71882812 181.23046875 185.98046875 C197.799866 189.67804009 215.4000451 195.72724892 225.4140625 210.2109375 C230.13862944 218.51634137 232.56502096 224.71992972 232.55932617 234.25244141 C232.56436409 235.46281822 232.56436409 235.46281822 232.56950378 236.69764709 C232.57899202 239.3609471 232.58095547 242.02418415 232.58203125 244.6875 C232.58524404 246.53787258 232.58860813 248.3882449 232.59211731 250.23861694 C232.59810234 254.11383656 232.59995772 257.9890339 232.59936523 261.86425781 C232.59926336 266.83901537 232.61294464 271.81363102 232.63013744 276.78835487 C232.64123074 280.60752017 232.64328531 284.42665078 232.64275551 288.24583054 C232.64393855 290.08071764 232.64837833 291.91560555 232.65608788 293.75047684 C232.665839 296.30982831 232.6630298 298.8688666 232.65698242 301.42822266 C232.66260193 302.19085922 232.66822144 302.95349579 232.67401123 303.73924255 C232.64238186 308.98261814 232.64238186 308.98261814 230.4140625 311.2109375 C227.84097862 311.45703316 227.84097862 311.45703316 224.51693726 311.45144653 C222.63224983 311.45557053 222.63224983 311.45557053 220.70948792 311.45977783 C219.30941678 311.45269907 217.9093466 311.44542944 216.50927734 311.43798828 C215.04102079 311.43742439 213.57276367 311.4377403 212.10450745 311.43887329 C208.11090251 311.43944866 204.11741697 311.42766471 200.12383986 311.41372538 C195.95314096 311.40124857 191.78243953 311.40004993 187.61172485 311.39767456 C179.71046267 311.3914508 171.80925562 311.3750279 163.90801775 311.35497558 C154.91419619 311.33264441 145.92037202 311.32163016 136.92652965 311.31158471 C118.42234263 311.29066242 99.91820699 311.25546909 81.4140625 311.2109375 C81.42453613 311.83661621 81.43500977 312.46229492 81.44580078 313.10693359 C81.48729441 315.9332276 81.51336723 318.75945761 81.5390625 321.5859375 C81.55582031 322.57078125 81.57257813 323.555625 81.58984375 324.5703125 C81.59628906 325.51132812 81.60273438 326.45234375 81.609375 327.421875 C81.61984863 328.29118652 81.63032227 329.16049805 81.64111328 330.05615234 C81.4140625 332.2109375 81.4140625 332.2109375 79.4140625 334.2109375 C76.69797783 334.40863912 74.08375331 334.4801665 71.36645508 334.46490479 C70.52494557 334.46802477 69.68343607 334.47114475 68.81642628 334.47435927 C65.98041205 334.48237328 63.14460979 334.47600245 60.30859375 334.46972656 C58.28201166 334.47243492 56.25543055 334.47599497 54.22885132 334.48034668 C48.71245807 334.48949148 43.19613933 334.48591783 37.67974472 334.47958851 C31.91776065 334.47453931 26.15578314 334.47921694 20.39379883 334.48236084 C10.71597137 334.48600365 1.0381744 334.48119315 -8.63964844 334.47167969 C-19.84250551 334.46079455 -31.0452898 334.4643199 -42.2481451 334.4753325 C-51.85154056 334.48439643 -61.45491406 334.48569504 -71.05831242 334.48045516 C-76.80063636 334.47733053 -82.54292604 334.47693959 -88.2852478 334.48352814 C-93.68273719 334.48928799 -99.08013237 334.48532974 -104.47761154 334.47373962 C-106.46344216 334.47108573 -108.44928065 334.47187047 -110.43510818 334.47626495 C-113.13629072 334.4816932 -115.83716728 334.47491962 -118.53833008 334.46490479 C-119.3326755 334.46936623 -120.12702093 334.47382767 -120.94543743 334.47842431 C-126.35763741 334.43923759 -126.35763741 334.43923759 -128.5859375 332.2109375 C-128.81298828 330.05615234 -128.81298828 330.05615234 -128.78125 327.421875 C-128.77158203 326.01035156 -128.77158203 326.01035156 -128.76171875 324.5703125 C-128.74496094 323.58546875 -128.72820312 322.600625 -128.7109375 321.5859375 C-128.70191406 320.59335937 -128.69289062 319.60078125 -128.68359375 318.578125 C-128.65997866 316.12215616 -128.62704549 313.66666582 -128.5859375 311.2109375 C-129.73503129 311.21370288 -129.73503129 311.21370288 -130.9073391 311.21652412 C-149.52617449 311.26064552 -168.14499949 311.29376595 -186.76387596 311.31456184 C-195.76773325 311.32488525 -204.7715557 311.33896584 -213.77539062 311.36181641 C-221.62087738 311.38171779 -229.4663389 311.39464619 -237.31185019 311.39911449 C-241.46802684 311.4017274 -245.62413131 311.40789082 -249.78028488 311.42239761 C-253.68885261 311.43593023 -257.59731813 311.44016895 -261.50590706 311.43715286 C-262.94347374 311.43770497 -264.38104368 311.4417081 -265.81859016 311.44934845 C-267.77530598 311.45924161 -269.73207612 311.45572818 -271.68881226 311.45144653 C-273.33421273 311.45421191 -273.33421273 311.45421191 -275.01285362 311.45703316 C-277.5859375 311.2109375 -277.5859375 311.2109375 -279.5859375 309.2109375 C-279.80015289 306.5996129 -279.89004158 304.09300045 -279.89233398 301.47924805 C-279.9006575 300.68053787 -279.90898102 299.8818277 -279.91755676 299.05891418 C-279.94174262 296.40511241 -279.95044435 293.75155675 -279.95703125 291.09765625 C-279.9659994 289.2483564 -279.97512128 287.39905728 -279.98439026 285.54975891 C-280.00091183 281.66165405 -280.00858466 277.77363552 -280.01147461 273.88549805 C-280.01682573 268.93389207 -280.05435524 263.98311469 -280.10021877 259.03174114 C-280.1301763 255.20438292 -280.13720238 251.37721838 -280.13820076 247.54975319 C-280.14237523 245.72671576 -280.15469645 243.90367624 -280.17571831 242.08075523 C-280.34330541 226.27390472 -278.1108859 214.03691067 -266.5859375 202.2109375 C-258.53356665 194.71959248 -240.91325466 185.2109375 -229.5859375 185.2109375 C-229.5859375 182.5709375 -229.5859375 179.9309375 -229.5859375 177.2109375 C-230.31296875 177.13617188 -231.04 177.06140625 -231.7890625 176.984375 C-243.2804723 175.48165218 -253.78004211 171.00939287 -261.5859375 162.2109375 C-271.65825901 148.82855872 -272.73991524 136.39917358 -272.75390625 120.10546875 C-272.75712802 118.73556993 -272.76049275 117.36567145 -272.76399231 115.99577332 C-272.7699545 113.13218388 -272.77183531 110.26862449 -272.77124023 107.4050293 C-272.77113899 103.77216771 -272.78476525 100.1395032 -272.80201244 96.50668812 C-272.81324523 93.67788342 -272.81515599 90.84912461 -272.81463051 88.02029991 C-272.81635312 86.04149799 -272.82712292 84.06271038 -272.83818054 82.0839386 C-272.78602194 61.15519132 -267.59721773 43.11980714 -253.0546875 27.65625 C-237.47844762 12.22788581 -218.4789678 4.25385316 -196.59619141 4.16748047 C-186.05605428 4.39533381 -176.12050628 7.2166343 -166.8359375 12.1484375 C-163.73256131 13.79252591 -160.59421242 14.88119727 -157.23999023 15.9152832 C-139.51037543 21.39814732 -125.81924882 33.05648018 -116.86328125 49.34375 C-110.74889451 61.81289248 -109.11360655 73.90099887 -109.15234375 87.6796875 C-109.14776526 89.1321232 -109.14245484 90.58455676 -109.13645935 92.0369873 C-109.12760006 95.05909103 -109.12986913 98.08092948 -109.13989258 101.10302734 C-109.15138792 104.93891241 -109.13112606 108.77387755 -109.10197544 112.60964203 C-109.08346421 115.60233179 -109.08393497 118.59480692 -109.08961296 121.58753967 C-109.08976428 123.00026238 -109.08388018 124.41300145 -109.07132149 125.82566833 C-108.95518869 141.02052515 -112.09586861 153.24744469 -122.6875 164.4296875 C-131.01079716 172.3118205 -140.64055063 176.932152 -152.1484375 177.3359375 C-152.9528125 177.2946875 -153.7571875 177.2534375 -154.5859375 177.2109375 C-154.0909375 180.6759375 -154.0909375 180.6759375 -153.5859375 184.2109375 C-152.2855957 184.67149536 -152.2855957 184.67149536 -150.95898438 185.14135742 C-147.7058644 186.29868398 -144.45604521 187.46450741 -141.20800781 188.63598633 C-139.80882415 189.13870729 -138.40845221 189.63813491 -137.00683594 190.1340332 C-123.85122286 194.79292186 -123.85122286 194.79292186 -118.8671875 198.19921875 C-117.784375 198.86308594 -116.7015625 199.52695312 -115.5859375 200.2109375 C-112.34905685 199.07074795 -109.68023205 196.9248571 -106.8671875 194.98828125 C-100.34640489 190.80765317 -93.49659504 188.17584089 -86.24902344 185.5559082 C-84.05646861 184.76277748 -81.87179145 183.95034795 -79.6875 183.13476562 C-78.28947274 182.61867901 -76.89104938 182.10366381 -75.4921875 181.58984375 C-74.84221802 181.34931778 -74.19224854 181.10879181 -73.52258301 180.86097717 C-70.7225379 179.85351938 -68.58917892 179.2109375 -65.5859375 179.2109375 C-64.01708074 163.01715628 -64.01708074 163.01715628 -69.0078125 148.42578125 C-70.98583659 146.57782614 -73.14335201 145.06329596 -75.37109375 143.53125 C-88.07478357 134.36236573 -93.41332736 116.84537938 -96.5859375 102.2109375 C-97.48412525 96.16467041 -97.77368235 90.25662379 -97.82421875 84.1484375 C-97.8322905 83.19888184 -97.84036224 82.24932617 -97.84867859 81.27099609 C-97.86244507 79.26743351 -97.87320011 77.2638482 -97.88110352 75.26025391 C-97.89257849 73.24162766 -97.91295846 71.22303067 -97.94262695 69.20458984 C-98.24963575 48.25595639 -95.99230611 30.37508564 -80.91796875 14.55078125 C-80.14839844 13.77863281 -79.37882813 13.00648438 -78.5859375 12.2109375 C-77.90917969 11.51097656 -77.23242188 10.81101563 -76.53515625 10.08984375 C-67.55416265 1.41329061 -55.80803571 -4.41822071 -43.5859375 -6.7890625 C-42.4721875 -7.0159375 -41.3584375 -7.2428125 -40.2109375 -7.4765625 C-25.82746457 -8.71651706 -12.77320065 -7.04875621 0 0 Z M-72.5859375 23.2109375 C-84.33277366 36.68674521 -86.09902682 50.93693044 -85.5859375 68.2109375 C-85.14765625 67.84742188 -84.709375 67.48390625 -84.2578125 67.109375 C-76.34950107 60.84059155 -67.10204756 54.91739898 -56.734375 55.21875 C-55.79980469 55.23550781 -54.86523438 55.25226563 -53.90234375 55.26953125 C-51.96463759 55.3132776 -50.0270954 55.36515977 -48.08984375 55.42578125 C-37.71973436 55.58182941 -28.48101467 53.2033352 -20.5859375 46.2109375 C-17.98340326 43.07588472 -15.52714908 39.92756362 -13.140625 36.625 C-10.5859375 34.2109375 -10.5859375 34.2109375 -6.78125 33.859375 C-5.19957031 34.03339844 -5.19957031 34.03339844 -3.5859375 34.2109375 C-3.32490234 34.70384277 -3.06386719 35.19674805 -2.79492188 35.70458984 C2.23697226 45.14489912 7.12941625 54.28226555 14.4140625 62.2109375 C15.12175781 62.98695313 15.82945312 63.76296875 16.55859375 64.5625 C22.92512789 71.23007866 29.76995413 76.86040359 38.4140625 80.2109375 C39.29930734 61.89716134 39.29930734 61.89716134 35.4140625 44.2109375 C35.08535156 43.36015625 34.75664062 42.509375 34.41796875 41.6328125 C29.03360864 29.485398 18.66529826 19.98911835 6.4140625 15.0234375 C4.74960113 14.41322155 3.08292504 13.80901187 1.4140625 13.2109375 C-0.23411908 12.55009766 -1.87995873 11.88338774 -3.5234375 11.2109375 C-28.80669357 1.12156244 -52.68731393 1.99063413 -72.5859375 23.2109375 Z M88.58984375 34.4609375 C76.10661946 50.23865725 70.78552656 68.20254333 71.4140625 88.2109375 C97.93922728 86.98857968 120.93818222 72.27553417 138.4140625 53.2109375 C139.29631262 52.11466183 140.17528376 51.01573838 141.05078125 49.9140625 C143.4140625 47.2109375 143.4140625 47.2109375 146.6640625 46.2109375 C152.72027517 47.82592754 155.5911392 52.45458948 159.4140625 57.2109375 C160.51070837 58.48826644 161.61432872 59.75965848 162.7265625 61.0234375 C163.26047607 61.63356689 163.79438965 62.24369629 164.34448242 62.87231445 C173.37709496 73.07915597 182.85872202 82.81556681 192.5090332 92.4362793 C194.64069244 94.562467 196.76680962 96.69409617 198.89257812 98.82617188 C200.24707441 100.18000915 201.6018799 101.53353717 202.95703125 102.88671875 C203.59231247 103.5240242 204.22759369 104.16132965 204.88212585 104.81794739 C207.27291627 107.79617218 207.27291627 107.79617218 210.4140625 109.2109375 C210.48911352 104.44615998 210.54308239 99.68173849 210.57885742 94.91650391 C210.59379605 93.30088292 210.61415451 91.6853014 210.64038086 90.06982422 C210.91788573 72.51628059 208.11146424 55.24762637 195.4140625 42.01171875 C186.25282455 33.76302599 176.33304581 28.65924327 164.640625 25.0234375 C162.18583653 24.12765504 160.0179722 22.96486854 157.7265625 21.7109375 C135.50950389 10.30962525 105.31746714 16.01838129 88.58984375 34.4609375 Z M-236.5859375 29.2109375 C-237.31296875 29.75621094 -238.04 30.30148438 -238.7890625 30.86328125 C-252.58607253 42.05360427 -258.56025743 59.07056767 -260.5859375 76.2109375 C-260.77788012 80.22893633 -260.79134074 84.19416302 -260.5859375 88.2109375 C-234.68277676 87.60726214 -212.60743298 72.92368941 -195.14453125 54.97265625 C-192.5451852 52.31363259 -192.5451852 52.31363259 -190.68359375 49.35546875 C-188.5859375 47.2109375 -188.5859375 47.2109375 -185.1484375 46.5859375 C-180.6522772 47.37473755 -179.4640035 48.72696287 -176.5859375 52.2109375 C-176.15716309 52.71641113 -175.72838867 53.22188477 -175.28662109 53.74267578 C-174.03721043 55.21882614 -172.81100333 56.71452159 -171.5859375 58.2109375 C-170.46673691 59.50763246 -169.34240286 60.79993053 -168.2109375 62.0859375 C-167.68798096 62.68510986 -167.16502441 63.28428223 -166.6262207 63.90161133 C-157.74516654 73.95377016 -148.41573299 83.54168976 -138.91821289 93.0090332 C-136.85897922 95.06279085 -134.80529548 97.12199447 -132.75195312 99.18164062 C-131.44302978 100.48990502 -130.13379727 101.79786019 -128.82421875 103.10546875 C-127.90410759 104.02861626 -127.90410759 104.02861626 -126.96540833 104.97041321 C-124.64600062 107.85590181 -124.64600062 107.85590181 -121.5859375 109.2109375 C-121.5109216 104.30374367 -121.4569334 99.39689479 -121.42114258 94.48925781 C-121.40619826 92.82513605 -121.38583527 91.16105267 -121.35961914 89.49707031 C-121.06723381 70.44042618 -124.46936777 54.74377245 -138.1328125 40.4296875 C-145.85948311 33.44123382 -155.16059278 28.89983836 -165.0234375 25.7734375 C-169.26208212 24.42947701 -173.04068398 22.53064071 -176.93359375 20.39453125 C-196.14661454 11.82082683 -220.33855545 16.91920893 -236.5859375 29.2109375 Z M-13.5859375 54.8984375 C-24.44419246 64.69861969 -35.49647723 66.35197618 -49.6484375 66.0859375 C-57.04849981 65.97355735 -63.13795144 66.16160225 -69.5859375 70.2109375 C-70.18921875 70.55382812 -70.7925 70.89671875 -71.4140625 71.25 C-78.05740165 75.88836742 -82.99028303 84.66737346 -85.5859375 92.2109375 C-86.00200684 96.97141914 -85.07873026 100.7052187 -83.5859375 105.2109375 C-83.24433594 106.37625 -82.90273437 107.5415625 -82.55078125 108.7421875 C-79.99917866 116.69972779 -76.49013062 123.46214922 -71.5859375 130.2109375 C-71.13734375 130.84386719 -70.68875 131.47679687 -70.2265625 132.12890625 C-60.35007272 144.82310047 -45.12850009 151.77656023 -29.5859375 154.2109375 C-13.27307446 155.99447719 1.75877477 150.12713282 14.6015625 140.4609375 C26.2154889 130.72141061 35.10839401 116.36247332 37.4140625 101.2109375 C37.49431654 98.53704723 37.46236199 95.88729722 37.4140625 93.2109375 C36.38667969 92.67726563 35.35929687 92.14359375 34.30078125 91.59375 C25.15118215 86.71957141 17.74103212 81.62381798 10.4140625 74.2109375 C9.57230469 73.38722656 8.73054688 72.56351563 7.86328125 71.71484375 C2.77947623 66.51752475 -1.71799265 60.82048764 -5.4609375 54.5859375 C-6.1621875 53.4721875 -6.8634375 52.3584375 -7.5859375 51.2109375 C-10.56226273 51.2109375 -11.47499265 52.85911399 -13.5859375 54.8984375 Z M-185.5859375 61.2109375 C-186.66370412 62.46884955 -187.7220526 63.7433932 -188.7734375 65.0234375 C-198.38901681 75.90287626 -212.41745853 86.76859809 -226.4375 91.08984375 C-228.84618329 92.06113013 -228.84618329 92.06113013 -229.73046875 94.828125 C-233.09105519 111.21835362 -232.07566703 125.45464327 -223.6015625 140.1953125 C-217.3462465 149.55404109 -209.10887505 155.45388264 -198.5859375 159.2109375 C-188.4218626 161.17294325 -178.69441144 160.084675 -169.8359375 154.5234375 C-157.70832809 145.62546321 -150.93985799 134.99592507 -147.98828125 120.21875 C-147.58256865 117.18575286 -147.41835395 114.27010495 -147.3984375 111.2109375 C-147.38425781 110.2209375 -147.37007813 109.2309375 -147.35546875 108.2109375 C-147.86712859 101.55068742 -150.46467002 97.70830008 -155.0234375 93.0234375 C-155.55477295 92.46245361 -156.0861084 91.90146973 -156.63354492 91.32348633 C-161.03906401 86.6986378 -165.57425792 82.20424405 -170.11328125 77.7109375 C-174.50461561 73.27104178 -178.50284747 68.53485973 -182.4609375 63.7109375 C-183.1621875 62.8859375 -183.8634375 62.0609375 -184.5859375 61.2109375 C-184.9159375 61.2109375 -185.2459375 61.2109375 -185.5859375 61.2109375 Z M146.4140625 61.2109375 C145.79144531 61.99404297 145.79144531 61.99404297 145.15625 62.79296875 C135.2367237 74.64244473 120.53179901 86.47601871 105.5625 91.08984375 C103.15381671 92.06113013 103.15381671 92.06113013 102.26953125 94.828125 C98.7183321 112.14800858 100.23226509 127.50927247 109.94140625 142.58203125 C115.61008243 150.49150177 123.77093234 157.0279116 133.4140625 159.2109375 C143.91806285 160.92558228 153.37700371 160.14622287 162.4140625 154.2109375 C173.78266685 145.40601532 181.60306149 134.19398794 184.1015625 119.89453125 C184.88367525 113.17813801 185.73465062 105.29868238 182.4140625 99.2109375 C180.5428504 97.13376061 178.58380484 95.20062583 176.5546875 93.27734375 C174.56486905 91.35651535 172.76762436 89.37835366 170.9765625 87.2734375 C167.70636077 83.46689289 164.18832917 79.96786721 160.6171875 76.4453125 C157.94557157 73.7358013 155.46504646 70.89448524 152.98828125 68.0078125 C150.90068739 65.62495103 148.68769651 63.41567351 146.4140625 61.2109375 Z M-251.0859375 98.6484375 C-251.77558594 98.78314453 -252.46523437 98.91785156 -253.17578125 99.05664062 C-256.98942834 99.79576024 -256.98942834 99.79576024 -260.5859375 101.2109375 C-260.68620102 105.81496103 -260.75804883 110.41832382 -260.80566406 115.02319336 C-260.82555115 116.58352757 -260.85267102 118.14378959 -260.88769531 119.70385742 C-261.13530202 131.03186435 -260.77892981 141.59042333 -254.5078125 151.4921875 C-246.72886098 159.43903006 -240.72349717 163.68180533 -229.5859375 165.2109375 C-228.73905524 156.00277321 -229.31370397 150.38340821 -234.76953125 142.85546875 C-243.6458047 129.93237815 -243.9280776 112.14208067 -241.5859375 97.2109375 C-244.81477952 97.2109375 -247.93106506 98.01451453 -251.0859375 98.6484375 Z M80.4140625 98.6484375 C79.28871094 98.85049805 79.28871094 98.85049805 78.140625 99.05664062 C74.47181501 99.45877868 74.47181501 99.45877868 71.4140625 101.2109375 C71.27558929 103.58007094 71.20088447 105.91782639 71.17578125 108.2890625 C71.1677095 109.01148132 71.15963776 109.73390015 71.15132141 110.47821045 C71.13744957 112.01832669 71.12674137 113.55847408 71.11889648 115.09863281 C71.1019352 117.4101447 71.05811652 119.72012867 71.01367188 122.03125 C70.89946587 132.93924837 71.6134111 144.80119175 78.81640625 153.65625 C85.09551414 159.76648212 93.33533725 165.2109375 102.4140625 165.2109375 C103.25438772 156.07406808 102.73122162 150.57190586 97.30078125 143.13671875 C90.40727338 132.44678625 89.24135511 119.67600789 89.3515625 107.2734375 C89.35607422 106.30341797 89.36058594 105.33339844 89.36523438 104.33398438 C89.376931 101.9595699 89.39332164 99.58528729 89.4140625 97.2109375 C86.43870822 97.2109375 83.34636106 98.10681878 80.4140625 98.6484375 Z M-135.5859375 113.2109375 C-135.82376953 114.71720703 -135.82376953 114.71720703 -136.06640625 116.25390625 C-138.62503402 131.61890063 -143.29288864 145.91788864 -154.5859375 157.2109375 C-154.82806623 159.19222258 -154.82806623 159.19222258 -154.7109375 161.3359375 C-154.6490625 163.2540625 -154.6490625 163.2540625 -154.5859375 165.2109375 C-145.81328959 164.9185159 -138.10831786 162.14168029 -131.40625 156.31640625 C-124.14467396 148.41593618 -120.75200937 139.46422956 -120.69140625 128.76171875 C-122.48151243 121.65601344 -128.89427225 117.40598957 -134.5859375 113.2109375 C-134.9159375 113.2109375 -135.2459375 113.2109375 -135.5859375 113.2109375 Z M196.4140625 113.2109375 C196.18332031 114.44328125 195.95257813 115.675625 195.71484375 116.9453125 C193.08503699 130.51753359 190.15966251 142.02232603 180.71630859 152.49755859 C178.11006156 155.54754802 177.12541693 157.66919441 177.12109375 161.6015625 C177.21777344 162.79265625 177.31445312 163.98375 177.4140625 165.2109375 C186.18671041 164.9185159 193.89168214 162.14168029 200.59375 156.31640625 C205.72298213 150.73588975 209.11615965 144.6850677 210.4140625 137.2109375 C210.59710938 136.32277344 210.78015625 135.43460938 210.96875 134.51953125 C211.42898883 130.3942198 211.71281713 126.98224017 209.14990234 123.48681641 C205.58736737 119.64362982 201.60230716 116.34794943 197.4140625 113.2109375 C197.0840625 113.2109375 196.7540625 113.2109375 196.4140625 113.2109375 Z M-53.5859375 159.2109375 C-56.13153556 178.7206054 -50.66138112 189.65319508 -39.2109375 205.0859375 C-37.82588493 207.04084769 -36.44563812 208.99917199 -35.0703125 210.9609375 C-32.56672695 214.50020542 -30.04929034 218.02679903 -27.47509766 221.51513672 C-26.96435699 222.20743378 -26.45361633 222.89973083 -25.92739868 223.61300659 C-24.65733414 225.34086114 -24.65733414 225.34086114 -22.5859375 226.2109375 C-21.59757384 224.36853379 -20.60931624 222.52607318 -19.62109375 220.68359375 C-19.3120813 220.10822372 -19.00306885 219.5328537 -18.68469238 218.94004822 C-16.97597439 215.75674202 -15.27399469 212.57010564 -13.58374023 209.37695312 C-7.73746156 198.35464663 -7.73746156 198.35464663 -4.5859375 193.26953125 C1.93495154 182.55610735 2.45417381 173.62806884 1.4140625 161.2109375 C0.7128125 161.41589844 0.0115625 161.62085938 -0.7109375 161.83203125 C-6.30354362 163.42014902 -11.7618699 164.85828754 -17.5859375 165.2109375 C-18.44316406 165.26378906 -19.30039062 165.31664062 -20.18359375 165.37109375 C-30.16703524 165.68013703 -40.47678308 164.23543219 -49.82714844 160.65161133 C-50.53482361 160.38173904 -51.24249878 160.11186676 -51.97161865 159.83381653 C-52.50434387 159.62826645 -53.03706909 159.42271637 -53.5859375 159.2109375 Z M-217.5859375 163.2109375 C-219.46908836 179.55945425 -219.46908836 179.55945425 -213.44189453 194.27050781 C-211.14037882 197.01674518 -208.77020478 199.68014011 -206.31787109 202.29248047 C-203.60457408 205.29799047 -201.32483365 208.57360739 -199.0234375 211.8984375 C-198.2513455 212.98570792 -197.47921246 214.07294919 -196.70703125 215.16015625 C-195.6116045 216.7357148 -194.51987983 218.31517232 -193.49267578 219.93603516 C-192.56958529 221.39110495 -191.58272117 222.80532501 -190.5859375 224.2109375 C-189.9259375 224.2109375 -189.2659375 224.2109375 -188.5859375 224.2109375 C-187.32746206 222.64840498 -187.32746206 222.64840498 -186.1171875 220.58203125 C-185.39063965 219.41281128 -185.39063965 219.41281128 -184.64941406 218.2199707 C-183.59346713 216.48319853 -182.53814397 214.74604697 -181.48339844 213.00854492 C-179.01821296 208.98288672 -176.59295509 205.08630136 -173.5703125 201.453125 C-164.74719001 190.58468418 -165.49134845 179.7653179 -166.5859375 166.2109375 C-167.32457031 166.48808594 -168.06320313 166.76523437 -168.82421875 167.05078125 C-184.28052391 172.56948741 -198.16750614 172.1307388 -213.2578125 165.33203125 C-214.70536503 164.63497156 -216.14891265 163.92944992 -217.5859375 163.2109375 Z M114.4140625 163.2109375 C113.10879012 174.38320842 111.98706742 185.23094493 118.76416016 194.78466797 C121.24245731 197.88863143 123.80146049 200.90549613 126.43310547 203.88037109 C129.80055515 207.84212542 132.69965058 212.13194808 135.6640625 216.3984375 C136.72431868 217.91798737 137.79136532 219.43283686 138.8671875 220.94140625 C139.53476074 221.89116333 139.53476074 221.89116333 140.21582031 222.86010742 C140.61124023 223.30588135 141.00666016 223.75165527 141.4140625 224.2109375 C142.0740625 224.2109375 142.7340625 224.2109375 143.4140625 224.2109375 C145.00279951 221.88588199 146.47109316 219.56231748 147.9140625 217.1484375 C148.80792793 215.6836931 149.70381648 214.22018169 150.6015625 212.7578125 C151.06304687 212.00564453 151.52453125 211.25347656 152 210.47851562 C154.23035002 206.90194604 156.56437681 203.39736939 158.9140625 199.8984375 C159.33494141 199.27122803 159.75582031 198.64401855 160.18945312 197.99780273 C161.26280979 196.40116273 162.33830221 194.80595901 163.4140625 193.2109375 C165.68004698 189.81196077 165.65148904 188.64774577 165.609375 184.66796875 C165.59970703 183.05825195 165.59970703 183.05825195 165.58984375 181.41601562 C165.57308594 180.29646484 165.55632812 179.17691406 165.5390625 178.0234375 C165.53003906 176.89228516 165.52101563 175.76113281 165.51171875 174.59570312 C165.48813112 171.80056922 165.4552155 169.00585905 165.4140625 166.2109375 C164.59164062 166.48808594 163.76921875 166.76523437 162.921875 167.05078125 C145.32748075 172.7598168 131.09870273 171.55325761 114.4140625 163.2109375 Z M-77.76879883 195.38061523 C-79.34013167 195.97016732 -80.9140062 196.55299417 -82.49047852 197.12866211 C-95.79672322 201.98859021 -107.25298187 207.33991256 -113.8046875 220.6953125 C-117.08037917 228.41658572 -117.73687898 235.78208386 -117.69946289 244.08374023 C-117.69960892 244.94307663 -117.69975494 245.80241302 -117.6999054 246.68778992 C-117.69921295 249.50673005 -117.69145203 252.32560276 -117.68359375 255.14453125 C-117.68172719 257.10750797 -117.68030441 259.07048517 -117.67930603 261.03346252 C-117.67549956 266.18400371 -117.66568533 271.33451641 -117.65460205 276.48504639 C-117.64254268 282.67341269 -117.63797678 288.86178856 -117.63214874 295.05016327 C-117.62247251 304.43710778 -117.60330287 313.82398988 -117.5859375 323.2109375 C-104.7159375 323.2109375 -91.8459375 323.2109375 -78.5859375 323.2109375 C-78.52535156 319.25222656 -78.46476562 315.29351562 -78.40234375 311.21484375 C-78.34061203 307.39898658 -78.27720046 303.58316079 -78.21362305 299.76733398 C-78.1701957 297.10655485 -78.1285266 294.44574643 -78.08862305 291.78491211 C-78.03110878 287.96979935 -77.96736082 284.15483508 -77.90234375 280.33984375 C-77.88563126 279.14194717 -77.86891876 277.9440506 -77.85169983 276.70985413 C-77.83175461 275.6087883 -77.81180939 274.50772247 -77.79125977 273.37329102 C-77.77571548 272.39844254 -77.7601712 271.42359406 -77.74415588 270.41920471 C-77.5859375 268.2109375 -77.5859375 268.2109375 -76.5859375 267.2109375 C-73.1484375 266.9609375 -73.1484375 266.9609375 -69.5859375 267.2109375 C-67.38690924 270.50947988 -67.32183957 271.57514206 -67.26708984 275.41674805 C-67.24702881 276.49243042 -67.22696777 277.56811279 -67.20629883 278.6763916 C-67.18925903 280.3699176 -67.18925903 280.3699176 -67.171875 282.09765625 C-67.15423096 283.13651978 -67.13658691 284.1753833 -67.1184082 285.24572754 C-67.05529847 289.12980616 -67.00914133 293.01414529 -66.9609375 296.8984375 C-66.8371875 305.5815625 -66.7134375 314.2646875 -66.5859375 323.2109375 C-38.2059375 323.2109375 -9.8259375 323.2109375 19.4140625 323.2109375 C19.66370009 305.90382815 19.66370009 305.90382815 19.89208984 288.59643555 C19.92728812 286.4301631 19.96320851 284.26390222 20 282.09765625 C20.01703979 280.40413025 20.01703979 280.40413025 20.03442383 278.6763916 C20.05448486 277.60070923 20.0745459 276.52502686 20.09521484 275.41674805 C20.10853851 274.48187057 20.12186218 273.5469931 20.1355896 272.58378601 C20.4140625 270.2109375 20.4140625 270.2109375 22.4140625 267.2109375 C25.9765625 266.9609375 25.9765625 266.9609375 29.4140625 267.2109375 C31.10641883 268.90329383 30.58240059 271.05385479 30.61938477 273.37329102 C30.63932999 274.47435684 30.65927521 275.57542267 30.67982483 276.70985413 C30.70489357 278.50669899 30.70489357 278.50669899 30.73046875 280.33984375 C30.75124985 281.55921127 30.77203094 282.7785788 30.79344177 284.03489685 C30.85906678 287.94768395 30.91788222 291.86054067 30.9765625 295.7734375 C31.01973541 298.41862712 31.06334928 301.06380959 31.10742188 303.70898438 C31.2155948 310.20956498 31.31457214 316.7101949 31.4140625 323.2109375 C44.2840625 323.2109375 57.1540625 323.2109375 70.4140625 323.2109375 C70.47229238 307.99219486 70.47229238 307.99219486 70.51171875 292.7734375 C70.52364629 286.56083738 70.53771434 280.34829655 70.56494141 274.13574219 C70.58676828 269.12366971 70.59865181 264.11166088 70.60381699 259.09954453 C70.60749513 257.19311395 70.61467737 255.28668663 70.62552261 253.38028336 C70.71117234 237.69204818 70.47913445 222.72983137 59.2890625 210.3359375 C50.82443313 202.93828836 39.43975072 199.57144832 28.94677734 196.05859375 C26.75426629 195.32428365 24.56640882 194.57720983 22.37890625 193.828125 C20.98201787 193.35343906 19.58489132 192.87945332 18.1875 192.40625 C17.53550629 192.18446075 16.88351257 191.96267151 16.21176147 191.73416138 C12.88525591 190.5861936 12.88525591 190.5861936 9.4140625 190.2109375 C9.02250977 190.97422363 8.63095703 191.73750977 8.22753906 192.52392578 C7.04936873 194.81802219 5.86955652 197.11122091 4.68798828 199.40356445 C3.32549684 202.04716674 1.97091825 204.69464135 0.62060547 207.34448242 C-2.48594645 213.41325227 -5.61843197 219.39555318 -9.21875 225.19140625 C-17.04765675 237.94652144 -19.22992612 248.01808354 -18.34399414 263.01635742 C-18.5859375 265.2109375 -18.5859375 265.2109375 -19.89624023 267.02075195 C-21.5859375 268.2109375 -21.5859375 268.2109375 -24.7109375 268.0234375 C-25.6596875 267.7553125 -26.6084375 267.4871875 -27.5859375 267.2109375 C-28.88151098 264.61979053 -28.37857885 263.45986914 -27.8828125 260.62109375 C-25.09854763 235.00502455 -42.72521261 216.560493 -57.20672607 197.1416626 C-58.5859375 195.2109375 -58.5859375 195.2109375 -60.37353516 192.15185547 C-60.77362793 191.51135254 -61.1737207 190.87084961 -61.5859375 190.2109375 C-66.87637641 190.2109375 -72.83130275 193.51826668 -77.76879883 195.38061523 Z M-226.5859375 196.2109375 C-230.80744733 197.18671228 -234.76786145 199.01197139 -238.7734375 200.6484375 C-240.44116211 201.28942383 -240.44116211 201.28942383 -242.14257812 201.94335938 C-253.77962193 206.62160256 -261.52495292 213.27650913 -266.75390625 224.734375 C-274.7685971 248.59030927 -268.5859375 275.04467299 -268.5859375 300.2109375 C-222.3859375 300.2109375 -176.1859375 300.2109375 -128.5859375 300.2109375 C-128.41563163 276.35302373 -128.41563163 276.35302373 -128.28808594 252.49487305 C-128.24267578 247.84729004 -128.24267578 247.84729004 -128.21636963 245.66145325 C-128.20189606 244.15698844 -128.19498948 242.65243775 -128.19439697 241.14790344 C-128.18436755 231.74342533 -127.3824491 223.95162289 -123.5859375 215.2109375 C-123.22353684 213.88520953 -122.87951379 212.55358483 -122.5859375 211.2109375 C-130.82519643 204.16361476 -146.67324388 197.2109375 -157.5859375 197.2109375 C-159.13387484 198.73937212 -159.13387484 198.73937212 -160.36328125 200.8828125 C-160.87084961 201.68098389 -161.37841797 202.47915527 -161.90136719 203.30151367 C-162.43665039 204.17912354 -162.97193359 205.0567334 -163.5234375 205.9609375 C-170.27722919 216.96160828 -170.27722919 216.96160828 -174.29296875 221.83203125 C-185.59254057 236.06492471 -185.22968946 249.95077718 -184.58691406 267.38549805 C-184.5865918 268.31789307 -184.58626953 269.25028809 -184.5859375 270.2109375 C-185.5859375 271.2109375 -185.5859375 271.2109375 -189.0234375 271.4609375 C-190.1990625 271.3784375 -191.3746875 271.2959375 -192.5859375 271.2109375 C-195.04866691 267.51684338 -194.71768457 265.96628422 -194.5078125 261.5859375 C-193.98854512 244.15461554 -195.15076986 232.67046631 -207.578125 219.45117188 C-211.16252717 215.45184378 -214.16870469 211.02300809 -217.2734375 206.6484375 C-218.41630147 205.05883614 -219.56551713 203.47377144 -220.72265625 201.89453125 C-221.20436279 201.22993896 -221.68606934 200.56534668 -222.18237305 199.88061523 C-223.67013117 197.95260252 -223.67013117 197.95260252 -226.5859375 196.2109375 Z M105.4140625 196.2109375 C102.75265277 196.78720058 102.75265277 196.78720058 99.86328125 198.02734375 C98.22649414 198.67993164 98.22649414 198.67993164 96.55664062 199.34570312 C94.84637695 200.05243164 94.84637695 200.05243164 93.1015625 200.7734375 C91.40870117 201.43956055 91.40870117 201.43956055 89.68164062 202.11914062 C83.79613785 204.50590426 78.9708648 206.75091684 74.4140625 211.2109375 C74.76339844 212.03078125 75.11273438 212.850625 75.47265625 213.6953125 C76.15521484 215.31179688 76.15521484 215.31179688 76.8515625 216.9609375 C77.30402344 218.02828125 77.75648438 219.095625 78.22265625 220.1953125 C80.15806006 225.09410509 80.55543225 229.06728808 80.61938477 234.36621094 C80.62941749 235.09028263 80.63945021 235.81435432 80.64978695 236.56036758 C80.68109164 238.89698368 80.70590984 241.23361679 80.73046875 243.5703125 C80.74887961 245.01579328 80.76771669 246.4612687 80.7869873 247.90673828 C80.85534379 253.25807454 80.91545493 258.60951356 80.9765625 263.9609375 C81.1209375 275.9234375 81.2653125 287.8859375 81.4140625 300.2109375 C127.6140625 300.2109375 173.8140625 300.2109375 221.4140625 300.2109375 C226.28982867 257.99130389 226.28982867 257.99130389 211.99804688 212.63476562 C205.50460181 206.79787111 197.15480915 203.67368837 189.0390625 200.8359375 C188.06839844 200.48144531 187.09773438 200.12695312 186.09765625 199.76171875 C181.92270085 198.27025192 178.89885942 197.2109375 174.4140625 197.2109375 C172.76391462 199.177642 171.45840951 201.00481365 170.11328125 203.16796875 C169.7138179 203.78556564 169.31435455 204.40316254 168.90278625 205.03947449 C167.62235503 207.02591587 166.36189512 209.02419785 165.1015625 211.0234375 C164.26495571 212.32829798 163.42707776 213.63234439 162.58789062 214.93554688 C161.34664775 216.8636301 160.11229556 218.7945472 158.89770508 220.73954773 C157.11204897 223.5987222 155.31584914 226.34074672 153.27929688 229.0324707 C147.44978503 236.92028751 147.42907652 244.37069415 147.5390625 253.7734375 C147.5323215 255.96161511 147.51603951 258.14952891 147.49703979 260.33763123 C147.48501072 262.29870327 147.49601353 264.25987682 147.50830078 266.22094727 C147.4140625 269.2109375 147.4140625 269.2109375 146.4140625 271.2109375 C143.0390625 271.3984375 143.0390625 271.3984375 139.4140625 271.2109375 C136.95073107 267.51594036 137.29321512 265.99885738 137.52734375 261.62109375 C138.10033857 244.78633167 137.38105406 233.73329323 125.5703125 220.7265625 C124.87808594 219.99244141 124.18585938 219.25832031 123.47265625 218.50195312 C119.9974458 214.6343802 117.11849321 210.35581359 114.1640625 206.0859375 C113.12358139 204.59966998 112.07722487 203.11748798 111.0234375 201.640625 C110.3732666 200.71612549 110.3732666 200.71612549 109.70996094 199.77294922 C108.31182352 197.93608932 108.31182352 197.93608932 105.4140625 196.2109375 Z " fill="#000000" transform="translate(279.5859375,177.7890625)"/>
<path d="M0 0 C1.44789917 -0.00218285 1.44789917 -0.00218285 2.92504883 -0.00440979 C4.96601377 -0.00274968 7.00699109 0.00882407 9.04785156 0.02954102 C12.17566995 0.05848428 15.30179299 0.05015458 18.4296875 0.03710938 C20.41146659 0.04334699 22.39324032 0.05173811 24.375 0.0625 C25.31255127 0.05956436 26.25010254 0.05662872 27.21606445 0.05360413 C28.52256958 0.07263039 28.52256958 0.07263039 29.85546875 0.09204102 C30.62141357 0.097444 31.3873584 0.10284698 32.17651367 0.1084137 C34.72673467 0.60004797 35.60526595 1.47175736 37.1875 3.49609375 C37.88842773 5.96044922 37.88842773 5.96044922 38.37109375 8.86328125 C40.06713497 20.57929066 40.06713497 20.57929066 46.0703125 30.2265625 C51.13450356 32.34804794 54.87863246 32.87116429 60.1875 31.49609375 C62.33197388 30.38266995 62.33197388 30.38266995 64.3671875 28.95703125 C65.13160156 28.45945312 65.89601563 27.961875 66.68359375 27.44921875 C68.26773078 26.39832982 69.84592065 25.33841968 71.41796875 24.26953125 C72.18496094 23.77453125 72.95195312 23.27953125 73.7421875 22.76953125 C74.42780762 22.30981934 75.11342773 21.85010742 75.81982422 21.37646484 C79.37449647 20.05473375 81.54728515 20.49182905 85.1875 21.49609375 C87.66076622 23.14281785 89.66894566 25.13499212 91.7421875 27.25390625 C92.32920441 27.8351828 92.91622131 28.41645935 93.52102661 29.01535034 C94.75349874 30.24375416 95.97848493 31.47970952 97.19628906 32.72265625 C99.05710146 34.61560198 100.94776118 36.4743949 102.84375 38.33203125 C104.04099092 39.53323727 105.23636913 40.73630335 106.4296875 41.94140625 C106.99315887 42.49273224 107.55663025 43.04405823 108.13717651 43.61209106 C111.75624796 47.36332812 113.16501687 50.07647572 113.1875 55.49609375 C112.41479492 57.77197266 112.41479492 57.77197266 111.16796875 59.72265625 C110.49991211 60.80546875 110.49991211 60.80546875 109.81835938 61.91015625 C109.34205078 62.63976563 108.86574219 63.369375 108.375 64.12109375 C104.04587792 70.47505998 104.04587792 70.47505998 101.1875 77.49609375 C101.79957632 80.11951712 101.79957632 80.11951712 103.0625 82.62109375 C105.1875 87.25106064 105.1875 87.25106064 105.1875 90.49609375 C106.38246094 90.75003906 107.57742188 91.00398438 108.80859375 91.265625 C131.06939767 96.05450383 131.06939767 96.05450383 133.38745117 99.04321289 C134.59099542 102.73317598 134.49256771 106.40092661 134.48828125 110.2421875 C134.49256638 111.09031509 134.4968515 111.93844269 134.50126648 112.81227112 C134.50700135 114.60343535 134.50751625 116.39462287 134.50317383 118.18579102 C134.50001513 120.92049041 134.52347845 123.65410626 134.54882812 126.38867188 C134.5511014 128.13150906 134.55180449 129.87434914 134.55078125 131.6171875 C134.559991 132.43191025 134.56920074 133.246633 134.57868958 134.08604431 C134.54168808 138.64542425 134.34340452 141.92685551 131.1875 145.49609375 C128.67553711 146.61450195 128.67553711 146.61450195 125.71484375 147.296875 C124.65072266 147.55146484 123.58660156 147.80605469 122.49023438 148.06835938 C121.37970703 148.31263672 120.26917969 148.55691406 119.125 148.80859375 C118.01060547 149.07220703 116.89621094 149.33582031 115.74804688 149.60742188 C107.65864448 151.49609375 107.65864448 151.49609375 105.1875 151.49609375 C105.0328125 152.79546875 105.0328125 152.79546875 104.875 154.12109375 C104.1875 157.49609375 104.1875 157.49609375 102.5625 160.55859375 C100.95699969 163.98852623 101.16219366 164.946853 102.1875 168.49609375 C103.3009238 170.64056763 103.3009238 170.64056763 104.7265625 172.67578125 C105.22414063 173.44019531 105.72171875 174.20460937 106.234375 174.9921875 C107.28526393 176.57632453 108.34517407 178.1545144 109.4140625 179.7265625 C111.77601377 183.38635678 113.13727261 185.72868514 113.42578125 190.13671875 C111.76495037 194.6424429 109.23136332 197.15409064 105.75 200.37109375 C105.15123047 200.95117188 104.55246094 201.53125 103.93554688 202.12890625 C98.42886828 207.40742459 98.42886828 207.40742459 93.6875 207.74609375 C92.5325 207.66359375 91.3775 207.58109375 90.1875 207.49609375 C88.14971381 204.43941446 87.71370937 203.13027431 88.296875 199.546875 C90.2794441 194.98174877 94.53287793 191.75202977 98.1875 188.49609375 C96.34431147 183.21971341 93.32936903 178.76038581 90.2890625 174.11132812 C87.7739621 170.08961726 86.40908718 167.36745137 87.1875 162.49609375 C88.13247936 159.71765291 89.3137 157.08729375 90.5625 154.43359375 C91.19587069 153.04712986 91.82869623 151.66041678 92.4609375 150.2734375 C92.76725098 149.62342773 93.07356445 148.97341797 93.38916016 148.30371094 C94.29411752 146.35576385 94.29411752 146.35576385 95.046875 143.6328125 C96.1875 141.49609375 96.1875 141.49609375 98.8046875 140.23828125 C99.87976563 139.95210937 100.95484375 139.6659375 102.0625 139.37109375 C103.63644531 138.93410156 103.63644531 138.93410156 105.2421875 138.48828125 C110.5558895 137.15196411 115.87193596 135.82498476 121.1875 134.49609375 C121.1875 125.58609375 121.1875 116.67609375 121.1875 107.49609375 C113.75614496 105.64504129 113.75614496 105.64504129 106.3190918 103.81713867 C105.39265869 103.58099854 104.46622559 103.3448584 103.51171875 103.1015625 C102.56385498 102.86590576 101.61599121 102.63024902 100.6394043 102.38745117 C98.04330331 101.44367295 96.88212013 100.64612853 95.1875 98.49609375 C94.27965084 96.42298697 93.45382056 94.31308069 92.6875 92.18359375 C91.45736169 88.78888515 90.25897008 85.62740317 88.53125 82.453125 C86.93890531 78.94904089 86.55956857 77.30554444 87.1875 73.49609375 C88.75630054 70.27121276 90.66294154 67.30638568 92.625 64.30859375 C93.64696406 62.71249258 94.66659992 61.11489765 95.68359375 59.515625 C96.36699829 58.46532104 96.36699829 58.46532104 97.06420898 57.39379883 C98.33973774 55.3912252 98.33973774 55.3912252 99.1875 52.49609375 C98.60323242 52.23779785 98.01896484 51.97950195 97.41699219 51.71337891 C95.01033378 50.39936239 93.43430663 48.9712936 91.515625 47.01953125 C90.85175781 46.34921875 90.18789063 45.67890625 89.50390625 44.98828125 C88.82199219 44.28960937 88.14007813 43.5909375 87.4375 42.87109375 C86.39142578 41.81148437 86.39142578 41.81148437 85.32421875 40.73046875 C83.60737512 38.99010672 81.89538168 37.24524394 80.1875 35.49609375 C74.91111966 37.33928228 70.45179206 40.35422472 65.80273438 43.39453125 C61.78045237 45.90998883 59.05990706 47.2693919 54.1875 46.49609375 C51.42918544 45.57365283 48.82091848 44.41367738 46.1875 43.18359375 C45.50171875 42.87486328 44.8159375 42.56613281 44.109375 42.24804688 C42.75573171 41.63451581 41.40982709 41.00358595 40.07275391 40.35473633 C37.99584859 39.35960598 37.99584859 39.35960598 34.8984375 38.48828125 C30.37837364 35.16662049 29.98591635 30.22037943 28.8125 24.93359375 C28.55339844 23.86689453 28.29429687 22.80019531 28.02734375 21.70117188 C26.1875 14.015687 26.1875 14.015687 26.1875 11.49609375 C16.9475 11.49609375 7.7075 11.49609375 -1.8125 11.49609375 C-2.4725 15.12609375 -3.1325 18.75609375 -3.8125 22.49609375 C-6.18768628 35.08581171 -6.18768628 35.08581171 -9.6171875 38.0625 C-11.75 38.99609375 -11.75 38.99609375 -14.11328125 39.6953125 C-18.53391769 41.0067893 -22.50307832 43.33215405 -26.6015625 45.421875 C-30.636439 46.77174244 -32.7037032 46.61467294 -36.8125 45.49609375 C-40.63255978 43.54619691 -44.17738246 41.17624 -47.75976562 38.82617188 C-48.48228516 38.37306641 -49.20480469 37.91996094 -49.94921875 37.453125 C-50.59592529 37.0300708 -51.24263184 36.6070166 -51.90893555 36.17114258 C-53.82589036 35.27312813 -53.82589036 35.27312813 -55.82885742 36.15649414 C-57.95976167 37.59554295 -59.63109423 39.12012758 -61.4140625 40.97265625 C-62.06890625 41.64296875 -62.72375 42.31328125 -63.3984375 43.00390625 C-64.07132813 43.70257813 -64.74421875 44.40125 -65.4375 45.12109375 C-66.77919911 46.5136148 -68.12533265 47.90188142 -69.4765625 49.28515625 C-70.06904785 49.90084473 -70.6615332 50.5165332 -71.27197266 51.15087891 C-72.8125 52.49609375 -72.8125 52.49609375 -74.8125 52.49609375 C-73.5652532 54.70602134 -72.31479753 56.91403038 -71.0625 59.12109375 C-70.71445313 59.73855469 -70.36640625 60.35601562 -70.0078125 60.9921875 C-69.65976563 61.60449219 -69.31171875 62.21679688 -68.953125 62.84765625 C-68.60314453 63.46415039 -68.25316406 64.08064453 -67.89257812 64.71582031 C-66.6939976 66.75672529 -66.6939976 66.75672529 -64.546875 69.51953125 C-62.36832645 73.25839159 -62.27419837 75.21728592 -62.8125 79.49609375 C-63.70282364 82.31417374 -64.86956006 84.94854755 -66.125 87.62109375 C-66.5880957 88.65556641 -66.5880957 88.65556641 -67.06054688 89.7109375 C-71.66353939 99.84721153 -71.66353939 99.84721153 -74.65234375 101.53515625 C-75.34457031 101.72851562 -76.03679687 101.921875 -76.75 102.12109375 C-77.53632813 102.34667969 -78.32265625 102.57226562 -79.1328125 102.8046875 C-80.45925781 103.14693359 -80.45925781 103.14693359 -81.8125 103.49609375 C-82.84117187 103.77582031 -83.86984375 104.05554688 -84.9296875 104.34375 C-89.37162138 105.51125096 -93.19755915 106.49609375 -97.8125 106.49609375 C-97.8125 115.73609375 -97.8125 124.97609375 -97.8125 134.49609375 C-92.25046746 135.68420183 -92.25046746 135.68420183 -86.68554688 136.85864258 C-84.38223822 137.3605989 -82.0988154 137.92193995 -79.8125 138.49609375 C-79.07894287 138.65118408 -78.34538574 138.80627441 -77.58959961 138.96606445 C-74.31258576 139.8568772 -72.40677848 140.62541911 -70.45556641 143.48413086 C-69.27016885 145.97204304 -68.29801752 148.46224717 -67.375 151.05859375 C-66.86936523 152.3724707 -66.86936523 152.3724707 -66.35351562 153.71289062 C-65.73323532 155.32760829 -65.12514231 156.94709974 -64.53344727 158.57250977 C-63.83482183 160.53883728 -63.83482183 160.53883728 -62.8125 162.49609375 C-61.66405231 169.58179928 -66.30616776 174.479916 -70.078125 180.0390625 C-70.58085937 180.81121094 -71.08359375 181.58335937 -71.6015625 182.37890625 C-72.07287598 183.07387207 -72.54418945 183.76883789 -73.02978516 184.48486328 C-74.06878632 186.50859641 -74.06878632 186.50859641 -73.06079102 188.6328125 C-71.61276042 190.79423818 -69.95442694 192.52311278 -68.125 194.37109375 C-64.82084576 198.04542295 -64.82084576 198.04542295 -64.75 201.87109375 C-65.8125 204.49609375 -65.8125 204.49609375 -67.8125 206.49609375 C-70.4375 207.05859375 -70.4375 207.05859375 -73.8125 206.49609375 C-76.81583132 204.49184222 -79.28472632 202.06268162 -81.8125 199.49609375 C-82.49441406 198.82449219 -83.17632812 198.15289062 -83.87890625 197.4609375 C-88.63676602 192.47239362 -88.63676602 192.47239362 -89.3046875 188.76171875 C-88.61494213 184.18531294 -86.48098471 181.10980713 -83.9375 177.30859375 C-83.47730469 176.59767578 -83.01710937 175.88675781 -82.54296875 175.15429688 C-81.31271372 173.25899094 -80.06760364 171.37500264 -78.8125 169.49609375 C-76.51799238 166.76142155 -76.51799238 166.76142155 -77.10571289 164.12695312 C-77.33895264 163.25876953 -77.57219238 162.39058594 -77.8125 161.49609375 C-78.08404907 160.23249023 -78.08404907 160.23249023 -78.36108398 158.94335938 C-79.21584214 156.0855621 -80.0832517 153.93812592 -81.8125 151.49609375 C-85.66609212 149.45950344 -89.60672172 148.74799245 -93.875 147.99609375 C-96.05423731 147.55234034 -98.23266796 147.10460155 -100.41015625 146.65234375 C-101.37445557 146.47509766 -102.33875488 146.29785156 -103.33227539 146.11523438 C-105.8125 145.49609375 -105.8125 145.49609375 -108.8125 143.49609375 C-110.13281588 139.53514612 -109.99489569 135.7247036 -110.015625 131.59375 C-110.02132507 130.71963974 -110.02702515 129.84552948 -110.03289795 128.94493103 C-110.04234088 127.09651905 -110.04887912 125.24809028 -110.05273438 123.3996582 C-110.06245123 120.57278143 -110.09348546 117.74662838 -110.125 114.91992188 C-110.1315292 113.12370223 -110.13677999 111.32747739 -110.140625 109.53125 C-110.1529718 108.68635513 -110.1653186 107.84146027 -110.17803955 106.97096252 C-110.16510266 103.56185184 -110.12145841 101.13200998 -108.61816406 98.0378418 C-106.34136053 96.09381606 -104.49710409 95.51326652 -101.59375 94.79296875 C-100.57925781 94.53515625 -99.56476563 94.27734375 -98.51953125 94.01171875 C-97.46121094 93.7590625 -96.40289062 93.50640625 -95.3125 93.24609375 C-93.72501953 92.84390625 -93.72501953 92.84390625 -92.10546875 92.43359375 C-84.32581314 90.49609375 -84.32581314 90.49609375 -80.8125 90.49609375 C-80.709375 89.69171875 -80.60625 88.88734375 -80.5 88.05859375 C-79.8125 84.49609375 -79.8125 84.49609375 -78.92431641 82.49145508 C-77.48494118 79.2059569 -76.4461959 76.75750695 -77.47290039 73.22192383 C-78.687083 70.90792152 -80.02626677 68.77871626 -81.5 66.62109375 C-81.97373047 65.87601562 -82.44746094 65.1309375 -82.93554688 64.36328125 C-84.19948507 62.38648902 -85.49549742 60.43776265 -86.8125 58.49609375 C-88.8125 55.49609375 -88.8125 55.49609375 -88.80834961 52.21826172 C-87.53016315 47.44080873 -85.38990081 45.2836843 -81.87890625 41.94140625 C-81.28577133 41.35438934 -80.69263641 40.76737244 -80.08152771 40.16256714 C-78.19300227 38.30087321 -76.28437402 36.46137304 -74.375 34.62109375 C-73.09438621 33.36201512 -71.81507415 32.10161104 -70.53710938 30.83984375 C-60.26779501 20.75531817 -60.26779501 20.75531817 -56.3125 20.05078125 C-50.09572845 20.84175442 -45.27413805 24.96672818 -40.15625 28.40625 C-35.30313074 31.74158341 -35.30313074 31.74158341 -29.6875 32.05078125 C-28.73875 31.53773437 -27.79 31.0246875 -26.8125 30.49609375 C-26.14452393 30.35695557 -25.47654785 30.21781738 -24.78833008 30.07446289 C-22.37599406 29.52474368 -20.81075964 28.96915923 -18.8125 27.49609375 C-17.00633656 23.83702272 -16.27800128 20.04615517 -15.5 16.05859375 C-15.05357118 13.97483287 -14.59942872 11.89270614 -14.13671875 9.8125 C-13.95197998 8.88896729 -13.76724121 7.96543457 -13.5769043 7.01391602 C-11.2620389 -0.61087058 -7.19291432 -0.08618733 0 0 Z " fill="#000000" transform="translate(243.8125,-0.49609375)"/>
<path d="M0 0 C8.2513172 6.68981295 14.3851437 16.44337738 16 27 C17.28223169 41.95241998 15.72852419 54.2954689 6.26953125 66.45703125 C-2.62181662 76.41962586 -13.51179924 82.16968411 -26.8125 83.22265625 C-41.52367769 83.66322537 -53.42036294 78.84067293 -64.1875 68.8984375 C-73.6505145 58.98674559 -76.62935036 47.40070725 -76.47045898 34.01049805 C-75.96218564 20.44163281 -70.50862345 10.02714856 -60.75 0.6875 C-55.96066319 -3.35120821 -50.8498518 -5.836956 -45 -8 C-44.34515625 -8.24621094 -43.6903125 -8.49242188 -43.015625 -8.74609375 C-28.24553798 -13.32229592 -12.15033515 -8.90881464 0 0 Z M-57.5625 14.7265625 C-63.14307723 22.00124353 -65.5098979 30.5938282 -64.78515625 39.69921875 C-63.23447508 50.28815587 -58.37313562 58.32765756 -50 65 C-41.08653475 70.47580258 -32.3769543 72.43845749 -22.03515625 70.421875 C-11.80724052 67.52594004 -4.08164925 61.11347823 1.109375 51.828125 C5.39824836 43.0246481 5.78735433 34.31127013 3 25 C-0.81966026 14.87515892 -7.43829795 8.80387278 -17 4 C-31.63781777 -1.96355539 -47.2922189 3.37790189 -57.5625 14.7265625 Z " fill="#000000" transform="translate(286,84)"/>
<path d="M0 0 C2.59393856 2.8371203 3.02858292 4.28542702 2.875 8.125 C1.53492334 12.52810903 1.53492334 12.52810903 -1 14 C-4.56377572 14.53568236 -7.7686995 14.71494868 -10.9375 12.875 C-12.46849826 10.17323836 -12.8757742 8.10564495 -13 5 C-11.75 2.1875 -11.75 2.1875 -10 0 C-6.17853346 -1.27382218 -3.89335307 -0.97333827 0 0 Z " fill="#000000" transform="translate(261,456)"/>
</svg>
